<svg version="1.1" viewBox="0.0 0.0 605.005249343832 566.6220472440945" fill="none" stroke="none" stroke-linecap="square" stroke-miterlimit="10" xmlns:xlink="http://www.w3.org/1999/xlink" xmlns="http://www.w3.org/2000/svg"><clipPath id="p.0"><path d="m0 0l605.00525 0l0 566.6221l-605.00525 0l0 -566.6221z" clip-rule="nonzero"/></clipPath><g clip-path="url(#p.0)"><path fill="#000000" fill-opacity="0.0" d="m0 0l605.00525 0l0 566.6221l-605.00525 0z" fill-rule="evenodd"/><path fill="#d9d2e9" d="m11.3202095 431.49863l0 0c0 -3.0615234 2.4818735 -5.543396 5.543419 -5.543396l189.07063 0c1.4702148 0 2.8802032 0.5840149 3.9197998 1.6236267c1.0395813 1.0395813 1.6236267 2.449585 1.6236267 3.9197693l0 22.173004c0 3.061554 -2.4818726 5.5434265 -5.5434265 5.5434265l-189.07063 0c-3.0615454 0 -5.543419 -2.4818726 -5.543419 -5.5434265z" fill-rule="evenodd"/><path stroke="#000000" stroke-width="1.0" stroke-linejoin="round" stroke-linecap="butt" d="m11.3202095 431.49863l0 0c0 -3.0615234 2.4818735 -5.543396 5.543419 -5.543396l189.07063 0c1.4702148 0 2.8802032 0.5840149 3.9197998 1.6236267c1.0395813 1.0395813 1.6236267 2.449585 1.6236267 3.9197693l0 22.173004c0 3.061554 -2.4818726 5.5434265 -5.5434265 5.5434265l-189.07063 0c-3.0615454 0 -5.543419 -2.4818726 -5.543419 -5.5434265z" fill-rule="evenodd"/><path fill="#000000" d="m32.4211 449.72388q-3.328125 0 -5.265625 -1.96875l1.4375 -2.015625q0.65625 0.6875 1.65625 1.1875q1.015625 0.484375 2.296875 0.484375q1.109375 0 1.640625 -0.40625q0.53125 -0.421875 0.53125 -0.96875q0 -0.5625 -0.625 -0.875q-0.609375 -0.328125 -2.96875 -0.875q-3.578125 -0.859375 -3.578125 -3.625q0 -1.609375 1.296875 -2.6875q1.296875 -1.09375 3.421875 -1.09375q2.96875 0 4.859375 1.734375l-1.484375 1.9375q-1.46875 -1.359375 -3.609375 -1.359375q-0.859375 0 -1.328125 0.34375q-0.453125 0.34375 -0.453125 0.90625q0 0.484375 0.53125 0.75q0.53125 0.265625 1.34375 0.453125l1.71875 0.4375q3.5625 0.90625 3.5625 3.65625q0 1.84375 -1.328125 2.921875q-1.328125 1.0625 -3.65625 1.0625zm10.943756 0q-2.125 0 -3.46875 -1.3125q-1.34375 -1.3125 -1.34375 -3.421875q0 -2.015625 1.328125 -3.359375q1.34375 -1.359375 3.34375 -1.359375q1.984375 0 3.25 1.375q1.265625 1.359375 1.265625 3.59375l0 0.515625l-6.703125 0q0.109375 0.859375 0.765625 1.484375q0.671875 0.609375 1.828125 0.609375q0.5625 0 1.25 -0.234375q0.6875 -0.234375 1.15625 -0.671875l1.046875 1.53125q-0.671875 0.625 -1.671875 0.9375q-0.984375 0.3125 -2.046875 0.3125zm2.078125 -5.578125q-0.0625 -0.890625 -0.6875 -1.4375q-0.609375 -0.546875 -1.53125 -0.546875q-0.9375 0 -1.53125 0.5625q-0.59375 0.5625 -0.6875 1.421875l4.4375 0zm4.00441 5.359375l0 -9.015625l2.375 0l0 1.234375q0.484375 -0.59375 1.25 -1.015625q0.78125 -0.4375 1.625 -0.4375l0 2.3125l-0.65625 -0.0625q-0.640625 0 -1.28125 0.3125q-0.640625 0.296875 -0.9375 0.71875l0 5.953125l-2.375 0zm9.044373 0l-3.609375 -9.015625l2.53125 0l2.359375 6.265625l2.34375 -6.265625l2.5625038 0l-3.6250038 9.015625l-2.5625 0zm8.414417 -9.984375q-0.578125 0 -1.0 -0.40625q-0.40625 -0.40625 -0.40625 -1.015625q0 -0.59375 0.40625 -0.984375q0.421875 -0.40625 1.0 -0.40625q0.609375 0 1.015625 0.40625q0.40625 0.390625 0.40625 0.984375q0 0.609375 -0.40625 1.015625q-0.40625 0.40625 -1.015625 0.40625zm-1.171875 9.984375l0 -9.015625l2.375 0l0 9.015625l-2.375 0zm8.923157 0.21875q-2.125 0 -3.453125 -1.34375q-1.328125 -1.34375 -1.328125 -3.390625q0 -2.03125 1.328125 -3.375q1.328125 -1.34375 3.453125 -1.34375q1.375 0 2.234375 0.5q0.875 0.5 1.328125 1.125l-1.546875 1.453125q-0.65625 -0.96875 -1.90625 -0.96875q-1.078125 0 -1.765625 0.71875q-0.671875 0.71875 -0.671875 1.890625q0 1.171875 0.671875 1.90625q0.6875 0.71875 1.765625 0.71875q1.21875 0 1.90625 -0.96875l1.546875 1.4375q-0.453125 0.640625 -1.328125 1.140625q-0.859375 0.5 -2.234375 0.5zm9.3407135 0q-2.125 0 -3.46875 -1.3125q-1.34375 -1.3125 -1.34375 -3.421875q0 -2.015625 1.328125 -3.359375q1.34375 -1.359375 3.34375 -1.359375q1.984375 0 3.25 1.375q1.265625 1.359375 1.265625 3.59375l0 0.515625l-6.703125 0q0.109375 0.859375 0.765625 1.484375q0.671875 0.609375 1.828125 0.609375q0.5625 0 1.25 -0.234375q0.6875 -0.234375 1.15625 -0.671875l1.046875 1.53125q-0.671875 0.625 -1.671875 0.9375q-0.984375 0.3125 -2.046875 0.3125zm2.078125 -5.578125q-0.0625 -0.890625 -0.6875 -1.4375q-0.609375 -0.546875 -1.53125 -0.546875q-0.9375 0 -1.53125 0.5625q-0.59375 0.5625 -0.6875 1.421875l4.4375 0zm14.858536 5.578125q-2.890625 0 -4.75 -1.828125q-1.859375 -1.84375 -1.859375 -4.609375q0 -1.828125 0.859375 -3.3125q0.875 -1.5 2.390625 -2.3125q1.53125 -0.8125 3.359375 -0.8125q3.4375 0 5.21875 3.046875l-2.28125 1.125q-0.390625 -0.765625 -1.171875 -1.28125q-0.78125 -0.53125 -1.765625 -0.53125q-1.6875 0 -2.796875 1.171875q-1.09375 1.15625 -1.09375 2.90625q0 1.8125 1.109375 2.953125q1.125 1.140625 2.78125 1.140625q0.984375 0 1.765625 -0.515625q0.78125 -0.515625 1.171875 -1.296875l2.28125 1.109375q-1.78125 3.046875 -5.21875 3.046875zm12.144974 -0.21875l0 -0.9375q-0.984375 1.15625 -2.84375 1.15625q-1.3125 0 -2.234375 -0.828125q-0.90625 -0.828125 -0.90625 -2.15625q0 -1.3125 0.859375 -2.109375q0.875 -0.796875 2.28125 -0.796875q1.9375 0 2.84375 1.09375l0 -1.203125q0 -0.6875 -0.546875 -1.09375q-0.53125 -0.421875 -1.421875 -0.421875q-1.5 0 -2.625 1.0625l-0.90625 -1.578125q1.640625 -1.421875 3.9375 -1.421875q1.90625 0 2.921875 0.890625q1.015625 0.875 1.015625 2.515625l0 5.828125l-2.375 0zm-1.890625 -1.375q1.296875 0 1.890625 -0.796875l0 -1.109375q-0.59375 -0.78125 -1.890625 -0.78125q-0.71875 0 -1.21875 0.359375q-0.484375 0.34375 -0.484375 1.0q0 0.625 0.484375 0.984375q0.5 0.34375 1.21875 0.34375zm9.645966 1.59375q-2.5625 0 -2.5625 -2.453125l0 -4.703125l-1.484375 0l0 -2.078125l1.484375 0l0 -2.453125l2.390625 0l0 2.453125l1.828125 0l0 2.078125l-1.828125 0l0 4.0625q0 0.4375 0.203125 0.71875q0.21875 0.265625 0.609375 0.265625q0.5625 0 0.828125 -0.25l0.5 1.78125q-0.609375 0.578125 -1.96875 0.578125zm8.680809 -0.21875l0 -0.9375q-0.984375 1.15625 -2.8437424 1.15625q-1.3125 0 -2.234375 -0.828125q-0.90625 -0.828125 -0.90625 -2.15625q0 -1.3125 0.859375 -2.109375q0.875 -0.796875 2.28125 -0.796875q1.9374924 0 2.8437424 1.09375l0 -1.203125q0 -0.6875 -0.546875 -1.09375q-0.53125 -0.421875 -1.4218674 -0.421875q-1.5 0 -2.625 1.0625l-0.90625 -1.578125q1.640625 -1.421875 3.9375 -1.421875q1.9062424 0 2.9218674 0.890625q1.015625 0.875 1.015625 2.515625l0 5.828125l-2.375 0zm-1.8906174 -1.375q1.2968674 0 1.8906174 -0.796875l0 -1.109375q-0.59375 -0.78125 -1.8906174 -0.78125q-0.71875 0 -1.21875 0.359375q-0.484375 0.34375 -0.484375 1.0q0 0.625 0.484375 0.984375q0.5 0.34375 1.21875 0.34375zm6.614708 1.375l0 -12.4375l2.375 0l0 12.4375l-2.375 0zm8.907532 0.21875q-2.09375 0 -3.4375 -1.34375q-1.328125 -1.34375 -1.328125 -3.390625q0 -2.046875 1.328125 -3.375q1.34375 -1.34375 3.4375 -1.34375q2.078125 0 3.421875 1.34375q1.34375 1.328125 1.34375 3.375q0 2.078125 -1.34375 3.40625q-1.34375 1.328125 -3.421875 1.328125zm0 -2.109375q1.015625 0 1.65625 -0.734375q0.65625 -0.734375 0.65625 -1.890625q0 -1.125 -0.65625 -1.859375q-0.640625 -0.75 -1.65625 -0.75q-1.0 0 -1.65625 0.71875q-0.640625 0.71875 -0.640625 1.890625q0 1.1875 0.640625 1.90625q0.65625 0.71875 1.65625 0.71875zm10.224319 5.546875q-1.1875 0 -2.109375 -0.296875q-0.921875 -0.296875 -1.78125 -1.046875l1.0625 -1.71875q1.015625 1.125 2.828125 1.125q1.171875 0 1.8125 -0.609375q0.65625 -0.59375 0.65625 -1.671875l0 -0.90625q-1.125 1.40625 -2.765625 1.40625q-1.8125 0 -2.90625 -1.234375q-1.078125 -1.234375 -1.078125 -3.34375q0 -2.09375 1.078125 -3.34375q1.078125 -1.25 2.90625 -1.25q1.6875 0 2.765625 1.375l0 -1.15625l2.390625 0l0 8.40625q0 2.046875 -1.265625 3.15625q-1.265625 1.109375 -3.59375 1.109375zm0.4375 -5.828125q0.59375 0 1.15625 -0.296875q0.578125 -0.296875 0.875 -0.71875l0 -2.90625q-0.296875 -0.453125 -0.875 -0.734375q-0.5625 -0.296875 -1.15625 -0.296875q-1.0 0 -1.640625 0.65625q-0.625 0.640625 -0.625 1.828125q0 1.171875 0.625 1.828125q0.640625 0.640625 1.640625 0.640625zm14.096161 5.890625q-1.390625 -1.578125 -2.171875 -3.796875q-0.78125 -2.21875 -0.78125 -4.453125q0 -2.265625 0.78125 -4.46875q0.78125 -2.21875 2.171875 -3.78125l1.484375 1.125q-1.0625 1.953125 -1.46875 3.625q-0.40625 1.65625 -0.40625 3.5q0 1.90625 0.421875 3.59375q0.421875 1.671875 1.453125 3.5l-1.484375 1.15625zm5.322159 -3.71875l-3.609375 -9.015625l2.53125 0l2.359375 6.265625l2.34375 -6.265625l2.5625 0l-3.625 9.015625l-2.5625 0zm6.9456635 0l0 -2.078125q4.40625 -3.28125 5.5 -4.421875q1.09375 -1.15625 1.09375 -2.15625q0 -0.734375 -0.5625 -1.171875q-0.5625 -0.453125 -1.453125 -0.453125q-1.953125 0 -3.34375 1.4375l-1.515625 -1.75q0.921875 -1.0625 2.203125 -1.546875q1.28125 -0.484375 2.59375 -0.484375q2.109375 0 3.4375 1.109375q1.328125 1.09375 1.328125 2.859375q0 1.421875 -1.140625 2.890625q-1.125 1.46875 -3.84375 3.4375l5.078125 0l0 2.328125l-9.375 0zm10.631256 2.5625q0.953125 -1.640625 1.421875 -3.296875q0.484375 -1.65625 0.484375 -3.796875q0 -2.046875 -0.453125 -3.6875q-0.4375 -1.65625 -1.453125 -3.4375l1.5 -1.125q1.34375 1.5 2.15625 3.71875q0.828125 2.203125 0.828125 4.53125q0 2.3125 -0.828125 4.53125q-0.8125 2.21875 -2.15625 3.71875l-1.5 -1.15625z" fill-rule="nonzero"/><path fill="#f4cccc" d="m143.91864 514.5067l0 0c0 -4.705353 3.8144684 -8.519836 8.519852 -8.519836l109.92091 0c2.259613 0 4.4266663 0.8976135 6.0244446 2.4953918c1.5977783 1.5978088 2.4954224 3.764862 2.4954224 6.0244446l0 34.07843c0 4.7053833 -3.8144836 8.519836 -8.519867 8.519836l-109.92091 0l0 0c-4.7053833 0 -8.519852 -3.8144531 -8.519852 -8.519836z" fill-rule="evenodd"/><path stroke="#000000" stroke-width="1.0" stroke-linejoin="round" stroke-linecap="butt" d="m143.91864 514.5067l0 0c0 -4.705353 3.8144684 -8.519836 8.519852 -8.519836l109.92091 0c2.259613 0 4.4266663 0.8976135 6.0244446 2.4953918c1.5977783 1.5978088 2.4954224 3.764862 2.4954224 6.0244446l0 34.07843c0 4.7053833 -3.8144836 8.519836 -8.519867 8.519836l-109.92091 0l0 0c-4.7053833 0 -8.519852 -3.8144531 -8.519852 -8.519836z" fill-rule="evenodd"/><path fill="#000000" d="m186.08603 528.09344q-2.578125 0 -4.09375 -1.6875l0.78125 -1.015625q0.65625 0.734375 1.53125 1.140625q0.890625 0.390625 1.828125 0.390625q1.15625 0 1.828125 -0.515625q0.6875 -0.515625 0.6875 -1.328125q0 -1.265625 -1.984375 -1.8125q-2.359375 -0.625 -3.015625 -0.984375q-0.640625 -0.375 -0.984375 -0.921875q-0.34375 -0.5625 -0.34375 -1.328125q0 -1.28125 1.03125 -2.109375q1.046875 -0.84375 2.640625 -0.84375q2.40625 0 3.796875 1.484375l-0.8125 0.96875q-1.140625 -1.265625 -3.078125 -1.265625q-0.96875 0 -1.59375 0.46875q-0.609375 0.453125 -0.609375 1.21875q0 0.5625 0.515625 0.953125q0.515625 0.390625 1.484375 0.625q2.28125 0.625 2.9375 1.03125q0.671875 0.40625 1.03125 0.984375q0.359375 0.578125 0.359375 1.421875q0 1.46875 -1.078125 2.296875q-1.0625 0.828125 -2.859375 0.828125zm9.360397 0q-1.75 0 -2.84375 -1.125q-1.09375 -1.140625 -1.09375 -2.9375q0 -1.703125 1.078125 -2.875q1.09375 -1.171875 2.734375 -1.171875q1.65625 0 2.671875 1.15625q1.03125 1.15625 1.03125 2.984375l0 0.3125l-6.25 0q0.0625 1.1875 0.84375 1.9375q0.796875 0.734375 1.9375 0.734375q1.40625 0 2.390625 -0.984375l0.578125 0.796875q-1.1875 1.171875 -3.078125 1.171875zm2.40625 -4.546875q0 -1.0625 -0.703125 -1.8125q-0.703125 -0.75 -1.84375 -0.75q-1.078125 0 -1.796875 0.75q-0.703125 0.75 -0.734375 1.8125l5.078125 0zm3.1173859 4.359375l0 -7.734375l1.203125 0l0 1.25q1.0625 -1.40625 2.5625 -1.40625l0 1.234375l-0.46875 -0.046875q-0.546875 0 -1.203125 0.390625q-0.65625 0.390625 -0.890625 0.84375l0 5.46875l-1.203125 0zm7.342514 0l-3.21875 -7.734375l1.296875 0l2.578125 6.34375l2.5625 -6.34375l1.3125 0l-3.21875 7.734375l-1.3125 0zm6.3712616 -8.828125q-0.328125 0 -0.578125 -0.234375q-0.234375 -0.234375 -0.234375 -0.5625q0 -0.34375 0.234375 -0.578125q0.25 -0.25 0.578125 -0.25q0.328125 0 0.5625 0.25q0.25 0.234375 0.25 0.578125q0 0.328125 -0.25 0.5625q-0.234375 0.234375 -0.5625 0.234375zm-0.59375 8.828125l0 -7.734375l1.203125 0l0 7.734375l-1.203125 0zm7.006256 0.1875q-1.703125 0 -2.78125 -1.140625q-1.078125 -1.15625 -1.078125 -2.921875q0 -1.734375 1.078125 -2.890625q1.078125 -1.15625 2.78125 -1.15625q1.796875 0 2.828125 1.34375l-0.796875 0.734375q-0.734375 -1.0 -1.96875 -1.0q-1.1875 0 -1.9375 0.828125q-0.734375 0.8125 -0.734375 2.140625q0 1.34375 0.734375 2.171875q0.734375 0.828125 1.9375 0.828125q1.21875 0 1.96875 -1.015625l0.796875 0.734375q-1.03125 1.34375 -2.828125 1.34375zm7.9981384 0q-1.75 0 -2.84375 -1.125q-1.09375 -1.140625 -1.09375 -2.9375q0 -1.703125 1.078125 -2.875q1.09375 -1.171875 2.734375 -1.171875q1.65625 0 2.671875 1.15625q1.03125 1.15625 1.03125 2.984375l0 0.3125l-6.25 0q0.0625 1.1875 0.84375 1.9375q0.796875 0.734375 1.9375 0.734375q1.40625 0 2.390625 -0.984375l0.578125 0.796875q-1.1875 1.171875 -3.078125 1.171875zm2.40625 -4.546875q0 -1.0625 -0.703125 -1.8125q-0.703125 -0.75 -1.84375 -0.75q-1.078125 0 -1.796875 0.75q-0.703125 0.75 -0.734375 1.8125l5.078125 0z" fill-rule="nonzero"/><path fill="#000000" d="m164.10774 546.90594l0 -1.15625q-0.421875 0.59375 -1.109375 0.96875q-0.671875 0.375 -1.5 0.375q-1.546875 0 -2.5 -1.09375q-0.9375 -1.109375 -0.9375 -2.953125q0 -1.859375 0.953125 -2.953125q0.953125 -1.109375 2.484375 -1.109375q0.78125 0 1.46875 0.359375q0.6875 0.359375 1.140625 1.0l0 -4.109375l1.203125 0l0 10.671875l-1.203125 0zm-2.3125 -0.875q0.71875 0 1.359375 -0.34375q0.640625 -0.359375 0.953125 -0.875l0 -3.5q-0.3125 -0.515625 -0.953125 -0.875q-0.640625 -0.375 -1.359375 -0.375q-1.125 0 -1.8125 0.8125q-0.671875 0.8125 -0.671875 2.171875q0 1.328125 0.671875 2.15625q0.671875 0.828125 1.8125 0.828125zm9.403137 1.0625q-1.75 0 -2.84375 -1.125q-1.09375 -1.140625 -1.09375 -2.9375q0 -1.703125 1.078125 -2.875q1.09375 -1.171875 2.734375 -1.171875q1.65625 0 2.671875 1.15625q1.03125 1.15625 1.03125 2.984375l0 0.3125l-6.25 0q0.0625 1.1875 0.84375 1.9375q0.796875 0.734375 1.9375 0.734375q1.40625 0 2.390625 -0.984375l0.578125 0.796875q-1.1875 1.171875 -3.078125 1.171875zm2.40625 -4.546875q0 -1.0625 -0.703125 -1.8125q-0.703125 -0.75 -1.84375 -0.75q-1.078125 0 -1.796875 0.75q-0.703125 0.75 -0.734375 1.8125l5.078125 0zm6.929886 4.546875q-1.65625 0 -2.609375 -1.359375l0 4.109375l-1.203125 0l0 -10.671875l1.203125 0l0 1.15625q0.40625 -0.59375 1.09375 -0.96875q0.6875 -0.375 1.515625 -0.375q1.546875 0 2.484375 1.09375q0.953125 1.078125 0.953125 2.953125q0 1.859375 -0.9375 2.96875q-0.9375 1.09375 -2.5 1.09375zm-0.3125 -1.0625q1.125 0 1.796875 -0.8125q0.6875 -0.828125 0.6875 -2.1875q0 -1.328125 -0.671875 -2.140625q-0.671875 -0.828125 -1.8125 -0.828125q-0.71875 0 -1.359375 0.359375q-0.625 0.359375 -0.9375 0.875l0 3.484375q0.3125 0.515625 0.9375 0.890625q0.640625 0.359375 1.359375 0.359375zm9.136398 1.0625q-1.75 0 -2.84375 -1.125q-1.09375 -1.140625 -1.09375 -2.9375q0 -1.703125 1.078125 -2.875q1.09375 -1.171875 2.734375 -1.171875q1.65625 0 2.671875 1.15625q1.03125 1.15625 1.03125 2.984375l0 0.3125l-6.25 0q0.0625 1.1875 0.84375 1.9375q0.796875 0.734375 1.9375 0.734375q1.40625 0 2.390625 -0.984375l0.578125 0.796875q-1.1875 1.171875 -3.078125 1.171875zm2.40625 -4.546875q0 -1.0625 -0.703125 -1.8125q-0.703125 -0.75 -1.84375 -0.75q-1.078125 0 -1.796875 0.75q-0.703125 0.75 -0.734375 1.8125l5.078125 0zm8.336136 4.359375l0 -5.0625q0 -1.015625 -0.484375 -1.390625q-0.46875 -0.390625 -1.25 -0.390625q-0.671875 0 -1.328125 0.359375q-0.640625 0.359375 -0.953125 0.84375l0 5.640625l-1.203125 0l0 -7.734375l1.203125 0l0 1.125q0.484375 -0.578125 1.21875 -0.9375q0.734375 -0.375 1.53125 -0.375q2.453125 0 2.453125 2.5l0 5.421875l-1.1875 0zm9.191025 0l0 -1.15625q-0.421875 0.59375 -1.109375 0.96875q-0.671875 0.375 -1.5 0.375q-1.546875 0 -2.5 -1.09375q-0.9375 -1.109375 -0.9375 -2.953125q0 -1.859375 0.953125 -2.953125q0.953125 -1.109375 2.484375 -1.109375q0.78125 0 1.46875 0.359375q0.6875 0.359375 1.140625 1.0l0 -4.109375l1.203125 0l0 10.671875l-1.203125 0zm-2.3125 -0.875q0.71875 0 1.359375 -0.34375q0.640625 -0.359375 0.953125 -0.875l0 -3.5q-0.3125 -0.515625 -0.953125 -0.875q-0.640625 -0.375 -1.359375 -0.375q-1.125 0 -1.8125 0.8125q-0.671875 0.8125 -0.671875 2.171875q0 1.328125 0.671875 2.15625q0.671875 0.828125 1.8125 0.828125zm9.403137 1.0625q-1.75 0 -2.84375 -1.125q-1.09375 -1.140625 -1.09375 -2.9375q0 -1.703125 1.078125 -2.875q1.09375 -1.171875 2.734375 -1.171875q1.65625 0 2.671875 1.15625q1.03125 1.15625 1.03125 2.984375l0 0.3125l-6.25 0q0.0625 1.1875 0.84375 1.9375q0.796875 0.734375 1.9375 0.734375q1.40625 0 2.390625 -0.984375l0.578125 0.796875q-1.1875 1.171875 -3.078125 1.171875zm2.40625 -4.546875q0 -1.0625 -0.703125 -1.8125q-0.703125 -0.75 -1.84375 -0.75q-1.078125 0 -1.796875 0.75q-0.703125 0.75 -0.734375 1.8125l5.078125 0zm8.336136 4.359375l0 -5.0625q0 -1.015625 -0.484375 -1.390625q-0.46875 -0.390625 -1.25 -0.390625q-0.671875 0 -1.328125 0.359375q-0.640625 0.359375 -0.953125 0.84375l0 5.640625l-1.203125 0l0 -7.734375l1.203125 0l0 1.125q0.484375 -0.578125 1.21875 -0.9375q0.734375 -0.375 1.53125 -0.375q2.453125 0 2.453125 2.5l0 5.421875l-1.1875 0zm7.003525 0.1875q-1.703125 0 -2.78125 -1.140625q-1.078125 -1.15625 -1.078125 -2.921875q0 -1.734375 1.078125 -2.890625q1.078125 -1.15625 2.78125 -1.15625q1.796875 0 2.828125 1.34375l-0.796875 0.734375q-0.734375 -1.0 -1.96875 -1.0q-1.1875 0 -1.9375 0.828125q-0.734375 0.8125 -0.734375 2.140625q0 1.34375 0.734375 2.171875q0.734375 0.828125 1.9375 0.828125q1.21875 0 1.96875 -1.015625l0.796875 0.734375q-1.03125 1.34375 -2.828125 1.34375zm5.1075134 -9.015625q-0.328125 0 -0.578125 -0.234375q-0.234375 -0.234375 -0.234375 -0.5625q0 -0.34375 0.234375 -0.578125q0.25 -0.25 0.578125 -0.25q0.328125 0 0.5625 0.25q0.25 0.234375 0.25 0.578125q0 0.328125 -0.25 0.5625q-0.234375 0.234375 -0.5625 0.234375zm-0.59375 8.828125l0 -7.734375l1.203125 0l0 7.734375l-1.203125 0zm7.084381 0.1875q-1.75 0 -2.84375 -1.125q-1.09375 -1.140625 -1.09375 -2.9375q0 -1.703125 1.078125 -2.875q1.09375 -1.171875 2.734375 -1.171875q1.65625 0 2.671875 1.15625q1.03125 1.15625 1.03125 2.984375l0 0.3125l-6.25 0q0.0625 1.1875 0.84375 1.9375q0.796875 0.734375 1.9375 0.734375q1.40625 0 2.390625 -0.984375l0.578125 0.796875q-1.1875 1.171875 -3.078125 1.171875zm2.40625 -4.546875q0 -1.0625 -0.703125 -1.8125q-0.703125 -0.75 -1.84375 -0.75q-1.078125 0 -1.796875 0.75q-0.703125 0.75 -0.734375 1.8125l5.078125 0zm5.554886 4.546875q-1.953125 0 -3.109375 -1.21875l0.625 -0.859375q0.375 0.453125 1.046875 0.78125q0.6875 0.328125 1.5 0.328125q0.890625 0 1.34375 -0.375q0.46875 -0.375 0.46875 -0.953125q0 -0.515625 -0.5 -0.8125q-0.5 -0.296875 -1.875 -0.609375q-1.171875 -0.25 -1.796875 -0.765625q-0.609375 -0.515625 -0.609375 -1.40625q0 -0.96875 0.78125 -1.59375q0.78125 -0.625 2.09375 -0.625q1.75 0 2.875 1.125l-0.5625 0.828125q-0.359375 -0.421875 -0.953125 -0.6875q-0.59375 -0.28125 -1.359375 -0.28125q-0.796875 0 -1.25 0.359375q-0.453125 0.34375 -0.453125 0.84375q0 0.46875 0.5 0.75q0.515625 0.265625 1.890625 0.546875q1.171875 0.28125 1.78125 0.828125q0.609375 0.546875 0.609375 1.46875q0 1.0625 -0.828125 1.703125q-0.828125 0.625 -2.21875 0.625z" fill-rule="nonzero"/><path fill="#000000" fill-opacity="0.0" d="m111.39895 459.21506l96.00001 46.771667" fill-rule="evenodd"/><path stroke="#000000" stroke-width="1.0" stroke-linejoin="round" stroke-linecap="butt" stroke-dasharray="4.0,3.0" d="m114.479836 460.7161l92.91912 45.27063" fill-rule="evenodd"/><path fill="#000000" stroke="#000000" stroke-width="1.0" stroke-linecap="butt" d="m114.479836 460.7161l1.5035324 -0.5184326l-3.270195 -0.34231567l2.2850876 2.3642578z" fill-rule="evenodd"/><path fill="#d9d2e9" d="m61.366142 359.67465l0 0c0 -3.061554 2.4818726 -5.5434265 5.543419 -5.5434265l88.97615 0c1.4702148 0 2.8802032 0.5840454 3.9197998 1.6236267c1.0395813 1.0396118 1.6236267 2.449585 1.6236267 3.9197998l0 22.173004c0 3.061554 -2.4818726 5.5434265 -5.5434265 5.5434265l-88.97615 0c-3.0615463 0 -5.543419 -2.4818726 -5.543419 -5.5434265z" fill-rule="evenodd"/><path stroke="#000000" stroke-width="1.0" stroke-linejoin="round" stroke-linecap="butt" d="m61.366142 359.67465l0 0c0 -3.061554 2.4818726 -5.5434265 5.543419 -5.5434265l88.97615 0c1.4702148 0 2.8802032 0.5840454 3.9197998 1.6236267c1.0395813 1.0396118 1.6236267 2.449585 1.6236267 3.9197998l0 22.173004c0 3.061554 -2.4818726 5.5434265 -5.5434265 5.5434265l-88.97615 0c-3.0615463 0 -5.543419 -2.4818726 -5.543419 -5.5434265z" fill-rule="evenodd"/><path fill="#000000" d="m77.28784 377.68115l0 -12.4375l5.8125 0q1.90625 0 3.046875 1.109375q1.140625 1.109375 1.140625 2.890625q0 1.78125 -1.171875 2.90625q-1.15625 1.109375 -3.015625 1.109375l-3.171875 0l0 4.421875l-2.640625 0zm5.46875 -6.75q0.78125 0 1.296875 -0.453125q0.53125 -0.453125 0.53125 -1.234375q0 -0.78125 -0.53125 -1.21875q-0.515625 -0.453125 -1.296875 -0.453125l-2.828125 0l0 3.359375l2.828125 0zm11.143173 6.75l0 -0.9375q-0.984375 1.15625 -2.84375 1.15625q-1.3125 0 -2.234375 -0.828125q-0.90625 -0.828125 -0.90625 -2.15625q0 -1.3125 0.859375 -2.109375q0.875 -0.796875 2.28125 -0.796875q1.9375 0 2.84375 1.09375l0 -1.203125q0 -0.6875 -0.546875 -1.09375q-0.53125 -0.421875 -1.421875 -0.421875q-1.5 0 -2.625 1.0625l-0.90625 -1.578125q1.640625 -1.421875 3.9375 -1.421875q1.90625 0 2.921875 0.890625q1.015625 0.875 1.015625 2.515625l0 5.828125l-2.375 0zm-1.890625 -1.375q1.296875 0 1.890625 -0.796875l0 -1.109375q-0.59375 -0.78125 -1.890625 -0.78125q-0.71875 0 -1.21875 0.359375q-0.484375 0.34375 -0.484375 1.0q0 0.625 0.484375 0.984375q0.5 0.34375 1.21875 0.34375zm12.692841 1.375l0 -5.453125q0 -1.671875 -1.65625 -1.671875q-1.28125 0 -2.046875 1.0625l0 6.0625l-2.375 0l0 -9.015625l2.375 0l0 1.1875q0.421875 -0.53125 1.21875 -0.96875q0.8125 -0.4375 1.9375 -0.4375q1.484375 0 2.203125 0.78125q0.71875 0.765625 0.71875 2.09375l0 6.359375l-2.375 0zm10.926971 0l0 -1.15625q-1.125 1.375 -2.78125 1.375q-1.796875 0 -2.90625 -1.28125q-1.09375 -1.28125 -1.09375 -3.4375q0 -2.125 1.09375 -3.421875q1.109375 -1.3125 2.90625 -1.3125q1.6875 0 2.78125 1.375l0 -4.578125l2.375 0l0 12.4375l-2.375 0zm-2.0625 -1.890625q0.59375 0 1.171875 -0.28125q0.59375 -0.296875 0.890625 -0.734375l0 -3.1875q-0.296875 -0.453125 -0.890625 -0.734375q-0.578125 -0.296875 -1.171875 -0.296875q-1.0 0 -1.640625 0.734375q-0.625 0.71875 -0.625 1.890625q0 1.140625 0.609375 1.875q0.609375 0.734375 1.65625 0.734375zm10.979446 2.109375q-2.09375 0 -3.4375 -1.34375q-1.328125 -1.34375 -1.328125 -3.390625q0 -2.046875 1.328125 -3.375q1.34375 -1.34375 3.4375 -1.34375q2.078125 0 3.421875 1.34375q1.34375 1.328125 1.34375 3.375q0 2.078125 -1.34375 3.40625q-1.34375 1.328125 -3.421875 1.328125zm0 -2.109375q1.015625 0 1.65625 -0.734375q0.65625 -0.734375 0.65625 -1.890625q0 -1.125 -0.65625 -1.859375q-0.640625 -0.75 -1.65625 -0.75q-1.0 0 -1.65625 0.71875q-0.640625 0.71875 -0.640625 1.890625q0 1.1875 0.640625 1.90625q0.65625 0.71875 1.65625 0.71875zm6.5211945 1.890625l0 -9.015625l2.375 0l0 1.234375q0.484375 -0.59375 1.25 -1.015625q0.78125 -0.4375 1.625 -0.4375l0 2.3125l-0.65625 -0.0625q-0.640625 0 -1.28125 0.3125q-0.640625 0.296875 -0.9375 0.71875l0 5.953125l-2.375 0zm12.122498 0l0 -0.9375q-0.984375 1.15625 -2.84375 1.15625q-1.3125 0 -2.234375 -0.828125q-0.90625 -0.828125 -0.90625 -2.15625q0 -1.3125 0.859375 -2.109375q0.875 -0.796875 2.28125 -0.796875q1.9375 0 2.84375 1.09375l0 -1.203125q0 -0.6875 -0.546875 -1.09375q-0.53125 -0.421875 -1.421875 -0.421875q-1.5 0 -2.625 1.0625l-0.90625 -1.578125q1.640625 -1.421875 3.9375 -1.421875q1.90625 0 2.921875 0.890625q1.015625 0.875 1.015625 2.515625l0 5.828125l-2.375 0zm-1.890625 -1.375q1.296875 0 1.890625 -0.796875l0 -1.109375q-0.59375 -0.78125 -1.890625 -0.78125q-0.71875 0 -1.21875 0.359375q-0.484375 0.34375 -0.484375 1.0q0 0.625 0.484375 0.984375q0.5 0.34375 1.21875 0.34375z" fill-rule="nonzero"/><path fill="#000000" fill-opacity="0.0" d="m111.39764 387.39108l0 38.551178" fill-rule="evenodd"/><path stroke="#000000" stroke-width="1.0" stroke-linejoin="round" stroke-linecap="butt" d="m111.39764 387.39108l0 35.124084" fill-rule="evenodd"/><path fill="#000000" stroke="#000000" stroke-width="1.0" stroke-linecap="butt" d="m111.39764 422.51517l-1.1245804 -1.1245728l1.1245804 3.0897522l1.124588 -3.0897522z" fill-rule="evenodd"/><path fill="#d9d2e9" d="m161.98819 359.6694l0 0c0 -3.061554 2.4818726 -5.5434265 5.5434113 -5.5434265l88.97615 0c1.4702148 0 2.8802185 0.5840454 3.9197998 1.6236267c1.0395813 1.0396118 1.6236267 2.449585 1.6236267 3.9197998l0 22.173004c0 3.061554 -2.4818726 5.5434265 -5.5434265 5.5434265l-88.97615 0c-3.0615387 0 -5.5434113 -2.4818726 -5.5434113 -5.5434265z" fill-rule="evenodd"/><path stroke="#000000" stroke-width="1.0" stroke-linejoin="round" stroke-linecap="butt" d="m161.98819 359.6694l0 0c0 -3.061554 2.4818726 -5.5434265 5.5434113 -5.5434265l88.97615 0c1.4702148 0 2.8802185 0.5840454 3.9197998 1.6236267c1.0395813 1.0396118 1.6236267 2.449585 1.6236267 3.9197998l0 22.173004c0 3.061554 -2.4818726 5.5434265 -5.5434265 5.5434265l-88.97615 0c-3.0615387 0 -5.5434113 -2.4818726 -5.5434113 -5.5434265z" fill-rule="evenodd"/><path fill="#000000" d="m175.1163 375.5559l0 -8.890625l6.296875 0l0 1.671875l-4.40625 0l0 1.875l4.3125 0l0 1.671875l-4.3125 0l0 2.0l4.40625 0l0 1.671875l-6.296875 0zm7.7702637 0l0 -8.890625l3.515625 0q2.09375 0 3.40625 1.234375q1.3125 1.21875 1.3125 3.21875q0 1.984375 -1.3125 3.21875q-1.3125 1.21875 -3.40625 1.21875l-3.515625 0zm3.515625 -1.671875q1.234375 0 2.0 -0.765625q0.78125 -0.78125 0.78125 -2.0q0 -1.265625 -0.75 -2.015625q-0.734375 -0.765625 -2.03125 -0.765625l-1.625 0l0 5.546875l1.625 0zm12.584152 1.671875l-1.546875 -6.109375l-1.546875 6.109375l-2.015625 0l-2.546875 -8.890625l2.109375 0l1.5625 6.421875l1.703125 -6.421875l1.46875 0l1.6875 6.421875l1.546875 -6.421875l2.125 0l-2.53125 8.890625l-2.015625 0zm10.631531 2.65625q-0.984375 -1.125 -1.546875 -2.703125q-0.5625 -1.59375 -0.5625 -3.1875q0 -1.609375 0.5625 -3.1875q0.5625 -1.59375 1.546875 -2.703125l1.0625 0.796875q-0.765625 1.390625 -1.0625 2.578125q-0.28125 1.1875 -0.28125 2.515625q0 1.359375 0.296875 2.5625q0.3125 1.1875 1.046875 2.5l-1.0625 0.828125zm8.270935 -2.65625l0 -3.734375l-4.203125 0l0 3.734375l-1.890625 0l0 -8.890625l1.890625 0l0 3.5l4.203125 0l0 -3.5l1.90625 0l0 8.890625l-1.90625 0zm3.6490784 0l0 -8.890625l3.515625 0q2.09375 0 3.40625 1.234375q1.3125 1.21875 1.3125 3.21875q0 1.984375 -1.3125 3.21875q-1.3125 1.21875 -3.40625 1.21875l-3.515625 0zm3.515625 -1.671875q1.234375 0 2.0 -0.765625q0.78125 -0.78125 0.78125 -2.0q0 -1.265625 -0.75 -2.015625q-0.734375 -0.765625 -2.03125 -0.765625l-1.625 0l0 5.546875l1.625 0zm6.05394 1.671875l0 -8.890625l6.296875 0l0 1.671875l-4.40625 0l0 1.875l4.3125 0l0 1.671875l-4.3125 0l0 3.671875l-1.890625 0zm10.766586 0.15625q-2.359375 0 -3.75 -1.40625l1.03125 -1.4375q0.453125 0.484375 1.171875 0.84375q0.734375 0.34375 1.640625 0.34375q0.796875 0 1.171875 -0.296875q0.375 -0.296875 0.375 -0.6875q0 -0.390625 -0.4375 -0.609375q-0.4375 -0.234375 -2.109375 -0.640625q-2.5625 -0.609375 -2.5625 -2.578125q0 -1.15625 0.921875 -1.921875q0.921875 -0.78125 2.453125 -0.78125q2.109375 0 3.453125 1.234375l-1.046875 1.390625q-1.046875 -0.984375 -2.578125 -0.984375q-0.625 0 -0.953125 0.25q-0.3125 0.25 -0.3125 0.640625q0 0.359375 0.375 0.546875q0.375 0.1875 0.953125 0.328125l1.21875 0.3125q2.546875 0.640625 2.546875 2.609375q0 1.3125 -0.953125 2.078125q-0.9375 0.765625 -2.609375 0.765625zm4.1999664 1.671875q0.671875 -1.171875 1.015625 -2.34375q0.34375 -1.1875 0.34375 -2.71875q0 -1.46875 -0.328125 -2.640625q-0.3125 -1.171875 -1.03125 -2.453125l1.0625 -0.796875q0.953125 1.0625 1.53125 2.640625q0.59375 1.578125 0.59375 3.25q0 1.640625 -0.59375 3.234375q-0.578125 1.59375 -1.53125 2.65625l-1.0625 -0.828125z" fill-rule="nonzero"/><path fill="#ffd966" d="m121.90551 223.06589l0 0c0 -7.6016693 6.1623764 -13.764053 13.764061 -13.764053l189.29079 0c3.6504517 0 7.1513977 1.4501343 9.732666 4.0314026c2.5812378 2.581253 4.031372 6.082199 4.031372 9.732651l0 55.054565c0 7.6016846 -6.1623535 13.764069 -13.764038 13.764069l-189.29079 0l0 0c-7.6016846 0 -13.764061 -6.162384 -13.764061 -13.764069z" fill-rule="evenodd"/><path stroke="#000000" stroke-width="1.0" stroke-linejoin="round" stroke-linecap="butt" d="m121.90551 223.06589l0 0c0 -7.6016693 6.1623764 -13.764053 13.764061 -13.764053l189.29079 0c3.6504517 0 7.1513977 1.4501343 9.732666 4.0314026c2.5812378 2.581253 4.031372 6.082199 4.031372 9.732651l0 55.054565c0 7.6016846 -6.1623535 13.764069 -13.764038 13.764069l-189.29079 0l0 0c-7.6016846 0 -13.764061 -6.162384 -13.764061 -13.764069z" fill-rule="evenodd"/><path fill="#000000" d="m171.66096 232.07318l0 -14.21875l5.609375 0q3.375 0 5.453125 1.96875q2.09375 1.953125 2.09375 5.140625q0 3.1875 -2.09375 5.15625q-2.078125 1.953125 -5.453125 1.953125l-5.609375 0zm5.609375 -2.671875q1.984375 0 3.21875 -1.234375q1.234375 -1.25 1.234375 -3.203125q0 -2.015625 -1.1875 -3.234375q-1.171875 -1.21875 -3.265625 -1.21875l-2.578125 0l0 8.890625l2.578125 0zm14.485535 2.921875q-2.4375 0 -3.96875 -1.5q-1.53125 -1.5 -1.53125 -3.90625q0 -2.3125 1.515625 -3.859375q1.53125 -1.546875 3.8125 -1.546875q2.28125 0 3.71875 1.578125q1.4375 1.5625 1.4375 4.09375l0 0.609375l-7.65625 0q0.125 0.96875 0.875 1.6875q0.765625 0.703125 2.09375 0.703125q0.640625 0 1.421875 -0.265625q0.796875 -0.28125 1.328125 -0.765625l1.1875 1.75q-0.765625 0.703125 -1.890625 1.0625q-1.125 0.359375 -2.34375 0.359375zm2.359375 -6.375q-0.0625 -1.015625 -0.765625 -1.640625q-0.703125 -0.640625 -1.765625 -0.640625q-1.0625 0 -1.75 0.65625q-0.6875 0.640625 -0.796875 1.625l5.078125 0zm8.81012 10.3125q-1.34375 0 -2.40625 -0.34375q-1.046875 -0.34375 -2.03125 -1.203125l1.21875 -1.953125q1.15625 1.28125 3.21875 1.28125q1.34375 0 2.09375 -0.6875q0.75 -0.6875 0.75 -1.921875l0 -1.046875q-1.296875 1.625 -3.1875 1.625q-2.0625 0 -3.296875 -1.421875q-1.234375 -1.421875 -1.234375 -3.828125q0 -2.390625 1.21875 -3.8125q1.234375 -1.4375 3.3125 -1.4375q1.953125 0 3.1875 1.578125l0 -1.3125l2.734375 0l0 9.59375q0 2.34375 -1.453125 3.609375q-1.453125 1.28125 -4.125 1.28125zm0.515625 -6.65625q0.6875 0 1.328125 -0.34375q0.65625 -0.34375 1.0 -0.828125l0 -3.328125q-0.34375 -0.515625 -1.0 -0.84375q-0.640625 -0.328125 -1.328125 -0.328125q-1.15625 0 -1.890625 0.75q-0.71875 0.734375 -0.71875 2.078125q0 1.34375 0.71875 2.09375q0.734375 0.75 1.890625 0.75zm7.74263 2.46875l0 -10.296875l2.703125 0l0 1.40625q0.5625 -0.6875 1.4375 -1.171875q0.890625 -0.5 1.859375 -0.5l0 2.65625l-0.75 -0.078125q-0.734375 0 -1.46875 0.34375q-0.734375 0.34375 -1.078125 0.84375l0 6.796875l-2.703125 0zm13.865662 0l0 -1.0625q-1.125 1.3125 -3.265625 1.3125q-1.5 0 -2.546875 -0.9375q-1.03125 -0.953125 -1.03125 -2.46875q0 -1.515625 0.984375 -2.421875q1.0 -0.90625 2.59375 -0.90625q2.21875 0 3.265625 1.265625l0 -1.390625q0 -0.796875 -0.625 -1.265625q-0.609375 -0.46875 -1.640625 -0.46875q-1.703125 0 -3.0 1.21875l-1.03125 -1.8125q1.875 -1.625 4.5 -1.625q2.171875 0 3.328125 1.015625q1.171875 1.015625 1.171875 2.890625l0 6.65625l-2.703125 0zm-2.171875 -1.578125q1.484375 0 2.171875 -0.890625l0 -1.28125q-0.6875 -0.90625 -2.171875 -0.90625q-0.8125 0 -1.390625 0.40625q-0.5625 0.40625 -0.5625 1.15625q0 0.71875 0.5625 1.125q0.578125 0.390625 1.390625 0.390625zm14.643723 1.578125l0 -1.328125q-1.28125 1.578125 -3.171875 1.578125q-2.046875 0 -3.3125 -1.46875q-1.25 -1.46875 -1.25 -3.921875q0 -2.4375 1.25 -3.921875q1.265625 -1.5 3.3125 -1.5q1.9375 0 3.171875 1.578125l0 -5.234375l2.734375 0l0 14.21875l-2.734375 0zm-2.34375 -2.15625q0.6875 0 1.34375 -0.328125q0.65625 -0.328125 1.0 -0.84375l0 -3.640625q-0.34375 -0.515625 -1.0 -0.84375q-0.65625 -0.328125 -1.34375 -0.328125q-1.15625 0 -1.890625 0.828125q-0.71875 0.828125 -0.71875 2.171875q0 1.296875 0.703125 2.140625q0.71875 0.84375 1.90625 0.84375zm13.951462 2.15625l0 -1.0625q-1.125 1.3125 -3.265625 1.3125q-1.5 0 -2.546875 -0.9375q-1.03125 -0.953125 -1.03125 -2.46875q0 -1.515625 0.984375 -2.421875q1.0 -0.90625 2.59375 -0.90625q2.21875 0 3.265625 1.265625l0 -1.390625q0 -0.796875 -0.625 -1.265625q-0.609375 -0.46875 -1.640625 -0.46875q-1.703125 0 -3.0 1.21875l-1.03125 -1.8125q1.875 -1.625 4.5 -1.625q2.171875 0 3.328125 1.015625q1.171875 1.015625 1.171875 2.890625l0 6.65625l-2.703125 0zm-2.171875 -1.578125q1.484375 0 2.171875 -0.890625l0 -1.28125q-0.6875 -0.90625 -2.171875 -0.90625q-0.8125 0 -1.390625 0.40625q-0.5625 0.40625 -0.5625 1.15625q0 0.71875 0.5625 1.125q0.578125 0.390625 1.390625 0.390625zm11.018707 1.828125q-2.921875 0 -2.921875 -2.8125l0 -5.375l-1.7031097 0l0 -2.359375l1.7031097 0l0 -2.8125l2.734375 0l0 2.8125l2.09375 0l0 2.359375l-2.09375 0l0 4.65625q0 0.484375 0.234375 0.8125q0.25 0.3125 0.703125 0.3125q0.640625 0 0.9375 -0.296875l0.578125 2.046875q-0.703125 0.65625 -2.265625 0.65625zm5.099579 -11.65625q-0.65625 0 -1.140625 -0.46875q-0.484375 -0.46875 -0.484375 -1.15625q0 -0.6875 0.484375 -1.140625q0.484375 -0.453125 1.140625 -0.453125q0.6875 0 1.15625 0.453125q0.46875 0.453125 0.46875 1.140625q0 0.6875 -0.46875 1.15625q-0.46875 0.46875 -1.15625 0.46875zm-1.34375 11.40625l0 -10.296875l2.703125 0l0 10.296875l-2.703125 0zm10.177277 0.25q-2.390625 0 -3.921875 -1.53125q-1.515625 -1.53125 -1.515625 -3.875q0 -2.34375 1.515625 -3.875q1.53125 -1.53125 3.921875 -1.53125q2.390625 0 3.921875 1.53125q1.53125 1.53125 1.53125 3.875q0 2.359375 -1.53125 3.890625q-1.53125 1.515625 -3.921875 1.515625zm0 -2.40625q1.171875 0 1.90625 -0.84375q0.734375 -0.84375 0.734375 -2.15625q0 -1.28125 -0.734375 -2.125q-0.734375 -0.859375 -1.90625 -0.859375q-1.140625 0 -1.890625 0.828125q-0.734375 0.8125 -0.734375 2.15625q0 1.359375 0.734375 2.1875q0.75 0.8125 1.890625 0.8125zm14.414276 2.15625l0 -6.234375q0 -1.90625 -1.890625 -1.90625q-1.484375 0 -2.359375 1.203125l0 6.9375l-2.703125 0l0 -10.296875l2.703125 0l0 1.34375q0.5 -0.609375 1.40625 -1.109375q0.921875 -0.5 2.203125 -0.5q1.703125 0 2.515625 0.890625q0.828125 0.890625 0.828125 2.40625l0 7.265625l-2.703125 0z" fill-rule="nonzero"/><path fill="#000000" d="m155.47285 258.07318l0 -14.21875l6.65625 0q2.171875 0 3.46875 1.265625q1.3125 1.265625 1.3125 3.3125q0 2.03125 -1.34375 3.3125q-1.328125 1.265625 -3.4375 1.265625l-3.625 0l0 5.0625l-3.03125 0zm6.25 -7.71875q0.890625 0 1.484375 -0.515625q0.609375 -0.515625 0.609375 -1.40625q0 -0.890625 -0.609375 -1.40625q-0.59375 -0.515625 -1.484375 -0.515625l-3.21875 0l0 3.84375l3.21875 0zm6.9963074 7.71875l0 -10.296875l2.703125 0l0 1.40625q0.5625 -0.6875 1.4375 -1.171875q0.890625 -0.5 1.859375 -0.5l0 2.65625l-0.75 -0.078125q-0.734375 0 -1.46875 0.34375q-0.734375 0.34375 -1.078125 0.84375l0 6.796875l-2.703125 0zm12.459412 0.25q-2.390625 0 -3.921875 -1.53125q-1.515625 -1.53125 -1.515625 -3.875q0 -2.34375 1.515625 -3.875q1.53125 -1.53125 3.921875 -1.53125q2.390625 0 3.921875 1.53125q1.53125 1.53125 1.53125 3.875q0 2.359375 -1.53125 3.890625q-1.53125 1.515625 -3.921875 1.515625zm0 -2.40625q1.171875 0 1.90625 -0.84375q0.734375 -0.84375 0.734375 -2.15625q0 -1.28125 -0.734375 -2.125q-0.734375 -0.859375 -1.90625 -0.859375q-1.140625 0 -1.890625 0.828125q-0.734375 0.8125 -0.734375 2.15625q0 1.359375 0.734375 2.1875q0.75 0.8125 1.890625 0.8125zm11.679886 6.34375q-1.34375 0 -2.40625 -0.34375q-1.046875 -0.34375 -2.03125 -1.203125l1.21875 -1.953125q1.15625 1.28125 3.21875 1.28125q1.34375 0 2.09375 -0.6875q0.75 -0.6875 0.75 -1.921875l0 -1.046875q-1.296875 1.625 -3.1875 1.625q-2.0625 0 -3.296875 -1.421875q-1.234375 -1.421875 -1.234375 -3.828125q0 -2.390625 1.21875 -3.8125q1.234375 -1.4375 3.3125 -1.4375q1.953125 0 3.1875 1.578125l0 -1.3125l2.734375 0l0 9.59375q0 2.34375 -1.453125 3.609375q-1.453125 1.28125 -4.125 1.28125zm0.515625 -6.65625q0.6875 0 1.328125 -0.34375q0.65625 -0.34375 1.0 -0.828125l0 -3.328125q-0.34375 -0.515625 -1.0 -0.84375q-0.640625 -0.328125 -1.328125 -0.328125q-1.15625 0 -1.890625 0.75q-0.71875 0.734375 -0.71875 2.078125q0 1.34375 0.71875 2.09375q0.734375 0.75 1.890625 0.75zm14.695755 2.46875l0 -6.234375q0 -1.90625 -1.890625 -1.90625q-1.484375 0 -2.359375 1.203125l0 6.9375l-2.703125 0l0 -10.296875l2.703125 0l0 1.34375q0.5 -0.609375 1.40625 -1.109375q0.921875 -0.5 2.203125 -0.5q1.703125 0 2.515625 0.890625q0.828125 0.890625 0.828125 2.40625l0 7.265625l-2.703125 0zm10.177155 0.25q-2.390625 0 -3.921875 -1.53125q-1.515625 -1.53125 -1.515625 -3.875q0 -2.34375 1.515625 -3.875q1.53125 -1.53125 3.921875 -1.53125q2.390625 0 3.921875 1.53125q1.53125 1.53125 1.53125 3.875q0 2.359375 -1.53125 3.890625q-1.53125 1.515625 -3.921875 1.515625zm0 -2.40625q1.171875 0 1.90625 -0.84375q0.734375 -0.84375 0.734375 -2.15625q0 -1.28125 -0.734375 -2.125q-0.734375 -0.859375 -1.90625 -0.859375q-1.140625 0 -1.890625 0.828125q-0.734375 0.8125 -0.734375 2.15625q0 1.359375 0.734375 2.1875q0.75 0.8125 1.890625 0.8125zm11.179886 2.40625q-1.34375 0 -2.578125 -0.421875q-1.21875 -0.421875 -2.03125 -1.171875l1.171875 -1.890625q0.609375 0.5625 1.625 0.984375q1.03125 0.421875 1.9375 0.421875q1.71875 0 1.71875 -1.109375q0 -0.4375 -0.453125 -0.640625q-0.453125 -0.21875 -1.125 -0.375l-1.46875 -0.296875q-3.0625 -0.65625 -3.0625 -3.0625q0 -1.4375 1.171875 -2.34375q1.1875 -0.90625 3.046875 -0.90625q2.40625 0 4.15625 1.40625l-1.09375 1.859375q-0.46875 -0.484375 -1.28125 -0.828125q-0.796875 -0.359375 -1.765625 -0.359375q-0.75 0 -1.1875 0.296875q-0.4375 0.296875 -0.4375 0.71875q0 0.390625 0.453125 0.578125q0.453125 0.1875 1.125 0.328125q0.6875 0.140625 1.46875 0.328125q0.796875 0.171875 1.46875 0.546875q0.6875 0.359375 1.140625 0.984375q0.453125 0.609375 0.453125 1.65625q0 1.484375 -1.21875 2.390625q-1.21875 0.90625 -3.234375 0.90625zm9.907928 0q-2.921875 0 -2.921875 -2.8125l0 -5.375l-1.703125 0l0 -2.359375l1.703125 0l0 -2.8125l2.734375 0l0 2.8125l2.09375 0l0 2.359375l-2.09375 0l0 4.65625q0 0.484375 0.234375 0.8125q0.25 0.3125 0.703125 0.3125q0.640625 0 0.9375 -0.296875l0.578125 2.046875q-0.703125 0.65625 -2.265625 0.65625zm5.0995636 -11.65625q-0.65625 0 -1.140625 -0.46875q-0.484375 -0.46875 -0.484375 -1.15625q0 -0.6875 0.484375 -1.140625q0.484375 -0.453125 1.140625 -0.453125q0.6875 0 1.15625 0.453125q0.46875 0.453125 0.46875 1.140625q0 0.6875 -0.46875 1.15625q-0.46875 0.46875 -1.15625 0.46875zm-1.34375 11.40625l0 -10.296875l2.703125 0l0 10.296875l-2.703125 0zm10.192917 0.25q-2.421875 0 -3.9375 -1.53125q-1.515625 -1.53125 -1.515625 -3.875q0 -2.328125 1.515625 -3.859375q1.515625 -1.546875 3.9375 -1.546875q1.578125 0 2.5625 0.578125q1.0 0.578125 1.515625 1.28125l-1.765625 1.671875q-0.75 -1.109375 -2.1875 -1.109375q-1.234375 0 -2.015625 0.828125q-0.78125 0.8125 -0.78125 2.15625q0 1.34375 0.78125 2.171875q0.78125 0.828125 2.015625 0.828125q1.390625 0 2.1875 -1.109375l1.765625 1.640625q-0.515625 0.734375 -1.515625 1.3125q-0.984375 0.5625 -2.5625 0.5625zm12.033417 -0.25l0 -1.0625q-1.125 1.3125 -3.265625 1.3125q-1.5 0 -2.546875 -0.9375q-1.03125 -0.953125 -1.03125 -2.46875q0 -1.515625 0.984375 -2.421875q1.0 -0.90625 2.59375 -0.90625q2.21875 0 3.265625 1.265625l0 -1.390625q0 -0.796875 -0.625 -1.265625q-0.609375 -0.46875 -1.640625 -0.46875q-1.703125 0 -3.0 1.21875l-1.03125 -1.8125q1.875 -1.625 4.5 -1.625q2.171875 0 3.328125 1.015625q1.171875 1.015625 1.171875 2.890625l0 6.65625l-2.703125 0zm-2.171875 -1.578125q1.484375 0 2.171875 -0.890625l0 -1.28125q-0.6875 -0.90625 -2.171875 -0.90625q-0.8125 0 -1.390625 0.40625q-0.5625 0.40625 -0.5625 1.15625q0 0.71875 0.5625 1.125q0.578125 0.390625 1.390625 0.390625zm11.018707 1.828125q-2.921875 0 -2.921875 -2.8125l0 -5.375l-1.703125 0l0 -2.359375l1.703125 0l0 -2.8125l2.734375 0l0 2.8125l2.09375 0l0 2.359375l-2.09375 0l0 4.65625q0 0.484375 0.234375 0.8125q0.25 0.3125 0.703125 0.3125q0.640625 0 0.9375 -0.296875l0.578125 2.046875q-0.703125 0.65625 -2.265625 0.65625zm5.099579 -11.65625q-0.65625 0 -1.140625 -0.46875q-0.484375 -0.46875 -0.484375 -1.15625q0 -0.6875 0.484375 -1.140625q0.484375 -0.453125 1.140625 -0.453125q0.6875 0 1.15625 0.453125q0.46875 0.453125 0.46875 1.140625q0 0.6875 -0.46875 1.15625q-0.46875 0.46875 -1.15625 0.46875zm-1.34375 11.40625l0 -10.296875l2.703125 0l0 10.296875l-2.703125 0zm10.177277 0.25q-2.390625 0 -3.921875 -1.53125q-1.515625 -1.53125 -1.515625 -3.875q0 -2.34375 1.515625 -3.875q1.53125 -1.53125 3.921875 -1.53125q2.390625 0 3.921875 1.53125q1.53125 1.53125 1.53125 3.875q0 2.359375 -1.53125 3.890625q-1.53125 1.515625 -3.921875 1.515625zm0 -2.40625q1.171875 0 1.90625 -0.84375q0.734375 -0.84375 0.734375 -2.15625q0 -1.28125 -0.734375 -2.125q-0.734375 -0.859375 -1.90625 -0.859375q-1.140625 0 -1.890625 0.828125q-0.734375 0.8125 -0.734375 2.15625q0 1.359375 0.734375 2.1875q0.75 0.8125 1.890625 0.8125zm14.414276 2.15625l0 -6.234375q0 -1.90625 -1.890625 -1.90625q-1.484375 0 -2.359375 1.203125l0 6.9375l-2.703125 0l0 -10.296875l2.703125 0l0 1.34375q0.5 -0.609375 1.40625 -1.109375q0.921875 -0.5 2.203125 -0.5q1.703125 0 2.515625 0.890625q0.828125 0.890625 0.828125 2.40625l0 7.265625l-2.703125 0z" fill-rule="nonzero"/><path fill="#000000" d="m224.66309 284.07318l-0.875 -2.40625l-6.09375 0l-0.90625 2.40625l-3.453125 0l5.5 -14.21875l3.796875 0l5.484375 14.21875l-3.453125 0zm-3.921875 -11.203125l-2.21875 6.125l4.4375 0l-2.21875 -6.125zm8.697876 11.203125l0 -14.21875l6.65625 0q2.171875 0 3.46875 1.265625q1.3125 1.265625 1.3125 3.3125q0 2.03125 -1.34375 3.3125q-1.328125 1.265625 -3.4375 1.265625l-3.625 0l0 5.0625l-3.03125 0zm6.25 -7.71875q0.890625 0 1.484375 -0.515625q0.609375 -0.515625 0.609375 -1.40625q0 -0.890625 -0.609375 -1.40625q-0.59375 -0.515625 -1.484375 -0.515625l-3.21875 0l0 3.84375l3.21875 0zm7.0588074 7.71875l0 -14.21875l3.03125 0l0 14.21875l-3.03125 0z" fill-rule="nonzero"/><path fill="#000000" fill-opacity="0.0" d="m230.31496 291.88452c0 15.560303 -4.5747986 23.341064 -9.149597 31.120605c-4.574814 7.7795105 -9.149612 15.5578 -9.149612 31.1156" fill-rule="evenodd"/><path stroke="#9900ff" stroke-width="1.0" stroke-linejoin="round" stroke-linecap="butt" d="m230.23688 295.31073l-0.0035095215 0.08200073c-0.010726929 0.22485352 -0.022491455 0.44799805 -0.03526306 0.6694031c-0.025558472 0.44281006 -0.055145264 0.87875366 -0.088653564 1.3080139c-0.13401794 1.7171326 -0.33059692 3.3278809 -0.58078 4.847473c-0.50038147 3.039154 -1.2151794 5.7136536 -2.0729675 8.1449585c-1.7155457 4.8627014 -4.002945 8.752777 -6.290344 12.642517c-2.2873993 3.8897705 -4.574814 7.779236 -6.2903595 12.640961c-0.8577728 2.4308777 -1.572586 5.104828 -2.0729523 8.143402c-0.2501831 1.5193176 -0.44677734 3.1297607 -0.5807953 4.8465576c-0.0335083 0.42922974 -0.06309509 0.86505127 -0.088638306 1.3078003c-0.012786865 0.22137451 -0.024551392 0.444458 -0.03527832 0.669281l-0.003479004 0.081451416" fill-rule="evenodd"/><path fill="#9900ff" stroke="#9900ff" stroke-width="1.0" stroke-linecap="butt" d="m230.23688 295.3107l1.0986786 1.1499329l-1.053894 -3.1145935l-1.1946869 3.0633545z" fill-rule="evenodd"/><path fill="#9900ff" stroke="#9900ff" stroke-width="1.0" stroke-linecap="butt" d="m212.09384 350.69455l-1.0986481 -1.1499329l1.0538635 3.1145935l1.1947174 -3.063324z" fill-rule="evenodd"/><path fill="#000000" fill-opacity="0.0" d="m121.90551 250.59317c-5.259842 0 -10.519684 51.763794 -10.519684 103.52756" fill-rule="evenodd"/><path stroke="#cc0000" stroke-width="1.0" stroke-linejoin="round" stroke-linecap="butt" d="m121.90551 250.59317c-2.629921 0 -5.259842 12.9409485 -7.2322845 32.352356c-0.9862213 9.705719 -1.8080673 21.029053 -2.3833618 33.161194c-0.28765106 6.0660706 -0.5136566 12.33432 -0.6677551 18.703674c-0.077049255 3.1846924 -0.13611603 6.394684 -0.17592621 9.617249c-0.01990509 1.6113281 -0.034988403 3.225769 -0.04511261 4.8418274l-0.006706238 1.4241943" fill-rule="evenodd"/><path fill="#cc0000" stroke="#cc0000" stroke-width="1.0" stroke-linecap="butt" d="m111.39437 350.69366l-1.1217728 -1.1273804l1.1168747 3.0925598l1.1322784 -3.086975z" fill-rule="evenodd"/><path fill="#d9d9d9" d="m121.90551 63.535435l0 0c0 -5.3402023 4.329094 -9.669292 9.669289 -9.669292l0 0l0 0l14.503937 0l24.173233 0l0 0c2.5644531 0 5.02388 1.0187263 6.837219 2.8320694c1.8133392 1.813343 2.832077 4.272766 2.832077 6.837223l0 64.94226l0 0l0 31.97638l0 11.648285c0 5.34021 -4.3291016 9.669296 -9.669296 9.669296l-24.173233 0l-7.25177 15.98819l-7.2521667 -15.98819l0 0c-5.3401947 0 -9.669289 -4.3290863 -9.669289 -9.669296l0 -11.648285l0 -31.97638l0 0z" fill-rule="evenodd"/><path stroke="#000000" stroke-width="1.0" stroke-linejoin="round" stroke-linecap="butt" d="m121.90551 63.535435l0 0c0 -5.3402023 4.329094 -9.669292 9.669289 -9.669292l0 0l0 0l14.503937 0l24.173233 0l0 0c2.5644531 0 5.02388 1.0187263 6.837219 2.8320694c1.8133392 1.813343 2.832077 4.272766 2.832077 6.837223l0 64.94226l0 0l0 31.97638l0 11.648285c0 5.34021 -4.3291016 9.669296 -9.669296 9.669296l-24.173233 0l-7.25177 15.98819l-7.2521667 -15.98819l0 0c-5.3401947 0 -9.669289 -4.3290863 -9.669289 -9.669296l0 -11.648285l0 -31.97638l0 0z" fill-rule="evenodd"/><path fill="#000000" d="m133.73755 82.6189l3.265625 -4.984375l-2.953125 -4.5625l2.25 0l1.90625 3.078125l1.875 -3.078125l2.234375 0l-2.96875 4.640625l3.265625 4.90625l-2.328125 0l-2.109375 -3.296875l-2.125 3.296875l-2.3125 0z" fill-rule="nonzero"/><path fill="#000000" d="m142.89293 86.2439l0.78125 -0.125q0.0625 0.46875 0.359375 0.71875q0.296875 0.25 0.828125 0.25q0.546875 0 0.796875 -0.21875q0.265625 -0.21875 0.265625 -0.515625q0 -0.265625 -0.234375 -0.421875q-0.15625 -0.109375 -0.796875 -0.265625q-0.859375 -0.21875 -1.1875 -0.375q-0.328125 -0.15625 -0.5 -0.4375q-0.171875 -0.28125 -0.171875 -0.609375q0 -0.3125 0.140625 -0.578125q0.140625 -0.265625 0.375 -0.4375q0.1875 -0.125 0.5 -0.21875q0.3125 -0.09375 0.671875 -0.09375q0.546875 0 0.953125 0.15625q0.40625 0.15625 0.59375 0.421875q0.203125 0.265625 0.28125 0.703125l-0.765625 0.109375q-0.046875 -0.359375 -0.296875 -0.546875q-0.25 -0.203125 -0.703125 -0.203125q-0.546875 0 -0.78125 0.1875q-0.21875 0.171875 -0.21875 0.40625q0 0.15625 0.09375 0.265625q0.09375 0.125 0.296875 0.21875q0.125 0.03125 0.6875 0.1875q0.828125 0.234375 1.15625 0.375q0.328125 0.140625 0.515625 0.40625q0.1875 0.265625 0.1875 0.65625q0 0.390625 -0.234375 0.75q-0.21875 0.34375 -0.65625 0.53125q-0.421875 0.1875 -0.96875 0.1875q-0.890625 0 -1.359375 -0.375q-0.46875 -0.375 -0.609375 -1.109375zm7.4842987 1.375l-0.78125 0l0 -4.96875q-0.28125 0.265625 -0.75 0.53125q-0.453125 0.265625 -0.8125 0.40625l0 -0.75q0.65625 -0.3125 1.140625 -0.75q0.484375 -0.4375 0.6875 -0.84375l0.515625 0l0 6.375z" fill-rule="nonzero"/><path fill="#000000" d="m154.28175 76.91577l0.125 0.6875q-0.328125 0.078125 -0.59375 0.078125q-0.421875 0 -0.65625 -0.125q-0.234375 -0.140625 -0.328125 -0.359375q-0.09375 -0.21875 -0.09375 -0.921875l0 -2.65625l-0.578125 0l0 -0.609375l0.578125 0l0 -1.125l0.765625 -0.46875l0 1.59375l0.78125 0l0 0.609375l-0.78125 0l0 2.703125q0 0.328125 0.046875 0.421875q0.046875 0.09375 0.125 0.15625q0.09375 0.046875 0.28125 0.046875q0.125 0 0.328125 -0.03125zm0.7782135 -4.75l0 -0.90625l0.78125 0l0 0.90625l-0.78125 0zm0 5.453125l0 -4.609375l0.78125 0l0 4.609375l-0.78125 0zm2.1904602 0l0 -0.890625l0.875 0l0 0.890625l-0.875 0zm2.4657135 0l0 -0.890625l0.875 0l0 0.890625l-0.875 0zm2.2313385 -5.453125l0 -0.90625l0.78125 0l0 0.90625l-0.78125 0zm-0.984375 7.234375l0.140625 -0.65625q0.234375 0.0625 0.375 0.0625q0.234375 0 0.34375 -0.171875q0.125 -0.15625 0.125 -0.78125l0 -4.84375l0.78125 0l0 4.859375q0 0.84375 -0.21875 1.1875q-0.28125 0.4375 -0.9375 0.4375q-0.3125 0 -0.609375 -0.09375z" fill-rule="nonzero"/><path fill="#000000" d="m133.73755 106.6189l3.265625 -4.984375l-2.953125 -4.5625l2.25 0l1.90625 3.078125l1.875 -3.078125l2.234375 0l-2.96875 4.640625l3.265625 4.90625l-2.328125 0l-2.109375 -3.296875l-2.125 3.296875l-2.3125 0z" fill-rule="nonzero"/><path fill="#000000" d="m142.89293 110.2439l0.78125 -0.125q0.0625 0.46875 0.359375 0.71875q0.296875 0.25 0.828125 0.25q0.546875 0 0.796875 -0.21875q0.265625 -0.21875 0.265625 -0.515625q0 -0.265625 -0.234375 -0.421875q-0.15625 -0.109375 -0.796875 -0.265625q-0.859375 -0.21875 -1.1875 -0.375q-0.328125 -0.15625 -0.5 -0.4375q-0.171875 -0.28125 -0.171875 -0.609375q0 -0.3125 0.140625 -0.578125q0.140625 -0.265625 0.375 -0.4375q0.1875 -0.125 0.5 -0.21875q0.3125 -0.09375 0.671875 -0.09375q0.546875 0 0.953125 0.15625q0.40625 0.15625 0.59375 0.421875q0.203125 0.265625 0.28125 0.703125l-0.765625 0.109375q-0.046875 -0.359375 -0.296875 -0.546875q-0.25 -0.203125 -0.703125 -0.203125q-0.546875 0 -0.78125 0.1875q-0.21875 0.171875 -0.21875 0.40625q0 0.15625 0.09375 0.265625q0.09375 0.125 0.296875 0.21875q0.125 0.03125 0.6875 0.1875q0.828125 0.234375 1.15625 0.375q0.328125 0.140625 0.515625 0.40625q0.1875 0.265625 0.1875 0.65625q0 0.390625 -0.234375 0.75q-0.21875 0.34375 -0.65625 0.53125q-0.421875 0.1875 -0.96875 0.1875q-0.890625 0 -1.359375 -0.375q-0.46875 -0.375 -0.609375 -1.109375zm8.640549 0.625l0 0.75l-4.203125 0q0 -0.28125 0.09375 -0.546875q0.15625 -0.421875 0.5 -0.828125q0.359375 -0.421875 1.03125 -0.96875q1.03125 -0.859375 1.390625 -1.34375q0.375 -0.5 0.375 -0.9375q0 -0.46875 -0.328125 -0.78125q-0.328125 -0.328125 -0.859375 -0.328125q-0.578125 0 -0.921875 0.34375q-0.328125 0.328125 -0.328125 0.9375l-0.796875 -0.09375q0.078125 -0.890625 0.609375 -1.359375q0.546875 -0.46875 1.453125 -0.46875q0.90625 0 1.4375 0.515625q0.53125 0.5 0.53125 1.25q0 0.375 -0.15625 0.75q-0.15625 0.359375 -0.515625 0.765625q-0.359375 0.40625 -1.203125 1.125q-0.703125 0.59375 -0.90625 0.796875q-0.1875 0.203125 -0.3125 0.421875l3.109375 0z" fill-rule="nonzero"/><path fill="#000000" d="m154.28175 100.91577l0.125 0.6875q-0.328125 0.078125 -0.59375 0.078125q-0.421875 0 -0.65625 -0.125q-0.234375 -0.140625 -0.328125 -0.359375q-0.09375 -0.21875 -0.09375 -0.921875l0 -2.65625l-0.578125 0l0 -0.609375l0.578125 0l0 -1.125l0.765625 -0.46875l0 1.59375l0.78125 0l0 0.609375l-0.78125 0l0 2.703125q0 0.328125 0.046875 0.421875q0.046875 0.09375 0.125 0.15625q0.09375 0.046875 0.28125 0.046875q0.125 0 0.328125 -0.03125zm0.7782135 -4.75l0 -0.90625l0.78125 0l0 0.90625l-0.78125 0zm0 5.453125l0 -4.609375l0.78125 0l0 4.609375l-0.78125 0zm2.1904602 0l0 -0.890625l0.875 0l0 0.890625l-0.875 0zm2.4657135 0l0 -0.890625l0.875 0l0 0.890625l-0.875 0zm2.2313385 -5.453125l0 -0.90625l0.78125 0l0 0.90625l-0.78125 0zm-0.984375 7.234375l0.140625 -0.65625q0.234375 0.0625 0.375 0.0625q0.234375 0 0.34375 -0.171875q0.125 -0.15625 0.125 -0.78125l0 -4.84375l0.78125 0l0 4.859375q0 0.84375 -0.21875 1.1875q-0.28125 0.4375 -0.9375 0.4375q-0.3125 0 -0.609375 -0.09375z" fill-rule="nonzero"/><path fill="#000000" d="m134.69067 130.6189l0 -1.828125l1.828125 0l0 1.828125l-1.828125 0zm3.7029877 0l0 -1.828125l1.828125 0l0 1.828125l-1.828125 0zm3.7029877 0l0 -1.828125l1.828125 0l0 1.828125l-1.828125 0z" fill-rule="nonzero"/><path fill="#000000" d="m133.73755 154.6189l3.265625 -4.984375l-2.953125 -4.5625l2.25 0l1.90625 3.078125l1.875 -3.078125l2.234375 0l-2.96875 4.640625l3.265625 4.90625l-2.328125 0l-2.109375 -3.296875l-2.125 3.296875l-2.3125 0z" fill-rule="nonzero"/><path fill="#000000" d="m142.89293 158.2439l0.78125 -0.125q0.0625 0.46875 0.359375 0.71875q0.296875 0.25 0.828125 0.25q0.546875 0 0.796875 -0.21875q0.265625 -0.21875 0.265625 -0.515625q0 -0.265625 -0.234375 -0.421875q-0.15625 -0.109375 -0.796875 -0.265625q-0.859375 -0.21875 -1.1875 -0.375q-0.328125 -0.15625 -0.5 -0.4375q-0.171875 -0.28125 -0.171875 -0.609375q0 -0.3125 0.140625 -0.578125q0.140625 -0.265625 0.375 -0.4375q0.1875 -0.125 0.5 -0.21875q0.3125 -0.09375 0.671875 -0.09375q0.546875 0 0.953125 0.15625q0.40625 0.15625 0.59375 0.421875q0.203125 0.265625 0.28125 0.703125l-0.765625 0.109375q-0.046875 -0.359375 -0.296875 -0.546875q-0.25 -0.203125 -0.703125 -0.203125q-0.546875 0 -0.78125 0.1875q-0.21875 0.171875 -0.21875 0.40625q0 0.15625 0.09375 0.265625q0.09375 0.125 0.296875 0.21875q0.125 0.03125 0.6875 0.1875q0.828125 0.234375 1.15625 0.375q0.328125 0.140625 0.515625 0.40625q0.1875 0.265625 0.1875 0.65625q0 0.390625 -0.234375 0.75q-0.21875 0.34375 -0.65625 0.53125q-0.421875 0.1875 -0.96875 0.1875q-0.890625 0 -1.359375 -0.375q-0.46875 -0.375 -0.609375 -1.109375zm4.7499237 1.375l0 -4.609375l0.703125 0l0 0.65625q0.515625 -0.75 1.46875 -0.75q0.421875 0 0.765625 0.15625q0.34375 0.140625 0.515625 0.390625q0.1875 0.234375 0.25 0.5625q0.046875 0.21875 0.046875 0.765625l0 2.828125l-0.78125 0l0 -2.796875q0 -0.484375 -0.09375 -0.71875q-0.09375 -0.234375 -0.328125 -0.375q-0.21875 -0.140625 -0.53125 -0.140625q-0.5 0 -0.875 0.328125q-0.359375 0.3125 -0.359375 1.1875l0 2.515625l-0.78125 0z" fill-rule="nonzero"/><path fill="#000000" d="m154.28175 148.91577l0.125 0.6875q-0.328125 0.078125 -0.59375 0.078125q-0.421875 0 -0.65625 -0.125q-0.234375 -0.140625 -0.328125 -0.359375q-0.09375 -0.21875 -0.09375 -0.921875l0 -2.65625l-0.578125 0l0 -0.609375l0.578125 0l0 -1.125l0.765625 -0.46875l0 1.59375l0.78125 0l0 0.609375l-0.78125 0l0 2.703125q0 0.328125 0.046875 0.421875q0.046875 0.09375 0.125 0.15625q0.09375 0.046875 0.28125 0.046875q0.125 0 0.328125 -0.03125zm0.7782135 -4.75l0 -0.90625l0.78125 0l0 0.90625l-0.78125 0zm0 5.453125l0 -4.609375l0.78125 0l0 4.609375l-0.78125 0zm2.1904602 0l0 -0.890625l0.875 0l0 0.890625l-0.875 0zm2.4657135 0l0 -0.890625l0.875 0l0 0.890625l-0.875 0zm2.2313385 -5.453125l0 -0.90625l0.78125 0l0 0.90625l-0.78125 0zm-0.984375 7.234375l0.140625 -0.65625q0.234375 0.0625 0.375 0.0625q0.234375 0 0.34375 -0.171875q0.125 -0.15625 0.125 -0.78125l0 -4.84375l0.78125 0l0 4.859375q0 0.84375 -0.21875 1.1875q-0.28125 0.4375 -0.9375 0.4375q-0.3125 0 -0.609375 -0.09375z" fill-rule="nonzero"/><path fill="#f4cccc" d="m7.918635 514.5067l0 0c0 -4.705353 3.8144689 -8.519836 8.5198555 -8.519836l109.92092 0c2.2596054 0 4.4266586 0.8976135 6.024437 2.4953918c1.5977936 1.5978088 2.495407 3.764862 2.495407 6.0244446l0 34.07843c0 4.7053833 -3.8144684 8.519836 -8.519844 8.519836l-109.92092 0l0 0c-4.705386 0 -8.5198555 -3.8144531 -8.5198555 -8.519836z" fill-rule="evenodd"/><path stroke="#000000" stroke-width="1.0" stroke-linejoin="round" stroke-linecap="butt" d="m7.918635 514.5067l0 0c0 -4.705353 3.8144689 -8.519836 8.5198555 -8.519836l109.92092 0c2.2596054 0 4.4266586 0.8976135 6.024437 2.4953918c1.5977936 1.5978088 2.495407 3.764862 2.495407 6.0244446l0 34.07843c0 4.7053833 -3.8144684 8.519836 -8.519844 8.519836l-109.92092 0l0 0c-4.705386 0 -8.5198555 -3.8144531 -8.5198555 -8.519836z" fill-rule="evenodd"/><path fill="#000000" d="m61.702045 537.59344q-2.578125 0 -4.09375 -1.6875l0.78125 -1.015625q0.65625 0.734375 1.53125 1.140625q0.890625 0.390625 1.828125 0.390625q1.15625 0 1.828125 -0.515625q0.6874962 -0.515625 0.6874962 -1.328125q0 -1.265625 -1.9843712 -1.8125q-2.359375 -0.625 -3.015625 -0.984375q-0.640625 -0.375 -0.984375 -0.921875q-0.34375 -0.5625 -0.34375 -1.328125q0 -1.28125 1.03125 -2.109375q1.046875 -0.84375 2.640625 -0.84375q2.4062462 0 3.7968712 1.484375l-0.8125 0.96875q-1.1406212 -1.265625 -3.0781212 -1.265625q-0.96875 0 -1.59375 0.46875q-0.609375 0.453125 -0.609375 1.21875q0 0.5625 0.515625 0.953125q0.515625 0.390625 1.484375 0.625q2.28125 0.625 2.9374962 1.03125q0.671875 0.40625 1.03125 0.984375q0.359375 0.578125 0.359375 1.421875q0 1.46875 -1.078125 2.296875q-1.0624962 0.828125 -2.8593712 0.828125zm5.9228935 -0.1875l0 -10.671875l1.328125 0l0 9.484375l4.953125 0l0 1.1875l-6.28125 0zm8.160019 0l0 -10.671875l1.328125 0l0 10.671875l-1.328125 0zm6.21463 0.1875q-1.953125 0 -3.109375 -1.21875l0.625 -0.859375q0.375 0.453125 1.046875 0.78125q0.6875 0.328125 1.5 0.328125q0.890625 0 1.34375 -0.375q0.46875 -0.375 0.46875 -0.953125q0 -0.515625 -0.5 -0.8125q-0.5 -0.296875 -1.875 -0.609375q-1.171875 -0.25 -1.796875 -0.765625q-0.609375 -0.515625 -0.609375 -1.40625q0 -0.96875 0.78125 -1.59375q0.78125 -0.625 2.09375 -0.625q1.75 0 2.875 1.125l-0.5625 0.828125q-0.359375 -0.421875 -0.953125 -0.6875q-0.59375 -0.28125 -1.359375 -0.28125q-0.796875 0 -1.25 0.359375q-0.453125 0.34375 -0.453125 0.84375q0 0.46875 0.5 0.75q0.515625 0.265625 1.890625 0.546875q1.171875 0.28125 1.78125 0.828125q0.609375 0.546875 0.609375 1.46875q0 1.0625 -0.828125 1.703125q-0.828125 0.625 -2.21875 0.625z" fill-rule="nonzero"/><path fill="#000000" fill-opacity="0.0" d="m111.39895 459.21506l-40.0 46.771667" fill-rule="evenodd"/><path stroke="#000000" stroke-width="1.0" stroke-linejoin="round" stroke-linecap="butt" stroke-dasharray="4.0,3.0" d="m109.171524 461.81955l-37.772575 44.167175" fill-rule="evenodd"/><path fill="#000000" stroke="#000000" stroke-width="1.0" stroke-linecap="butt" d="m109.171524 461.81958l0.12373352 1.5855713l1.1535339 -3.079071l-2.8628464 1.617218z" fill-rule="evenodd"/><path fill="#000000" fill-opacity="0.0" d="m117.62467 10.118111l69.57481 0l0 24.472439l-69.57481 0z" fill-rule="evenodd"/><path fill="#000000" d="m135.65889 37.03811l0 -11.78125l-4.40625 0l0 -1.578125l10.578125 0l0 1.578125l-4.40625 0l0 11.78125l-1.765625 0zm7.395981 -4.296875l1.65625 -0.140625q0.125 1.0 0.546875 1.640625q0.4375 0.640625 1.34375 1.046875q0.921875 0.390625 2.0625 0.390625q0.99998474 0 1.7812347 -0.296875q0.78125 -0.296875 1.15625 -0.8125q0.375 -0.53125 0.375 -1.15625q0 -0.625 -0.375 -1.09375q-0.359375 -0.46875 -1.1875 -0.796875q-0.546875 -0.203125 -2.3906097 -0.640625q-1.828125 -0.453125 -2.5625 -0.84375q-0.96875 -0.5 -1.4375 -1.234375q-0.46875 -0.75 -0.46875 -1.671875q0 -1.0 0.578125 -1.875q0.578125 -0.890625 1.671875 -1.34375q1.109375 -0.453125 2.453125 -0.453125q1.4843597 0 2.6093597 0.484375q1.140625 0.46875 1.75 1.40625q0.609375 0.921875 0.65625 2.09375l-1.6875 0.125q-0.140625 -1.265625 -0.9375 -1.90625q-0.78125 -0.65625 -2.3124847 -0.65625q-1.609375 0 -2.34375 0.59375q-0.734375 0.59375 -0.734375 1.421875q0 0.71875 0.53125 1.171875q0.5 0.46875 2.65625 0.96875q2.1562347 0.484375 2.9531097 0.84375q1.171875 0.53125 1.71875 1.359375q0.5625 0.828125 0.5625 1.90625q0 1.0625 -0.609375 2.015625q-0.609375 0.9375 -1.75 1.46875q-1.140625 0.515625 -2.5781097 0.515625q-1.8125 0 -3.046875 -0.53125q-1.21875 -0.53125 -1.921875 -1.59375q-0.6875 -1.0625 -0.71875 -2.40625z" fill-rule="nonzero"/><path fill="#000000" d="m155.46718 44.03811l0 -8.90625l1.09375 0l0 3.203125q0.765625 -0.890625 1.9375 -0.890625q0.71875 0 1.25 0.28125q0.53125 0.28125 0.75 0.78125q0.234375 0.5 0.234375 1.4375l0 4.09375l-1.09375 0l0 -4.09375q0 -0.8125 -0.359375 -1.1875q-0.359375 -0.375 -1.0 -0.375q-0.484375 0 -0.921875 0.25q-0.421875 0.25 -0.609375 0.6875q-0.1875 0.4375 -0.1875 1.1875l0 3.53125l-1.09375 0zm6.932663 -7.640625l0 -1.265625l1.09375 0l0 1.265625l-1.09375 0zm0 7.640625l0 -6.453125l1.09375 0l0 6.453125l-1.09375 0zm2.3100433 -1.921875l1.09375 -0.171875q0.09375 0.640625 0.5 1.0q0.421875 0.34375 1.171875 0.34375q0.75 0 1.109375 -0.296875q0.359375 -0.3125 0.359375 -0.734375q0 -0.375 -0.3125 -0.578125q-0.234375 -0.15625 -1.125 -0.375q-1.203125 -0.296875 -1.671875 -0.515625q-0.453125 -0.234375 -0.703125 -0.625q-0.234375 -0.390625 -0.234375 -0.859375q0 -0.4375 0.1875 -0.796875q0.203125 -0.375 0.546875 -0.609375q0.265625 -0.1875 0.703125 -0.3125q0.4375 -0.140625 0.9375 -0.140625q0.765625 0 1.328125 0.21875q0.578125 0.21875 0.84375 0.59375q0.28125 0.375 0.390625 1.0l-1.078125 0.140625q-0.0625 -0.5 -0.421875 -0.78125q-0.34375 -0.28125 -0.984375 -0.28125q-0.75 0 -1.078125 0.25q-0.3125 0.25 -0.3125 0.59375q0 0.203125 0.125 0.375q0.140625 0.171875 0.421875 0.296875q0.171875 0.0625 0.96875 0.28125q1.15625 0.3125 1.609375 0.515625q0.46875 0.1875 0.71875 0.5625q0.265625 0.375 0.265625 0.9375q0 0.546875 -0.328125 1.03125q-0.3125 0.484375 -0.90625 0.75q-0.59375 0.25 -1.359375 0.25q-1.265625 0 -1.921875 -0.515625q-0.65625 -0.53125 -0.84375 -1.546875zm9.046768 0.9375l0.15625 0.96875q-0.453125 0.09375 -0.828125 0.09375q-0.59375 0 -0.921875 -0.1875q-0.328125 -0.1875 -0.46875 -0.484375q-0.125 -0.3125 -0.125 -1.296875l0 -3.703125l-0.796875 0l0 -0.859375l0.796875 0l0 -1.59375l1.09375 -0.65625l0 2.25l1.09375 0l0 0.859375l-1.09375 0l0 3.765625q0 0.46875 0.046875 0.609375q0.0625 0.125 0.1875 0.203125q0.140625 0.078125 0.390625 0.078125q0.171875 0 0.46875 -0.046875z" fill-rule="nonzero"/><path fill="#d9d9d9" d="m280.70865 63.535435l0 0c0 -5.3402023 4.3291016 -9.669292 9.669312 -9.669292l0 0l0 0l14.503937 0l24.173218 0l0 0c2.5644531 0 5.0238953 1.0187263 6.837219 2.8320694c1.8133545 1.813343 2.8320618 4.272766 2.8320618 6.837223l0 64.94226l0 0l0 31.97638l0 11.648285c0 5.34021 -4.329071 9.669296 -9.669281 9.669296l-24.173218 0l-7.25177 15.98819l-7.2521667 -15.98819l0 0c-5.34021 0 -9.669312 -4.3290863 -9.669312 -9.669296l0 -11.648285l0 -31.97638l0 0z" fill-rule="evenodd"/><path stroke="#000000" stroke-width="1.0" stroke-linejoin="round" stroke-linecap="butt" d="m280.70865 63.535435l0 0c0 -5.3402023 4.3291016 -9.669292 9.669312 -9.669292l0 0l0 0l14.503937 0l24.173218 0l0 0c2.5644531 0 5.0238953 1.0187263 6.837219 2.8320694c1.8133545 1.813343 2.8320618 4.272766 2.8320618 6.837223l0 64.94226l0 0l0 31.97638l0 11.648285c0 5.34021 -4.329071 9.669296 -9.669281 9.669296l-24.173218 0l-7.25177 15.98819l-7.2521667 -15.98819l0 0c-5.34021 0 -9.669312 -4.3290863 -9.669312 -9.669296l0 -11.648285l0 -31.97638l0 0z" fill-rule="evenodd"/><path fill="#000000" d="m292.5407 82.6189l3.265625 -4.984375l-2.953125 -4.5625l2.25 0l1.90625 3.078125l1.875 -3.078125l2.234375 0l-2.96875 4.640625l3.265625 4.90625l-2.328125 0l-2.109375 -3.296875l-2.125 3.296875l-2.3125 0z" fill-rule="nonzero"/><path fill="#000000" d="m301.69608 86.2439l0.78125 -0.125q0.0625 0.46875 0.359375 0.71875q0.296875 0.25 0.828125 0.25q0.546875 0 0.796875 -0.21875q0.265625 -0.21875 0.265625 -0.515625q0 -0.265625 -0.234375 -0.421875q-0.15625 -0.109375 -0.796875 -0.265625q-0.859375 -0.21875 -1.1875 -0.375q-0.328125 -0.15625 -0.5 -0.4375q-0.171875 -0.28125 -0.171875 -0.609375q0 -0.3125 0.140625 -0.578125q0.140625 -0.265625 0.375 -0.4375q0.1875 -0.125 0.5 -0.21875q0.3125 -0.09375 0.671875 -0.09375q0.546875 0 0.953125 0.15625q0.40625 0.15625 0.59375 0.421875q0.203125 0.265625 0.28125 0.703125l-0.765625 0.109375q-0.046875 -0.359375 -0.296875 -0.546875q-0.25 -0.203125 -0.703125 -0.203125q-0.546875 0 -0.78125 0.1875q-0.21875 0.171875 -0.21875 0.40625q0 0.15625 0.09375 0.265625q0.09375 0.125 0.296875 0.21875q0.125 0.03125 0.6875 0.1875q0.828125 0.234375 1.15625 0.375q0.328125 0.140625 0.515625 0.40625q0.1875 0.265625 0.1875 0.65625q0 0.390625 -0.234375 0.75q-0.21875 0.34375 -0.65625 0.53125q-0.421875 0.1875 -0.96875 0.1875q-0.890625 0 -1.359375 -0.375q-0.46875 -0.375 -0.609375 -1.109375zm7.484314 1.375l-0.78125 0l0 -4.96875q-0.28125 0.265625 -0.75 0.53125q-0.453125 0.265625 -0.8125 0.40625l0 -0.75q0.65625 -0.3125 1.140625 -0.75q0.484375 -0.4375 0.6875 -0.84375l0.515625 0l0 6.375z" fill-rule="nonzero"/><path fill="#000000" d="m313.0849 76.91577l0.125 0.6875q-0.328125 0.078125 -0.59375 0.078125q-0.421875 0 -0.65625 -0.125q-0.234375 -0.140625 -0.328125 -0.359375q-0.09375 -0.21875 -0.09375 -0.921875l0 -2.65625l-0.578125 0l0 -0.609375l0.578125 0l0 -1.125l0.765625 -0.46875l0 1.59375l0.78125 0l0 0.609375l-0.78125 0l0 2.703125q0 0.328125 0.046875 0.421875q0.046875 0.09375 0.125 0.15625q0.09375 0.046875 0.28125 0.046875q0.125 0 0.328125 -0.03125zm0.55947876 -2.4375q0 -1.125 0.21875 -1.8125q0.234375 -0.6875 0.6875 -1.046875q0.46875 -0.375 1.15625 -0.375q0.515625 0 0.890625 0.203125q0.390625 0.203125 0.640625 0.59375q0.25 0.390625 0.390625 0.953125q0.15625 0.546875 0.15625 1.484375q0 1.125 -0.234375 1.8125q-0.234375 0.6875 -0.6875 1.0625q-0.453125 0.375 -1.15625 0.375q-0.921875 0 -1.4375 -0.65625q-0.625 -0.796875 -0.625 -2.59375zm0.796875 0q0 1.578125 0.359375 2.09375q0.375 0.515625 0.90625 0.515625q0.546875 0 0.90625 -0.515625q0.359375 -0.53125 0.359375 -2.09375q0 -1.5625 -0.359375 -2.078125q-0.359375 -0.515625 -0.90625 -0.515625q-0.546875 0 -0.859375 0.453125q-0.40625 0.578125 -0.40625 2.140625zm4.5763855 3.140625l0 -0.890625l0.875 0l0 0.890625l-0.875 0zm2.4657288 0l0 -0.890625l0.875 0l0 0.890625l-0.875 0zm2.4188232 0l0 -4.0l-0.6875 0l0 -0.609375l0.6875 0l0 -0.484375q0 -0.46875 0.09375 -0.6875q0.109375 -0.296875 0.390625 -0.484375q0.28125 -0.203125 0.796875 -0.203125q0.328125 0 0.734375 0.078125l-0.125 0.6875q-0.25 -0.046875 -0.453125 -0.046875q-0.359375 0 -0.515625 0.15625q-0.140625 0.15625 -0.140625 0.5625l0 0.421875l0.890625 0l0 0.609375l-0.890625 0l0 4.0l-0.78125 0z" fill-rule="nonzero"/><path fill="#000000" d="m292.5407 106.6189l3.265625 -4.984375l-2.953125 -4.5625l2.25 0l1.90625 3.078125l1.875 -3.078125l2.234375 0l-2.96875 4.640625l3.265625 4.90625l-2.328125 0l-2.109375 -3.296875l-2.125 3.296875l-2.3125 0z" fill-rule="nonzero"/><path fill="#000000" d="m301.69608 110.2439l0.78125 -0.125q0.0625 0.46875 0.359375 0.71875q0.296875 0.25 0.828125 0.25q0.546875 0 0.796875 -0.21875q0.265625 -0.21875 0.265625 -0.515625q0 -0.265625 -0.234375 -0.421875q-0.15625 -0.109375 -0.796875 -0.265625q-0.859375 -0.21875 -1.1875 -0.375q-0.328125 -0.15625 -0.5 -0.4375q-0.171875 -0.28125 -0.171875 -0.609375q0 -0.3125 0.140625 -0.578125q0.140625 -0.265625 0.375 -0.4375q0.1875 -0.125 0.5 -0.21875q0.3125 -0.09375 0.671875 -0.09375q0.546875 0 0.953125 0.15625q0.40625 0.15625 0.59375 0.421875q0.203125 0.265625 0.28125 0.703125l-0.765625 0.109375q-0.046875 -0.359375 -0.296875 -0.546875q-0.25 -0.203125 -0.703125 -0.203125q-0.546875 0 -0.78125 0.1875q-0.21875 0.171875 -0.21875 0.40625q0 0.15625 0.09375 0.265625q0.09375 0.125 0.296875 0.21875q0.125 0.03125 0.6875 0.1875q0.828125 0.234375 1.15625 0.375q0.328125 0.140625 0.515625 0.40625q0.1875 0.265625 0.1875 0.65625q0 0.390625 -0.234375 0.75q-0.21875 0.34375 -0.65625 0.53125q-0.421875 0.1875 -0.96875 0.1875q-0.890625 0 -1.359375 -0.375q-0.46875 -0.375 -0.609375 -1.109375zm8.640564 0.625l0 0.75l-4.203125 0q0 -0.28125 0.09375 -0.546875q0.15625 -0.421875 0.5 -0.828125q0.359375 -0.421875 1.03125 -0.96875q1.03125 -0.859375 1.390625 -1.34375q0.375 -0.5 0.375 -0.9375q0 -0.46875 -0.328125 -0.78125q-0.328125 -0.328125 -0.859375 -0.328125q-0.578125 0 -0.921875 0.34375q-0.328125 0.328125 -0.328125 0.9375l-0.796875 -0.09375q0.078125 -0.890625 0.609375 -1.359375q0.546875 -0.46875 1.453125 -0.46875q0.90625 0 1.4375 0.515625q0.53125 0.5 0.53125 1.25q0 0.375 -0.15625 0.75q-0.15625 0.359375 -0.515625 0.765625q-0.359375 0.40625 -1.203125 1.125q-0.703125 0.59375 -0.90625 0.796875q-0.1875 0.203125 -0.3125 0.421875l3.109375 0z" fill-rule="nonzero"/><path fill="#000000" d="m313.0849 100.91577l0.125 0.6875q-0.328125 0.078125 -0.59375 0.078125q-0.421875 0 -0.65625 -0.125q-0.234375 -0.140625 -0.328125 -0.359375q-0.09375 -0.21875 -0.09375 -0.921875l0 -2.65625l-0.578125 0l0 -0.609375l0.578125 0l0 -1.125l0.765625 -0.46875l0 1.59375l0.78125 0l0 0.609375l-0.78125 0l0 2.703125q0 0.328125 0.046875 0.421875q0.046875 0.09375 0.125 0.15625q0.09375 0.046875 0.28125 0.046875q0.125 0 0.328125 -0.03125zm0.55947876 -2.4375q0 -1.125 0.21875 -1.8125q0.234375 -0.6875 0.6875 -1.046875q0.46875 -0.375 1.15625 -0.375q0.515625 0 0.890625 0.203125q0.390625 0.203125 0.640625 0.59375q0.25 0.390625 0.390625 0.953125q0.15625 0.546875 0.15625 1.484375q0 1.125 -0.234375 1.8125q-0.234375 0.6875 -0.6875 1.0625q-0.453125 0.375 -1.15625 0.375q-0.921875 0 -1.4375 -0.65625q-0.625 -0.796875 -0.625 -2.59375zm0.796875 0q0 1.578125 0.359375 2.09375q0.375 0.515625 0.90625 0.515625q0.546875 0 0.90625 -0.515625q0.359375 -0.53125 0.359375 -2.09375q0 -1.5625 -0.359375 -2.078125q-0.359375 -0.515625 -0.90625 -0.515625q-0.546875 0 -0.859375 0.453125q-0.40625 0.578125 -0.40625 2.140625zm4.5763855 3.140625l0 -0.890625l0.875 0l0 0.890625l-0.875 0zm2.4657288 0l0 -0.890625l0.875 0l0 0.890625l-0.875 0zm2.4188232 0l0 -4.0l-0.6875 0l0 -0.609375l0.6875 0l0 -0.484375q0 -0.46875 0.09375 -0.6875q0.109375 -0.296875 0.390625 -0.484375q0.28125 -0.203125 0.796875 -0.203125q0.328125 0 0.734375 0.078125l-0.125 0.6875q-0.25 -0.046875 -0.453125 -0.046875q-0.359375 0 -0.515625 0.15625q-0.140625 0.15625 -0.140625 0.5625l0 0.421875l0.890625 0l0 0.609375l-0.890625 0l0 4.0l-0.78125 0z" fill-rule="nonzero"/><path fill="#000000" d="m293.49384 130.6189l0 -1.828125l1.828125 0l0 1.828125l-1.828125 0zm3.7029724 0l0 -1.828125l1.828125 0l0 1.828125l-1.828125 0zm3.703003 0l0 -1.828125l1.828125 0l0 1.828125l-1.828125 0z" fill-rule="nonzero"/><path fill="#000000" d="m292.5407 154.6189l3.265625 -4.984375l-2.953125 -4.5625l2.25 0l1.90625 3.078125l1.875 -3.078125l2.234375 0l-2.96875 4.640625l3.265625 4.90625l-2.328125 0l-2.109375 -3.296875l-2.125 3.296875l-2.3125 0z" fill-rule="nonzero"/><path fill="#000000" d="m301.69608 158.2439l0.78125 -0.125q0.0625 0.46875 0.359375 0.71875q0.296875 0.25 0.828125 0.25q0.546875 0 0.796875 -0.21875q0.265625 -0.21875 0.265625 -0.515625q0 -0.265625 -0.234375 -0.421875q-0.15625 -0.109375 -0.796875 -0.265625q-0.859375 -0.21875 -1.1875 -0.375q-0.328125 -0.15625 -0.5 -0.4375q-0.171875 -0.28125 -0.171875 -0.609375q0 -0.3125 0.140625 -0.578125q0.140625 -0.265625 0.375 -0.4375q0.1875 -0.125 0.5 -0.21875q0.3125 -0.09375 0.671875 -0.09375q0.546875 0 0.953125 0.15625q0.40625 0.15625 0.59375 0.421875q0.203125 0.265625 0.28125 0.703125l-0.765625 0.109375q-0.046875 -0.359375 -0.296875 -0.546875q-0.25 -0.203125 -0.703125 -0.203125q-0.546875 0 -0.78125 0.1875q-0.21875 0.171875 -0.21875 0.40625q0 0.15625 0.09375 0.265625q0.09375 0.125 0.296875 0.21875q0.125 0.03125 0.6875 0.1875q0.828125 0.234375 1.15625 0.375q0.328125 0.140625 0.515625 0.40625q0.1875 0.265625 0.1875 0.65625q0 0.390625 -0.234375 0.75q-0.21875 0.34375 -0.65625 0.53125q-0.421875 0.1875 -0.96875 0.1875q-0.890625 0 -1.359375 -0.375q-0.46875 -0.375 -0.609375 -1.109375zm4.749939 1.375l0 -4.609375l0.703125 0l0 0.65625q0.515625 -0.75 1.46875 -0.75q0.421875 0 0.765625 0.15625q0.34375 0.140625 0.515625 0.390625q0.1875 0.234375 0.25 0.5625q0.046875 0.21875 0.046875 0.765625l0 2.828125l-0.78125 0l0 -2.796875q0 -0.484375 -0.09375 -0.71875q-0.09375 -0.234375 -0.328125 -0.375q-0.21875 -0.140625 -0.53125 -0.140625q-0.5 0 -0.875 0.328125q-0.359375 0.3125 -0.359375 1.1875l0 2.515625l-0.78125 0z" fill-rule="nonzero"/><path fill="#000000" d="m313.0849 148.91577l0.125 0.6875q-0.328125 0.078125 -0.59375 0.078125q-0.421875 0 -0.65625 -0.125q-0.234375 -0.140625 -0.328125 -0.359375q-0.09375 -0.21875 -0.09375 -0.921875l0 -2.65625l-0.578125 0l0 -0.609375l0.578125 0l0 -1.125l0.765625 -0.46875l0 1.59375l0.78125 0l0 0.609375l-0.78125 0l0 2.703125q0 0.328125 0.046875 0.421875q0.046875 0.09375 0.125 0.15625q0.09375 0.046875 0.28125 0.046875q0.125 0 0.328125 -0.03125zm0.55947876 -2.4375q0 -1.125 0.21875 -1.8125q0.234375 -0.6875 0.6875 -1.046875q0.46875 -0.375 1.15625 -0.375q0.515625 0 0.890625 0.203125q0.390625 0.203125 0.640625 0.59375q0.25 0.390625 0.390625 0.953125q0.15625 0.546875 0.15625 1.484375q0 1.125 -0.234375 1.8125q-0.234375 0.6875 -0.6875 1.0625q-0.453125 0.375 -1.15625 0.375q-0.921875 0 -1.4375 -0.65625q-0.625 -0.796875 -0.625 -2.59375zm0.796875 0q0 1.578125 0.359375 2.09375q0.375 0.515625 0.90625 0.515625q0.546875 0 0.90625 -0.515625q0.359375 -0.53125 0.359375 -2.09375q0 -1.5625 -0.359375 -2.078125q-0.359375 -0.515625 -0.90625 -0.515625q-0.546875 0 -0.859375 0.453125q-0.40625 0.578125 -0.40625 2.140625zm4.5763855 3.140625l0 -0.890625l0.875 0l0 0.890625l-0.875 0zm2.4657288 0l0 -0.890625l0.875 0l0 0.890625l-0.875 0zm2.4188232 0l0 -4.0l-0.6875 0l0 -0.609375l0.6875 0l0 -0.484375q0 -0.46875 0.09375 -0.6875q0.109375 -0.296875 0.390625 -0.484375q0.28125 -0.203125 0.796875 -0.203125q0.328125 0 0.734375 0.078125l-0.125 0.6875q-0.25 -0.046875 -0.453125 -0.046875q-0.359375 0 -0.515625 0.15625q-0.140625 0.15625 -0.140625 0.5625l0 0.421875l0.890625 0l0 0.609375l-0.890625 0l0 4.0l-0.78125 0z" fill-rule="nonzero"/><path fill="#000000" fill-opacity="0.0" d="m187.19948 95.215225l84.94487 0l0 44.7874l-84.94487 0z" fill-rule="evenodd"/><path fill="#000000" d="m211.44536 129.32892l-1.828125 0l-6.609375 -16.968742l-1.015625 0q-0.359375 0 -0.515625 -0.0625q-0.15625 -0.078125 -0.265625 -0.234375q-0.09375 -0.171875 -0.09375 -0.359375q0 -0.1875 0.09375 -0.34375q0.109375 -0.171875 0.265625 -0.234375q0.15625 -0.078125 0.515625 -0.078125l4.890625 0q0.375 0 0.515625 0.078125q0.15625 0.0625 0.25 0.234375q0.109375 0.15625 0.109375 0.34375q0 0.1875 -0.109375 0.359375q-0.109375 0.15625 -0.265625 0.234375q-0.140625 0.0625 -0.5 0.0625l-2.515625 0l6.09375 15.656242l0.09375 0l6.015625 -15.656242l-2.5 0q-0.375 0 -0.53125 -0.0625q-0.15625 -0.078125 -0.265625 -0.234375q-0.09375 -0.171875 -0.09375 -0.359375q0 -0.1875 0.109375 -0.34375q0.109375 -0.171875 0.25 -0.234375q0.15625 -0.078125 0.53125 -0.078125l4.875 0q0.375 0 0.53125 0.078125q0.15625 0.0625 0.25 0.234375q0.109375 0.15625 0.109375 0.34375q0 0.1875 -0.109375 0.359375q-0.109375 0.15625 -0.265625 0.234375q-0.140625 0.0625 -0.515625 0.0625l-1.0 0l-6.5 16.968742zm22.546875 -6.1093674l-8.625 0l-1.765625 4.7968674l2.515625 0q0.46875 0 0.671875 0.1875q0.203125 0.171875 0.203125 0.46875q0 0.28125 -0.203125 0.46875q-0.203125 0.1875 -0.671875 0.1875l-4.90625 0q-0.46875 0 -0.671875 -0.1875q-0.203125 -0.1875 -0.203125 -0.46875q0 -0.296875 0.203125 -0.46875q0.203125 -0.1875 0.671875 -0.1875l1.015625 0l5.796875 -15.656242l-3.875 0q-0.46875 0 -0.671875 -0.171875q-0.203125 -0.1875 -0.203125 -0.484375q0 -0.296875 0.203125 -0.46875q0.203125 -0.1875 0.671875 -0.1875l6.609375 0l6.40625 16.968742l1.015625 0q0.46875 0 0.671875 0.1875q0.203125 0.171875 0.203125 0.46875q0 0.28125 -0.203125 0.46875q-0.203125 0.1875 -0.671875 0.1875l-4.890625 0q-0.484375 0 -0.6875 -0.1875q-0.203125 -0.1875 -0.203125 -0.46875q0 -0.296875 0.203125 -0.46875q0.203125 -0.1875 0.6875 -0.1875l2.5 0l-1.796875 -4.7968674zm-0.5 -1.3125l-3.625 -9.546875l-0.484375 0l-3.515625 9.546875l7.625 0zm11.109375 -0.734375l0 6.8437424l2.421875 0q0.484375 0 0.6875 0.1875q0.203125 0.171875 0.203125 0.46875q0 0.28125 -0.203125 0.46875q-0.203125 0.1875 -0.6875 0.1875l-5.5 0q-0.46875 0 -0.671875 -0.1875q-0.203125 -0.1875 -0.203125 -0.46875q0 -0.296875 0.203125 -0.46875q0.203125 -0.1875 0.671875 -0.1875l1.765625 0l0 -15.656242l-1.765625 0q-0.46875 0 -0.671875 -0.171875q-0.203125 -0.1875 -0.203125 -0.484375q0 -0.296875 0.203125 -0.46875q0.203125 -0.1875 0.671875 -0.1875l7.9375 0q2.453125 0 4.125 1.5625q1.6875 1.546875 1.6875 3.5q0 1.40625 -1.046875 2.65625q-1.03125 1.234375 -3.46875 2.0625q1.40625 0.96875 2.40625 2.1875q1.0 1.21875 3.2031097 4.9999924l1.0 0q0.46875 0 0.671875 0.1875q0.203125 0.171875 0.203125 0.46875q0 0.28125 -0.203125 0.46875q-0.203125 0.1875 -0.671875 0.1875l-1.7499847 0q-2.4375 -4.3593674 -3.78125 -5.8437424q-1.328125 -1.484375 -3.0625 -2.3125l-4.171875 0zm0 -1.3125l3.578125 0q1.71875 0 3.109375 -0.625q1.40625 -0.625 2.03125 -1.46875q0.640625 -0.84375 0.640625 -1.71875q0 -1.3125 -1.328125 -2.5q-1.3125 -1.1875 -3.203125 -1.1875l-4.828125 0l0 7.5z" fill-rule="nonzero"/><path fill="#000000" fill-opacity="0.0" d="m274.92914 10.118111l69.5748 0l0 24.472439l-69.5748 0z" fill-rule="evenodd"/><path fill="#000000" d="m290.1941 37.03811l0 -11.78125l-4.40625 0l0 -1.578125l10.578125 0l0 1.578125l-4.40625 0l0 11.78125l-1.765625 0zm7.395996 -4.296875l1.65625 -0.140625q0.125 1.0 0.546875 1.640625q0.4375 0.640625 1.34375 1.046875q0.921875 0.390625 2.0625 0.390625q1.0 0 1.78125 -0.296875q0.78125 -0.296875 1.15625 -0.8125q0.375 -0.53125 0.375 -1.15625q0 -0.625 -0.375 -1.09375q-0.359375 -0.46875 -1.1875 -0.796875q-0.546875 -0.203125 -2.390625 -0.640625q-1.828125 -0.453125 -2.5625 -0.84375q-0.96875 -0.5 -1.4375 -1.234375q-0.46875 -0.75 -0.46875 -1.671875q0 -1.0 0.578125 -1.875q0.578125 -0.890625 1.671875 -1.34375q1.109375 -0.453125 2.453125 -0.453125q1.484375 0 2.609375 0.484375q1.140625 0.46875 1.75 1.40625q0.609375 0.921875 0.65625 2.09375l-1.6875 0.125q-0.140625 -1.265625 -0.9375 -1.90625q-0.78125 -0.65625 -2.3125 -0.65625q-1.609375 0 -2.34375 0.59375q-0.734375 0.59375 -0.734375 1.421875q0 0.71875 0.53125 1.171875q0.5 0.46875 2.65625 0.96875q2.15625 0.484375 2.953125 0.84375q1.171875 0.53125 1.71875 1.359375q0.5625 0.828125 0.5625 1.90625q0 1.0625 -0.609375 2.015625q-0.609375 0.9375 -1.75 1.46875q-1.140625 0.515625 -2.578125 0.515625q-1.8125 0 -3.046875 -0.53125q-1.21875 -0.53125 -1.921875 -1.59375q-0.6875 -1.0625 -0.71875 -2.40625z" fill-rule="nonzero"/><path fill="#000000" d="m310.0024 46.50686l0 -8.921875l1.0 0l0 0.84375q0.359375 -0.5 0.796875 -0.734375q0.453125 -0.25 1.078125 -0.25q0.828125 0 1.453125 0.421875q0.640625 0.421875 0.953125 1.203125q0.328125 0.765625 0.328125 1.703125q0 0.984375 -0.359375 1.78125q-0.359375 0.78125 -1.03125 1.203125q-0.671875 0.421875 -1.421875 0.421875q-0.546875 0 -0.984375 -0.21875q-0.4375 -0.234375 -0.71875 -0.59375l0 3.140625l-1.09375 0zm1.0 -5.65625q0 1.25 0.5 1.84375q0.5 0.59375 1.21875 0.59375q0.734375 0 1.25 -0.609375q0.515625 -0.625 0.515625 -1.921875q0 -1.234375 -0.515625 -1.84375q-0.5 -0.609375 -1.203125 -0.609375q-0.6875 0 -1.234375 0.65625q-0.53125 0.640625 -0.53125 1.890625zm5.9170227 3.1875l0 -6.453125l0.984375 0l0 0.984375q0.375 -0.6875 0.6875 -0.90625q0.328125 -0.21875 0.703125 -0.21875q0.546875 0 1.125 0.34375l-0.375 1.015625q-0.40625 -0.234375 -0.796875 -0.234375q-0.359375 0 -0.65625 0.21875q-0.28125 0.21875 -0.40625 0.59375q-0.171875 0.59375 -0.171875 1.28125l0 3.375l-1.09375 0zm8.563599 -2.078125l1.125 0.140625q-0.265625 0.984375 -0.984375 1.53125q-0.71875 0.546875 -1.84375 0.546875q-1.421875 0 -2.25 -0.859375q-0.828125 -0.875 -0.828125 -2.453125q0 -1.625 0.828125 -2.515625q0.84375 -0.90625 2.1875 -0.90625q1.296875 0 2.109375 0.890625q0.828125 0.875 0.828125 2.46875q0 0.09375 -0.015625 0.28125l-4.8125 0q0.0625 1.078125 0.609375 1.640625q0.546875 0.5625 1.34375 0.5625q0.609375 0 1.03125 -0.3125q0.421875 -0.328125 0.671875 -1.015625zm-3.59375 -1.765625l3.609375 0q-0.078125 -0.8125 -0.421875 -1.21875q-0.515625 -0.640625 -1.34375 -0.640625q-0.75 0 -1.265625 0.515625q-0.515625 0.5 -0.578125 1.34375zm10.276398 3.84375l0 -0.8125q-0.609375 0.953125 -1.796875 0.953125q-0.78125 0 -1.421875 -0.421875q-0.640625 -0.421875 -1.0 -1.1875q-0.359375 -0.765625 -0.359375 -1.75q0 -0.96875 0.3125 -1.75q0.328125 -0.78125 0.96875 -1.203125q0.65625 -0.421875 1.453125 -0.421875q0.578125 0 1.03125 0.25q0.453125 0.234375 0.75 0.640625l0 -3.203125l1.078125 0l0 8.90625l-1.015625 0zm-3.453125 -3.21875q0 1.234375 0.515625 1.859375q0.53125 0.609375 1.234375 0.609375q0.71875 0 1.21875 -0.578125q0.5 -0.59375 0.5 -1.796875q0 -1.328125 -0.515625 -1.9375q-0.5 -0.625 -1.25 -0.625q-0.71875 0 -1.21875 0.59375q-0.484375 0.59375 -0.484375 1.875z" fill-rule="nonzero"/><path fill="#e06666" d="m385.8058 75.02667l0 0c0 -11.686638 9.473877 -21.16053 21.160522 -21.16053l84.63956 0l0 0c5.6121216 0 10.994385 2.2294044 14.962769 6.197773c3.9683533 3.9683723 6.1977844 9.350636 6.1977844 14.962757l0 85.58446c0 11.68663 -9.473907 21.160522 -21.160553 21.160522l-84.63956 0l0 0c-11.6866455 0 -21.160522 -9.473892 -21.160522 -21.160522z" fill-rule="evenodd"/><path stroke="#000000" stroke-width="1.0" stroke-linejoin="round" stroke-linecap="butt" d="m385.8058 75.02667l0 0c0 -11.686638 9.473877 -21.16053 21.160522 -21.16053l84.63956 0l0 0c5.6121216 0 10.994385 2.2294044 14.962769 6.197773c3.9683533 3.9683723 6.1977844 9.350636 6.1977844 14.962757l0 85.58446c0 11.68663 -9.473907 21.160522 -21.160553 21.160522l-84.63956 0l0 0c-11.6866455 0 -21.160522 -9.473892 -21.160522 -21.160522z" fill-rule="evenodd"/><path fill="#000000" d="m427.97318 114.3664q-2.578125 0 -4.09375 -1.6875l0.78125 -1.015625q0.65625 0.734375 1.53125 1.140625q0.890625 0.390625 1.828125 0.390625q1.15625 0 1.828125 -0.515625q0.6875 -0.515625 0.6875 -1.328125q0 -1.265625 -1.984375 -1.8125q-2.359375 -0.625 -3.015625 -0.984375q-0.640625 -0.375 -0.984375 -0.921875q-0.34375 -0.5625 -0.34375 -1.328125q0 -1.28125 1.03125 -2.109375q1.046875 -0.84375 2.640625 -0.84375q2.40625 0 3.796875 1.484375l-0.8125 0.96875q-1.140625 -1.265625 -3.078125 -1.265625q-0.96875 0 -1.59375 0.46875q-0.609375 0.453125 -0.609375 1.21875q0 0.5625 0.515625 0.953125q0.515625 0.390625 1.484375 0.625q2.28125 0.625 2.9375 1.03125q0.671875 0.40625 1.03125 0.984375q0.359375 0.578125 0.359375 1.421875q0 1.46875 -1.078125 2.296875q-1.0625 0.828125 -2.859375 0.828125zm9.360382 0q-1.75 0 -2.84375 -1.125q-1.09375 -1.140625 -1.09375 -2.9375q0 -1.703125 1.078125 -2.875q1.09375 -1.171875 2.734375 -1.171875q1.65625 0 2.671875 1.15625q1.03125 1.15625 1.03125 2.984375l0 0.3125l-6.25 0q0.0625 1.1875 0.84375 1.9375q0.796875 0.734375 1.9375 0.734375q1.40625 0 2.390625 -0.984375l0.578125 0.796875q-1.1875 1.171875 -3.078125 1.171875zm2.40625 -4.546875q0 -1.0625 -0.703125 -1.8125q-0.703125 -0.75 -1.84375 -0.75q-1.078125 0 -1.796875 0.75q-0.703125 0.75 -0.734375 1.8125l5.078125 0zm3.1174011 4.359375l0 -7.734375l1.203125 0l0 1.25q1.0625 -1.40625 2.5625 -1.40625l0 1.234375l-0.46875 -0.046875q-0.546875 0 -1.203125 0.390625q-0.65625 0.390625 -0.890625 0.84375l0 5.46875l-1.203125 0zm7.342499 0l-3.21875 -7.734375l1.296875 0l2.578125 6.34375l2.5625 -6.34375l1.3125 0l-3.21875 7.734375l-1.3125 0zm6.371277 -8.828125q-0.328125 0 -0.578125 -0.234375q-0.234375 -0.234375 -0.234375 -0.5625q0 -0.34375 0.234375 -0.578125q0.25 -0.25 0.578125 -0.25q0.328125 0 0.5625 0.25q0.25 0.234375 0.25 0.578125q0 0.328125 -0.25 0.5625q-0.234375 0.234375 -0.5625 0.234375zm-0.59375 8.828125l0 -7.734375l1.203125 0l0 7.734375l-1.203125 0zm7.006256 0.1875q-1.703125 0 -2.78125 -1.140625q-1.078125 -1.15625 -1.078125 -2.921875q0 -1.734375 1.078125 -2.890625q1.078125 -1.15625 2.78125 -1.15625q1.796875 0 2.828125 1.34375l-0.796875 0.734375q-0.734375 -1.0 -1.96875 -1.0q-1.1875 0 -1.9375 0.828125q-0.734375 0.8125 -0.734375 2.140625q0 1.34375 0.734375 2.171875q0.734375 0.828125 1.9375 0.828125q1.21875 0 1.96875 -1.015625l0.796875 0.734375q-1.03125 1.34375 -2.828125 1.34375zm7.9981384 0q-1.75 0 -2.84375 -1.125q-1.09375 -1.140625 -1.09375 -2.9375q0 -1.703125 1.078125 -2.875q1.09375 -1.171875 2.734375 -1.171875q1.65625 0 2.671875 1.15625q1.03125 1.15625 1.03125 2.984375l0 0.3125l-6.25 0q0.0625 1.1875 0.84375 1.9375q0.796875 0.734375 1.9375 0.734375q1.40625 0 2.390625 -0.984375l0.578125 0.796875q-1.1875 1.171875 -3.078125 1.171875zm2.40625 -4.546875q0 -1.0625 -0.703125 -1.8125q-0.703125 -0.75 -1.84375 -0.75q-1.078125 0 -1.796875 0.75q-0.703125 0.75 -0.734375 1.8125l5.078125 0z" fill-rule="nonzero"/><path fill="#000000" d="m437.86542 133.1789l-0.9375 -2.375l-5.3125 0l-0.953125 2.375l-1.515625 0l4.296875 -10.671867l1.640625 0l4.3125 10.671867l-1.53125 0zm-3.59375 -9.296867l-2.28125 5.7499924l4.53125 0l-2.25 -5.7499924zm6.465515 9.296867l0 -10.671867l1.203125 0l0 10.671867l-1.203125 0zm7.084381 0.1875q-1.75 0 -2.84375 -1.125q-1.09375 -1.140625 -1.09375 -2.9375q0 -1.7031174 1.078125 -2.8749924q1.09375 -1.171875 2.734375 -1.171875q1.65625 0 2.671875 1.15625q1.03125 1.15625 1.03125 2.9843674l0 0.3125l-6.25 0q0.0625 1.1875 0.84375 1.9375q0.796875 0.734375 1.9375 0.734375q1.40625 0 2.390625 -0.984375l0.578125 0.796875q-1.1875 1.171875 -3.078125 1.171875zm2.40625 -4.546875q0 -1.0624924 -0.703125 -1.8124924q-0.703125 -0.75 -1.84375 -0.75q-1.078125 0 -1.796875 0.75q-0.703125 0.75 -0.734375 1.8124924l5.078125 0zm3.1174011 4.359375l0 -7.7343674l1.203125 0l0 1.25q1.0625 -1.40625 2.5625 -1.40625l0 1.234375l-0.46875 -0.046875q-0.546875 0 -1.203125 0.390625q-0.65625 0.390625 -0.890625 0.84375l0 5.4687424l-1.203125 0zm7.233124 0.1875q-1.71875 0 -1.71875 -1.796875l0 -5.0624924l-1.28125 0l0 -1.0625l1.28125 0l0 -2.109375l1.203125 0l0 2.109375l1.5625 0l0 1.0625l-1.5625 0l0 4.7968674q0 0.4375 0.1875 0.71875q0.203125 0.28125 0.59375 0.28125q0.5 0 0.8125 -0.328125l0.359375 0.90625q-0.5 0.484375 -1.4375 0.484375zm5.188385 0q-1.953125 0 -3.109375 -1.21875l0.625 -0.859375q0.375 0.453125 1.046875 0.78125q0.6875 0.328125 1.5 0.328125q0.890625 0 1.34375 -0.375q0.46875 -0.375 0.46875 -0.953125q0 -0.515625 -0.5 -0.8125q-0.5 -0.296875 -1.875 -0.609375q-1.171875 -0.25 -1.796875 -0.765625q-0.609375 -0.515625 -0.609375 -1.4062424q0 -0.96875 0.78125 -1.59375q0.78125 -0.625 2.09375 -0.625q1.75 0 2.875 1.125l-0.5625 0.828125q-0.359375 -0.421875 -0.953125 -0.6875q-0.59375 -0.28125 -1.359375 -0.28125q-0.796875 0 -1.25 0.359375q-0.453125 0.34375 -0.453125 0.84375q0 0.46875 0.5 0.7499924q0.515625 0.265625 1.890625 0.546875q1.171875 0.28125 1.78125 0.828125q0.609375 0.546875 0.609375 1.46875q0 1.0625 -0.828125 1.703125q-0.828125 0.625 -2.21875 0.625z" fill-rule="nonzero"/><path fill="#000000" fill-opacity="0.0" d="m338.71915 149.8189l47.08664 0" fill-rule="evenodd"/><path stroke="#85200c" stroke-width="1.0" stroke-linejoin="round" stroke-linecap="butt" d="m338.71915 149.8189l41.08664 0" fill-rule="evenodd"/><path fill="#85200c" stroke="#85200c" stroke-width="1.0" stroke-linecap="butt" d="m379.8058 151.47063l4.538086 -1.6517334l-4.538086 -1.6517334z" fill-rule="evenodd"/><path fill="#000000" fill-opacity="0.0" d="m338.71915 77.8189l47.08664 0" fill-rule="evenodd"/><path stroke="#85200c" stroke-width="1.0" stroke-linejoin="round" stroke-linecap="butt" d="m338.71915 77.8189l41.08664 0" fill-rule="evenodd"/><path fill="#85200c" stroke="#85200c" stroke-width="1.0" stroke-linecap="butt" d="m379.8058 79.47063l4.538086 -1.6517258l-4.538086 -1.6517334z" fill-rule="evenodd"/><path fill="#000000" fill-opacity="0.0" d="m338.71915 101.8189l47.08664 0" fill-rule="evenodd"/><path stroke="#85200c" stroke-width="1.0" stroke-linejoin="round" stroke-linecap="butt" d="m338.71915 101.8189l41.08664 0" fill-rule="evenodd"/><path fill="#85200c" stroke="#85200c" stroke-width="1.0" stroke-linecap="butt" d="m379.8058 103.47063l4.538086 -1.6517258l-4.538086 -1.6517334z" fill-rule="evenodd"/></g></svg>