<svg version="1.1" viewBox="0.0 0.0 148.3018372703412 100.0" fill="none" stroke="none" stroke-linecap="square" stroke-miterlimit="10" xmlns:xlink="http://www.w3.org/1999/xlink" xmlns="http://www.w3.org/2000/svg"><clipPath id="p.0"><path d="m0 0l148.30183 0l0 100.0l-148.30183 0l0 -100.0z" clip-rule="nonzero"/></clipPath><g clip-path="url(#p.0)"><path fill="#000000" fill-opacity="0.0" d="m0 0l148.30183 0l0 100.0l-148.30183 0z" fill-rule="evenodd"/><path fill="#000000" fill-opacity="0.0" d="m0.5721785 17.653543l105.196846 0l0 64.69292l-105.196846 0z" fill-rule="evenodd"/><path fill="#000000" d="m28.377636 25.313124q0 1.3125 -0.53125 2.4375q-0.53125 1.109375 -1.46875 1.75q-0.921875 0.625 -2.0 0.625q-1.578125 0 -2.796875 -1.34375q-1.203125 -1.359375 -1.203125 -3.46875q0 -2.125 1.203125 -3.46875q1.21875 -1.34375 2.796875 -1.34375q1.078125 0 2.0 0.625q0.9375 0.625 1.46875 1.75q0.53125 1.109375 0.53125 2.4375zm-0.65625 0q0 -1.609375 -0.9375 -2.875q-0.921875 -1.28125 -2.40625 -1.28125q-1.375 0 -2.359375 1.21875q-0.984375 1.21875 -0.984375 2.9375q0 1.828125 1.03125 2.984375q1.03125 1.15625 2.3125 1.15625q1.484375 0 2.40625 -1.265625q0.9375 -1.265625 0.9375 -2.875zm6.8203125 4.546875l-1.109375 0l-2.6875 -6.109375l-0.671875 0q-0.234375 0 -0.34375 -0.09375q-0.09375 -0.09375 -0.09375 -0.234375q0 -0.140625 0.09375 -0.234375q0.109375 -0.09375 0.34375 -0.09375l2.453125 0q0.234375 0 0.328125 0.09375q0.109375 0.09375 0.109375 0.234375q0 0.140625 -0.109375 0.234375q-0.09375 0.09375 -0.328125 0.09375l-1.078125 0l2.40625 5.453125l0.28125 0l2.359375 -5.453125l-1.09375 0q-0.234375 0 -0.34375 -0.09375q-0.09375 -0.09375 -0.09375 -0.234375q0 -0.140625 0.09375 -0.234375q0.109375 -0.09375 0.34375 -0.09375l2.46875 0q0.25 0 0.34375 0.09375q0.09375 0.09375 0.09375 0.234375q0 0.140625 -0.09375 0.234375q-0.09375 0.09375 -0.34375 0.09375l-0.65625 0l-2.671875 6.109375zm12.5859375 -3.234375l-6.6875 0q0.171875 1.28125 1.0625 2.0625q0.890625 0.765625 2.21875 0.765625q0.734375 0 1.53125 -0.234375q0.8125 -0.25 1.3125 -0.640625q0.15625 -0.125 0.265625 -0.125q0.125 0 0.21875 0.109375q0.09375 0.09375 0.09375 0.21875q0 0.140625 -0.125 0.265625q-0.375 0.390625 -1.34375 0.734375q-0.953125 0.34375 -1.953125 0.34375q-1.6875 0 -2.828125 -1.109375q-1.125 -1.109375 -1.125 -2.6875q0 -1.421875 1.0625 -2.4375q1.0625 -1.03125 2.625 -1.03125q1.609375 0 2.640625 1.046875q1.046875 1.046875 1.03125 2.71875zm-0.671875 -0.65625q-0.1875 -1.09375 -1.03125 -1.765625q-0.828125 -0.6875 -1.96875 -0.6875q-1.15625 0 -1.984375 0.671875q-0.828125 0.671875 -1.03125 1.78125l6.015625 0zm5.9296875 -2.875l0 1.65625q1.28125 -1.15625 1.921875 -1.484375q0.640625 -0.34375 1.171875 -0.34375q0.59375 0 1.09375 0.40625q0.5 0.390625 0.5 0.59375q0 0.140625 -0.09375 0.25q-0.09375 0.09375 -0.25 0.09375q-0.078125 0 -0.140625 -0.03125q-0.046875 -0.03125 -0.1875 -0.171875q-0.28125 -0.28125 -0.484375 -0.375q-0.203125 -0.109375 -0.390625 -0.109375q-0.4375 0 -1.046875 0.34375q-0.59375 0.34375 -2.09375 1.6875l0 3.59375l2.90625 0q0.25 0 0.34375 0.09375q0.109375 0.078125 0.109375 0.234375q0 0.140625 -0.109375 0.234375q-0.09375 0.09375 -0.34375 0.09375l-5.140625 0q-0.234375 0 -0.34375 -0.09375q-0.09375 -0.09375 -0.09375 -0.234375q0 -0.125 0.09375 -0.21875q0.09375 -0.09375 0.34375 -0.09375l1.578125 0l0 -5.46875l-1.203125 0q-0.234375 0 -0.34375 -0.09375q-0.09375 -0.09375 -0.09375 -0.234375q0 -0.140625 0.09375 -0.234375q0.09375 -0.09375 0.34375 -0.09375l1.859375 0zm12.273441 6.765625l0 -0.953125q-1.4218788 1.21875 -3.0468788 1.21875q-1.1875 0 -1.859375 -0.59375q-0.65625 -0.609375 -0.65625 -1.484375q0 -0.953125 0.875 -1.65625q0.875 -0.71875 2.5625 -0.71875q0.453125 0 0.984375 0.0625q0.5312538 0.0625 1.1406288 0.1875l0 -1.0625q0 -0.546875 -0.5 -0.9375q-0.5000038 -0.40625 -1.5000038 -0.40625q-0.765625 0 -2.140625 0.453125q-0.25 0.078125 -0.328125 0.078125q-0.125 0 -0.21875 -0.09375q-0.078125 -0.09375 -0.078125 -0.234375q0 -0.140625 0.078125 -0.21875q0.109375 -0.109375 0.875 -0.3125q1.21875 -0.328125 1.84375 -0.328125q1.25 0 1.9375038 0.609375q0.703125 0.609375 0.703125 1.390625l0 4.34375l0.875 0q0.234375 0 0.328125 0.09375q0.109375 0.078125 0.109375 0.234375q0 0.140625 -0.109375 0.234375q-0.09375 0.09375 -0.328125 0.09375l-1.546875 0zm0 -3.265625q-0.453125 -0.140625 -0.9687538 -0.203125q-0.515625 -0.0625 -1.09375 -0.0625q-1.421875 0 -2.234375 0.625q-0.609375 0.453125 -0.609375 1.09375q0 0.59375 0.46875 1.0q0.46875 0.40625 1.359375 0.40625q0.84375 0 1.578125 -0.328125q0.734375 -0.34375 1.5000038 -1.09375l0 -1.4375zm8.0546875 -6.546875l0 9.15625l2.578125 0q0.234375 0 0.328125 0.09375q0.109375 0.078125 0.109375 0.234375q0 0.140625 -0.109375 0.234375q-0.09375 0.09375 -0.328125 0.09375l-5.8125 0q-0.234375 0 -0.34375 -0.09375q-0.09375 -0.09375 -0.09375 -0.234375q0 -0.15625 0.09375 -0.234375q0.109375 -0.09375 0.34375 -0.09375l2.578125 0l0 -8.484375l-1.890625 0q-0.234375 0 -0.34375 -0.09375q-0.109375 -0.09375 -0.109375 -0.25q0 -0.140625 0.09375 -0.234375q0.109375 -0.09375 0.359375 -0.09375l2.546875 0zm9.6015625 0l0 9.15625l2.578125 0q0.234375 0 0.328125 0.09375q0.109375 0.078125 0.109375 0.234375q0 0.140625 -0.109375 0.234375q-0.09375 0.09375 -0.328125 0.09375l-5.8125 0q-0.234375 0 -0.34375 -0.09375q-0.09375 -0.09375 -0.09375 -0.234375q0 -0.15625 0.09375 -0.234375q0.109375 -0.09375 0.34375 -0.09375l2.578125 0l0 -8.484375l-1.890625 0q-0.234375 0 -0.34375 -0.09375q-0.109375 -0.09375 -0.109375 -0.25q0 -0.140625 0.09375 -0.234375q0.109375 -0.09375 0.359375 -0.09375l2.546875 0z" fill-rule="nonzero"/><path fill="#000000" d="m19.90498 40.37562l0 7.828125l2.25 0q0.234375 0 0.328125 0.09375q0.109375 0.078125 0.109375 0.234375q0 0.140625 -0.109375 0.234375q-0.09375 0.09375 -0.328125 0.09375l-5.15625 0q-0.234375 0 -0.34375 -0.09375q-0.09375 -0.09375 -0.09375 -0.234375q0 -0.15625 0.09375 -0.234375q0.109375 -0.09375 0.34375 -0.09375l2.25 0l0 -7.828125l-2.25 0q-0.234375 0 -0.34375 -0.09375q-0.09375 -0.09375 -0.09375 -0.234375q0 -0.15625 0.09375 -0.234375q0.109375 -0.09375 0.34375 -0.09375l5.15625 0q0.234375 0 0.328125 0.09375q0.109375 0.078125 0.109375 0.234375q0 0.140625 -0.109375 0.234375q-0.09375 0.09375 -0.328125 0.09375l-2.25 0zm7.1484375 1.71875l0 0.984375q0.6875 -0.6875 1.234375 -0.953125q0.5625 -0.265625 1.25 -0.265625q0.75 0 1.375 0.3125q0.4375 0.234375 0.78125 0.78125q0.359375 0.546875 0.359375 1.109375l0 4.140625l0.5625 0q0.234375 0 0.328125 0.09375q0.109375 0.078125 0.109375 0.234375q0 0.140625 -0.109375 0.234375q-0.09375 0.09375 -0.328125 0.09375l-1.765625 0q-0.234375 0 -0.34375 -0.09375q-0.09375 -0.09375 -0.09375 -0.234375q0 -0.15625 0.09375 -0.234375q0.109375 -0.09375 0.34375 -0.09375l0.546875 0l0 -4.03125q0 -0.6875 -0.515625 -1.171875q-0.5 -0.484375 -1.34375 -0.484375q-0.65625 0 -1.140625 0.265625q-0.46875 0.265625 -1.34375 1.296875l0 4.125l0.734375 0q0.234375 0 0.328125 0.09375q0.109375 0.078125 0.109375 0.234375q0 0.140625 -0.109375 0.234375q-0.09375 0.09375 -0.328125 0.09375l-2.140625 0q-0.234375 0 -0.34375 -0.09375q-0.09375 -0.09375 -0.09375 -0.234375q0 -0.15625 0.09375 -0.234375q0.109375 -0.09375 0.34375 -0.09375l0.75 0l0 -5.453125l-0.5625 0q-0.234375 0 -0.34375 -0.09375q-0.09375 -0.09375 -0.09375 -0.234375q0 -0.140625 0.09375 -0.234375q0.109375 -0.09375 0.34375 -0.09375l1.21875 0zm14.4609375 0.65625l0 -0.21875q0 -0.234375 0.09375 -0.328125q0.09375 -0.109375 0.234375 -0.109375q0.140625 0 0.234375 0.109375q0.09375 0.09375 0.09375 0.328125l0 1.484375q0 0.25 -0.09375 0.359375q-0.09375 0.09375 -0.234375 0.09375q-0.140625 0 -0.234375 -0.09375q-0.078125 -0.09375 -0.09375 -0.296875q-0.046875 -0.5625 -0.734375 -1.0625q-0.6875 -0.5 -1.84375 -0.5q-1.453125 0 -2.21875 0.921875q-0.75 0.90625 -0.75 2.09375q0 1.265625 0.828125 2.09375q0.84375 0.828125 2.171875 0.828125q0.765625 0 1.546875 -0.28125q0.796875 -0.28125 1.4375 -0.90625q0.171875 -0.15625 0.296875 -0.15625q0.125 0 0.21875 0.09375q0.09375 0.09375 0.09375 0.21875q0 0.34375 -0.796875 0.859375q-1.265625 0.84375 -2.828125 0.84375q-1.59375 0 -2.609375 -1.015625q-1.015625 -1.015625 -1.015625 -2.578125q0 -1.578125 1.03125 -2.625q1.046875 -1.046875 2.640625 -1.046875q1.5 0 2.53125 0.890625zm7.1796875 -4.03125l0 1.703125l-0.96875 0l0 -1.703125l0.96875 0zm0.03125 3.375l0 6.109375l2.578125 0q0.234375 0 0.328125 0.09375q0.109375 0.078125 0.109375 0.234375q0 0.140625 -0.109375 0.234375q-0.09375 0.09375 -0.328125 0.09375l-5.8125 0q-0.234375 0 -0.34375 -0.09375q-0.09375 -0.09375 -0.09375 -0.234375q0 -0.15625 0.09375 -0.234375q0.109375 -0.09375 0.34375 -0.09375l2.578125 0l0 -5.453125l-1.921875 0q-0.234375 0 -0.34375 -0.09375q-0.09375 -0.09375 -0.09375 -0.234375q0 -0.140625 0.09375 -0.234375q0.109375 -0.09375 0.34375 -0.09375l2.578125 0zm12.4609375 -3.046875l0 9.15625l0.875 0q0.25 0 0.34375 0.09375q0.109375 0.078125 0.109375 0.234375q0 0.140625 -0.109375 0.234375q-0.09375 0.09375 -0.34375 0.09375l-1.53125 0l0 -1.3125q-1.140625 1.578125 -2.90625 1.578125q-0.890625 0 -1.703125 -0.46875q-0.8125 -0.484375 -1.296875 -1.359375q-0.46875 -0.875 -0.46875 -1.8125q0 -0.9375 0.46875 -1.796875q0.484375 -0.875 1.296875 -1.34375q0.8125 -0.484375 1.71875 -0.484375q1.71875 0 2.890625 1.5625l0 -3.703125l-0.875 0q-0.25 0 -0.359375 -0.09375q-0.09375 -0.09375 -0.09375 -0.25q0 -0.140625 0.09375 -0.234375q0.109375 -0.09375 0.359375 -0.09375l1.53125 0zm-0.65625 6.4375q0 -1.25 -0.84375 -2.109375q-0.84375 -0.859375 -2.015625 -0.859375q-1.171875 0 -2.015625 0.859375q-0.84375 0.859375 -0.84375 2.109375q0 1.25 0.84375 2.109375q0.84375 0.859375 2.015625 0.859375q1.171875 0 2.015625 -0.859375q0.84375 -0.859375 0.84375 -2.109375zm10.601566 0.140625l-6.6875 0q0.171875 1.28125 1.0625 2.0625q0.890625 0.765625 2.21875 0.765625q0.734375 0 1.53125 -0.234375q0.8125 -0.25 1.3125 -0.640625q0.15625 -0.125 0.265625 -0.125q0.125 0 0.21875 0.109375q0.09375 0.09375 0.09375 0.21875q0 0.140625 -0.125 0.265625q-0.375 0.390625 -1.34375 0.734375q-0.953125 0.34375 -1.953125 0.34375q-1.6875 0 -2.828125 -1.109375q-1.1250038 -1.109375 -1.1250038 -2.6875q0 -1.421875 1.0625038 -2.4375q1.0625 -1.03125 2.625 -1.03125q1.609375 0 2.640625 1.046875q1.046875 1.046875 1.03125 2.71875zm-0.671875 -0.65625q-0.1875 -1.09375 -1.03125 -1.765625q-0.828125 -0.6875 -1.96875 -0.6875q-1.15625 0 -1.984375 0.671875q-0.828125 0.671875 -1.03125 1.78125l6.015625 0zm4.6015625 -2.875l0 0.984375q0.6875 -0.6875 1.234375 -0.953125q0.5625 -0.265625 1.25 -0.265625q0.75 0 1.375 0.3125q0.4375 0.234375 0.78125 0.78125q0.359375 0.546875 0.359375 1.109375l0 4.140625l0.5625 0q0.234375 0 0.328125 0.09375q0.109375 0.078125 0.109375 0.234375q0 0.140625 -0.109375 0.234375q-0.09375 0.09375 -0.328125 0.09375l-1.765625 0q-0.234375 0 -0.34375 -0.09375q-0.09375 -0.09375 -0.09375 -0.234375q0 -0.15625 0.09375 -0.234375q0.109375 -0.09375 0.34375 -0.09375l0.546875 0l0 -4.03125q0 -0.6875 -0.515625 -1.171875q-0.5 -0.484375 -1.34375 -0.484375q-0.65625 0 -1.140625 0.265625q-0.46875 0.265625 -1.34375 1.296875l0 4.125l0.734375 0q0.234375 0 0.328125 0.09375q0.109375 0.078125 0.109375 0.234375q0 0.140625 -0.109375 0.234375q-0.09375 0.09375 -0.328125 0.09375l-2.140625 0q-0.234375 0 -0.34375 -0.09375q-0.09375 -0.09375 -0.09375 -0.234375q0 -0.15625 0.09375 -0.234375q0.109375 -0.09375 0.34375 -0.09375l0.75 0l0 -5.453125l-0.5625 0q-0.234375 0 -0.34375 -0.09375q-0.09375 -0.09375 -0.09375 -0.234375q0 -0.140625 0.09375 -0.234375q0.109375 -0.09375 0.34375 -0.09375l1.21875 0zm10.3671875 0l3.5625 0q0.234375 0 0.328125 0.09375q0.109375 0.09375 0.109375 0.234375q0 0.140625 -0.109375 0.234375q-0.09375 0.09375 -0.328125 0.09375l-3.5625 0l0 4.375q0 0.5625 0.453125 0.953125q0.46875 0.375 1.34375 0.375q0.671875 0 1.4375 -0.1875q0.78125 -0.203125 1.203125 -0.453125q0.15625 -0.109375 0.265625 -0.109375q0.125 0 0.21875 0.109375q0.09375 0.09375 0.09375 0.21875q0 0.125 -0.109375 0.21875q-0.25 0.265625 -1.21875 0.578125q-0.953125 0.296875 -1.84375 0.296875q-1.140625 0 -1.828125 -0.546875q-0.671875 -0.546875 -0.671875 -1.453125l0 -4.375l-1.21875 0q-0.234375 0 -0.34375 -0.09375q-0.09375 -0.09375 -0.09375 -0.234375q0 -0.140625 0.09375 -0.234375q0.109375 -0.09375 0.34375 -0.09375l1.21875 0l0 -1.9375q0 -0.234375 0.09375 -0.328125q0.09375 -0.109375 0.234375 -0.109375q0.140625 0 0.234375 0.109375q0.09375 0.09375 0.09375 0.328125l0 1.9375z" fill-rule="nonzero"/><path fill="#000000" d="m36.8542 59.609997l0 -0.453125q0 -0.234375 0.09375 -0.328125q0.09375 -0.109375 0.234375 -0.109375q0.15625 0 0.234375 0.109375q0.09375 0.09375 0.09375 0.328125l0 1.8125q0 0.25 -0.09375 0.359375q-0.078125 0.09375 -0.234375 0.09375q-0.125 0 -0.21875 -0.09375q-0.09375 -0.09375 -0.109375 -0.3125q-0.03125 -0.65625 -0.703125 -1.15625q-0.90625 -0.703125 -2.0625 -0.703125q-0.765625 0 -1.4375 0.34375q-0.5 0.234375 -0.796875 0.59375q-0.515625 0.609375 -0.8125 1.34375q-0.21875 0.546875 -0.21875 1.234375l0 1.15625q0 1.4687538 1.0625 2.5468788q1.0625 1.078125 2.46875 1.078125q0.84375 0 1.5 -0.359375q0.671875 -0.375 1.296875 -1.109375q0.140625 -0.171875 0.296875 -0.171875q0.140625 0 0.21875 0.09375q0.09375 0.078125 0.09375 0.21875q0 0.171875 -0.328125 0.546875q-0.640625 0.71875 -1.453125 1.09375q-0.796875 0.359375 -1.609375 0.359375q-0.71875 0 -1.453125 -0.28125q-0.5625 -0.21875 -0.9375 -0.5q-0.359375 -0.28125 -0.890625 -0.9375q-0.53125 -0.671875 -0.734375 -1.234375q-0.1875 -0.578125 -0.1875 -1.2500038l0 -1.34375q0 -0.96875 0.515625 -1.96875q0.515625 -1.015625 1.421875 -1.5625q0.90625 -0.546875 1.953125 -0.546875q1.625 0 2.796875 1.109375zm10.3828125 4.875004q0 1.5 -1.078125 2.578125q-1.0625 1.0625 -2.578125 1.0625q-1.53125 0 -2.609375 -1.0625q-1.0625 -1.078125 -1.0625 -2.578125q0 -1.5000038 1.0625 -2.5625038q1.078125 -1.0625 2.609375 -1.0625q1.515625 0 2.578125 1.0625q1.078125 1.0625 1.078125 2.5625038zm-0.65625 0q0 -1.2343788 -0.890625 -2.0937538q-0.875 -0.875 -2.125 -0.875q-1.25 0 -2.125 0.875q-0.875 0.875 -0.875 2.0937538q0 1.21875 0.875 2.09375q0.875 0.875 2.125 0.875q1.25 0 2.125 -0.859375q0.890625 -0.875 0.890625 -2.109375zm8.8359375 3.375l0 -0.96875q-1.34375 1.234375 -2.90625 1.234375q-0.953125 0 -1.453125 -0.53125q-0.65625 -0.6875 -0.65625 -1.609375l0 -4.234379l-0.875 0q-0.234375 0 -0.34375 -0.09375q-0.09375 -0.09375 -0.09375 -0.234375q0 -0.140625 0.09375 -0.234375q0.109375 -0.09375 0.34375 -0.09375l1.53125 0l0 4.890629q0 0.640625 0.40625 1.0625q0.40625 0.40625 1.015625 0.40625q1.609375 0 2.9375 -1.46875l0 -4.234379l-1.203125 0q-0.234375 0 -0.34375 -0.09375q-0.09375 -0.09375 -0.09375 -0.234375q0 -0.140625 0.09375 -0.234375q0.109375 -0.09375 0.34375 -0.09375l1.859375 0l0 6.109379l0.5625 0q0.234375 0 0.328125 0.09375q0.109375 0.078125 0.109375 0.234375q0 0.140625 -0.109375 0.234375q-0.09375 0.09375 -0.328125 0.09375l-1.21875 0zm5.2421875 -6.765629l0 0.984375q0.6875 -0.6875 1.234375 -0.953125q0.5625 -0.265625 1.25 -0.265625q0.75 0 1.3750038 0.3125q0.4375 0.234375 0.78125 0.78125q0.359375 0.546875 0.359375 1.109375l0 4.140629l0.5625 0q0.234375 0 0.328125 0.09375q0.109375 0.078125 0.109375 0.234375q0 0.140625 -0.109375 0.234375q-0.09375 0.09375 -0.328125 0.09375l-1.765625 0q-0.234375 0 -0.34375 -0.09375q-0.09375 -0.09375 -0.09375 -0.234375q0 -0.15625 0.09375 -0.234375q0.109375 -0.09375 0.34375 -0.09375l0.546875 0l0 -4.031254q0 -0.6875 -0.515625 -1.171875q-0.5000038 -0.484375 -1.3437538 -0.484375q-0.65625 0 -1.140625 0.265625q-0.46875 0.265625 -1.34375 1.296875l0 4.125004l0.734375 0q0.234375 0 0.328125 0.09375q0.109375 0.078125 0.109375 0.234375q0 0.140625 -0.109375 0.234375q-0.09375 0.09375 -0.328125 0.09375l-2.140625 0q-0.234375 0 -0.34375 -0.09375q-0.09375 -0.09375 -0.09375 -0.234375q0 -0.15625 0.09375 -0.234375q0.109375 -0.09375 0.34375 -0.09375l0.75 0l0 -5.453129l-0.5625 0q-0.234375 0 -0.34375 -0.09375q-0.09375 -0.09375 -0.09375 -0.234375q0 -0.140625 0.09375 -0.234375q0.109375 -0.09375 0.34375 -0.09375l1.21875 0zm10.367191 0l3.5625 0q0.234375 0 0.328125 0.09375q0.109375 0.09375 0.109375 0.234375q0 0.140625 -0.109375 0.234375q-0.09375 0.09375 -0.328125 0.09375l-3.5625 0l0 4.375004q0 0.5625 0.453125 0.953125q0.46875 0.375 1.34375 0.375q0.671875 0 1.4375 -0.1875q0.78125 -0.203125 1.203125 -0.453125q0.15625 -0.109375 0.265625 -0.109375q0.125 0 0.21875 0.109375q0.09375 0.09375 0.09375 0.21875q0 0.125 -0.109375 0.21875q-0.25 0.265625 -1.21875 0.578125q-0.953125 0.296875 -1.84375 0.296875q-1.140625 0 -1.828125 -0.546875q-0.671875 -0.546875 -0.671875 -1.453125l0 -4.375004l-1.21875 0q-0.234375 0 -0.34375 -0.09375q-0.09375 -0.09375 -0.09375 -0.234375q0 -0.140625 0.09375 -0.234375q0.109375 -0.09375 0.34375 -0.09375l1.21875 0l0 -1.9375q0 -0.234375 0.09375 -0.328125q0.09375 -0.109375 0.234375 -0.109375q0.140625 0 0.234375 0.109375q0.09375 0.09375 0.09375 0.328125l0 1.9375z" fill-rule="nonzero"/><path fill="#000000" fill-opacity="0.0" d="m116.937004 18.569553l-0.12598419 63.653545" fill-rule="evenodd"/><path stroke="#000000" stroke-width="4.0" stroke-linejoin="round" stroke-linecap="butt" d="m116.937004 18.569553l-0.07848358 39.65359" fill-rule="evenodd"/><path fill="#000000" stroke="#000000" stroke-width="4.0" stroke-linecap="butt" d="m110.25161 58.210068l6.570984 18.165428l6.642845 -18.139275z" fill-rule="evenodd"/></g></svg>