<svg version="1.1" viewBox="0.0 0.0 961.8477690288714 443.75853018372703" fill="none" stroke="none" stroke-linecap="square" stroke-miterlimit="10" xmlns:xlink="http://www.w3.org/1999/xlink" xmlns="http://www.w3.org/2000/svg"><clipPath id="p.0"><path d="m0 0l961.8478 0l0 443.75854l-961.8478 0l0 -443.75854z" clip-rule="nonzero"/></clipPath><g clip-path="url(#p.0)"><path fill="#000000" fill-opacity="0.0" d="m0 0l961.8478 0l0 443.75854l-961.8478 0z" fill-rule="evenodd"/><path fill="#a4c2f4" d="m217.92126 10.879125l524.1575 0l0 82.58267l-524.1575 0zm10.32283 10.322835l0 61.93701l503.51184 0l0 -61.93701z" fill-rule="evenodd"/><path stroke="#000000" stroke-width="1.0" stroke-linejoin="round" stroke-linecap="butt" d="m217.92126 10.879125l524.1575 0l0 82.58267l-524.1575 0zm10.32283 10.322835l0 61.93701l503.51184 0l0 -61.93701z" fill-rule="evenodd"/><path fill="#000000" d="m384.1705 64.28109q-4.859375 0 -8.0 -3.1093788q-3.125 -3.109375 -3.125 -7.9375q0 -4.796875 3.125 -7.921875q3.140625 -3.125 8.0 -3.125q4.90625 0 8.03125 3.125q3.140625 3.125 3.140625 7.921875q0 4.796875 -3.140625 7.921875q-3.125 3.1250038 -8.03125 3.1250038zm0 -4.031254q2.828125 0 4.65625 -1.9375q1.84375 -1.9375 1.84375 -5.078125q0 -3.046875 -1.78125 -5.015625q-1.765625 -1.984375 -4.71875 -1.984375q-2.9375 0 -4.703125 1.984375q-1.75 1.96875 -1.75 5.015625q0 3.078125 1.78125 5.046875q1.796875 1.96875 4.671875 1.96875zm18.339447 -1.3125q0.515625 0.734375 1.5 1.234375q1.0 0.484375 1.984375 0.484375q1.796875 0 2.859375 -1.234375q1.078125 -1.234375 1.078125 -3.25q0 -2.015625 -1.078125 -3.25q-1.0625 -1.25 -2.859375 -1.25q-0.984375 0 -1.984375 0.515625q-0.984375 0.5 -1.5 1.265625l0 5.484375zm-4.0625 4.953125l0 -21.34375l4.0625 0l0 7.875q1.859375 -2.375 4.765625 -2.375q3.078125 0 4.96875 2.25q1.890625 2.234375 1.890625 5.875q0 3.6875 -1.890625 5.90625q-1.890625 2.2031288 -4.96875 2.2031288q-2.84375 0 -4.765625 -2.3750038l0 1.984375l-4.0625 0zm24.314545 0.3906288q-2.015625 0 -3.859375 -0.6406288q-1.828125 -0.640625 -3.046875 -1.765625l1.765625 -2.84375q0.921875 0.859375 2.453125 1.484375q1.546875 0.625 2.890625 0.625q2.59375 0 2.59375 -1.671875q0 -0.640625 -0.703125 -0.953125q-0.6875 -0.328125 -1.671875 -0.546875l-2.203125 -0.453125q-4.609375 -0.984375 -4.609375 -4.59375q0 -2.15625 1.765625 -3.515625q1.78125 -1.359375 4.5625 -1.359375q3.625 0 6.25 2.109375l-1.640625 2.796875q-0.703125 -0.75 -1.921875 -1.265625q-1.21875 -0.53125 -2.65625 -0.53125q-1.109375 0 -1.765625 0.453125q-0.65625 0.4375 -0.65625 1.078125q0 0.578125 0.671875 0.875q0.671875 0.28125 1.6875 0.5q1.03125 0.203125 2.203125 0.46875q1.1875 0.265625 2.203125 0.8125q1.03125 0.546875 1.703125 1.484375q0.671875 0.921875 0.671875 2.484375q0 2.234375 -1.828125 3.609375q-1.8125 1.3593788 -4.859375 1.3593788zm16.967163 0q-3.65625 0 -5.953125 -2.2500038q-2.296875 -2.265625 -2.296875 -5.890625q0 -3.453125 2.28125 -5.765625q2.28125 -2.328125 5.71875 -2.328125q3.421875 0 5.578125 2.359375q2.15625 2.34375 2.15625 6.15625l0 0.890625l-11.484375 0q0.1875 1.484375 1.328125 2.546875q1.140625 1.046875 3.125 1.046875q0.953125 0 2.140625 -0.390625q1.1875 -0.40625 1.984375 -1.15625l1.78125 2.625q-1.140625 1.0625 -2.84375 1.609375q-1.6875 0.5468788 -3.515625 0.5468788zm3.546875 -9.578129q-0.09375 -1.53125 -1.15625 -2.46875q-1.046875 -0.953125 -2.640625 -0.953125q-1.609375 0 -2.640625 0.984375q-1.015625 0.96875 -1.171875 2.4375l7.609375 0zm6.8835144 9.1875l0 -15.453125l4.0625 0l0 2.109375q0.828125 -1.03125 2.15625 -1.765625q1.328125 -0.734375 2.78125 -0.734375l0 3.96875l-1.125 -0.09375q-1.09375 0 -2.203125 0.515625q-1.09375 0.515625 -1.609375 1.25l0 10.203125l-4.0625 0zm15.52002 0l-6.203125 -15.453125l4.34375 0l4.03125 10.75l4.03125 -10.75l4.390625 0l-6.203125 15.453125l-4.390625 0zm21.697266 0l0 -1.59375q-1.703125 1.9843788 -4.8905945 1.9843788q-2.25 0 -3.8125 -1.4218788q-1.5625 -1.4375 -1.5625 -3.703125q0 -2.28125 1.484375 -3.640625q1.484375 -1.359375 3.890625 -1.359375q3.3280945 0 4.8905945 1.890625l0 -2.078125q0 -1.1875 -0.9375 -1.890625q-0.921875 -0.703125 -2.4530945 -0.703125q-2.5625 0 -4.515625 1.828125l-1.53125 -2.71875q2.8125 -2.4375 6.7499695 -2.4375q3.265625 0 5.0 1.53125q1.75 1.515625 1.75 4.328125l0 9.984375l-4.0625 0zm-3.2655945 -2.375q2.2343445 0 3.2655945 -1.34375l0 -1.90625q-1.03125 -1.34375 -3.2655945 -1.34375q-1.21875 0 -2.0625 0.609375q-0.84375 0.59375 -0.84375 1.71875q0 1.09375 0.84375 1.6875q0.84375 0.578125 2.0625 0.578125zm16.547882 2.7656288q-4.390625 0 -4.390625 -4.234379l0 -8.0625l-2.5625 0l0 -3.546875l2.5625 0l0 -4.234375l4.09375 0l0 4.234375l3.140625 0l0 3.546875l-3.140625 0l0 6.984375q0 0.734375 0.359375 1.21875q0.375 0.46875 1.046875 0.46875q0.96875 0 1.421875 -0.453125l0.859375 3.078125q-1.0625 1.0000038 -3.390625 1.0000038zm12.800415 0q-3.59375 0 -5.875 -2.2968788q-2.28125 -2.3125 -2.28125 -5.84375q0 -3.515625 2.28125 -5.796875q2.28125 -2.296875 5.875 -2.296875q3.578125 0 5.875 2.296875q2.3125 2.28125 2.3125 5.796875q0 3.5625 -2.3125 5.859375q-2.296875 2.2812538 -5.875 2.2812538zm0 -3.6250038q1.75 0 2.859375 -1.265625q1.109375 -1.265625 1.109375 -3.25q0 -1.90625 -1.109375 -3.1875q-1.109375 -1.28125 -2.859375 -1.28125q-1.703125 0 -2.828125 1.234375q-1.109375 1.21875 -1.109375 3.234375q0 2.046875 1.109375 3.28125q1.125 1.234375 2.828125 1.234375zm11.196167 3.234375l0 -15.453125l4.0625 0l0 2.109375q0.828125 -1.03125 2.15625 -1.765625q1.328125 -0.734375 2.78125 -0.734375l0 3.96875l-1.125 -0.09375q-1.09375 0 -2.203125 0.515625q-1.09375 0.515625 -1.609375 1.25l0 10.203125l-4.0625 0zm13.535645 -17.125q-0.984375 0 -1.71875 -0.703125q-0.71875 -0.703125 -0.71875 -1.71875q0 -1.03125 0.71875 -1.71875q0.734375 -0.6875 1.71875 -0.6875q1.03125 0 1.734375 0.6875q0.703125 0.6875 0.703125 1.71875q0 1.015625 -0.703125 1.71875q-0.703125 0.703125 -1.734375 0.703125zm-2.015625 17.125l0 -15.453125l4.0625 0l0 15.453125l-4.0625 0zm18.533508 0l0 -1.953125q-2.078125 2.3437538 -5.4375 2.3437538q-2.5625 0 -3.78125 -1.2968788q-1.21875 -1.296875 -1.21875 -3.578125l0 -10.96875l4.0625 0l0 9.375q0 2.84375 2.84375 2.84375q2.09375 0 3.53125 -1.75l0 -10.46875l4.0625 0l0 15.453125l-4.0625 0zm27.262451 0l0 -9.765625q0 -2.453125 -2.3125 -2.453125q-1.078125 0 -1.921875 0.578125q-0.828125 0.5625 -1.265625 1.203125l0 10.4375l-4.109375 0l0 -9.765625q0 -2.453125 -2.296875 -2.453125q-1.0625 0 -1.90625 0.59375q-0.84375 0.578125 -1.296875 1.21875l0 10.40625l-4.0625 0l0 -15.453125l4.0625 0l0 2.015625q0.546875 -0.859375 2.03125 -1.625q1.484375 -0.78125 3.03125 -0.78125q3.359375 0 4.28125 2.8125q0.734375 -1.171875 2.203125 -1.984375q1.484375 -0.828125 3.109375 -0.828125q4.546875 0 4.546875 4.671875l0 11.171875l-4.09375 0z" fill-rule="nonzero"/><path fill="#ffd966" d="m26.418324 147.50946l0 0c0 -7.6016693 6.1623764 -13.764053 13.764053 -13.764053l137.63725 0c3.6504517 0 7.1513977 1.4501343 9.732651 4.0314026c2.5812683 2.581253 4.0314026 6.082199 4.0314026 9.732651l0 55.054565c0 7.6016846 -6.162384 13.764053 -13.764053 13.764053l-137.63725 0c-7.601677 0 -13.764053 -6.162369 -13.764053 -13.764053z" fill-rule="evenodd"/><path stroke="#000000" stroke-width="1.0" stroke-linejoin="round" stroke-linecap="butt" d="m26.418324 147.50946l0 0c0 -7.6016693 6.1623764 -13.764053 13.764053 -13.764053l137.63725 0c3.6504517 0 7.1513977 1.4501343 9.732651 4.0314026c2.5812683 2.581253 4.0314026 6.082199 4.0314026 9.732651l0 55.054565c0 7.6016846 -6.162384 13.764053 -13.764053 13.764053l-137.63725 0c-7.601677 0 -13.764053 -6.162369 -13.764053 -13.764053z" fill-rule="evenodd"/><path fill="#000000" d="m51.39215 169.51674l0 -14.21875l3.03125 0l0 11.546875l6.015625 0l0 2.671875l-9.046875 0zm12.435898 -11.40625q-0.65625 0 -1.140625 -0.46875q-0.484375 -0.46875 -0.484375 -1.15625q0 -0.6875 0.484375 -1.140625q0.484375 -0.453125 1.140625 -0.453125q0.6875 0 1.15625 0.453125q0.46875 0.453125 0.46875 1.140625q0 0.6875 -0.46875 1.15625q-0.46875 0.46875 -1.15625 0.46875zm-1.34375 11.40625l0 -10.296875l2.703125 0l0 10.296875l-2.703125 0zm8.067917 0l-4.140625 -10.296875l2.890625 0l2.6875 7.15625l2.6875 -7.15625l2.921875 0l-4.125 10.296875l-2.921875 0zm13.113251 0.25q-2.4375 0 -3.96875 -1.5q-1.53125 -1.5 -1.53125 -3.90625q0 -2.3125 1.515625 -3.859375q1.53125 -1.546875 3.8125 -1.546875q2.28125 0 3.71875 1.578125q1.4375 1.5625 1.4375 4.09375l0 0.609375l-7.65625 0q0.125 0.96875 0.875 1.6875q0.765625 0.703125 2.09375 0.703125q0.640625 0 1.421875 -0.265625q0.796875 -0.28125 1.328125 -0.765625l1.1875 1.75q-0.765625 0.703125 -1.890625 1.0625q-1.125 0.359375 -2.34375 0.359375zm2.359375 -6.375q-0.0625 -1.015625 -0.765625 -1.640625q-0.703125 -0.640625 -1.765625 -0.640625q-1.0625 0 -1.75 0.65625q-0.6875 0.640625 -0.796875 1.625l5.078125 0zm10.113892 6.125l0 -14.21875l6.65625 0q2.171875 0 3.46875 1.265625q1.3125 1.265625 1.3125 3.3125q0 2.03125 -1.34375 3.3125q-1.328125 1.265625 -3.4375 1.265625l-3.625 0l0 5.0625l-3.03125 0zm6.25 -7.71875q0.890625 0 1.484375 -0.515625q0.609375 -0.515625 0.609375 -1.40625q0 -0.890625 -0.609375 -1.40625q-0.59375 -0.515625 -1.484375 -0.515625l-3.21875 0l0 3.84375l3.21875 0zm12.757141 7.71875l0 -1.0625q-1.125 1.3125 -3.265625 1.3125q-1.5 0 -2.546875 -0.9375q-1.03125 -0.953125 -1.03125 -2.46875q0 -1.515625 0.984375 -2.421875q1.0 -0.90625 2.59375 -0.90625q2.21875 0 3.265625 1.265625l0 -1.390625q0 -0.796875 -0.625 -1.265625q-0.609375 -0.46875 -1.640625 -0.46875q-1.703125 0 -3.0 1.21875l-1.03125 -1.8125q1.875 -1.625 4.5 -1.625q2.171875 0 3.328125 1.015625q1.171875 1.015625 1.171875 2.890625l0 6.65625l-2.703125 0zm-2.171875 -1.578125q1.484375 0 2.171875 -0.890625l0 -1.28125q-0.6875 -0.90625 -2.171875 -0.90625q-0.8125 0 -1.390625 0.40625q-0.5625 0.40625 -0.5625 1.15625q0 0.71875 0.5625 1.125q0.578125 0.390625 1.390625 0.390625zm14.518723 1.578125l0 -6.234375q0 -1.90625 -1.890625 -1.90625q-1.484375 0 -2.359375 1.203125l0 6.9375l-2.703125 0l0 -10.296875l2.703125 0l0 1.34375q0.5 -0.609375 1.40625 -1.109375q0.921875 -0.5 2.203125 -0.5q1.703125 0 2.515625 0.890625q0.828125 0.890625 0.828125 2.40625l0 7.265625l-2.703125 0zm10.239655 0.25q-2.4375 0 -3.96875 -1.5q-1.53125 -1.5 -1.53125 -3.90625q0 -2.3125 1.515625 -3.859375q1.53125 -1.546875 3.8125 -1.546875q2.28125 0 3.71875 1.578125q1.4375 1.5625 1.4375 4.09375l0 0.609375l-7.65625 0q0.125 0.96875 0.875 1.6875q0.765625 0.703125 2.09375 0.703125q0.640625 0 1.421875 -0.265625q0.796875 -0.28125 1.328125 -0.765625l1.1875 1.75q-0.765625 0.703125 -1.890625 1.0625q-1.125 0.359375 -2.34375 0.359375zm2.359375 -6.375q-0.0625 -1.015625 -0.765625 -1.640625q-0.703125 -0.640625 -1.765625 -0.640625q-1.0625 0 -1.75 0.65625q-0.6875 0.640625 -0.796875 1.625l5.078125 0zm14.832642 6.375q-2.390625 0 -3.921875 -1.53125q-1.515625 -1.53125 -1.515625 -3.875q0 -2.34375 1.515625 -3.875q1.53125 -1.53125 3.921875 -1.53125q2.390625 0 3.921875 1.53125q1.53125 1.53125 1.53125 3.875q0 2.359375 -1.53125 3.890625q-1.53125 1.515625 -3.921875 1.515625zm0 -2.40625q1.171875 0 1.90625 -0.84375q0.734375 -0.84375 0.734375 -2.15625q0 -1.28125 -0.734375 -2.125q-0.734375 -0.859375 -1.90625 -0.859375q-1.140625 0 -1.890625 0.828125q-0.734375 0.8125 -0.734375 2.15625q0 1.359375 0.734375 2.1875q0.75 0.8125 1.890625 0.8125zm8.054886 2.15625l0 -7.9375l-1.703125 0l0 -2.359375l1.703125 0l0 -0.5625q0 -1.65625 0.953125 -2.609375q0.96875 -0.96875 2.53125 -0.96875q1.8125 0 2.6875 0.953125l-1.03125 1.609375q-0.421875 -0.4375 -1.125 -0.4375q-0.5625 0 -0.921875 0.375q-0.359375 0.359375 -0.359375 1.078125l0 0.5625l2.09375 0l0 2.359375l-2.09375 0l0 7.9375l-2.734375 0z" fill-rule="nonzero"/><path fill="#000000" d="m90.957535 195.798q-3.234375 0 -5.40625 -2.0625q-2.171875 -2.078125 -2.171875 -5.328125q0 -3.234375 2.140625 -5.28125q2.15625 -2.0625 5.4375 -2.0625q3.875 0 5.890625 3.171875l-2.515625 1.359375q-0.5 -0.75 -1.359375 -1.296875q-0.859375 -0.546875 -2.015625 -0.546875q-1.9375 0 -3.203125 1.328125q-1.25 1.328125 -1.25 3.328125q0 2.078125 1.28125 3.375q1.28125 1.296875 3.171875 1.296875q0.953125 0 1.78125 -0.328125q0.828125 -0.34375 1.25 -0.75l0 -1.703125l-3.75 0l0 -2.65625l6.78125 0l0 5.46875q-2.421875 2.6875 -6.0625 2.6875zm8.403183 -0.28125l0 -14.21875l2.703125 0l0 14.21875l-2.703125 0zm11.583542 0l0 -1.0625q-1.125 1.3125 -3.265625 1.3125q-1.5 0 -2.546875 -0.9375q-1.03125 -0.953125 -1.03125 -2.46875q0 -1.515625 0.984375 -2.421875q1.0 -0.90625 2.59375 -0.90625q2.21875 0 3.265625 1.265625l0 -1.390625q0 -0.796875 -0.625 -1.265625q-0.609375 -0.46875 -1.640625 -0.46875q-1.703125 0 -3.0 1.21875l-1.03125 -1.8125q1.875 -1.625 4.5 -1.625q2.171875 0 3.328125 1.015625q1.171875 1.015625 1.171875 2.890625l0 6.65625l-2.703125 0zm-2.171875 -1.578125q1.484375 0 2.171875 -0.890625l0 -1.28125q-0.6875 -0.90625 -2.171875 -0.90625q-0.8125 0 -1.390625 0.40625q-0.5625 0.40625 -0.5625 1.15625q0 0.71875 0.5625 1.125q0.578125 0.390625 1.390625 0.390625zm11.284348 1.828125q-1.34375 0 -2.578125 -0.421875q-1.21875 -0.421875 -2.03125 -1.171875l1.171875 -1.890625q0.609375 0.5625 1.625 0.984375q1.03125 0.421875 1.9375 0.421875q1.71875 0 1.71875 -1.109375q0 -0.4375 -0.453125 -0.640625q-0.453125 -0.21875 -1.125 -0.375l-1.46875 -0.296875q-3.0625 -0.65625 -3.0625 -3.0625q0 -1.4375 1.171875 -2.34375q1.1875 -0.90625 3.046875 -0.90625q2.40625 0 4.15625 1.40625l-1.09375 1.859375q-0.46875 -0.484375 -1.28125 -0.828125q-0.796875 -0.359375 -1.765625 -0.359375q-0.75 0 -1.1875 0.296875q-0.4375 0.296875 -0.4375 0.71875q0 0.390625 0.453125 0.578125q0.453125 0.1875 1.125 0.328125q0.6875 0.140625 1.46875 0.328125q0.796875 0.171875 1.46875 0.546875q0.6875 0.359375 1.140625 0.984375q0.453125 0.609375 0.453125 1.65625q0 1.484375 -1.21875 2.390625q-1.21875 0.90625 -3.234375 0.90625zm10.173553 0q-1.34375 0 -2.578125 -0.421875q-1.21875 -0.421875 -2.03125 -1.171875l1.171875 -1.890625q0.609375 0.5625 1.625 0.984375q1.03125 0.421875 1.9375 0.421875q1.71875 0 1.71875 -1.109375q0 -0.4375 -0.453125 -0.640625q-0.453125 -0.21875 -1.125 -0.375l-1.46875 -0.296875q-3.0625 -0.65625 -3.0625 -3.0625q0 -1.4375 1.171875 -2.34375q1.1875 -0.90625 3.046875 -0.90625q2.40625 0 4.15625 1.40625l-1.09375 1.859375q-0.46875 -0.484375 -1.28125 -0.828125q-0.796875 -0.359375 -1.765625 -0.359375q-0.75 0 -1.1875 0.296875q-0.4375 0.296875 -0.4375 0.71875q0 0.390625 0.453125 0.578125q0.453125 0.1875 1.125 0.328125q0.6875 0.140625 1.46875 0.328125q0.796875 0.171875 1.46875 0.546875q0.6875 0.359375 1.140625 0.984375q0.453125 0.609375 0.453125 1.65625q0 1.484375 -1.21875 2.390625q-1.21875 0.90625 -3.234375 0.90625z" fill-rule="nonzero"/><path fill="#d9ead3" d="m211.36906 147.53308l0 0c0 -7.6016693 6.162384 -13.764053 13.764053 -13.764053l137.63724 0c3.6504517 0 7.1513977 1.4501343 9.732666 4.0314026c2.5812683 2.581253 4.0314026 6.082199 4.0314026 9.732651l0 55.054565c0 7.6016846 -6.162384 13.764053 -13.764069 13.764053l-137.63724 0c-7.6016693 0 -13.764053 -6.162369 -13.764053 -13.764053z" fill-rule="evenodd"/><path stroke="#000000" stroke-width="1.0" stroke-linejoin="round" stroke-linecap="butt" d="m211.36906 147.53308l0 0c0 -7.6016693 6.162384 -13.764053 13.764053 -13.764053l137.63724 0c3.6504517 0 7.1513977 1.4501343 9.732666 4.0314026c2.5812683 2.581253 4.0314026 6.082199 4.0314026 9.732651l0 55.054565c0 7.6016846 -6.162384 13.764053 -13.764069 13.764053l-137.63724 0c-7.6016693 0 -13.764053 -6.162369 -13.764053 -13.764053z" fill-rule="evenodd"/><path fill="#000000" d="m236.17107 160.40349q-3.078125 0 -4.890625 -1.828125l1.34375 -1.875q0.59375 0.640625 1.53125 1.109375q0.9375 0.453125 2.140625 0.453125q1.015625 0 1.5 -0.390625q0.5 -0.390625 0.5 -0.890625q0 -0.53125 -0.578125 -0.8125q-0.5625 -0.296875 -2.734375 -0.828125q-3.328125 -0.796875 -3.328125 -3.359375q0 -1.484375 1.203125 -2.5q1.203125 -1.015625 3.171875 -1.015625q2.75 0 4.5 1.609375l-1.359375 1.8125q-1.375 -1.265625 -3.359375 -1.265625q-0.796875 0 -1.234375 0.328125q-0.421875 0.3125 -0.421875 0.828125q0 0.453125 0.5 0.703125q0.5 0.25 1.234375 0.421875l1.59375 0.40625q3.3125 0.84375 3.3125 3.390625q0 1.71875 -1.234375 2.71875q-1.21875 0.984375 -3.390625 0.984375zm6.287445 -0.203125l0 -11.5625l2.46875 0l0 9.390625l4.875 0l0 2.171875l-7.34375 0zm19.10942 0l0 -8.09375l-3.25 8.09375l-1.078125 0l-3.2499847 -8.09375l0 8.09375l-2.46875 0l0 -11.5625l3.453125 0l2.8124847 6.984375l2.796875 -6.984375l3.46875 0l0 11.5625l-2.484375 0zm17.126434 0l0 -4.859375l-5.453125 0l0 4.859375l-2.46875 0l0 -11.5625l2.46875 0l0 4.546875l5.453125 0l0 -4.546875l2.484375 0l0 11.5625l-2.484375 0zm5.7917786 -9.265625q-0.546875 0 -0.9375 -0.375q-0.390625 -0.390625 -0.390625 -0.953125q0 -0.546875 0.390625 -0.921875q0.390625 -0.375 0.9375 -0.375q0.546875 0 0.921875 0.375q0.390625 0.375 0.390625 0.921875q0 0.5625 -0.390625 0.953125q-0.375 0.375 -0.921875 0.375zm-1.09375 9.265625l0 -8.375l2.203125 0l0 8.375l-2.203125 0zm7.3996277 0.203125q-1.09375 0 -2.09375 -0.34375q-1.0 -0.34375 -1.65625 -0.953125l0.953125 -1.546875q0.5 0.46875 1.328125 0.8125q0.84375 0.34375 1.5625 0.34375q1.40625 0 1.40625 -0.90625q0 -0.34375 -0.375 -0.515625q-0.359375 -0.171875 -0.90625 -0.296875l-1.1875 -0.25q-2.5 -0.53125 -2.5 -2.484375q0 -1.171875 0.953125 -1.90625q0.96875 -0.734375 2.484375 -0.734375q1.953125 0 3.375 1.140625l-0.890625 1.515625q-0.375 -0.40625 -1.03125 -0.6875q-0.65625 -0.28125 -1.4375 -0.28125q-0.609375 0 -0.96875 0.25q-0.359375 0.234375 -0.359375 0.578125q0 0.3125 0.359375 0.46875q0.375 0.15625 0.921875 0.265625q0.5625 0.109375 1.203125 0.265625q0.640625 0.140625 1.1875 0.4375q0.5625 0.296875 0.921875 0.796875q0.375 0.5 0.375 1.34375q0 1.21875 -1.0 1.953125q-0.984375 0.734375 -2.625 0.734375zm8.062347 0q-2.375 0 -2.375 -2.28125l0 -4.375l-1.390625 0l0 -1.921875l1.390625 0l0 -2.28125l2.21875 0l0 2.28125l1.6875 0l0 1.921875l-1.6875 0l0 3.78125q0 0.40625 0.1875 0.671875q0.203125 0.25 0.5625 0.25q0.53125 0 0.765625 -0.25l0.46875 1.671875q-0.578125 0.53125 -1.828125 0.53125zm6.9193726 0q-1.9375 0 -3.1875 -1.234375q-1.234375 -1.25 -1.234375 -3.15625q0 -1.90625 1.234375 -3.140625q1.25 -1.25 3.1875 -1.25q1.9375 0 3.1875 1.25q1.25 1.234375 1.25 3.140625q0 1.921875 -1.25 3.15625q-1.25 1.234375 -3.1875 1.234375zm0 -1.953125q0.953125 0 1.546875 -0.6875q0.609375 -0.6875 0.609375 -1.75q0 -1.046875 -0.609375 -1.734375q-0.59375 -0.703125 -1.546875 -0.703125q-0.90625 0 -1.515625 0.671875q-0.609375 0.671875 -0.609375 1.765625q0 1.109375 0.609375 1.78125q0.609375 0.65625 1.515625 0.65625zm6.071289 1.75l0 -8.375l2.203125 0l0 1.15625q0.453125 -0.5625 1.171875 -0.953125q0.71875 -0.40625 1.484375 -0.40625l0 2.15625l-0.59375 -0.0625q-0.59375 0 -1.203125 0.28125q-0.59375 0.28125 -0.859375 0.671875l0 5.53125l-2.203125 0zm7.3318176 -9.265625q-0.546875 0 -0.9375 -0.375q-0.390625 -0.390625 -0.390625 -0.953125q0 -0.546875 0.390625 -0.921875q0.390625 -0.375 0.9375 -0.375q0.546875 0 0.921875 0.375q0.390625 0.375 0.390625 0.921875q0 0.5625 -0.390625 0.953125q-0.375 0.375 -0.921875 0.375zm-1.09375 9.265625l0 -8.375l2.203125 0l0 8.375l-2.203125 0zm8.274628 0.203125q-1.96875 0 -3.203125 -1.234375q-1.234375 -1.25 -1.234375 -3.15625q0 -1.890625 1.234375 -3.140625q1.234375 -1.25 3.203125 -1.25q1.28125 0 2.09375 0.46875q0.8125 0.46875 1.21875 1.046875l-1.4375 1.34375q-0.609375 -0.90625 -1.765625 -0.90625q-1.0 0 -1.640625 0.671875q-0.625 0.671875 -0.625 1.765625q0 1.078125 0.625 1.765625q0.640625 0.671875 1.640625 0.671875q1.125 0 1.765625 -0.90625l1.4375 1.34375q-0.40625 0.578125 -1.21875 1.046875q-0.8125 0.46875 -2.09375 0.46875zm9.7716675 -0.203125l0 -0.859375q-0.90625 1.0625 -2.640625 1.0625q-1.21875 0 -2.078125 -0.765625q-0.84375 -0.765625 -0.84375 -2.0q0 -1.234375 0.8125 -1.96875q0.8125 -0.734375 2.109375 -0.734375q1.796875 0 2.640625 1.015625l0 -1.125q0 -0.640625 -0.5 -1.015625q-0.5 -0.390625 -1.328125 -0.390625q-1.390625 0 -2.4375 1.0l-0.84375 -1.484375q1.53125 -1.3125 3.65625 -1.3125q1.765625 0 2.703125 0.828125q0.953125 0.8125 0.953125 2.34375l0 5.40625l-2.203125 0zm-1.765625 -1.28125q1.21875 0 1.765625 -0.734375l0 -1.03125q-0.546875 -0.734375 -1.765625 -0.734375q-0.65625 0 -1.125 0.328125q-0.453125 0.328125 -0.453125 0.9375q0 0.59375 0.453125 0.921875q0.46875 0.3125 1.125 0.3125zm6.1591187 1.28125l0 -11.5625l2.203125 0l0 11.5625l-2.203125 0zm12.851227 -5.15625l0 3.515625l-1.5 0l0 -3.515625l-3.125 0l0 -1.375l3.125 0l0 -3.375l1.5 0l0 3.375l3.109375 0l0 1.375l-3.109375 0z" fill-rule="nonzero"/><path fill="#000000" d="m256.51807 181.20036l-0.703125 -1.953125l-4.953125 0l-0.734375 1.953125l-2.8125 0l4.484375 -11.5625l3.078125 0l4.453125 11.5625l-2.8125 0zm-3.1875 -9.09375l-1.796875 4.96875l3.609375 0l-1.8125 -4.96875zm10.446106 12.484375q-1.078125 0 -1.9375 -0.28125q-0.859375 -0.265625 -1.65625 -0.953125l0.984375 -1.609375q0.9375 1.046875 2.609375 1.046875q1.09375 0 1.703125 -0.5625q0.609375 -0.546875 0.609375 -1.546875l0 -0.859375q-1.0625 1.328125 -2.578125 1.328125q-1.6875 0 -2.703125 -1.15625q-1.0 -1.15625 -1.0 -3.109375q0 -1.9375 1.0 -3.09375q1.0 -1.171875 2.703125 -1.171875q1.578125 0 2.578125 1.28125l0 -1.078125l2.21875 0l0 7.796875q0 1.90625 -1.1875 2.9375q-1.171875 1.03125 -3.34375 1.03125zm0.421875 -5.40625q0.5625 0 1.078125 -0.265625q0.53125 -0.28125 0.8125 -0.6875l0 -2.703125q-0.28125 -0.40625 -0.8125 -0.671875q-0.515625 -0.28125 -1.078125 -0.28125q-0.9375 0 -1.53125 0.609375q-0.578125 0.609375 -0.578125 1.703125q0 1.09375 0.578125 1.703125q0.59375 0.59375 1.53125 0.59375zm9.715027 5.40625q-1.078125 0 -1.9375 -0.28125q-0.859375 -0.265625 -1.65625 -0.953125l0.984375 -1.609375q0.9375 1.046875 2.609375 1.046875q1.09375 0 1.703125 -0.5625q0.609375 -0.546875 0.609375 -1.546875l0 -0.859375q-1.0625 1.328125 -2.578125 1.328125q-1.6875 0 -2.703125 -1.15625q-1.0 -1.15625 -1.0 -3.109375q0 -1.9375 1.0 -3.09375q1.0 -1.171875 2.703125 -1.171875q1.578125 0 2.578125 1.28125l0 -1.078125l2.21875 0l0 7.796875q0 1.90625 -1.1875 2.9375q-1.171875 1.03125 -3.34375 1.03125zm0.421875 -5.40625q0.5625 0 1.078125 -0.265625q0.53125 -0.28125 0.8125 -0.6875l0 -2.703125q-0.28125 -0.40625 -0.8125 -0.671875q-0.515625 -0.28125 -1.078125 -0.28125q-0.9375 0 -1.53125 0.609375q-0.578125 0.609375 -0.578125 1.703125q0 1.09375 0.578125 1.703125q0.59375 0.59375 1.53125 0.59375zm6.2931213 2.015625l0 -8.375l2.203125 0l0 1.15625q0.453125 -0.5625 1.171875 -0.953125q0.71875 -0.40625 1.484375 -0.40625l0 2.15625l-0.59375 -0.0625q-0.59375 0 -1.203125 0.28125q-0.59375 0.28125 -0.859375 0.671875l0 5.53125l-2.203125 0zm10.175598 0.203125q-1.984375 0 -3.234375 -1.21875q-1.25 -1.21875 -1.25 -3.171875q0 -1.875 1.234375 -3.125q1.25 -1.265625 3.109375 -1.265625q1.84375 0 3.015625 1.28125q1.171875 1.265625 1.171875 3.328125l0 0.484375l-6.21875 0q0.109375 0.796875 0.71875 1.375q0.609375 0.5625 1.6875 0.5625q0.515625 0 1.15625 -0.203125q0.640625 -0.21875 1.078125 -0.625l0.96875 1.421875q-0.625 0.578125 -1.546875 0.875q-0.90625 0.28125 -1.890625 0.28125zm1.921875 -5.171875q-0.0625 -0.84375 -0.640625 -1.34375q-0.5625 -0.515625 -1.421875 -0.515625q-0.875 0 -1.4375 0.53125q-0.546875 0.53125 -0.625 1.328125l4.125 0zm7.1448975 8.359375q-1.078125 0 -1.9375 -0.28125q-0.859375 -0.265625 -1.65625 -0.953125l0.984375 -1.609375q0.9375 1.046875 2.609375 1.046875q1.09375 0 1.703125 -0.5625q0.609375 -0.546875 0.609375 -1.546875l0 -0.859375q-1.0625 1.328125 -2.578125 1.328125q-1.6875 0 -2.703125 -1.15625q-1.0 -1.15625 -1.0 -3.109375q0 -1.9375 1.0 -3.09375q1.0 -1.171875 2.703125 -1.171875q1.578125 0 2.578125 1.28125l0 -1.078125l2.21875 0l0 7.796875q0 1.90625 -1.1875 2.9375q-1.171875 1.03125 -3.34375 1.03125zm0.421875 -5.40625q0.5625 0 1.078125 -0.265625q0.53125 -0.28125 0.8125 -0.6875l0 -2.703125q-0.28125 -0.40625 -0.8125 -0.671875q-0.515625 -0.28125 -1.078125 -0.28125q-0.9375 0 -1.53125 0.609375q-0.578125 0.609375 -0.578125 1.703125q0 1.09375 0.578125 1.703125q0.59375 0.59375 1.53125 0.59375zm11.308746 2.015625l0 -0.859375q-0.90625 1.0625 -2.640625 1.0625q-1.21875 0 -2.078125 -0.765625q-0.84375 -0.765625 -0.84375 -2.0q0 -1.234375 0.8125 -1.96875q0.8125 -0.734375 2.109375 -0.734375q1.796875 0 2.640625 1.015625l0 -1.125q0 -0.640625 -0.5 -1.015625q-0.5 -0.390625 -1.328125 -0.390625q-1.390625 0 -2.4375 1.0l-0.84375 -1.484375q1.53125 -1.3125 3.65625 -1.3125q1.765625 0 2.703125 0.828125q0.953125 0.8125 0.953125 2.34375l0 5.40625l-2.203125 0zm-1.765625 -1.28125q1.21875 0 1.765625 -0.734375l0 -1.03125q-0.546875 -0.734375 -1.765625 -0.734375q-0.65625 0 -1.125 0.328125q-0.453125 0.328125 -0.453125 0.9375q0 0.59375 0.453125 0.921875q0.46875 0.3125 1.125 0.3125zm8.971619 1.484375q-2.375 0 -2.375 -2.28125l0 -4.375l-1.390625 0l0 -1.921875l1.390625 0l0 -2.28125l2.21875 0l0 2.28125l1.6875 0l0 1.921875l-1.6875 0l0 3.78125q0 0.40625 0.1875 0.671875q0.203125 0.25 0.5625 0.25q0.53125 0 0.765625 -0.25l0.46875 1.671875q-0.578125 0.53125 -1.828125 0.53125zm6.9818726 0q-1.984375 0 -3.234375 -1.21875q-1.25 -1.21875 -1.25 -3.171875q0 -1.875 1.234375 -3.125q1.25 -1.265625 3.109375 -1.265625q1.84375 0 3.015625 1.28125q1.171875 1.265625 1.171875 3.328125l0 0.484375l-6.21875 0q0.109375 0.796875 0.71875 1.375q0.609375 0.5625 1.6875 0.5625q0.515625 0 1.15625 -0.203125q0.640625 -0.21875 1.078125 -0.625l0.96875 1.421875q-0.625 0.578125 -1.546875 0.875q-0.90625 0.28125 -1.890625 0.28125zm1.921875 -5.171875q-0.0625 -0.84375 -0.640625 -1.34375q-0.5625 -0.515625 -1.421875 -0.515625q-0.875 0 -1.4375 0.53125q-0.546875 0.53125 -0.625 1.328125l4.125 0zm9.473022 4.96875l0 -1.078125q-1.03125 1.28125 -2.578125 1.28125q-1.671875 0 -2.703125 -1.1875q-1.015625 -1.203125 -1.015625 -3.1875q0 -1.984375 1.015625 -3.1875q1.03125 -1.21875 2.703125 -1.21875q1.578125 0 2.578125 1.28125l0 -4.265625l2.21875 0l0 11.5625l-2.21875 0zm-1.90625 -1.75q0.5625 0 1.09375 -0.265625q0.53125 -0.265625 0.8125 -0.6875l0 -2.96875q-0.28125 -0.40625 -0.8125 -0.671875q-0.53125 -0.28125 -1.09375 -0.28125q-0.9375 0 -1.53125 0.6875q-0.578125 0.671875 -0.578125 1.765625q0 1.046875 0.5625 1.734375q0.578125 0.6875 1.546875 0.6875z" fill-rule="nonzero"/><path fill="#000000" d="m263.17282 202.20036l-2.265625 -4.109375l-1.796875 0l0 4.109375l-2.46875 0l0 -11.5625l5.40625 0q1.765625 0 2.828125 1.046875q1.0625 1.046875 1.0625 2.6875q0 1.34375 -0.71875 2.265625q-0.71875 0.921875 -1.8125 1.15625l2.59375 4.40625l-2.828125 0zm-1.484375 -6.265625q0.75 0 1.234375 -0.421875q0.5 -0.421875 0.5 -1.140625q0 -0.734375 -0.5 -1.140625q-0.484375 -0.421875 -1.234375 -0.421875l-2.578125 0l0 3.125l2.578125 0zm9.465668 6.46875q-1.984375 0 -3.234375 -1.21875q-1.25 -1.21875 -1.25 -3.171875q0 -1.875 1.234375 -3.125q1.25 -1.265625 3.109375 -1.265625q1.84375 0 3.015625 1.28125q1.171875 1.265625 1.171875 3.328125l0 0.484375l-6.21875 0q0.109375 0.796875 0.71875 1.375q0.609375 0.5625 1.6875 0.5625q0.515625 0 1.15625 -0.203125q0.640625 -0.21875 1.078125 -0.625l0.96875 1.421875q-0.625 0.578125 -1.546875 0.875q-0.90625 0.28125 -1.890625 0.28125zm1.921875 -5.171875q-0.0625 -0.84375 -0.640625 -1.34375q-0.5625 -0.515625 -1.421875 -0.515625q-0.875 0 -1.4375 0.53125q-0.546875 0.53125 -0.625 1.328125l4.125 0zm8.504272 5.171875q-1.609375 0 -2.578125 -1.28125l0 4.265625l-2.203125 0l0 -11.5625l2.203125 0l0 1.0625q1.0 -1.265625 2.578125 -1.265625q1.65625 0 2.671875 1.171875q1.03125 1.171875 1.03125 3.21875q0 2.0 -1.015625 3.203125q-1.0 1.1875 -2.6875 1.1875zm-0.6875 -1.953125q0.953125 0 1.53125 -0.671875q0.578125 -0.6875 0.578125 -1.765625q0 -1.09375 -0.578125 -1.765625q-0.578125 -0.671875 -1.53125 -0.671875q-0.546875 0 -1.09375 0.28125q-0.53125 0.28125 -0.796875 0.671875l0 2.96875q0.265625 0.40625 0.796875 0.6875q0.546875 0.265625 1.09375 0.265625zm9.883484 1.953125q-1.9375 0 -3.1875 -1.234375q-1.234375 -1.25 -1.234375 -3.15625q0 -1.90625 1.234375 -3.140625q1.25 -1.25 3.1875 -1.25q1.9375 0 3.1875 1.25q1.25 1.234375 1.25 3.140625q0 1.921875 -1.25 3.15625q-1.25 1.234375 -3.1875 1.234375zm0 -1.953125q0.953125 0 1.546875 -0.6875q0.609375 -0.6875 0.609375 -1.75q0 -1.046875 -0.609375 -1.734375q-0.59375 -0.703125 -1.546875 -0.703125q-0.90625 0 -1.515625 0.671875q-0.609375 0.671875 -0.609375 1.765625q0 1.109375 0.609375 1.78125q0.609375 0.65625 1.515625 0.65625zm6.071289 1.75l0 -8.375l2.203125 0l0 1.15625q0.453125 -0.5625 1.171875 -0.953125q0.71875 -0.40625 1.484375 -0.40625l0 2.15625l-0.59375 -0.0625q-0.59375 0 -1.203125 0.28125q-0.59375 0.28125 -0.859375 0.671875l0 5.53125l-2.203125 0zm9.050598 0.203125q-2.375 0 -2.375 -2.28125l0 -4.375l-1.390625 0l0 -1.921875l1.390625 0l0 -2.28125l2.21875 0l0 2.28125l1.6875 0l0 1.921875l-1.6875 0l0 3.78125q0 0.40625 0.1875 0.671875q0.203125 0.25 0.5625 0.25q0.53125 0 0.765625 -0.25l0.46875 1.671875q-0.578125 0.53125 -1.828125 0.53125zm4.1381226 -9.46875q-0.546875 0 -0.9375 -0.375q-0.390625 -0.390625 -0.390625 -0.953125q0 -0.546875 0.390625 -0.921875q0.390625 -0.375 0.9375 -0.375q0.546875 0 0.921875 0.375q0.390625 0.375 0.390625 0.921875q0 0.5625 -0.390625 0.953125q-0.375 0.375 -0.921875 0.375zm-1.09375 9.265625l0 -8.375l2.203125 0l0 8.375l-2.203125 0zm10.024597 0l0 -5.0625q0 -1.5625 -1.53125 -1.5625q-1.203125 0 -1.90625 1.0l0 5.625l-2.203125 0l0 -8.375l2.203125 0l0 1.09375q0.390625 -0.484375 1.140625 -0.890625q0.75 -0.40625 1.78125 -0.40625q1.390625 0 2.046875 0.71875q0.671875 0.71875 0.671875 1.953125l0 5.90625l-2.203125 0zm7.8141785 3.390625q-1.078125 0 -1.9375 -0.28125q-0.859375 -0.265625 -1.65625 -0.953125l0.984375 -1.609375q0.9375 1.046875 2.609375 1.046875q1.09375 0 1.703125 -0.5625q0.609375 -0.546875 0.609375 -1.546875l0 -0.859375q-1.0625 1.328125 -2.578125 1.328125q-1.6875 0 -2.703125 -1.15625q-1.0 -1.15625 -1.0 -3.109375q0 -1.9375 1.0 -3.09375q1.0 -1.171875 2.703125 -1.171875q1.578125 0 2.578125 1.28125l0 -1.078125l2.21875 0l0 7.796875q0 1.90625 -1.1875 2.9375q-1.171875 1.03125 -3.34375 1.03125zm0.421875 -5.40625q0.5625 0 1.078125 -0.265625q0.53125 -0.28125 0.8125 -0.6875l0 -2.703125q-0.28125 -0.40625 -0.8125 -0.671875q-0.515625 -0.28125 -1.078125 -0.28125q-0.9375 0 -1.53125 0.609375q-0.578125 0.609375 -0.578125 1.703125q0 1.09375 0.578125 1.703125q0.59375 0.59375 1.53125 0.59375z" fill-rule="nonzero"/><path fill="#ffd966" d="m397.5772 147.50946l0 0c0 -7.6016693 6.162384 -13.764053 13.764069 -13.764053l137.63724 0c3.6504517 0 7.151367 1.4501343 9.732666 4.0314026c2.5812378 2.581253 4.031372 6.082199 4.031372 9.732651l0 55.054565c0 7.6016846 -6.1623535 13.764053 -13.764038 13.764053l-137.63724 0c-7.6016846 0 -13.764069 -6.162369 -13.764069 -13.764053z" fill-rule="evenodd"/><path stroke="#000000" stroke-width="1.0" stroke-linejoin="round" stroke-linecap="butt" d="m397.5772 147.50946l0 0c0 -7.6016693 6.162384 -13.764053 13.764069 -13.764053l137.63724 0c3.6504517 0 7.151367 1.4501343 9.732666 4.0314026c2.5812378 2.581253 4.031372 6.082199 4.031372 9.732651l0 55.054565c0 7.6016846 -6.1623535 13.764053 -13.764038 13.764053l-137.63724 0c-7.6016846 0 -13.764069 -6.162369 -13.764069 -13.764053z" fill-rule="evenodd"/><path fill="#000000" d="m419.7463 169.51674l0 -14.21875l10.0625 0l0 2.65625l-7.03125 0l0 3.015625l6.890625 0l0 2.65625l-6.890625 0l0 3.21875l7.03125 0l0 2.671875l-10.0625 0zm12.371857 0l0 -10.296875l2.703125 0l0 1.40625q0.5625 -0.6875 1.4375 -1.171875q0.890625 -0.5 1.859375 -0.5l0 2.65625l-0.75 -0.078125q-0.734375 0 -1.46875 0.34375q-0.734375 0.34375 -1.078125 0.84375l0 6.796875l-2.703125 0zm7.6781616 0l0 -10.296875l2.703125 0l0 1.40625q0.5625 -0.6875 1.4375 -1.171875q0.890625 -0.5 1.859375 -0.5l0 2.65625l-0.75 -0.078125q-0.734375 0 -1.46875 0.34375q-0.734375 0.34375 -1.078125 0.84375l0 6.796875l-2.703125 0zm12.459412 0.25q-2.390625 0 -3.921875 -1.53125q-1.515625 -1.53125 -1.515625 -3.875q0 -2.34375 1.515625 -3.875q1.53125 -1.53125 3.921875 -1.53125q2.390625 0 3.921875 1.53125q1.53125 1.53125 1.53125 3.875q0 2.359375 -1.53125 3.890625q-1.53125 1.515625 -3.921875 1.515625zm0 -2.40625q1.171875 0 1.90625 -0.84375q0.734375 -0.84375 0.734375 -2.15625q0 -1.28125 -0.734375 -2.125q-0.734375 -0.859375 -1.90625 -0.859375q-1.140625 0 -1.890625 0.828125q-0.734375 0.8125 -0.734375 2.15625q0 1.359375 0.734375 2.1875q0.75 0.8125 1.890625 0.8125zm7.4611206 2.15625l0 -10.296875l2.703125 0l0 1.40625q0.5625 -0.6875 1.4375 -1.171875q0.890625 -0.5 1.859375 -0.5l0 2.65625l-0.75 -0.078125q-0.734375 0 -1.46875 0.34375q-0.734375 0.34375 -1.078125 0.84375l0 6.796875l-2.703125 0zm13.200684 0l0 -14.21875l7.484375 0q1.859375 0 2.96875 1.0q1.125 1.0 1.125 2.625q0 1.265625 -0.6875 2.15625q-0.6875 0.890625 -1.765625 1.09375q1.109375 0.171875 1.921875 1.15625q0.8125 0.984375 0.8125 2.34375q0 1.703125 -1.109375 2.78125q-1.109375 1.0625 -3.03125 1.0625l-7.71875 0zm6.828125 -8.53125q0.765625 0 1.203125 -0.421875q0.453125 -0.4375 0.453125 -1.109375q0 -0.6875 -0.453125 -1.125q-0.4375 -0.4375 -1.203125 -0.4375l-3.796875 0l0 3.09375l3.796875 0zm0.109375 5.90625q0.875 0 1.34375 -0.4375q0.484375 -0.4375 0.484375 -1.203125q0 -0.6875 -0.46875 -1.171875q-0.46875 -0.484375 -1.359375 -0.484375l-3.90625 0l0 3.296875l3.90625 0zm14.09375 2.625l0 -1.296875q-1.390625 1.546875 -3.625 1.546875q-1.703125 0 -2.515625 -0.859375q-0.8125 -0.859375 -0.8125 -2.375l0 -7.3125l2.703125 0l0 6.25q0 1.890625 1.90625 1.890625q1.390625 0 2.34375 -1.171875l0 -6.96875l2.703125 0l0 10.296875l-2.703125 0zm12.47403 0l0 -1.328125q-1.28125 1.578125 -3.171875 1.578125q-2.046875 0 -3.3125 -1.46875q-1.25 -1.46875 -1.25 -3.921875q0 -2.4375 1.25 -3.921875q1.265625 -1.5 3.3125 -1.5q1.9375 0 3.171875 1.578125l0 -5.234375l2.734375 0l0 14.21875l-2.734375 0zm-2.34375 -2.15625q0.6875 0 1.34375 -0.328125q0.65625 -0.328125 1.0 -0.84375l0 -3.640625q-0.34375 -0.515625 -1.0 -0.84375q-0.65625 -0.328125 -1.34375 -0.328125q-1.15625 0 -1.890625 0.828125q-0.71875 0.828125 -0.71875 2.171875q0 1.296875 0.703125 2.140625q0.71875 0.84375 1.90625 0.84375zm11.982697 6.34375q-1.34375 0 -2.40625 -0.34375q-1.046875 -0.34375 -2.03125 -1.203125l1.21875 -1.953125q1.15625 1.28125 3.21875 1.28125q1.34375 0 2.09375 -0.6875q0.75 -0.6875 0.75 -1.921875l0 -1.046875q-1.296875 1.625 -3.1875 1.625q-2.0625 0 -3.296875 -1.421875q-1.234375 -1.421875 -1.234375 -3.828125q0 -2.390625 1.21875 -3.8125q1.234375 -1.4375 3.3125 -1.4375q1.953125 0 3.1875 1.578125l0 -1.3125l2.734375 0l0 9.59375q0 2.34375 -1.453125 3.609375q-1.453125 1.28125 -4.125 1.28125zm0.515625 -6.65625q0.6875 0 1.328125 -0.34375q0.65625 -0.34375 1.0 -0.828125l0 -3.328125q-0.34375 -0.515625 -1.0 -0.84375q-0.640625 -0.328125 -1.328125 -0.328125q-1.15625 0 -1.890625 0.75q-0.71875 0.734375 -0.71875 2.078125q0 1.34375 0.71875 2.09375q0.734375 0.75 1.890625 0.75zm12.586365 2.71875q-2.4375 0 -3.96875 -1.5q-1.53125 -1.5 -1.53125 -3.90625q0 -2.3125 1.515625 -3.859375q1.53125 -1.546875 3.8125 -1.546875q2.28125 0 3.71875 1.578125q1.4375 1.5625 1.4375 4.09375l0 0.609375l-7.65625 0q0.125 0.96875 0.875 1.6875q0.765625 0.703125 2.09375 0.703125q0.640625 0 1.421875 -0.265625q0.796875 -0.28125 1.328125 -0.765625l1.1875 1.75q-0.765625 0.703125 -1.890625 1.0625q-1.125 0.359375 -2.34375 0.359375zm2.359375 -6.375q-0.0625 -1.015625 -0.765625 -1.640625q-0.703125 -0.640625 -1.765625 -0.640625q-1.0625 0 -1.75 0.65625q-0.6875 0.640625 -0.796875 1.625l5.078125 0zm8.044495 6.375q-2.921875 0 -2.921875 -2.8125l0 -5.375l-1.703125 0l0 -2.359375l1.703125 0l0 -2.8125l2.734375 0l0 2.8125l2.09375 0l0 2.359375l-2.09375 0l0 4.65625q0 0.484375 0.234375 0.8125q0.25 0.3125 0.703125 0.3125q0.640625 0 0.9375 -0.296875l0.578125 2.046875q-0.703125 0.65625 -2.265625 0.65625z" fill-rule="nonzero"/><path fill="#000000" d="m474.50803 195.51675l-0.875 -2.40625l-6.09375 0l-0.90625 2.40625l-3.453125 0l5.5 -14.21875l3.796875 0l5.484375 14.21875l-3.453125 0zm-3.921875 -11.203125l-2.21875 6.125l4.4375 0l-2.21875 -6.125zm8.697876 11.203125l0 -14.21875l6.65625 0q2.171875 0 3.46875 1.265625q1.3125 1.265625 1.3125 3.3125q0 2.03125 -1.34375 3.3125q-1.328125 1.265625 -3.4375 1.265625l-3.625 0l0 5.0625l-3.03125 0zm6.25 -7.71875q0.890625 0 1.484375 -0.515625q0.609375 -0.515625 0.609375 -1.40625q0 -0.890625 -0.609375 -1.40625q-0.59375 -0.515625 -1.484375 -0.515625l-3.21875 0l0 3.84375l3.21875 0zm7.0588074 7.71875l0 -14.21875l3.03125 0l0 14.21875l-3.03125 0z" fill-rule="nonzero"/><path fill="#ffd966" d="m583.4383 147.50946l0 0c0 -7.6016693 6.1624146 -13.764053 13.764099 -13.764053l137.6372 0c3.6504517 0 7.151428 1.4501343 9.732666 4.0314026c2.5812988 2.581253 4.031433 6.082199 4.031433 9.732651l0 55.054565c0 7.6016846 -6.1624146 13.764053 -13.764099 13.764053l-137.6372 0c-7.6016846 0 -13.764099 -6.162369 -13.764099 -13.764053z" fill-rule="evenodd"/><path stroke="#000000" stroke-width="1.0" stroke-linejoin="round" stroke-linecap="butt" d="m583.4383 147.50946l0 0c0 -7.6016693 6.1624146 -13.764053 13.764099 -13.764053l137.6372 0c3.6504517 0 7.151428 1.4501343 9.732666 4.0314026c2.5812988 2.581253 4.031433 6.082199 4.031433 9.732651l0 55.054565c0 7.6016846 -6.1624146 13.764053 -13.764099 13.764053l-137.6372 0c-7.6016846 0 -13.764099 -6.162369 -13.764099 -13.764053z" fill-rule="evenodd"/><path fill="#000000" d="m608.78534 182.51674l0 -14.21875l3.03125 0l0 14.21875l-3.03125 0zm12.734558 0l0 -6.234375q0 -1.90625 -1.890625 -1.90625q-1.484375 0 -2.359375 1.203125l0 6.9375l-2.703125 0l0 -10.296875l2.703125 0l0 1.34375q0.5 -0.609375 1.40625 -1.109375q0.921875 -0.5 2.203125 -0.5q1.703125 0 2.515625 0.890625q0.828125 0.890625 0.828125 2.40625l0 7.265625l-2.703125 0zm10.192749 0.25q-2.421875 0 -3.9375 -1.53125q-1.515625 -1.53125 -1.515625 -3.875q0 -2.328125 1.515625 -3.859375q1.515625 -1.546875 3.9375 -1.546875q1.578125 0 2.5625 0.578125q1.0 0.578125 1.515625 1.28125l-1.765625 1.671875q-0.75 -1.109375 -2.1875 -1.109375q-1.234375 0 -2.015625 0.828125q-0.78125 0.8125 -0.78125 2.15625q0 1.34375 0.78125 2.171875q0.78125 0.828125 2.015625 0.828125q1.390625 0 2.1875 -1.109375l1.765625 1.640625q-0.515625 0.734375 -1.515625 1.3125q-0.984375 0.5625 -2.5625 0.5625zm7.1896973 -11.65625q-0.65625 0 -1.140625 -0.46875q-0.484375 -0.46875 -0.484375 -1.15625q0 -0.6875 0.484375 -1.140625q0.484375 -0.453125 1.140625 -0.453125q0.6875 0 1.15625 0.453125q0.46875 0.453125 0.46875 1.140625q0 0.6875 -0.46875 1.15625q-0.46875 0.46875 -1.15625 0.46875zm-1.34375 11.40625l0 -10.296875l2.703125 0l0 10.296875l-2.703125 0zm12.474121 0l0 -1.328125q-1.28125 1.578125 -3.171875 1.578125q-2.046875 0 -3.3125 -1.46875q-1.25 -1.46875 -1.25 -3.921875q0 -2.4375 1.25 -3.921875q1.265625 -1.5 3.3125 -1.5q1.9375 0 3.171875 1.578125l0 -5.234375l2.734375 0l0 14.21875l-2.734375 0zm-2.34375 -2.15625q0.6875 0 1.34375 -0.328125q0.65625 -0.328125 1.0 -0.84375l0 -3.640625q-0.34375 -0.515625 -1.0 -0.84375q-0.65625 -0.328125 -1.34375 -0.328125q-1.15625 0 -1.890625 0.828125q-0.71875 0.828125 -0.71875 2.171875q0 1.296875 0.703125 2.140625q0.71875 0.84375 1.90625 0.84375zm12.607727 2.40625q-2.4375 0 -3.96875 -1.5q-1.53125 -1.5 -1.53125 -3.90625q0 -2.3125 1.515625 -3.859375q1.53125 -1.546875 3.8125 -1.546875q2.28125 0 3.71875 1.578125q1.4375 1.5625 1.4375 4.09375l0 0.609375l-7.65625 0q0.125 0.96875 0.875 1.6875q0.765625 0.703125 2.09375 0.703125q0.640625 0 1.421875 -0.265625q0.796875 -0.28125 1.328125 -0.765625l1.1875 1.75q-0.765625 0.703125 -1.890625 1.0625q-1.125 0.359375 -2.34375 0.359375zm2.359375 -6.375q-0.0625 -1.015625 -0.765625 -1.640625q-0.703125 -0.640625 -1.765625 -0.640625q-1.0625 0 -1.75 0.65625q-0.6875 0.640625 -0.796875 1.625l5.078125 0zm11.544495 6.125l0 -6.234375q0 -1.90625 -1.890625 -1.90625q-1.484375 0 -2.359375 1.203125l0 6.9375l-2.703125 0l0 -10.296875l2.703125 0l0 1.34375q0.5 -0.609375 1.40625 -1.109375q0.921875 -0.5 2.203125 -0.5q1.703125 0 2.515625 0.890625q0.828125 0.890625 0.828125 2.40625l0 7.265625l-2.703125 0zm8.84906 0.25q-2.921875 0 -2.921875 -2.8125l0 -5.375l-1.703125 0l0 -2.359375l1.703125 0l0 -2.8125l2.734375 0l0 2.8125l2.09375 0l0 2.359375l-2.09375 0l0 4.65625q0 0.484375 0.234375 0.8125q0.25 0.3125 0.703125 0.3125q0.640625 0 0.9375 -0.296875l0.578125 2.046875q-0.703125 0.65625 -2.265625 0.65625zm19.09082 -0.25l-0.875 -2.40625l-6.09375 0l-0.90625 2.40625l-3.453125 0l5.5 -14.21875l3.796875 0l5.484375 14.21875l-3.453125 0zm-3.921875 -11.203125l-2.21875 6.125l4.4375 0l-2.21875 -6.125zm8.697876 11.203125l0 -14.21875l6.65625 0q2.171875 0 3.46875 1.265625q1.3125 1.265625 1.3125 3.3125q0 2.03125 -1.34375 3.3125q-1.328125 1.265625 -3.4375 1.265625l-3.625 0l0 5.0625l-3.03125 0zm6.25 -7.71875q0.890625 0 1.484375 -0.515625q0.609375 -0.515625 0.609375 -1.40625q0 -0.890625 -0.609375 -1.40625q-0.59375 -0.515625 -1.484375 -0.515625l-3.21875 0l0 3.84375l3.21875 0zm7.058777 7.71875l0 -14.21875l3.03125 0l0 14.21875l-3.03125 0z" fill-rule="nonzero"/><path fill="#ffd966" d="m769.4357 147.50946l0 0c0 -7.6016693 6.1623535 -13.764053 13.764038 -13.764053l137.63727 0c3.6504517 0 7.151367 1.4501343 9.732605 4.0314026c2.5812988 2.581253 4.031433 6.082199 4.031433 9.732651l0 55.054565c0 7.6016846 -6.1624146 13.764053 -13.764038 13.764053l-137.63727 0c-7.6016846 0 -13.764038 -6.162369 -13.764038 -13.764053z" fill-rule="evenodd"/><path stroke="#000000" stroke-width="1.0" stroke-linejoin="round" stroke-linecap="butt" d="m769.4357 147.50946l0 0c0 -7.6016693 6.1623535 -13.764053 13.764038 -13.764053l137.63727 0c3.6504517 0 7.151367 1.4501343 9.732605 4.0314026c2.5812988 2.581253 4.031433 6.082199 4.031433 9.732651l0 55.054565c0 7.6016846 -6.1624146 13.764053 -13.764038 13.764053l-137.63727 0c-7.6016846 0 -13.764038 -6.162369 -13.764038 -13.764053z" fill-rule="evenodd"/><path fill="#000000" d="m804.3633 160.17674l0 -11.5625l4.5625 0q2.734375 0 4.421875 1.59375q1.703125 1.59375 1.703125 4.203125q0 2.578125 -1.703125 4.171875q-1.6875 1.59375 -4.421875 1.59375l-4.5625 0zm4.5625 -2.171875q1.609375 0 2.609375 -1.0q1.015625 -1.015625 1.015625 -2.59375q0 -1.65625 -0.96875 -2.640625q-0.953125 -0.984375 -2.65625 -0.984375l-2.09375 0l0 7.21875l2.09375 0zm11.769653 2.375q-1.984375 0 -3.234375 -1.21875q-1.25 -1.21875 -1.25 -3.171875q0 -1.875 1.234375 -3.125q1.25 -1.265625 3.109375 -1.265625q1.84375 0 3.015625 1.28125q1.171875 1.265625 1.171875 3.328125l0 0.484375l-6.21875 0q0.109375 0.796875 0.71875 1.375q0.609375 0.5625 1.6875 0.5625q0.515625 0 1.15625 -0.203125q0.640625 -0.21875 1.078125 -0.625l0.96875 1.421875q-0.625 0.578125 -1.546875 0.875q-0.90625 0.28125 -1.890625 0.28125zm1.921875 -5.171875q-0.0625 -0.84375 -0.640625 -1.34375q-0.5625 -0.515625 -1.421875 -0.515625q-0.875 0 -1.4375 0.53125q-0.546875 0.53125 -0.625 1.328125l4.125 0zm7.1448975 8.359375q-1.078125 0 -1.9375 -0.28125q-0.859375 -0.265625 -1.65625 -0.953125l0.984375 -1.609375q0.9375 1.046875 2.609375 1.046875q1.09375 0 1.703125 -0.5625q0.609375 -0.546875 0.609375 -1.546875l0 -0.859375q-1.0625 1.328125 -2.578125 1.328125q-1.6875 0 -2.703125 -1.15625q-1.0 -1.15625 -1.0 -3.109375q0 -1.9375 1.0 -3.09375q1.0 -1.171875 2.703125 -1.171875q1.578125 0 2.578125 1.28125l0 -1.078125l2.21875 0l0 7.796875q0 1.90625 -1.1875 2.9375q-1.171875 1.03125 -3.34375 1.03125zm0.421875 -5.40625q0.5625 0 1.078125 -0.265625q0.53125 -0.28125 0.8125 -0.6875l0 -2.703125q-0.28125 -0.40625 -0.8125 -0.671875q-0.515625 -0.28125 -1.078125 -0.28125q-0.9375 0 -1.53125 0.609375q-0.578125 0.609375 -0.578125 1.703125q0 1.09375 0.578125 1.703125q0.59375 0.59375 1.53125 0.59375zm6.293152 2.015625l0 -8.375l2.203125 0l0 1.15625q0.453125 -0.5625 1.171875 -0.953125q0.71875 -0.40625 1.484375 -0.40625l0 2.15625l-0.59375 -0.0625q-0.59375 0 -1.203125 0.28125q-0.59375 0.28125 -0.859375 0.671875l0 5.53125l-2.203125 0zm11.253723 0l0 -0.859375q-0.90625 1.0625 -2.640625 1.0625q-1.21875 0 -2.078125 -0.765625q-0.84375 -0.765625 -0.84375 -2.0q0 -1.234375 0.8125 -1.96875q0.8125 -0.734375 2.109375 -0.734375q1.796875 0 2.640625 1.015625l0 -1.125q0 -0.640625 -0.5 -1.015625q-0.5 -0.390625 -1.328125 -0.390625q-1.390625 0 -2.4375 1.0l-0.84375 -1.484375q1.53125 -1.3125 3.65625 -1.3125q1.765625 0 2.703125 0.828125q0.953125 0.8125 0.953125 2.34375l0 5.40625l-2.203125 0zm-1.765625 -1.28125q1.21875 0 1.765625 -0.734375l0 -1.03125q-0.546875 -0.734375 -1.765625 -0.734375q-0.65625 0 -1.125 0.328125q-0.453125 0.328125 -0.453125 0.9375q0 0.59375 0.453125 0.921875q0.46875 0.3125 1.125 0.3125zm11.909119 1.28125l0 -1.078125q-1.03125 1.28125 -2.578125 1.28125q-1.671875 0 -2.703125 -1.1875q-1.015625 -1.203125 -1.015625 -3.1875q0 -1.984375 1.015625 -3.1875q1.03125 -1.21875 2.703125 -1.21875q1.578125 0 2.578125 1.28125l0 -4.265625l2.21875 0l0 11.5625l-2.21875 0zm-1.90625 -1.75q0.5625 0 1.09375 -0.265625q0.53125 -0.265625 0.8125 -0.6875l0 -2.96875q-0.28125 -0.40625 -0.8125 -0.671875q-0.53125 -0.28125 -1.09375 -0.28125q-0.9375 0 -1.53125 0.6875q-0.578125 0.671875 -0.578125 1.765625q0 1.046875 0.5625 1.734375q0.578125 0.6875 1.546875 0.6875zm11.32605 1.75l0 -0.859375q-0.90625 1.0625 -2.640625 1.0625q-1.21875 0 -2.078125 -0.765625q-0.84375 -0.765625 -0.84375 -2.0q0 -1.234375 0.8125 -1.96875q0.8125 -0.734375 2.109375 -0.734375q1.796875 0 2.640625 1.015625l0 -1.125q0 -0.640625 -0.5 -1.015625q-0.5 -0.390625 -1.328125 -0.390625q-1.390625 0 -2.4375 1.0l-0.84375 -1.484375q1.53125 -1.3125 3.65625 -1.3125q1.765625 0 2.703125 0.828125q0.953125 0.8125 0.953125 2.34375l0 5.40625l-2.203125 0zm-1.765625 -1.28125q1.21875 0 1.765625 -0.734375l0 -1.03125q-0.546875 -0.734375 -1.765625 -0.734375q-0.65625 0 -1.125 0.328125q-0.453125 0.328125 -0.453125 0.9375q0 0.59375 0.453125 0.921875q0.46875 0.3125 1.125 0.3125zm8.971619 1.484375q-2.375 0 -2.375 -2.28125l0 -4.375l-1.390625 0l0 -1.921875l1.390625 0l0 -2.28125l2.21875 0l0 2.28125l1.6875 0l0 1.921875l-1.6875 0l0 3.78125q0 0.40625 0.1875 0.671875q0.203125 0.25 0.5625 0.25q0.53125 0 0.765625 -0.25l0.46875 1.671875q-0.578125 0.53125 -1.828125 0.53125zm4.1381226 -9.46875q-0.546875 0 -0.9375 -0.375q-0.390625 -0.390625 -0.390625 -0.953125q0 -0.546875 0.390625 -0.921875q0.390625 -0.375 0.9375 -0.375q0.546875 0 0.921875 0.375q0.390625 0.375 0.390625 0.921875q0 0.5625 -0.390625 0.953125q-0.375 0.375 -0.921875 0.375zm-1.09375 9.265625l0 -8.375l2.203125 0l0 8.375l-2.203125 0zm8.259033 0.203125q-1.9375 0 -3.1875 -1.234375q-1.234375 -1.25 -1.234375 -3.15625q0 -1.90625 1.234375 -3.140625q1.25 -1.25 3.1875 -1.25q1.9375 0 3.1875 1.25q1.25 1.234375 1.25 3.140625q0 1.921875 -1.25 3.15625q-1.25 1.234375 -3.1875 1.234375zm0 -1.953125q0.953125 0 1.546875 -0.6875q0.609375 -0.6875 0.609375 -1.75q0 -1.046875 -0.609375 -1.734375q-0.59375 -0.703125 -1.546875 -0.703125q-0.90625 0 -1.515625 0.671875q-0.609375 0.671875 -0.609375 1.765625q0 1.109375 0.609375 1.78125q0.609375 0.65625 1.515625 0.65625zm11.711914 1.75l0 -5.0625q0 -1.5625 -1.53125 -1.5625q-1.203125 0 -1.90625 1.0l0 5.625l-2.203125 0l0 -8.375l2.203125 0l0 1.09375q0.390625 -0.484375 1.140625 -0.890625q0.75 -0.40625 1.78125 -0.40625q1.390625 0 2.046875 0.71875q0.671875 0.71875 0.671875 1.953125l0 5.90625l-2.203125 0z" fill-rule="nonzero"/><path fill="#000000" d="m791.2113 181.17674l0 -11.5625l5.40625 0q1.765625 0 2.828125 1.03125q1.0625 1.03125 1.0625 2.703125q0 1.640625 -1.09375 2.6875q-1.078125 1.03125 -2.796875 1.03125l-2.9375 0l0 4.109375l-2.46875 0zm5.078125 -6.265625q0.734375 0 1.21875 -0.421875q0.484375 -0.421875 0.484375 -1.140625q0 -0.734375 -0.484375 -1.140625q-0.484375 -0.421875 -1.21875 -0.421875l-2.609375 0l0 3.125l2.609375 0zm5.687683 6.265625l0 -8.375l2.203125 0l0 1.15625q0.453125 -0.5625 1.171875 -0.953125q0.71875 -0.40625 1.484375 -0.40625l0 2.15625l-0.59375 -0.0625q-0.59375 0 -1.203125 0.28125q-0.59375 0.28125 -0.859375 0.671875l0 5.53125l-2.203125 0zm10.113098 0.203125q-1.9375 0 -3.1875 -1.234375q-1.234375 -1.25 -1.234375 -3.15625q0 -1.90625 1.234375 -3.140625q1.25 -1.25 3.1875 -1.25q1.9375 0 3.1875 1.25q1.25 1.234375 1.25 3.140625q0 1.921875 -1.25 3.15625q-1.25 1.234375 -3.1875 1.234375zm0 -1.953125q0.953125 0 1.546875 -0.6875q0.609375 -0.6875 0.609375 -1.75q0 -1.046875 -0.609375 -1.734375q-0.59375 -0.703125 -1.546875 -0.703125q-0.90625 0 -1.515625 0.671875q-0.609375 0.671875 -0.609375 1.765625q0 1.109375 0.609375 1.78125q0.609375 0.65625 1.515625 0.65625zm9.493164 5.140625q-1.078125 0 -1.9375 -0.28125q-0.859375 -0.265625 -1.65625 -0.953125l0.984375 -1.609375q0.9375 1.046875 2.609375 1.046875q1.09375 0 1.703125 -0.5625q0.609375 -0.546875 0.609375 -1.546875l0 -0.859375q-1.0625 1.328125 -2.578125 1.328125q-1.6875 0 -2.703125 -1.15625q-1.0 -1.15625 -1.0 -3.109375q0 -1.9375 1.0 -3.09375q1.0 -1.171875 2.703125 -1.171875q1.578125 0 2.578125 1.28125l0 -1.078125l2.21875 0l0 7.796875q0 1.90625 -1.1875 2.9375q-1.171875 1.03125 -3.34375 1.03125zm0.421875 -5.40625q0.5625 0 1.078125 -0.265625q0.53125 -0.28125 0.8125 -0.6875l0 -2.703125q-0.28125 -0.40625 -0.8125 -0.671875q-0.515625 -0.28125 -1.078125 -0.28125q-0.9375 0 -1.53125 0.609375q-0.578125 0.609375 -0.578125 1.703125q0 1.09375 0.578125 1.703125q0.59375 0.59375 1.53125 0.59375zm11.933777 2.015625l0 -5.0625q0 -1.5625 -1.53125 -1.5625q-1.203125 0 -1.90625 1.0l0 5.625l-2.203125 0l0 -8.375l2.203125 0l0 1.09375q0.390625 -0.484375 1.140625 -0.890625q0.75 -0.40625 1.78125 -0.40625q1.390625 0 2.046875 0.71875q0.671875 0.71875 0.671875 1.953125l0 5.90625l-2.203125 0zm8.267273 0.203125q-1.9375 0 -3.1875 -1.234375q-1.234375 -1.25 -1.234375 -3.15625q0 -1.90625 1.234375 -3.140625q1.25 -1.25 3.1875 -1.25q1.9375 0 3.1875 1.25q1.25 1.234375 1.25 3.140625q0 1.921875 -1.25 3.15625q-1.25 1.234375 -3.1875 1.234375zm0 -1.953125q0.953125 0 1.546875 -0.6875q0.609375 -0.6875 0.609375 -1.75q0 -1.046875 -0.609375 -1.734375q-0.59375 -0.703125 -1.546875 -0.703125q-0.90625 0 -1.515625 0.671875q-0.609375 0.671875 -0.609375 1.765625q0 1.109375 0.609375 1.78125q0.609375 0.65625 1.515625 0.65625zm9.086914 1.953125q-1.09375 0 -2.09375 -0.34375q-1.0 -0.34375 -1.65625 -0.953125l0.953125 -1.546875q0.5 0.46875 1.328125 0.8125q0.84375 0.34375 1.5625 0.34375q1.40625 0 1.40625 -0.90625q0 -0.34375 -0.375 -0.515625q-0.359375 -0.171875 -0.90625 -0.296875l-1.1875 -0.25q-2.5 -0.53125 -2.5 -2.484375q0 -1.171875 0.953125 -1.90625q0.96875 -0.734375 2.484375 -0.734375q1.953125 0 3.375 1.140625l-0.890625 1.515625q-0.375 -0.40625 -1.03125 -0.6875q-0.65625 -0.28125 -1.4375 -0.28125q-0.609375 0 -0.96875 0.25q-0.359375 0.234375 -0.359375 0.578125q0 0.3125 0.359375 0.46875q0.375 0.15625 0.921875 0.265625q0.5625 0.109375 1.203125 0.265625q0.640625 0.140625 1.1875 0.4375q0.5625 0.296875 0.921875 0.796875q0.375 0.5 0.375 1.34375q0 1.21875 -1.0 1.953125q-0.984375 0.734375 -2.625 0.734375zm8.062378 0q-2.375 0 -2.375 -2.28125l0 -4.375l-1.390625 0l0 -1.921875l1.390625 0l0 -2.28125l2.21875 0l0 2.28125l1.6875 0l0 1.921875l-1.6875 0l0 3.78125q0 0.40625 0.1875 0.671875q0.203125 0.25 0.5625 0.25q0.53125 0 0.765625 -0.25l0.46875 1.671875q-0.578125 0.53125 -1.828125 0.53125zm4.1381226 -9.46875q-0.546875 0 -0.9375 -0.375q-0.390625 -0.390625 -0.390625 -0.953125q0 -0.546875 0.390625 -0.921875q0.390625 -0.375 0.9375 -0.375q0.546875 0 0.921875 0.375q0.390625 0.375 0.390625 0.921875q0 0.5625 -0.390625 0.953125q-0.375 0.375 -0.921875 0.375zm-1.09375 9.265625l0 -8.375l2.203125 0l0 8.375l-2.203125 0zm8.274597 0.203125q-1.96875 0 -3.203125 -1.234375q-1.234375 -1.25 -1.234375 -3.15625q0 -1.890625 1.234375 -3.140625q1.234375 -1.25 3.203125 -1.25q1.28125 0 2.09375 0.46875q0.8125 0.46875 1.21875 1.046875l-1.4375 1.34375q-0.609375 -0.90625 -1.765625 -0.90625q-1.0 0 -1.640625 0.671875q-0.625 0.671875 -0.625 1.765625q0 1.078125 0.625 1.765625q0.640625 0.671875 1.640625 0.671875q1.125 0 1.765625 -0.90625l1.4375 1.34375q-0.40625 0.578125 -1.21875 1.046875q-0.8125 0.46875 -2.09375 0.46875zm9.7716675 -0.203125l0 -0.859375q-0.90625 1.0625 -2.640625 1.0625q-1.21875 0 -2.078125 -0.765625q-0.84375 -0.765625 -0.84375 -2.0q0 -1.234375 0.8125 -1.96875q0.8125 -0.734375 2.109375 -0.734375q1.796875 0 2.640625 1.015625l0 -1.125q0 -0.640625 -0.5 -1.015625q-0.5 -0.390625 -1.328125 -0.390625q-1.390625 0 -2.4375 1.0l-0.84375 -1.484375q1.53125 -1.3125 3.65625 -1.3125q1.765625 0 2.703125 0.828125q0.953125 0.8125 0.953125 2.34375l0 5.40625l-2.203125 0zm-1.765625 -1.28125q1.21875 0 1.765625 -0.734375l0 -1.03125q-0.546875 -0.734375 -1.765625 -0.734375q-0.65625 0 -1.125 0.328125q-0.453125 0.328125 -0.453125 0.9375q0 0.59375 0.453125 0.921875q0.46875 0.3125 1.125 0.3125zm8.971619 1.484375q-2.375 0 -2.375 -2.28125l0 -4.375l-1.390625 0l0 -1.921875l1.390625 0l0 -2.28125l2.21875 0l0 2.28125l1.6875 0l0 1.921875l-1.6875 0l0 3.78125q0 0.40625 0.1875 0.671875q0.203125 0.25 0.5625 0.25q0.53125 0 0.765625 -0.25l0.46875 1.671875q-0.578125 0.53125 -1.828125 0.53125zm4.1381226 -9.46875q-0.546875 0 -0.9375 -0.375q-0.390625 -0.390625 -0.390625 -0.953125q0 -0.546875 0.390625 -0.921875q0.390625 -0.375 0.9375 -0.375q0.546875 0 0.921875 0.375q0.390625 0.375 0.390625 0.921875q0 0.5625 -0.390625 0.953125q-0.375 0.375 -0.921875 0.375zm-1.09375 9.265625l0 -8.375l2.203125 0l0 8.375l-2.203125 0zm8.259033 0.203125q-1.9375 0 -3.1875 -1.234375q-1.234375 -1.25 -1.234375 -3.15625q0 -1.90625 1.234375 -3.140625q1.25 -1.25 3.1875 -1.25q1.9375 0 3.1875 1.25q1.25 1.234375 1.25 3.140625q0 1.921875 -1.25 3.15625q-1.25 1.234375 -3.1875 1.234375zm0 -1.953125q0.953125 0 1.546875 -0.6875q0.609375 -0.6875 0.609375 -1.75q0 -1.046875 -0.609375 -1.734375q-0.59375 -0.703125 -1.546875 -0.703125q-0.90625 0 -1.515625 0.671875q-0.609375 0.671875 -0.609375 1.765625q0 1.109375 0.609375 1.78125q0.609375 0.65625 1.515625 0.65625zm11.711914 1.75l0 -5.0625q0 -1.5625 -1.53125 -1.5625q-1.203125 0 -1.90625 1.0l0 5.625l-2.203125 0l0 -8.375l2.203125 0l0 1.09375q0.390625 -0.484375 1.140625 -0.890625q0.75 -0.40625 1.78125 -0.40625q1.390625 0 2.046875 0.71875q0.671875 0.71875 0.671875 1.953125l0 5.90625l-2.203125 0z" fill-rule="nonzero"/><path fill="#000000" d="m847.42126 202.17674l-0.703125 -1.953125l-4.953125 0l-0.734375 1.953125l-2.8125 0l4.484375 -11.5625l3.078125 0l4.453125 11.5625l-2.8125 0zm-3.1875 -9.09375l-1.796875 4.96875l3.609375 0l-1.8125 -4.96875zm7.071167 9.09375l0 -11.5625l5.40625 0q1.765625 0 2.828125 1.03125q1.0625 1.03125 1.0625 2.703125q0 1.640625 -1.09375 2.6875q-1.078125 1.03125 -2.796875 1.03125l-2.9375 0l0 4.109375l-2.46875 0zm5.078125 -6.265625q0.734375 0 1.21875 -0.421875q0.484375 -0.421875 0.484375 -1.140625q0 -0.734375 -0.484375 -1.140625q-0.484375 -0.421875 -1.21875 -0.421875l-2.609375 0l0 3.125l2.609375 0zm5.734558 6.265625l0 -11.5625l2.46875 0l0 11.5625l-2.46875 0z" fill-rule="nonzero"/><path fill="#000000" fill-opacity="0.0" d="m480.0 93.4618l0.1574707 40.28347" fill-rule="evenodd"/><path stroke="#595959" stroke-width="1.0" stroke-linejoin="round" stroke-linecap="butt" d="m480.0 93.4618l0.1574707 40.28347" fill-rule="evenodd"/><path fill="#000000" fill-opacity="0.0" d="m480.0 93.4618l186.01575 40.28347" fill-rule="evenodd"/><path stroke="#595959" stroke-width="1.0" stroke-linejoin="round" stroke-linecap="butt" d="m480.0 93.4618l186.01575 40.28347" fill-rule="evenodd"/><path fill="#000000" fill-opacity="0.0" d="m480.0 93.4618l372.0315 40.28347" fill-rule="evenodd"/><path stroke="#595959" stroke-width="1.0" stroke-linejoin="round" stroke-linecap="butt" d="m480.0 93.4618l372.0315 40.28347" fill-rule="evenodd"/><path fill="#000000" fill-opacity="0.0" d="m480.0 93.4618l-186.04724 40.314964" fill-rule="evenodd"/><path stroke="#595959" stroke-width="1.0" stroke-linejoin="round" stroke-linecap="butt" d="m480.0 93.4618l-186.04724 40.314964" fill-rule="evenodd"/><path fill="#000000" fill-opacity="0.0" d="m480.0 93.4618l-370.99213 40.28347" fill-rule="evenodd"/><path stroke="#595959" stroke-width="1.0" stroke-linejoin="round" stroke-linecap="butt" d="m480.0 93.4618l-370.99213 40.28347" fill-rule="evenodd"/><path fill="#d9ead3" d="m326.58084 259.79175l0 0c-3.056549 -6.6612396 6.9786987 -13.255463 25.847473 -16.984482c18.868774 -3.7290344 43.26184 -3.9388885 62.82834 -0.5405121l0 0c6.931061 -3.8731232 19.616913 -6.547241 34.220367 -7.2134857c14.603424 -0.66625977 29.40921 0.7536011 39.938843 3.8301086l0 0c5.9043884 -3.511612 17.497711 -5.8709717 30.666107 -6.2408447c13.168335 -0.36987305 26.048157 1.3020782 34.06891 4.4225616l0 0c10.667114 -3.7223053 27.638733 -5.289551 43.571167 -4.023575c15.932434 1.2659607 27.96405 5.1377716 30.888733 9.940048l0 0c13.069031 1.0571594 23.955261 3.7445679 29.846008 7.3679047c5.890747 3.6233368 6.208191 7.8271637 0.8703003 11.525345l0 0c12.869202 4.967041 15.879578 11.585571 7.907837 17.38565c-7.9717407 5.8000793 -25.728027 9.910339 -46.642456 10.7969055c-0.14746094 5.4436035 -10.2146 10.438568 -26.321106 13.059662c-16.106567 2.6210632 -35.737366 2.4589539 -51.32599 -0.42385864c-6.6398926 6.519623 -25.32898 11.316742 -47.99295 12.318756c-22.66394 1.0020142 -45.239746 -1.9706726 -57.973846 -7.6337585c-15.609314 2.7913513 -34.339203 3.595459 -51.9646 2.2309265c-17.625366 -1.364563 -32.66156 -4.7828064 -41.716675 -9.483643l0 0c-15.950775 0.55352783 -31.372986 -1.8972168 -38.61261 -6.135956c-7.239624 -4.238739 -4.755554 -9.363159 6.219391 -12.830017l0 0c-14.228516 -2.4834595 -21.48877 -7.4115295 -17.994812 -12.214355c3.4939575 -4.8028564 16.950378 -8.39212 33.352234 -8.896179z" fill-rule="evenodd"/><path fill="#000000" fill-opacity="0.0" d="m310.90808 281.15903l0 0c6.7144775 1.1719666 14.471283 1.7035828 22.228912 1.5234985m10.160828 17.442871c3.33609 -0.115753174 6.6060486 -0.3609314 9.725616 -0.7291565m83.95102 7.9815674c-2.3463745 -1.043457 -4.3108826 -2.1585083 -5.8600464 -3.3261108m111.8309 -1.3590698l0 0c1.2105713 -1.1886292 1.994873 -2.4119873 2.3399048 -3.6496582m75.3042 -8.985687c0.15698242 -5.795532 -10.943054 -11.10202 -28.532227 -13.640106m67.26654 -14.54184c-2.8485107 1.9734802 -7.1970825 3.724121 -12.704773 5.114685m-18.008911 -24.008438l0 0c0.48535156 0.79693604 0.710022 1.6058502 0.67077637 2.4155426m-75.129395 -8.331787l0 0c-2.6609497 0.92852783 -4.8531494 1.9661407 -6.508484 3.0805511m-58.22711 -1.26268l0 0c-1.4180603 0.8433838 -2.4769592 1.7358246 -3.1523132 2.6567535m-71.007996 0.7266998l0 0c4.140259 0.7190857 7.9705505 1.5845947 11.406769 2.5774994m-100.08145 14.947586l0 0c0.42126465 0.9180603 1.0868835 1.8248596 1.9906616 2.7118225" fill-rule="evenodd"/><path stroke="#595959" stroke-width="1.0" stroke-linejoin="round" stroke-linecap="butt" d="m326.58084 259.79175l0 0c-3.056549 -6.6612396 6.9786987 -13.255463 25.847473 -16.984482c18.868774 -3.7290344 43.26184 -3.9388885 62.82834 -0.5405121l0 0c6.931061 -3.8731232 19.616913 -6.547241 34.220367 -7.2134857c14.603424 -0.66625977 29.40921 0.7536011 39.938843 3.8301086l0 0c5.9043884 -3.511612 17.497711 -5.8709717 30.666107 -6.2408447c13.168335 -0.36987305 26.048157 1.3020782 34.06891 4.4225616l0 0c10.667114 -3.7223053 27.638733 -5.289551 43.571167 -4.023575c15.932434 1.2659607 27.96405 5.1377716 30.888733 9.940048l0 0c13.069031 1.0571594 23.955261 3.7445679 29.846008 7.3679047c5.890747 3.6233368 6.208191 7.8271637 0.8703003 11.525345l0 0c12.869202 4.967041 15.879578 11.585571 7.907837 17.38565c-7.9717407 5.8000793 -25.728027 9.910339 -46.642456 10.7969055c-0.14746094 5.4436035 -10.2146 10.438568 -26.321106 13.059662c-16.106567 2.6210632 -35.737366 2.4589539 -51.32599 -0.42385864c-6.6398926 6.519623 -25.32898 11.316742 -47.99295 12.318756c-22.66394 1.0020142 -45.239746 -1.9706726 -57.973846 -7.6337585c-15.609314 2.7913513 -34.339203 3.595459 -51.9646 2.2309265c-17.625366 -1.364563 -32.66156 -4.7828064 -41.716675 -9.483643l0 0c-15.950775 0.55352783 -31.372986 -1.8972168 -38.61261 -6.135956c-7.239624 -4.238739 -4.755554 -9.363159 6.219391 -12.830017l0 0c-14.228516 -2.4834595 -21.48877 -7.4115295 -17.994812 -12.214355c3.4939575 -4.8028564 16.950378 -8.39212 33.352234 -8.896179z" fill-rule="evenodd"/><path stroke="#595959" stroke-width="1.0" stroke-linejoin="round" stroke-linecap="butt" d="m310.90808 281.15903l0 0c6.7144775 1.1719666 14.471283 1.7035828 22.228912 1.5234985m10.160828 17.442871c3.33609 -0.115753174 6.6060486 -0.3609314 9.725616 -0.7291565m83.95102 7.9815674c-2.3463745 -1.043457 -4.3108826 -2.1585083 -5.8600464 -3.3261108m111.8309 -1.3590698l0 0c1.2105713 -1.1886292 1.994873 -2.4119873 2.3399048 -3.6496582m75.3042 -8.985687c0.15698242 -5.795532 -10.943054 -11.10202 -28.532227 -13.640106m67.26654 -14.54184c-2.8485107 1.9734802 -7.1970825 3.724121 -12.704773 5.114685m-18.008911 -24.008438l0 0c0.48535156 0.79693604 0.710022 1.6058502 0.67077637 2.4155426m-75.129395 -8.331787l0 0c-2.6609497 0.92852783 -4.8531494 1.9661407 -6.508484 3.0805511m-58.22711 -1.26268l0 0c-1.4180603 0.8433838 -2.4769592 1.7358246 -3.1523132 2.6567535m-71.007996 0.7266998l0 0c4.140259 0.7190857 7.9705505 1.5845947 11.406769 2.5774994m-100.08145 14.947586l0 0c0.42126465 0.9180603 1.0868835 1.8248596 1.9906616 2.7118225" fill-rule="evenodd"/><path fill="#000000" d="m360.11594 251.23189q0 -0.625 0.46875 -1.296875q0.46875 -0.6875 1.234375 -1.078125l0.4375 0.484375q-0.96875 0.5 -1.234375 1.234375l0.140625 -0.015625q0.234375 0 0.421875 0.1875q0.1875 0.171875 0.1875 0.46875q0 0.359375 -0.28125 0.609375q-0.265625 0.25 -0.59375 0.25q-0.328125 0 -0.5625 -0.203125q-0.21875 -0.21875 -0.21875 -0.640625zm-2.328125 0q0 -0.625 0.46875 -1.296875q0.46875 -0.6875 1.234375 -1.078125l0.4375 0.484375q-1.0 0.53125 -1.234375 1.234375l0.0625 -0.015625l0.046875 0q0.25 0 0.4375 0.1875q0.203125 0.171875 0.203125 0.46875q0 0.359375 -0.28125 0.609375q-0.265625 0.25 -0.59375 0.25q-0.328125 0 -0.5625 -0.203125q-0.21875 -0.21875 -0.21875 -0.640625zm4.3721924 7.5468903l2.140625 -9.781265l1.21875 0l-2.15625 9.781265l-1.203125 0zm13.362305 0l-0.59375 -5.6875153l-3.109375 5.6875153l-1.09375 0l-0.6875 -7.0781403l1.09375 0l0.46875 5.6406403l3.109375 -5.6406403l0.96875 0l0.609375 5.6406403l2.953125 -5.6406403l1.203125 0l-3.828125 7.0781403l-1.09375 0zm8.617096 -7.2500153q0.828125 0 1.46875 0.359375q0.640625 0.34375 0.984375 0.921875l0.25 -1.109375l1.109375 0l-1.578125 7.0781403l-1.09375 0l0.21875 -1.015625q-0.9375 1.1875 -2.328125 1.1875q-1.234375 0 -1.984375 -0.765625q-0.75 -0.78125 -0.75 -2.140625q0 -1.8906403 1.046875 -3.2031403q1.0625 -1.3125 2.65625 -1.3125zm0.140625 0.984375q-1.15625 0 -1.921875 1.0q-0.765625 0.984375 -0.765625 2.3125q0 1.0000153 0.53125 1.5781403q0.546875 0.5625 1.4375 0.5625q0.65625 0 1.234375 -0.34375q0.59375 -0.359375 0.921875 -0.859375l0.703125 -3.1093903q-0.265625 -0.46875 -0.8125 -0.796875q-0.546875 -0.34375 -1.328125 -0.34375zm9.067993 6.2656403l1.09375 -4.8750153l0.03125 -0.25q0 -0.625 -0.421875 -0.875q-0.40625 -0.265625 -0.96875 -0.265625q-1.1875 0 -2.265625 1.109375l-1.140625 5.1562653l-1.09375 0l1.5625 -7.0781403l1.09375 0l-0.234375 1.03125q1.28125 -1.203125 2.515625 -1.203125q0.9375 0 1.515625 0.453125q0.59375 0.4375 0.59375 1.296875l-0.09375 0.59375l-1.078125 4.9062653l-1.109375 0zm5.4349976 0.171875q-1.609375 0 -1.609375 -1.28125l0.03125 -0.421875l1.03125 -4.5937653l-1.171875 0l0.21875 -0.953125l1.171875 0l0.421875 -1.9375l1.109375 0l-0.4375 1.9375l1.4375 0l-0.21875 0.953125l-1.4375 0l-0.96875 4.3593903l-0.015625 0.296875q0 0.65625 0.703125 0.65625q0.40625 0 0.671875 -0.234375l0.125 0.890625q-0.421875 0.328125 -1.0625 0.328125zm8.0903015 0q-1.609375 0 -1.609375 -1.28125l0.03125 -0.421875l1.03125 -4.5937653l-1.171875 0l0.21875 -0.953125l1.171875 0l0.421875 -1.9375l1.109375 0l-0.4375 1.9375l1.4375 0l-0.21875 0.953125l-1.4375 0l-0.96875 4.3593903l-0.015625 0.296875q0 0.65625 0.703125 0.65625q0.40625 0 0.671875 -0.234375l0.125 0.890625q-0.421875 0.328125 -1.0625 0.328125zm5.699585 0q-1.484375 0 -2.359375 -0.84375q-0.875 -0.84375 -0.875 -2.2812653q0 -1.78125 1.15625 -3.03125q1.15625 -1.265625 2.78125 -1.265625q1.5 0 2.359375 0.875q0.875 0.859375 0.875 2.265625q0 1.7656403 -1.15625 3.0312653q-1.140625 1.25 -2.78125 1.25zm0.03125 -0.984375q1.125 0 1.9375 -0.953125q0.8125 -0.96875 0.8125 -2.3125153q0 -1.0 -0.546875 -1.59375q-0.546875 -0.59375 -1.5625 -0.59375q-1.125 0 -1.9375 0.96875q-0.8125 0.953125 -0.8125 2.296875q0 1.0000153 0.546875 1.5937653q0.546875 0.59375 1.5625 0.59375zm11.274109 -6.2656403l-1.015625 4.6250153l-0.078125 0.5q0 1.140625 1.46875 1.140625q1.0625 0 2.1875 -1.109375l1.125 -5.1562653l1.09375 0l-1.5625 7.0781403l-1.109375 0l0.234375 -1.03125q-1.265625 1.203125 -2.484375 1.203125q-0.953125 0 -1.53125 -0.4375q-0.578125 -0.453125 -0.578125 -1.3125l0.078125 -0.59375l1.078125 -4.9062653l1.09375 0zm10.184998 7.0781403l1.09375 -4.8750153l0.03125 -0.25q0 -0.625 -0.421875 -0.875q-0.40625 -0.265625 -0.96875 -0.265625q-1.1875 0 -2.265625 1.109375l-1.140625 5.1562653l-1.09375 0l1.5625 -7.0781403l1.09375 0l-0.234375 1.03125q1.28125 -1.203125 2.515625 -1.203125q0.9375 0 1.515625 0.453125q0.59375 0.4375 0.59375 1.296875l-0.09375 0.59375l-1.078125 4.9062653l-1.109375 0zm7.2943726 -7.2500153q0.828125 0 1.46875 0.359375q0.640625 0.34375 0.984375 0.921875l0.859375 -3.8125l1.09375 0l-2.171875 9.781265l-1.09375 0l0.21875 -1.015625q-0.9375 1.1875 -2.328125 1.1875q-1.234375 0 -1.984375 -0.765625q-0.75 -0.78125 -0.75 -2.140625q0 -1.8906403 1.046875 -3.2031403q1.0625 -1.3125 2.65625 -1.3125zm0.140625 0.984375q-1.15625 0 -1.921875 1.0q-0.765625 0.984375 -0.765625 2.3125q0 1.0000153 0.53125 1.5781403q0.546875 0.5625 1.4375 0.5625q0.65625 0 1.234375 -0.34375q0.59375 -0.359375 0.921875 -0.859375l0.703125 -3.1093903q-0.265625 -0.46875 -0.8125 -0.796875q-0.546875 -0.34375 -1.328125 -0.34375zm8.036743 6.4375153q-1.578125 0 -2.515625 -0.84375q-0.9375 -0.84375 -0.9375 -2.2812653q0 -1.796875 1.15625 -3.046875q1.171875 -1.25 2.828125 -1.25q1.375 0 2.203125 0.84375q0.84375 0.84375 0.84375 2.25q0 0.328125 -0.125 0.96875l-5.765625 0l-0.015625 0.34375q0 0.90626526 0.65625 1.5156403q0.65625 0.59375 1.75 0.59375q1.171875 0 2.03125 -0.6875l0.359375 0.765625q-0.46875 0.375 -1.125 0.609375q-0.65625 0.21875 -1.34375 0.21875zm2.546875 -4.1562653l0.03125 -0.28125q0 -0.875 -0.546875 -1.46875q-0.546875 -0.609375 -1.609375 -0.609375q-0.921875 0 -1.6875 0.671875q-0.75 0.65625 -0.9375 1.6875l4.75 0zm1.9702454 3.9843903l1.5625 -7.0781403l1.09375 0l-0.25 1.078125q0.53125 -0.59375 1.125 -0.90625q0.609375 -0.3125 1.515625 -0.3125l-0.25 1.125q-0.140625 -0.0625 -0.546875 -0.0625q-0.625 0 -1.171875 0.359375q-0.546875 0.34375 -0.890625 0.796875l-1.09375 5.0000153l-1.09375 0zm7.5553284 0.171875q-2.0 0 -2.984375 -1.234375l0.703125 -0.765625q0.359375 0.53125 1.015625 0.828125q0.671875 0.28125 1.328125 0.28125q0.765625 0 1.1875 -0.375q0.4375 -0.390625 0.4375 -0.875q0 -0.359375 -0.40625 -0.640625q-0.390625 -0.29689026 -1.453125 -0.67189026q-0.953125 -0.359375 -1.40625 -0.78125q-0.453125 -0.4375 -0.453125 -1.015625q0 -0.953125 0.734375 -1.5625q0.734375 -0.609375 1.9375 -0.609375q0.921875 0 1.640625 0.34375q0.71875 0.328125 1.0625 0.8125l-0.625 0.71875q-0.234375 -0.40625 -0.859375 -0.6875q-0.609375 -0.296875 -1.265625 -0.296875q-0.71875 0 -1.125 0.3125q-0.40625 0.3125 -0.40625 0.765625q0 0.359375 0.359375 0.609375q0.375 0.25 1.5 0.65625q1.859375 0.671875 1.859375 1.8593903q0 1.03125 -0.78125 1.6875q-0.78125 0.640625 -2.0 0.640625zm6.2214355 0q-1.609375 0 -1.609375 -1.28125l0.03125 -0.421875l1.03125 -4.5937653l-1.171875 0l0.21875 -0.953125l1.171875 0l0.421875 -1.9375l1.109375 0l-0.4375 1.9375l1.4375 0l-0.21875 0.953125l-1.4375 0l-0.96875 4.3593903l-0.015625 0.296875q0 0.65625 0.703125 0.65625q0.40625 0 0.671875 -0.234375l0.125 0.890625q-0.421875 0.328125 -1.0625 0.328125zm6.1683044 -7.4218903q0.828125 0 1.46875 0.359375q0.640625 0.34375 0.984375 0.921875l0.25 -1.109375l1.109375 0l-1.578125 7.0781403l-1.09375 0l0.21875 -1.015625q-0.9375 1.1875 -2.328125 1.1875q-1.2343445 0 -1.9843445 -0.765625q-0.75 -0.78125 -0.75 -2.140625q0 -1.8906403 1.046875 -3.2031403q1.0625 -1.3125 2.6562195 -1.3125zm0.140625 0.984375q-1.15625 0 -1.9218445 1.0q-0.765625 0.984375 -0.765625 2.3125q0 1.0000153 0.53125 1.5781403q0.546875 0.5625 1.4374695 0.5625q0.65625 0 1.234375 -0.34375q0.59375 -0.359375 0.921875 -0.859375l0.703125 -3.1093903q-0.265625 -0.46875 -0.8125 -0.796875q-0.546875 -0.34375 -1.328125 -0.34375zm9.067993 6.2656403l1.09375 -4.8750153l0.03125 -0.25q0 -0.625 -0.421875 -0.875q-0.40625 -0.265625 -0.96875 -0.265625q-1.1875 0 -2.265625 1.109375l-1.140625 5.1562653l-1.09375 0l1.5625 -7.0781403l1.09375 0l-0.234375 1.03125q1.28125 -1.203125 2.515625 -1.203125q0.9375 0 1.515625 0.453125q0.59375 0.4375 0.59375 1.296875l-0.09375 0.59375l-1.078125 4.9062653l-1.109375 0zm7.2943726 -7.2500153q0.828125 0 1.46875 0.359375q0.640625 0.34375 0.984375 0.921875l0.859375 -3.8125l1.09375 0l-2.171875 9.781265l-1.09375 0l0.21875 -1.015625q-0.9375 1.1875 -2.328125 1.1875q-1.234375 0 -1.984375 -0.765625q-0.75 -0.78125 -0.75 -2.140625q0 -1.8906403 1.046875 -3.2031403q1.0625 -1.3125 2.65625 -1.3125zm0.140625 0.984375q-1.15625 0 -1.921875 1.0q-0.765625 0.984375 -0.765625 2.3125q0 1.0000153 0.53125 1.5781403q0.546875 0.5625 1.4375 0.5625q0.65625 0 1.234375 -0.34375q0.59375 -0.359375 0.921875 -0.859375l0.703125 -3.1093903q-0.265625 -0.46875 -0.8125 -0.796875q-0.546875 -0.34375 -1.328125 -0.34375zm10.20871 6.4375153q-1.609375 0 -1.609375 -1.28125l0.03125 -0.421875l1.03125 -4.5937653l-1.171875 0l0.21875 -0.953125l1.171875 0l0.421875 -1.9375l1.109375 0l-0.4375 1.9375l1.4375 0l-0.21875 0.953125l-1.4375 0l-0.96875 4.3593903l-0.015625 0.296875q0 0.65625 0.703125 0.65625q0.40625 0 0.671875 -0.234375l0.125 0.890625q-0.421875 0.328125 -1.0625 0.328125zm6.96521 -0.171875l1.015625 -4.6406403l0.09375 -0.484375q0 -1.140625 -1.46875 -1.140625q-1.09375 0 -2.1875 1.125l-1.140625 5.1406403l-1.09375 0l2.15625 -9.781265l1.09375 0l-0.828125 3.734375q1.28125 -1.203125 2.515625 -1.203125q0.9375 0 1.515625 0.453125q0.59375 0.4375 0.59375 1.296875l-0.09375 0.59375l-1.0625 4.9062653l-1.109375 0zm7.0434265 0.171875q-1.578125 0 -2.515625 -0.84375q-0.9375305 -0.84375 -0.9375305 -2.2812653q0 -1.796875 1.1562805 -3.046875q1.171875 -1.25 2.828125 -1.25q1.375 0 2.203125 0.84375q0.84375 0.84375 0.84375 2.25q0 0.328125 -0.125 0.96875l-5.765625 0l-0.015625 0.34375q0 0.90626526 0.65625 1.5156403q0.65625 0.59375 1.75 0.59375q1.171875 0 2.03125 -0.6875l0.359375 0.765625q-0.46875 0.375 -1.125 0.609375q-0.65625 0.21875 -1.34375 0.21875zm2.546875 -4.1562653l0.03125 -0.28125q0 -0.875 -0.546875 -1.46875q-0.546875 -0.609375 -1.609375 -0.609375q-0.921875 0 -1.6875 0.671875q-0.75 0.65625 -0.9375 1.6875l4.75 0zm5.751587 3.9843903l1.5625 -7.0781403l1.09375 0l-0.25 1.078125q0.53125 -0.59375 1.125 -0.90625q0.609375 -0.3125 1.515625 -0.3125l-0.25 1.125q-0.140625 -0.0625 -0.546875 -0.0625q-0.625 0 -1.171875 0.359375q-0.546875 0.34375 -0.890625 0.796875l-1.09375 5.0000153l-1.09375 0zm8.570923 0.171875q-1.578125 0 -2.515625 -0.84375q-0.9375 -0.84375 -0.9375 -2.2812653q0 -1.796875 1.15625 -3.046875q1.171875 -1.25 2.828125 -1.25q1.375 0 2.203125 0.84375q0.84375 0.84375 0.84375 2.25q0 0.328125 -0.125 0.96875l-5.765625 0l-0.015625 0.34375q0 0.90626526 0.65625 1.5156403q0.65625 0.59375 1.75 0.59375q1.171875 0 2.03125 -0.6875l0.359375 0.765625q-0.46875 0.375 -1.125 0.609375q-0.65625 0.21875 -1.34375 0.21875zm2.546875 -4.1562653l0.03125 -0.28125q0 -0.875 -0.546875 -1.46875q-0.546875 -0.609375 -1.609375 -0.609375q-0.921875 0 -1.6875 0.671875q-0.75 0.65625 -0.9375 1.6875l4.75 0zm1.9702759 3.9843903l2.15625 -9.781265l1.09375 0l-2.15625 9.781265l-1.09375 0zm5.7039185 -8.093765q-0.28125 0 -0.484375 -0.171875q-0.1875 -0.1875 -0.1875 -0.46875q0 -0.375 0.265625 -0.609375q0.28125 -0.234375 0.578125 -0.234375q0.296875 0 0.484375 0.203125q0.1875 0.203125 0.1875 0.453125q0 0.390625 -0.28125 0.609375q-0.265625 0.21875 -0.5625 0.21875zm-2.40625 8.093765l1.5625 -7.0781403l1.09375 0l-1.5625 7.0781403l-1.09375 0zm7.2820435 -7.2500153q0.828125 0 1.46875 0.359375q0.640625 0.34375 0.984375 0.921875l0.25 -1.109375l1.109375 0l-1.578125 7.0781403l-1.09375 0l0.21875 -1.015625q-0.9375 1.1875 -2.328125 1.1875q-1.234375 0 -1.984375 -0.765625q-0.75 -0.78125 -0.75 -2.140625q0 -1.8906403 1.046875 -3.2031403q1.0625 -1.3125 2.65625 -1.3125zm0.140625 0.984375q-1.15625 0 -1.921875 1.0q-0.765625 0.984375 -0.765625 2.3125q0 1.0000153 0.53125 1.5781403q0.546875 0.5625 1.4375 0.5625q0.65625 0 1.234375 -0.34375q0.59375 -0.359375 0.921875 -0.859375l0.703125 -3.1093903q-0.265625 -0.46875 -0.8125 -0.796875q-0.546875 -0.34375 -1.328125 -0.34375zm8.114868 6.4375153q-0.84375 0 -1.484375 -0.34375q-0.625 -0.359375 -0.984375 -0.9375l-0.25 1.109375l-1.09375 0l2.15625 -9.781265l1.09375 0l-0.828125 3.71875q0.96875 -1.1875 2.34375 -1.1875q1.265625 0 2.0 0.8125q0.75 0.796875 0.75 2.09375q0 1.8906403 -1.0625 3.2031403q-1.0625 1.3125 -2.640625 1.3125zm-0.15625 -0.984375q1.15625 0 1.921875 -0.984375q0.78125 -1.0000153 0.78125 -2.3437653q0 -0.984375 -0.5625 -1.546875q-0.546875 -0.578125 -1.421875 -0.578125q-0.671875 0 -1.25 0.359375q-0.5625 0.34375 -0.921875 0.84375l-0.6875 3.1093903q0.265625 0.484375 0.8125 0.8125q0.546875 0.328125 1.328125 0.328125zm7.177368 -7.2812653q-0.28125 0 -0.484375 -0.171875q-0.1875 -0.1875 -0.1875 -0.46875q0 -0.375 0.265625 -0.609375q0.28125 -0.234375 0.578125 -0.234375q0.296875 0 0.484375 0.203125q0.1875 0.203125 0.1875 0.453125q0 0.390625 -0.28125 0.609375q-0.265625 0.21875 -0.5625 0.21875zm-2.40625 8.093765l1.5625 -7.0781403l1.09375 0l-1.5625 7.0781403l-1.09375 0zm3.2976685 0l2.15625 -9.781265l1.09375 0l-2.15625 9.781265l-1.09375 0zm5.7039185 -8.093765q-0.28125 0 -0.484375 -0.171875q-0.1875 -0.1875 -0.1875 -0.46875q0 -0.375 0.265625 -0.609375q0.28125 -0.234375 0.578125 -0.234375q0.296875 0 0.484375 0.203125q0.1875 0.203125 0.1875 0.453125q0 0.390625 -0.28125 0.609375q-0.265625 0.21875 -0.5625 0.21875zm-2.40625 8.093765l1.5625 -7.0781403l1.09375 0l-1.5625 7.0781403l-1.09375 0zm5.4226685 0.171875q-1.609375 0 -1.609375 -1.28125l0.03125 -0.421875l1.03125 -4.5937653l-1.171875 0l0.21875 -0.953125l1.171875 0l0.421875 -1.9375l1.109375 0l-0.4375 1.9375l1.4375 0l-0.21875 0.953125l-1.4375 0l-0.96875 4.3593903l-0.015625 0.296875q0 0.65625 0.703125 0.65625q0.40625 0 0.671875 -0.234375l0.125 0.890625q-0.421875 0.328125 -1.0625 0.328125zm1.574585 1.5625q0.265625 0.109375 0.6875 0.109375q0.296875 0 0.53125 -0.15625q0.25 -0.140625 0.53125 -0.546875l0.71875 -1.09375l-1.34375 -7.1250153l1.15625 0l1.046875 5.7968903l3.65625 -5.7968903l1.234375 0l-5.453125 8.51564q-0.46875 0.75 -1.0 1.09375q-0.515625 0.34375 -1.21875 0.34375q-0.5 0 -0.921875 -0.15625l0.375 -0.984375z" fill-rule="nonzero"/><path fill="#000000" d="m358.65967 276.95065q-1.484375 0 -2.359375 -0.84375q-0.875 -0.84375 -0.875 -2.28125q0 -1.78125 1.15625 -3.03125q1.15625 -1.265625 2.78125 -1.265625q1.5 0 2.359375 0.875q0.875 0.859375 0.875 2.265625q0 1.765625 -1.15625 3.03125q-1.140625 1.25 -2.78125 1.25zm0.03125 -0.984375q1.125 0 1.9375 -0.953125q0.8125 -0.96875 0.8125 -2.3125q0 -1.0 -0.546875 -1.59375q-0.546875 -0.59375 -1.5625 -0.59375q-1.125 0 -1.9375 0.96875q-0.8125 0.953125 -0.8125 2.296875q0 1.0 0.546875 1.59375q0.546875 0.59375 1.5625 0.59375zm5.133423 0.8125l1.359375 -6.125l-1.171875 0l0.21875 -0.953125l1.171875 0l0.109375 -0.546875q0.21875 -1.078125 0.8125 -1.6875q0.59375 -0.609375 1.546875 -0.609375q0.9375 0 1.546875 0.59375l-0.59375 0.671875q-0.34375 -0.359375 -0.90625 -0.359375q-0.5625 0 -0.859375 0.359375q-0.296875 0.359375 -0.4375 1.03125l-0.125 0.546875l1.4375 0l-0.21875 0.953125l-1.4375 0l-1.34375 6.125l-1.109375 0zm11.616547 -7.25q0.828125 0 1.46875 0.359375q0.640625 0.34375 0.984375 0.921875l0.25 -1.109375l1.109375 0l-1.578125 7.078125l-1.09375 0l0.21875 -1.015625q-0.9375 1.1875 -2.328125 1.1875q-1.234375 0 -1.984375 -0.765625q-0.75 -0.78125 -0.75 -2.140625q0 -1.890625 1.046875 -3.203125q1.0625 -1.3125 2.65625 -1.3125zm0.140625 0.984375q-1.15625 0 -1.921875 1.0q-0.765625 0.984375 -0.765625 2.3125q0 1.0 0.53125 1.578125q0.546875 0.5625 1.4375 0.5625q0.65625 0 1.234375 -0.34375q0.59375 -0.359375 0.921875 -0.859375l0.703125 -3.109375q-0.265625 -0.46875 -0.8125 -0.796875q-0.546875 -0.34375 -1.328125 -0.34375zm9.067993 6.265625l1.09375 -4.875l0.03125 -0.25q0 -0.625 -0.421875 -0.875q-0.40625 -0.265625 -0.96875 -0.265625q-1.1875 0 -2.265625 1.109375l-1.140625 5.15625l-1.09375 0l1.5625 -7.078125l1.09375 0l-0.234375 1.03125q1.28125 -1.203125 2.515625 -1.203125q0.9375 0 1.515625 0.453125q0.59375 0.4375 0.59375 1.296875l-0.09375 0.59375l-1.078125 4.90625l-1.109375 0zm2.7006226 1.734375q0.265625 0.109375 0.6875 0.109375q0.296875 0 0.53125 -0.15625q0.25 -0.140625 0.53125 -0.546875l0.71875 -1.09375l-1.34375 -7.125l1.15625 0l1.046875 5.796875l3.65625 -5.796875l1.234375 0l-5.453125 8.515625q-0.46875 0.75 -1.0 1.09375q-0.515625 0.34375 -1.21875 0.34375q-0.5 0 -0.921875 -0.15625l0.375 -0.984375zm6.603485 -1.4375l5.75 -10.359375l0.921875 0l-5.765625 10.359375l-0.90625 0zm9.510132 -7.546875q0.828125 0 1.46875 0.359375q0.640625 0.34375 0.984375 0.921875l0.25 -1.109375l1.109375 0l-1.578125 7.078125l-1.09375 0l0.21875 -1.015625q-0.9375 1.1875 -2.328125 1.1875q-1.234375 0 -1.984375 -0.765625q-0.75 -0.78125 -0.75 -2.140625q0 -1.890625 1.046875 -3.203125q1.0625 -1.3125 2.65625 -1.3125zm0.140625 0.984375q-1.15625 0 -1.921875 1.0q-0.765625 0.984375 -0.765625 2.3125q0 1.0 0.53125 1.578125q0.546875 0.5625 1.4375 0.5625q0.65625 0 1.234375 -0.34375q0.59375 -0.359375 0.921875 -0.859375l0.703125 -3.109375q-0.265625 -0.46875 -0.8125 -0.796875q-0.546875 -0.34375 -1.328125 -0.34375zm4.302368 6.265625l2.15625 -9.78125l1.09375 0l-2.15625 9.78125l-1.09375 0zm3.2976685 0l2.15625 -9.78125l1.09375 0l-2.15625 9.78125l-1.09375 0zm10.61026 0.171875q-1.453125 0 -2.359375 -0.84375q-0.890625 -0.859375 -0.890625 -2.3125q0 -1.75 1.140625 -3.0q1.15625 -1.265625 2.84375 -1.265625q1.859375 0 2.640625 1.3125l-0.828125 0.625q-0.5625 -0.953125 -1.78125 -0.953125q-1.25 0 -2.0625 0.953125q-0.8125 0.9375 -0.8125 2.3125q0 1.0 0.59375 1.59375q0.59375 0.59375 1.609375 0.59375q1.0625 0 1.796875 -0.828125l0.625 0.734375q-1.046875 1.078125 -2.515625 1.078125zm6.3798523 -7.25l-1.015625 4.625l-0.078125 0.5q0 1.140625 1.46875 1.140625q1.0625 0 2.1875 -1.109375l1.125 -5.15625l1.09375 0l-1.5625 7.078125l-1.109375 0l0.234375 -1.03125q-1.265625 1.203125 -2.484375 1.203125q-0.953125 0 -1.53125 -0.4375q-0.578125 -0.453125 -0.578125 -1.3125l0.078125 -0.59375l1.078125 -4.90625l1.09375 0zm8.138123 7.25q-2.0 0 -2.984375 -1.234375l0.703125 -0.765625q0.359375 0.53125 1.015625 0.828125q0.671875 0.28125 1.328125 0.28125q0.765625 0 1.1875 -0.375q0.4375 -0.390625 0.4375 -0.875q0 -0.359375 -0.40625 -0.640625q-0.390625 -0.296875 -1.453125 -0.671875q-0.953125 -0.359375 -1.40625 -0.78125q-0.453125 -0.4375 -0.453125 -1.015625q0 -0.953125 0.734375 -1.5625q0.734375 -0.609375 1.9375 -0.609375q0.921875 0 1.640625 0.34375q0.71875 0.328125 1.0625 0.8125l-0.625 0.71875q-0.234375 -0.40625 -0.859375 -0.6875q-0.609375 -0.296875 -1.265625 -0.296875q-0.71875 0 -1.125 0.3125q-0.40625 0.3125 -0.40625 0.765625q0 0.359375 0.359375 0.609375q0.375 0.25 1.5 0.65625q1.859375 0.671875 1.859375 1.859375q0 1.03125 -0.78125 1.6875q-0.78125 0.640625 -2.0 0.640625zm6.2214355 0q-1.609375 0 -1.609375 -1.28125l0.03125 -0.421875l1.03125 -4.59375l-1.171875 0l0.21875 -0.953125l1.171875 0l0.421875 -1.9375l1.109375 0l-0.4375 1.9375l1.4375 0l-0.21875 0.953125l-1.4375 0l-0.96875 4.359375l-0.015625 0.296875q0 0.65625 0.703125 0.65625q0.40625 0 0.671875 -0.234375l0.125 0.890625q-0.421875 0.328125 -1.0625 0.328125zm5.699585 0q-1.484375 0 -2.359375 -0.84375q-0.875 -0.84375 -0.875 -2.28125q0 -1.78125 1.15625 -3.03125q1.15625 -1.265625 2.78125 -1.265625q1.5 0 2.359375 0.875q0.875 0.859375 0.875 2.265625q0 1.765625 -1.15625 3.03125q-1.140625 1.25 -2.78125 1.25zm0.03125 -0.984375q1.125 0 1.9375 -0.953125q0.8125 -0.96875 0.8125 -2.3125q0 -1.0 -0.546875 -1.59375q-0.546875 -0.59375 -1.5625 -0.59375q-1.125 0 -1.9375 0.96875q-0.8125 0.953125 -0.8125 2.296875q0 1.0 0.546875 1.59375q0.546875 0.59375 1.5625 0.59375zm13.383423 0.8125l1.03125 -4.75l0.0625 -0.421875q0 -0.53125 -0.359375 -0.8125q-0.359375 -0.28125 -0.84375 -0.28125q-0.515625 0 -1.03125 0.34375q-0.515625 0.328125 -0.90625 0.765625l-1.140625 5.15625l-1.09375 0l1.046875 -4.75q0.0625 -0.296875 0.0625 -0.515625q-0.015625 -0.421875 -0.3125 -0.703125q-0.296875 -0.296875 -0.921875 -0.296875q-0.90625 0 -1.90625 1.109375l-1.140625 5.15625l-1.09375 0l1.5625 -7.078125l1.09375 0l-0.234375 1.03125q0.453125 -0.53125 1.046875 -0.859375q0.609375 -0.34375 1.1875 -0.34375q0.75 0 1.28125 0.421875q0.53125 0.40625 0.53125 0.890625l0 0.03125q1.09375 -1.34375 2.46875 -1.34375q0.796875 0 1.328125 0.484375q0.53125 0.484375 0.53125 1.265625l-0.078125 0.59375l-1.078125 4.90625l-1.09375 0zm7.029785 0.171875q-1.578125 0 -2.515625 -0.84375q-0.9375 -0.84375 -0.9375 -2.28125q0 -1.796875 1.15625 -3.046875q1.171875 -1.25 2.828125 -1.25q1.375 0 2.203125 0.84375q0.84375 0.84375 0.84375 2.25q0 0.328125 -0.125 0.96875l-5.765625 0l-0.015625 0.34375q0 0.90625 0.65625 1.515625q0.65625 0.59375 1.75 0.59375q1.171875 0 2.03125 -0.6875l0.359375 0.765625q-0.46875 0.375 -1.125 0.609375q-0.65625 0.21875 -1.34375 0.21875zm2.546875 -4.15625l0.03125 -0.28125q0 -0.875 -0.546875 -1.46875q-0.546875 -0.609375 -1.609375 -0.609375q-0.921875 0 -1.6875 0.671875q-0.75 0.65625 -0.9375 1.6875l4.75 0zm1.9702454 3.984375l1.5625 -7.078125l1.09375 0l-0.25 1.078125q0.53125 -0.59375 1.125 -0.90625q0.609375 -0.3125 1.515625 -0.3125l-0.25 1.125q-0.140625 -0.0625 -0.546875 -0.0625q-0.625 0 -1.171875 0.359375q-0.546875 0.34375 -0.890625 0.796875l-1.09375 5.0l-1.09375 0zm4.8522034 -3.0625l0.203125 -0.96875l3.515625 0l-0.203125 0.96875l-3.515625 0zm4.678131 3.0625l1.359375 -6.125l-1.171875 0l0.21875 -0.953125l1.171875 0l0.109375 -0.546875q0.21875 -1.078125 0.8125 -1.6875q0.59375 -0.609375 1.546875 -0.609375q0.9375 0 1.546875 0.59375l-0.59375 0.671875q-0.34375 -0.359375 -0.90625 -0.359375q-0.5625 0 -0.859375 0.359375q-0.296875 0.359375 -0.4375 1.03125l-0.125 0.546875l1.4375 0l-0.21875 0.953125l-1.4375 0l-1.34375 6.125l-1.109375 0zm7.8352356 -7.25q0.828125 0 1.46875 0.359375q0.640625 0.34375 0.984375 0.921875l0.25 -1.109375l1.109375 0l-1.578125 7.078125l-1.09375 0l0.21875 -1.015625q-0.9375 1.1875 -2.328125 1.1875q-1.234375 0 -1.984375 -0.765625q-0.75 -0.78125 -0.75 -2.140625q0 -1.890625 1.046875 -3.203125q1.0625 -1.3125 2.65625 -1.3125zm0.140625 0.984375q-1.15625 0 -1.921875 1.0q-0.765625 0.984375 -0.765625 2.3125q0 1.0 0.53125 1.578125q0.546875 0.5625 1.4375 0.5625q0.65625 0 1.234375 -0.34375q0.59375 -0.359375 0.921875 -0.859375l0.703125 -3.109375q-0.265625 -0.46875 -0.8125 -0.796875q-0.546875 -0.34375 -1.328125 -0.34375zm7.833618 6.4375q-1.453125 0 -2.359375 -0.84375q-0.890625 -0.859375 -0.890625 -2.3125q0 -1.75 1.140625 -3.0q1.15625 -1.265625 2.84375 -1.265625q1.859375 0 2.640625 1.3125l-0.828125 0.625q-0.5625 -0.953125 -1.78125 -0.953125q-1.25 0 -2.0625 0.953125q-0.8125 0.9375 -0.8125 2.3125q0 1.0 0.59375 1.59375q0.59375 0.59375 1.609375 0.59375q1.0625 0 1.796875 -0.828125l0.625 0.734375q-1.046875 1.078125 -2.515625 1.078125zm6.129883 -8.265625q-0.28125 0 -0.484375 -0.171875q-0.1875 -0.1875 -0.1875 -0.46875q0 -0.375 0.265625 -0.609375q0.28125 -0.234375 0.578125 -0.234375q0.296875 0 0.484375 0.203125q0.1875 0.203125 0.1875 0.453125q0 0.390625 -0.28125 0.609375q-0.265625 0.21875 -0.5625 0.21875zm-2.40625 8.09375l1.5625 -7.078125l1.09375 0l-1.5625 7.078125l-1.09375 0zm8.063293 0l1.09375 -4.875l0.03125 -0.25q0 -0.625 -0.421875 -0.875q-0.40625 -0.265625 -0.96875 -0.265625q-1.1875 0 -2.265625 1.109375l-1.140625 5.15625l-1.09375 0l1.5625 -7.078125l1.09375 0l-0.234375 1.03125q1.28125 -1.203125 2.515625 -1.203125q0.9375 0 1.515625 0.453125q0.59375 0.4375 0.59375 1.296875l-0.09375 0.59375l-1.078125 4.90625l-1.109375 0zm6.1068726 2.875q-1.015625 0 -1.8125 -0.25q-0.78125 -0.25 -1.359375 -0.953125l0.703125 -0.75q0.71875 1.046875 2.453125 1.046875q0.9375 0 1.546875 -0.578125q0.609375 -0.5625 0.828125 -1.59375l0.203125 -0.921875q-0.9375 1.203125 -2.40625 1.203125q-1.25 0 -1.96875 -0.78125q-0.71875 -0.78125 -0.71875 -2.15625q0 -1.8125 1.046875 -3.09375q1.046875 -1.296875 2.640625 -1.296875q0.6875 0 1.359375 0.34375q0.671875 0.34375 1.109375 0.9375l0.25 -1.109375l1.109375 0l-1.53125 6.875q-0.3125 1.5 -1.203125 2.28125q-0.875 0.796875 -2.25 0.796875zm0.59375 -3.78125q0.625 0 1.203125 -0.328125q0.59375 -0.328125 0.96875 -0.796875l0.671875 -3.0625q-0.28125 -0.546875 -0.890625 -0.859375q-0.59375 -0.3125 -1.296875 -0.3125q-1.140625 0 -1.890625 0.953125q-0.734375 0.9375 -0.734375 2.28125q0 1.0 0.53125 1.5625q0.53125 0.5625 1.4375 0.5625zm12.615906 1.078125q-0.84375 0 -1.484375 -0.34375q-0.625 -0.359375 -0.984375 -0.9375l-0.84375 3.8125l-1.109375 0l2.171875 -9.78125l1.09375 0l-0.234375 1.015625q0.96875 -1.1875 2.34375 -1.1875q1.265625 0 2.0 0.8125q0.75 0.796875 0.75 2.09375q0 1.890625 -1.0625 3.203125q-1.0625 1.3125 -2.640625 1.3125zm-0.15625 -0.984375q1.15625 0 1.921875 -0.984375q0.78125 -1.0 0.78125 -2.34375q0 -0.984375 -0.5625 -1.546875q-0.546875 -0.578125 -1.421875 -0.578125q-0.671875 0 -1.25 0.359375q-0.5625 0.34375 -0.921875 0.84375l-0.6875 3.109375q0.265625 0.484375 0.8125 0.8125q0.546875 0.328125 1.328125 0.328125zm4.727173 0.8125l1.5625 -7.078125l1.09375 0l-0.25 1.078125q0.53125 -0.59375 1.125 -0.90625q0.609375 -0.3125 1.515625 -0.3125l-0.25 1.125q-0.140625 -0.0625 -0.546875 -0.0625q-0.625 0 -1.171875 0.359375q-0.546875 0.34375 -0.890625 0.796875l-1.09375 5.0l-1.09375 0zm8.352234 0.171875q-1.484375 0 -2.359375 -0.84375q-0.875 -0.84375 -0.875 -2.28125q0 -1.78125 1.15625 -3.03125q1.15625 -1.265625 2.78125 -1.265625q1.5 0 2.359375 0.875q0.875 0.859375 0.875 2.265625q0 1.765625 -1.15625 3.03125q-1.140625 1.25 -2.78125 1.25zm0.03125 -0.984375q1.125 0 1.9375 -0.953125q0.8125 -0.96875 0.8125 -2.3125q0 -1.0 -0.546875 -1.59375q-0.546875 -0.59375 -1.5625 -0.59375q-1.125 0 -1.9375 0.96875q-0.8125 0.953125 -0.8125 2.296875q0 1.0 0.546875 1.59375q0.546875 0.59375 1.5625 0.59375zm8.820862 -6.4375q0.828125 0 1.46875 0.359375q0.640625 0.34375 0.984375 0.921875l0.859375 -3.8125l1.09375 0l-2.171875 9.78125l-1.09375 0l0.21875 -1.015625q-0.9375 1.1875 -2.328125 1.1875q-1.234375 0 -1.984375 -0.765625q-0.75 -0.78125 -0.75 -2.140625q0 -1.890625 1.046875 -3.203125q1.0625 -1.3125 2.65625 -1.3125zm0.140625 0.984375q-1.15625 0 -1.921875 1.0q-0.765625 0.984375 -0.765625 2.3125q0 1.0 0.53125 1.578125q0.546875 0.5625 1.4375 0.5625q0.65625 0 1.234375 -0.34375q0.59375 -0.359375 0.921875 -0.859375l0.703125 -3.109375q-0.265625 -0.46875 -0.8125 -0.796875q-0.546875 -0.34375 -1.328125 -0.34375zm6.958618 -0.8125l-1.015625 4.625l-0.078125 0.5q0 1.140625 1.46875 1.140625q1.0625 0 2.1875 -1.109375l1.125 -5.15625l1.09375 0l-1.5625 7.078125l-1.109375 0l0.234375 -1.03125q-1.265625 1.203125 -2.484375 1.203125q-0.953125 0 -1.53125 -0.4375q-0.578125 -0.453125 -0.578125 -1.3125l0.078125 -0.59375l1.078125 -4.90625l1.09375 0zm8.950623 7.25q-1.453125 0 -2.359375 -0.84375q-0.890625 -0.859375 -0.890625 -2.3125q0 -1.75 1.140625 -3.0q1.15625 -1.265625 2.84375 -1.265625q1.859375 0 2.640625 1.3125l-0.828125 0.625q-0.5625 -0.953125 -1.78125 -0.953125q-1.25 0 -2.0625 0.953125q-0.8125 0.9375 -0.8125 2.3125q0 1.0 0.59375 1.59375q0.59375 0.59375 1.609375 0.59375q1.0625 0 1.796875 -0.828125l0.625 0.734375q-1.046875 1.078125 -2.515625 1.078125zm5.848633 0q-1.609375 0 -1.609375 -1.28125l0.03125 -0.421875l1.03125 -4.59375l-1.171875 0l0.21875 -0.953125l1.171875 0l0.421875 -1.9375l1.109375 0l-0.4375 1.9375l1.4375 0l-0.21875 0.953125l-1.4375 0l-0.96875 4.359375l-0.015625 0.296875q0 0.65625 0.703125 0.65625q0.40625 0 0.671875 -0.234375l0.125 0.890625q-0.421875 0.328125 -1.0625 0.328125zm4.90271 0q-2.0 0 -2.984375 -1.234375l0.703125 -0.765625q0.359375 0.53125 1.015625 0.828125q0.671875 0.28125 1.328125 0.28125q0.765625 0 1.1875 -0.375q0.4375 -0.390625 0.4375 -0.875q0 -0.359375 -0.40625 -0.640625q-0.390625 -0.296875 -1.453125 -0.671875q-0.953125 -0.359375 -1.40625 -0.78125q-0.453125 -0.4375 -0.453125 -1.015625q0 -0.953125 0.734375 -1.5625q0.734375 -0.609375 1.9375 -0.609375q0.921875 0 1.640625 0.34375q0.71875 0.328125 1.0625 0.8125l-0.625 0.71875q-0.234375 -0.40625 -0.859375 -0.6875q-0.609375 -0.296875 -1.265625 -0.296875q-0.71875 0 -1.125 0.3125q-0.40625 0.3125 -0.40625 0.765625q0 0.359375 0.359375 0.609375q0.375 0.25 1.5 0.65625q1.859375 0.671875 1.859375 1.859375q0 1.03125 -0.78125 1.6875q-0.78125 0.640625 -2.0 0.640625z" fill-rule="nonzero"/><path fill="#000000" d="m439.34998 294.95065q-1.484375 0 -2.359375 -0.84375q-0.875 -0.84375 -0.875 -2.28125q0 -1.78125 1.15625 -3.03125q1.15625 -1.265625 2.78125 -1.265625q1.5 0 2.359375 0.875q0.875 0.859375 0.875 2.265625q0 1.765625 -1.15625 3.03125q-1.140625 1.25 -2.78125 1.25zm0.03125 -0.984375q1.125 0 1.9375 -0.953125q0.8125 -0.96875 0.8125 -2.3125q0 -1.0 -0.546875 -1.59375q-0.546875 -0.59375 -1.5625 -0.59375q-1.125 0 -1.9375 0.96875q-0.8125 0.953125 -0.8125 2.296875q0 1.0 0.546875 1.59375q0.546875 0.59375 1.5625 0.59375zm6.7271423 0.8125l-1.375 -7.078125l1.15625 0l1.046875 5.796875l3.65625 -5.796875l1.234375 0l-4.515625 7.078125l-1.203125 0zm9.02536 0.171875q-1.578125 0 -2.515625 -0.84375q-0.9375 -0.84375 -0.9375 -2.28125q0 -1.796875 1.15625 -3.046875q1.171875 -1.25 2.828125 -1.25q1.375 0 2.203125 0.84375q0.84375 0.84375 0.84375 2.25q0 0.328125 -0.125 0.96875l-5.765625 0l-0.015625 0.34375q0 0.90625 0.65625 1.515625q0.65625 0.59375 1.75 0.59375q1.171875 0 2.03125 -0.6875l0.359375 0.765625q-0.46875 0.375 -1.125 0.609375q-0.65625 0.21875 -1.34375 0.21875zm2.546875 -4.15625l0.03125 -0.28125q0 -0.875 -0.546875 -1.46875q-0.546875 -0.609375 -1.609375 -0.609375q-0.921875 0 -1.6875 0.671875q-0.75 0.65625 -0.9375 1.6875l4.75 0zm1.9702454 3.984375l1.5625 -7.078125l1.09375 0l-0.25 1.078125q0.53125 -0.59375 1.125 -0.90625q0.609375 -0.3125 1.515625 -0.3125l-0.25 1.125q-0.140625 -0.0625 -0.546875 -0.0625q-0.625 0 -1.171875 0.359375q-0.546875 0.34375 -0.890625 0.796875l-1.09375 5.0l-1.09375 0zm10.742889 0.171875q-1.609375 0 -1.609375 -1.28125l0.03125 -0.421875l1.03125 -4.59375l-1.171875 0l0.21875 -0.953125l1.171875 0l0.421875 -1.9375l1.109375 0l-0.4375 1.9375l1.4375 0l-0.21875 0.953125l-1.4375 0l-0.96875 4.359375l-0.015625 0.296875q0 0.65625 0.703125 0.65625q0.40625 0 0.671875 -0.234375l0.125 0.890625q-0.421875 0.328125 -1.0625 0.328125zm4.59021 -8.265625q-0.28125 0 -0.484375 -0.171875q-0.1875 -0.1875 -0.1875 -0.46875q0 -0.375 0.265625 -0.609375q0.28125 -0.234375 0.578125 -0.234375q0.296875 0 0.484375 0.203125q0.1875 0.203125 0.1875 0.453125q0 0.390625 -0.28125 0.609375q-0.265625 0.21875 -0.5625 0.21875zm-2.40625 8.09375l1.5625 -7.078125l1.09375 0l-1.5625 7.078125l-1.09375 0zm11.844543 0l1.03125 -4.75l0.0625 -0.421875q0 -0.53125 -0.359375 -0.8125q-0.359375 -0.28125 -0.84375 -0.28125q-0.515625 0 -1.03125 0.34375q-0.515625 0.328125 -0.90625 0.765625l-1.140625 5.15625l-1.09375 0l1.046875 -4.75q0.0625 -0.296875 0.0625 -0.515625q-0.015625 -0.421875 -0.3125 -0.703125q-0.296875 -0.296875 -0.921875 -0.296875q-0.90625 0 -1.90625 1.109375l-1.140625 5.15625l-1.09375 0l1.5625 -7.078125l1.09375 0l-0.234375 1.03125q0.453125 -0.53125 1.046875 -0.859375q0.609375 -0.34375 1.1875 -0.34375q0.75 0 1.28125 0.421875q0.53125 0.40625 0.53125 0.890625l0 0.03125q1.09375 -1.34375 2.46875 -1.34375q0.796875 0 1.328125 0.484375q0.53125 0.484375 0.53125 1.265625l-0.078125 0.59375l-1.078125 4.90625l-1.09375 0zm7.0298157 0.171875q-1.578125 0 -2.515625 -0.84375q-0.9375 -0.84375 -0.9375 -2.28125q0 -1.796875 1.15625 -3.046875q1.171875 -1.25 2.828125 -1.25q1.375 0 2.203125 0.84375q0.84375 0.84375 0.84375 2.25q0 0.328125 -0.125 0.96875l-5.765625 0l-0.015625 0.34375q0 0.90625 0.65625 1.515625q0.65625 0.59375 1.75 0.59375q1.171875 0 2.03125 -0.6875l0.359375 0.765625q-0.46875 0.375 -1.125 0.609375q-0.65625 0.21875 -1.34375 0.21875zm2.546875 -4.15625l0.03125 -0.28125q0 -0.875 -0.546875 -1.46875q-0.546875 -0.609375 -1.609375 -0.609375q-0.921875 0 -1.6875 0.671875q-0.75 0.65625 -0.9375 1.6875l4.75 0zm5.363739 -5.09375q0 0.640625 -0.484375 1.328125q-0.46875 0.671875 -1.21875 1.0625l-0.4375 -0.484375q1.0 -0.515625 1.234375 -1.21875l-0.125 0q-0.234375 0 -0.4375 -0.171875q-0.1875 -0.1875 -0.1875 -0.5q0 -0.34375 0.265625 -0.59375q0.28125 -0.265625 0.609375 -0.265625q0.328125 0 0.546875 0.21875q0.234375 0.203125 0.234375 0.625zm2.34375 0q0 0.640625 -0.484375 1.328125q-0.46875 0.671875 -1.21875 1.0625l-0.4375 -0.484375q0.96875 -0.5 1.234375 -1.21875l-0.125 0q-0.25 0 -0.4375 -0.171875q-0.1875 -0.1875 -0.1875 -0.5q0 -0.34375 0.265625 -0.59375q0.28125 -0.265625 0.609375 -0.265625q0.328125 0 0.546875 0.21875q0.234375 0.203125 0.234375 0.625z" fill-rule="nonzero"/></g></svg>