<svg version="1.1" viewBox="0.0 0.0 148.3018372703412 100.0" fill="none" stroke="none" stroke-linecap="square" stroke-miterlimit="10" xmlns:xlink="http://www.w3.org/1999/xlink" xmlns="http://www.w3.org/2000/svg"><clipPath id="p.0"><path d="m0 0l148.30183 0l0 100.0l-148.30183 0l0 -100.0z" clip-rule="nonzero"/></clipPath><g clip-path="url(#p.0)"><path fill="#000000" fill-opacity="0.0" d="m0 0l148.30183 0l0 100.0l-148.30183 0z" fill-rule="evenodd"/><path fill="#000000" fill-opacity="0.0" d="m0.5721785 17.653543l105.196846 0l0 64.69292l-105.196846 0z" fill-rule="evenodd"/><path fill="#000000" d="m20.040928 51.889168l-1.5 0l-5.046874 -11.484375l-0.25 0l0 15.65625l2.421875 0q0.46874905 0 0.67187405 0.1875q0.203125 0.171875 0.203125 0.46875q0 0.28125 -0.203125 0.46875q-0.203125 0.1875 -0.67187405 0.1875l-4.84375 0q-0.46875 0 -0.671875 -0.1875q-0.203125 -0.1875 -0.203125 -0.46875q0 -0.296875 0.203125 -0.46875q0.203125 -0.1875 0.671875 -0.1875l1.109375 0l0 -15.65625l-0.828125 0q-0.46875 0 -0.671875 -0.171875q-0.203125 -0.1875 -0.203125 -0.484375q0 -0.296875 0.203125 -0.46875q0.203125 -0.1875 0.671875 -0.1875l3.21875 0l4.968749 11.3125l4.890625 -11.3125l3.21875 0q0.484375 0 0.6875 0.1875q0.203125 0.171875 0.203125 0.46875q0 0.296875 -0.203125 0.484375q-0.203125 0.171875 -0.6875 0.171875l-0.8125 0l0 15.65625l1.09375 0q0.484375 0 0.6875 0.1875q0.203125 0.171875 0.203125 0.46875q0 0.28125 -0.203125 0.46875q-0.203125 0.1875 -0.6875 0.1875l-4.828125 0q-0.46875 0 -0.6875 -0.1875q-0.203125 -0.1875 -0.203125 -0.46875q0 -0.296875 0.203125 -0.46875q0.203125 -0.1875 0.6875 -0.1875l2.421875 0l0 -15.65625l-0.28125 0l-4.953125 11.484375zm18.984375 -11.484375l0 15.65625l3.40625 0q0.46875 0 0.671875 0.1875q0.203125 0.171875 0.203125 0.46875q0 0.28125 -0.203125 0.46875q-0.203125 0.1875 -0.671875 0.1875l-8.140625 0q-0.46875 0 -0.671875 -0.1875q-0.203125 -0.1875 -0.203125 -0.46875q0 -0.296875 0.203125 -0.46875q0.203125 -0.1875 0.671875 -0.1875l3.40625 0l0 -15.65625l-5.375 0l0 4.546875q0 0.484375 -0.1875 0.6875q-0.171875 0.203125 -0.46875 0.203125q-0.28125 0 -0.46875 -0.203125q-0.1875 -0.203125 -0.1875 -0.6875l0 -5.859375l14.703125 0l0 5.859375q0 0.484375 -0.1875 0.6875q-0.171875 0.203125 -0.46875 0.203125q-0.296875 0 -0.484375 -0.203125q-0.171875 -0.203125 -0.171875 -0.6875l0 -4.546875l-5.375 0zm19.203125 0l0 15.65625l3.40625 0q0.46875 0 0.671875 0.1875q0.203125 0.171875 0.203125 0.46875q0 0.28125 -0.203125 0.46875q-0.203125 0.1875 -0.671875 0.1875l-8.140625 0q-0.46875 0 -0.671875 -0.1875q-0.203125 -0.1875 -0.203125 -0.46875q0 -0.296875 0.203125 -0.46875q0.203125 -0.1875 0.671875 -0.1875l3.40625 0l0 -15.65625l-5.375 0l0 4.546875q0 0.484375 -0.1875 0.6875q-0.171875 0.203125 -0.46875 0.203125q-0.28125 0 -0.46875 -0.203125q-0.1875 -0.203125 -0.1875 -0.6875l0 -5.859375l14.703129 0l0 5.859375q0 0.484375 -0.1875 0.6875q-0.171875 0.203125 -0.46875 0.203125q-0.2968788 0 -0.4843788 -0.203125q-0.171875 -0.203125 -0.171875 -0.6875l0 -4.546875l-5.375 0zm14.281254 8.8125l0 6.84375l2.421875 0q0.484375 0 0.6875 0.1875q0.203125 0.171875 0.203125 0.46875q0 0.28125 -0.203125 0.46875q-0.203125 0.1875 -0.6875 0.1875l-5.5 0q-0.46875 0 -0.671875 -0.1875q-0.203125 -0.1875 -0.203125 -0.46875q0 -0.296875 0.203125 -0.46875q0.203125 -0.1875 0.671875 -0.1875l1.765625 0l0 -15.65625l-1.765625 0q-0.46875 0 -0.671875 -0.171875q-0.203125 -0.1875 -0.203125 -0.484375q0 -0.296875 0.203125 -0.46875q0.203125 -0.1875 0.671875 -0.1875l7.9375 0q2.453125 0 4.125 1.5625q1.6875 1.546875 1.6875 3.5q0 1.40625 -1.046875 2.65625q-1.03125 1.234375 -3.46875 2.0625q1.40625 0.96875 2.40625 2.1875q1.0 1.21875 3.203125 5.0l1.0 0q0.46875 0 0.671875 0.1875q0.203125 0.171875 0.203125 0.46875q0 0.28125 -0.203125 0.46875q-0.203125 0.1875 -0.671875 0.1875l-1.75 0q-2.4375 -4.359375 -3.78125 -5.84375q-1.328125 -1.484375 -3.0625 -2.3125l-4.171875 0zm0 -1.3125l3.578125 0q1.71875 0 3.109375 -0.625q1.40625 -0.625 2.03125 -1.46875q0.640625 -0.84375 0.640625 -1.71875q0 -1.3125 -1.328125 -2.5q-1.3125 -1.1875 -3.203125 -1.1875l-4.828125 0l0 7.5z" fill-rule="nonzero"/><path fill="#000000" fill-opacity="0.0" d="m116.937004 18.569553l-0.12598419 63.653545" fill-rule="evenodd"/><path stroke="#000000" stroke-width="4.0" stroke-linejoin="round" stroke-linecap="butt" d="m116.937004 18.569553l-0.07848358 39.65359" fill-rule="evenodd"/><path fill="#000000" stroke="#000000" stroke-width="4.0" stroke-linecap="butt" d="m110.25161 58.210068l6.570984 18.165428l6.642845 -18.139275z" fill-rule="evenodd"/></g></svg>