<svg version="1.1" viewBox="0.0 0.0 1232.5301837270342 293.244094488189" fill="none" stroke="none" stroke-linecap="square" stroke-miterlimit="10" xmlns:xlink="http://www.w3.org/1999/xlink" xmlns="http://www.w3.org/2000/svg"><clipPath id="p.0"><path d="m0 0l1232.5302 0l0 293.24408l-1232.5302 0l0 -293.24408z" clip-rule="nonzero"/></clipPath><g clip-path="url(#p.0)"><path fill="#000000" fill-opacity="0.0" d="m0 0l1232.5302 0l0 293.24408l-1232.5302 0z" fill-rule="evenodd"/><path fill="#d9ead3" d="m149.4357 196.66142l0 -157.35434l51.2126 0l0 157.35434z" fill-rule="evenodd"/><path fill="#000000" d="m181.96199 172.25131l0 2.5625l-9.671875 0l0 -2.375l1.375 0q-0.984375 -0.609375 -1.28125 -1.09375q-0.3125 -0.484375 -0.3125 -1.109375q0 -0.875 0.484375 -1.6875l2.234375 0.796875q-0.421875 0.640625 -0.421875 1.203125q0 0.53125 0.296875 0.90625q0.296875 0.375 1.078125 0.59375q0.765625 0.203125 3.234375 0.203125l2.984375 0zm-3.078125 -10.400894l0.421875 -2.546875q1.40625 0.484375 2.140625 1.546875q0.734375 1.0625 0.734375 2.65625q0 2.515625 -1.65625 3.734375q-1.3125 0.953125 -3.328125 0.953125q-2.40625 0 -3.765625 -1.25q-1.359375 -1.265625 -1.359375 -3.1875q0 -2.15625 1.421875 -3.40625q1.421875 -1.25 4.375 -1.1875l0 6.40625q1.140625 -0.03125 1.78125 -0.609375q0.625 -0.59375 0.625 -1.484375q0 -0.59375 -0.328125 -1.0q-0.328125 -0.421875 -1.0625 -0.625zm-2.59375 -0.15625q-1.109375 0.03125 -1.6875 0.578125q-0.578125 0.546875 -0.578125 1.328125q0 0.84375 0.609375 1.390625q0.609375 0.546875 1.65625 0.53125l0 -3.828125zm-4.0 -4.422592l0 -2.359375l1.3125 0q-1.53125 -1.265625 -1.53125 -3.015625q0 -0.9375 0.390625 -1.609375q0.375 -0.6875 1.140625 -1.125q-0.765625 -0.640625 -1.140625 -1.375q-0.390625 -0.75 -0.390625 -1.578125q0 -1.0625 0.4375 -1.796875q0.421875 -0.75 1.265625 -1.109375q0.625 -0.265625 2.0 -0.265625l6.1875 0l0 2.5625l-5.53125 0q-1.4375 0 -1.859375 0.265625q-0.546875 0.34375 -0.546875 1.09375q0 0.53125 0.328125 1.015625q0.328125 0.46875 0.96875 0.671875q0.625 0.203125 2.0 0.203125l4.640625 0l0 2.5625l-5.296875 0q-1.421875 0 -1.828125 0.140625q-0.40625 0.140625 -0.609375 0.421875q-0.203125 0.28125 -0.203125 0.78125q0 0.59375 0.328125 1.0625q0.3125 0.46875 0.921875 0.6875q0.59375 0.203125 1.984375 0.203125l4.703125 0l0 2.5625l-9.671875 0zm4.703125 -16.19777q-1.28125 0 -2.46875 -0.625q-1.203125 -0.625 -1.828125 -1.78125q-0.625 -1.15625 -0.625 -2.578125q0 -2.1875 1.421875 -3.59375q1.421875 -1.40625 3.609375 -1.40625q2.1875 0 3.640625 1.421875q1.4375 1.421875 1.4375 3.5625q0 1.328125 -0.59375 2.546875q-0.609375 1.203125 -1.765625 1.828125q-1.171875 0.625 -2.828125 0.625zm0.125 -2.625q1.453125 0 2.21875 -0.671875q0.75 -0.6875 0.75 -1.6875q0 -1.0 -0.75 -1.671875q-0.765625 -0.6875 -2.234375 -0.6875q-1.421875 0 -2.1875 0.6875q-0.765625 0.671875 -0.765625 1.671875q0 1.0 0.765625 1.6875q0.765625 0.671875 2.203125 0.671875zm-4.828125 -13.802231l2.03125 0l0 1.75l3.90625 0q1.1875 0 1.390625 -0.046875q0.1875 -0.046875 0.3125 -0.21875q0.125 -0.1875 0.125 -0.4375q0 -0.359375 -0.25 -1.03125l2.0 -0.21875q0.375 0.890625 0.375 2.015625q0 0.703125 -0.234375 1.265625q-0.234375 0.546875 -0.59375 0.8125q-0.375 0.25 -1.0 0.34375q-0.453125 0.09375 -1.8125 0.09375l-4.21875 0l0 1.171875l-2.03125 0l0 -1.171875l-1.921875 0l-1.5 -2.578125l3.421875 0l0 -1.75zm6.59375 -7.368927l0.421875 -2.546875q1.40625 0.484375 2.140625 1.546875q0.734375 1.0625 0.734375 2.65625q0 2.515625 -1.65625 3.734375q-1.3125 0.953125 -3.328125 0.953125q-2.40625 0 -3.765625 -1.25q-1.359375 -1.265625 -1.359375 -3.1875q0 -2.15625 1.421875 -3.40625q1.421875 -1.25 4.375 -1.1875l0 6.40625q1.140625 -0.03125 1.78125 -0.609375q0.625 -0.59375 0.625 -1.484375q0 -0.59375 -0.328125 -1.0q-0.328125 -0.421875 -1.0625 -0.625zm-2.59375 -0.15625q-1.109375 0.03125 -1.6875 0.578125q-0.578125 0.546875 -0.578125 1.328125q0 0.84375 0.609375 1.390625q0.609375 0.546875 1.65625 0.53125l0 -3.828125zm9.359375 -3.1100922l-1.65625 0l0 -10.640625l1.65625 0l0 10.640625zm-3.6875 -13.688217l-9.671875 3.0625l0 -2.484375l6.34375 -1.8125l-6.34375 -1.671875l0 -2.46875l6.34375 -1.609375l-6.34375 -1.859375l0 -2.515625l9.671875 3.109375l0 2.453125l-6.21875 1.671875l6.21875 1.640625l0 2.484375zm0 -15.167679l0 2.5625l-9.671875 0l0 -2.375l1.375 0q-0.984375 -0.609375 -1.28125 -1.09375q-0.3125 -0.484375 -0.3125 -1.109375q0 -0.875 0.484375 -1.6875l2.234375 0.796875q-0.421875 0.640625 -0.421875 1.203125q0 0.53125 0.296875 0.90625q0.296875 0.375 1.078125 0.59375q0.765625 0.203125 3.234375 0.203125l2.984375 0zm-10.984375 -4.807144l-2.375 0l0 -2.5625l2.375 0l0 2.5625zm10.984375 0l-9.671875 0l0 -2.5625l9.671875 0l0 2.5625zm-9.671875 -9.620804l2.03125 0l0 1.75l3.90625 0q1.1875 0 1.390625 -0.046875q0.1875 -0.046875 0.3125 -0.21875q0.125 -0.1875 0.125 -0.4375q0 -0.359375 -0.25 -1.03125l2.0 -0.21875q0.375 0.890625 0.375 2.015625q0 0.703125 -0.234375 1.265625q-0.234375 0.546875 -0.59375 0.8125q-0.375 0.25 -1.0 0.34375q-0.453125 0.09375 -1.8125 0.09375l-4.21875 0l0 1.171875l-2.03125 0l0 -1.171875l-1.921875 0l-1.5 -2.578125l3.421875 0l0 -1.75zm6.59375 -7.368931l0.421875 -2.546875q1.40625 0.484375 2.140625 1.546875q0.734375 1.0625 0.734375 2.6562462q0 2.515625 -1.65625 3.7343826q-1.3125 0.953125 -3.328125 0.953125q-2.40625 0 -3.765625 -1.2500076q-1.359375 -1.265625 -1.359375 -3.1875q0 -2.1562462 1.421875 -3.4062462q1.421875 -1.25 4.375 -1.1875l0 6.406246q1.140625 -0.03125 1.78125 -0.609375q0.625 -0.59375 0.625 -1.484375q0 -0.59375 -0.328125 -0.9999962q-0.328125 -0.421875 -1.0625 -0.625zm-2.59375 -0.15625q-1.109375 0.03125 -1.6875 0.578125q-0.578125 0.5468712 -0.578125 1.3281212q0 0.84375 0.609375 1.390625q0.609375 0.546875 1.65625 0.53125l0 -3.8281212z" fill-rule="nonzero"/><path fill="#fff2cc" d="m13.71916 143.42284l0 0c0 -7.1871033 5.82629 -13.013382 13.013384 -13.013382l77.65827 0c3.4513626 0 6.761368 1.371048 9.201851 3.8115234c2.440483 2.4404907 3.811531 5.7504883 3.811531 9.2018585l0 52.05197c0 7.187088 -5.8262863 13.013382 -13.013382 13.013382l-77.65827 0l0 0c-7.1870937 0 -13.013384 -5.826294 -13.013384 -13.013382z" fill-rule="evenodd"/><path stroke="#000000" stroke-width="3.0" stroke-linejoin="round" stroke-linecap="butt" d="m13.71916 143.42284l0 0c0 -7.1871033 5.82629 -13.013382 13.013384 -13.013382l77.65827 0c3.4513626 0 6.761368 1.371048 9.201851 3.8115234c2.440483 2.4404907 3.811531 5.7504883 3.811531 9.2018585l0 52.05197c0 7.187088 -5.8262863 13.013382 -13.013382 13.013382l-77.65827 0l0 0c-7.1870937 0 -13.013384 -5.826294 -13.013384 -13.013382z" fill-rule="evenodd"/><path fill="#000000" d="m37.264805 178.49632l0 -11.484375l1.28125 0l0 1.078125q0.453125 -0.640625 1.015625 -0.953125q0.578125 -0.3125 1.390625 -0.3125q1.0625 0 1.875 0.546875q0.8125 0.546875 1.21875 1.546875q0.421875 0.984375 0.421875 2.171875q0 1.28125 -0.46875 2.296875q-0.453125 1.015625 -1.328125 1.5625q-0.859375 0.546875 -1.828125 0.546875q-0.703125 0 -1.265625 -0.296875q-0.546875 -0.296875 -0.90625 -0.75l0 4.046875l-1.40625 0zm1.265625 -7.296875q0 1.609375 0.640625 2.375q0.65625 0.765625 1.578125 0.765625q0.9375 0 1.609375 -0.796875q0.671875 -0.796875 0.671875 -2.453125q0 -1.59375 -0.65625 -2.375q-0.65625 -0.796875 -1.5625 -0.796875q-0.890625 0 -1.59375 0.84375q-0.6875 0.84375 -0.6875 2.4375zm13.0390625 3.078125q-0.78125 0.671875 -1.5 0.953125q-0.71875 0.265625 -1.546875 0.265625q-1.375 0 -2.109375 -0.671875q-0.734375 -0.671875 -0.734375 -1.703125q0 -0.609375 0.28125 -1.109375q0.28125 -0.515625 0.71875 -0.8125q0.453125 -0.3125 1.015625 -0.46875q0.421875 -0.109375 1.25 -0.203125q1.703125 -0.203125 2.515625 -0.484375q0 -0.296875 0 -0.375q0 -0.859375 -0.390625 -1.203125q-0.546875 -0.484375 -1.609375 -0.484375q-0.984375 0 -1.46875 0.359375q-0.46875 0.34375 -0.6875 1.21875l-1.375 -0.1875q0.1875 -0.875 0.609375 -1.421875q0.4375 -0.546875 1.25 -0.828125q0.8125 -0.296875 1.875 -0.296875q1.0625 0 1.71875 0.25q0.671875 0.25 0.984375 0.625q0.3125 0.375 0.4375 0.953125q0.078125 0.359375 0.078125 1.296875l0 1.875q0 1.96875 0.078125 2.484375q0.09375 0.515625 0.359375 1.0l-1.46875 0q-0.21875 -0.4375 -0.28125 -1.03125zm-0.109375 -3.140625q-0.765625 0.3125 -2.296875 0.53125q-0.875 0.125 -1.234375 0.28125q-0.359375 0.15625 -0.5625 0.46875q-0.1875 0.296875 -0.1875 0.65625q0 0.5625 0.421875 0.9375q0.4375 0.375 1.25 0.375q0.8125 0 1.4375 -0.34375q0.640625 -0.359375 0.9375 -0.984375q0.234375 -0.46875 0.234375 -1.40625l0 -0.515625zm3.6015625 4.171875l0 -8.296875l1.265625 0l0 1.171875q0.90625 -1.359375 2.640625 -1.359375q0.75 0 1.375 0.265625q0.625 0.265625 0.9375 0.703125q0.3125 0.4375 0.4375 1.046875q0.078125 0.390625 0.078125 1.359375l0 5.109375l-1.40625 0l0 -5.046875q0 -0.859375 -0.171875 -1.28125q-0.15625 -0.4375 -0.578125 -0.6875q-0.40625 -0.25 -0.96875 -0.25q-0.90625 0 -1.5625 0.578125q-0.640625 0.5625 -0.640625 2.15625l0 4.53125l-1.40625 0zm14.273434 0l0 -1.046875q-0.78125 1.234375 -2.3125 1.234375q-1.0 0 -1.828125 -0.546875q-0.828125 -0.546875 -1.2968712 -1.53125q-0.453125 -0.984375 -0.453125 -2.25q0 -1.25 0.40625 -2.25q0.4218712 -1.015625 1.2499962 -1.546875q0.828125 -0.546875 1.859375 -0.546875q0.75 0 1.328125 0.3125q0.59375 0.3125 0.953125 0.828125l0 -4.109375l1.40625 0l0 11.453125l-1.3125 0zm-4.4375 -4.140625q0 1.59375 0.671875 2.390625q0.671875 0.78125 1.578125 0.78125q0.921875 0 1.5625 -0.75q0.65625 -0.765625 0.65625 -2.3125q0 -1.703125 -0.65625 -2.5q-0.65625 -0.796875 -1.625 -0.796875q-0.9375 0 -1.5625 0.765625q-0.625 0.765625 -0.625 2.421875zm7.4296875 -0.015625q0 -2.296875 1.28125 -3.40625q1.078125 -0.921875 2.609375 -0.921875q1.71875 0 2.796875 1.125q1.09375 1.109375 1.09375 3.09375q0 1.59375 -0.484375 2.515625q-0.484375 0.921875 -1.40625 1.4375q-0.90625 0.5 -2.0 0.5q-1.734375 0 -2.8125 -1.109375q-1.078125 -1.125 -1.078125 -3.234375zm1.453125 0q0 1.59375 0.6875 2.390625q0.703125 0.796875 1.75 0.796875q1.046875 0 1.734375 -0.796875q0.703125 -0.796875 0.703125 -2.4375q0 -1.53125 -0.703125 -2.328125q-0.6875 -0.796875 -1.734375 -0.796875q-1.046875 0 -1.75 0.796875q-0.6875 0.78125 -0.6875 2.375zm7.9609375 4.15625l0 -8.296875l1.265625 0l0 1.25q0.484375 -0.875 0.890625 -1.15625q0.40625 -0.28125 0.90625 -0.28125q0.703125 0 1.4375 0.453125l-0.484375 1.296875q-0.515625 -0.296875 -1.03125 -0.296875q-0.453125 0 -0.828125 0.28125q-0.359375 0.265625 -0.515625 0.765625q-0.234375 0.75 -0.234375 1.640625l0 4.34375l-1.40625 0zm10.75 -1.03125q-0.78125 0.671875 -1.5 0.953125q-0.71875 0.265625 -1.546875 0.265625q-1.375 0 -2.109375 -0.671875q-0.734375 -0.671875 -0.734375 -1.703125q0 -0.609375 0.28125 -1.109375q0.28125 -0.515625 0.71875 -0.8125q0.453125 -0.3125 1.015625 -0.46875q0.421875 -0.109375 1.25 -0.203125q1.703125 -0.203125 2.515625 -0.484375q0 -0.296875 0 -0.375q0 -0.859375 -0.390625 -1.203125q-0.546875 -0.484375 -1.609375 -0.484375q-0.984375 0 -1.46875 0.359375q-0.46875 0.34375 -0.6875 1.21875l-1.375 -0.1875q0.1875 -0.875 0.609375 -1.421875q0.4375 -0.546875 1.25 -0.828125q0.8125 -0.296875 1.875 -0.296875q1.0625 0 1.71875 0.25q0.671875 0.25 0.984375 0.625q0.3125 0.375 0.4375 0.953125q0.078125 0.359375 0.078125 1.296875l0 1.875q0 1.96875 0.078125 2.484375q0.09375 0.515625 0.359375 1.0l-1.46875 0q-0.21875 -0.4375 -0.28125 -1.03125zm-0.109375 -3.140625q-0.765625 0.3125 -2.296875 0.53125q-0.875 0.125 -1.234375 0.28125q-0.359375 0.15625 -0.5625 0.46875q-0.1875 0.296875 -0.1875 0.65625q0 0.5625 0.421875 0.9375q0.4375 0.375 1.25 0.375q0.8125 0 1.4375 -0.34375q0.640625 -0.359375 0.9375 -0.984375q0.234375 -0.46875 0.234375 -1.40625l0 -0.515625z" fill-rule="nonzero"/><path fill="#000000" fill-opacity="0.0" d="m117.4042 169.44882c27.952751 0 41.92913 -13.18898 55.90551 -26.37796c13.976379 -13.188965 27.952759 -26.377945 55.905518 -26.377945" fill-rule="evenodd"/><path stroke="#cc0000" stroke-width="2.0" stroke-linejoin="round" stroke-linecap="butt" d="m117.4042 169.44882c27.952751 0 41.92913 -13.18898 55.90551 -26.37796c6.9881897 -6.5944824 13.976379 -13.188965 22.711624 -18.134842c4.3676147 -2.472931 9.171997 -4.5337067 14.6315155 -5.9762497c1.3648682 -0.36063385 2.7707062 -0.68263245 4.2209015 -0.9627762c0.7250824 -0.14006042 1.4612732 -0.26966095 2.208969 -0.38839722l0.16555786 -0.02558899" fill-rule="evenodd"/><path fill="#cc0000" stroke="#cc0000" stroke-width="2.0" stroke-linecap="butt" d="m217.49332 120.877365l8.806152 -3.9675827l-9.296219 -2.6211472z" fill-rule="evenodd"/><path fill="#000000" fill-opacity="0.0" d="m117.4042 60.929134c27.952751 0 41.92913 13.944881 55.90551 27.889767c13.976379 13.944878 27.952759 27.889763 55.905518 27.889763" fill-rule="evenodd"/><path stroke="#cc0000" stroke-width="2.0" stroke-linejoin="round" stroke-linecap="butt" d="m117.4042 60.929134c27.952751 0 41.92913 13.944881 55.90551 27.889767c6.9881897 6.972435 13.976379 13.944878 22.711624 19.17421c4.3676147 2.6146622 9.171997 4.793556 14.6315155 6.3187714c1.3648682 0.3813095 2.7707062 0.721756 4.2209015 1.017952c0.7250824 0.14809418 1.4612732 0.28512573 2.208969 0.41067505l0.16941833 0.027679443" fill-rule="evenodd"/><path fill="#cc0000" stroke="#cc0000" stroke-width="2.0" stroke-linecap="butt" d="m216.99323 119.06149l9.30719 -2.5819778l-8.789383 -4.004631z" fill-rule="evenodd"/><path fill="#fff2cc" d="m13.71916 34.90315l0 0c0 -7.1870937 5.82629 -13.013386 13.013384 -13.013386l77.65827 0c3.4513626 0 6.761368 1.3710499 9.201851 3.811533c2.440483 2.440483 3.811531 5.7504883 3.811531 9.201853l0 52.051975c0 7.187088 -5.8262863 13.013382 -13.013382 13.013382l-77.65827 0l0 0c-7.1870937 0 -13.013384 -5.826294 -13.013384 -13.013382z" fill-rule="evenodd"/><path stroke="#000000" stroke-width="3.0" stroke-linejoin="round" stroke-linecap="butt" d="m13.71916 34.90315l0 0c0 -7.1870937 5.82629 -13.013386 13.013384 -13.013386l77.65827 0c3.4513626 0 6.761368 1.3710499 9.201851 3.811533c2.440483 2.440483 3.811531 5.7504883 3.811531 9.201853l0 52.051975c0 7.187088 -5.8262863 13.013382 -13.013382 13.013382l-77.65827 0l0 0c-7.1870937 0 -13.013384 -5.826294 -13.013384 -13.013382z" fill-rule="evenodd"/><path fill="#000000" d="m37.264805 69.97663l0 -11.484375l1.28125 0l0 1.078125q0.453125 -0.640625 1.015625 -0.953125q0.578125 -0.3125 1.390625 -0.3125q1.0625 0 1.875 0.546875q0.8125 0.546875 1.21875 1.546875q0.421875 0.984375 0.421875 2.171875q0 1.28125 -0.46875 2.296875q-0.453125 1.015625 -1.328125 1.5625q-0.859375 0.546875 -1.828125 0.546875q-0.703125 0 -1.265625 -0.296875q-0.546875 -0.296875 -0.90625 -0.75l0 4.046875l-1.40625 0zm1.265625 -7.296875q0 1.609375 0.640625 2.375q0.65625 0.765625 1.578125 0.765625q0.9375 0 1.609375 -0.796875q0.671875 -0.796875 0.671875 -2.453125q0 -1.59375 -0.65625 -2.375q-0.65625 -0.796875 -1.5625 -0.796875q-0.890625 0 -1.59375 0.84375q-0.6875 0.84375 -0.6875 2.4375zm13.0390625 3.078125q-0.78125 0.671875 -1.5 0.953125q-0.71875 0.265625 -1.546875 0.265625q-1.375 0 -2.109375 -0.671875q-0.734375 -0.671875 -0.734375 -1.703125q0 -0.609375 0.28125 -1.109375q0.28125 -0.515625 0.71875 -0.8125q0.453125 -0.3125 1.015625 -0.46875q0.421875 -0.109375 1.25 -0.203125q1.703125 -0.203125 2.515625 -0.484375q0 -0.296875 0 -0.375q0 -0.859375 -0.390625 -1.203125q-0.546875 -0.484375 -1.609375 -0.484375q-0.984375 0 -1.46875 0.359375q-0.46875 0.34375 -0.6875 1.21875l-1.375 -0.1875q0.1875 -0.875 0.609375 -1.421875q0.4375 -0.546875 1.25 -0.828125q0.8125 -0.296875 1.875 -0.296875q1.0625 0 1.71875 0.25q0.671875 0.25 0.984375 0.625q0.3125 0.375 0.4375 0.953125q0.078125 0.359375 0.078125 1.296875l0 1.875q0 1.96875 0.078125 2.484375q0.09375 0.515625 0.359375 1.0l-1.46875 0q-0.21875 -0.4375 -0.28125 -1.03125zm-0.109375 -3.140625q-0.765625 0.3125 -2.296875 0.53125q-0.875 0.125 -1.234375 0.28125q-0.359375 0.15625 -0.5625 0.46875q-0.1875 0.296875 -0.1875 0.65625q0 0.5625 0.421875 0.9375q0.4375 0.375 1.25 0.375q0.8125 0 1.4375 -0.34375q0.640625 -0.359375 0.9375 -0.984375q0.234375 -0.46875 0.234375 -1.40625l0 -0.515625zm3.6015625 4.171875l0 -8.296875l1.265625 0l0 1.171875q0.90625 -1.359375 2.640625 -1.359375q0.75 0 1.375 0.265625q0.625 0.265625 0.9375 0.703125q0.3125 0.4375 0.4375 1.046875q0.078125 0.390625 0.078125 1.359375l0 5.109375l-1.40625 0l0 -5.046875q0 -0.859375 -0.171875 -1.28125q-0.15625 -0.4375 -0.578125 -0.6875q-0.40625 -0.25 -0.96875 -0.25q-0.90625 0 -1.5625 0.578125q-0.640625 0.5625 -0.640625 2.15625l0 4.53125l-1.40625 0zm14.273434 0l0 -1.046875q-0.78125 1.234375 -2.3125 1.234375q-1.0 0 -1.828125 -0.546875q-0.828125 -0.546875 -1.2968712 -1.53125q-0.453125 -0.984375 -0.453125 -2.25q0 -1.25 0.40625 -2.25q0.4218712 -1.015625 1.2499962 -1.546875q0.828125 -0.546875 1.859375 -0.546875q0.75 0 1.328125 0.3125q0.59375 0.3125 0.953125 0.828125l0 -4.109375l1.40625 0l0 11.453125l-1.3125 0zm-4.4375 -4.140625q0 1.59375 0.671875 2.390625q0.671875 0.78125 1.578125 0.78125q0.921875 0 1.5625 -0.75q0.65625 -0.765625 0.65625 -2.3125q0 -1.703125 -0.65625 -2.5q-0.65625 -0.796875 -1.625 -0.796875q-0.9375 0 -1.5625 0.765625q-0.625 0.765625 -0.625 2.421875zm7.4296875 -0.015625q0 -2.296875 1.28125 -3.40625q1.078125 -0.921875 2.609375 -0.921875q1.71875 0 2.796875 1.125q1.09375 1.109375 1.09375 3.09375q0 1.59375 -0.484375 2.515625q-0.484375 0.921875 -1.40625 1.4375q-0.90625 0.5 -2.0 0.5q-1.734375 0 -2.8125 -1.109375q-1.078125 -1.125 -1.078125 -3.234375zm1.453125 0q0 1.59375 0.6875 2.390625q0.703125 0.796875 1.75 0.796875q1.046875 0 1.734375 -0.796875q0.703125 -0.796875 0.703125 -2.4375q0 -1.53125 -0.703125 -2.328125q-0.6875 -0.796875 -1.734375 -0.796875q-1.046875 0 -1.75 0.796875q-0.6875 0.78125 -0.6875 2.375zm7.9609375 4.15625l0 -8.296875l1.265625 0l0 1.25q0.484375 -0.875 0.890625 -1.15625q0.40625 -0.28125 0.90625 -0.28125q0.703125 0 1.4375 0.453125l-0.484375 1.296875q-0.515625 -0.296875 -1.03125 -0.296875q-0.453125 0 -0.828125 0.28125q-0.359375 0.265625 -0.515625 0.765625q-0.234375 0.75 -0.234375 1.640625l0 4.34375l-1.40625 0zm10.75 -1.03125q-0.78125 0.671875 -1.5 0.953125q-0.71875 0.265625 -1.546875 0.265625q-1.375 0 -2.109375 -0.671875q-0.734375 -0.671875 -0.734375 -1.703125q0 -0.609375 0.28125 -1.109375q0.28125 -0.515625 0.71875 -0.8125q0.453125 -0.3125 1.015625 -0.46875q0.421875 -0.109375 1.25 -0.203125q1.703125 -0.203125 2.515625 -0.484375q0 -0.296875 0 -0.375q0 -0.859375 -0.390625 -1.203125q-0.546875 -0.484375 -1.609375 -0.484375q-0.984375 0 -1.46875 0.359375q-0.46875 0.34375 -0.6875 1.21875l-1.375 -0.1875q0.1875 -0.875 0.609375 -1.421875q0.4375 -0.546875 1.25 -0.828125q0.8125 -0.296875 1.875 -0.296875q1.0625 0 1.71875 0.25q0.671875 0.25 0.984375 0.625q0.3125 0.375 0.4375 0.953125q0.078125 0.359375 0.078125 1.296875l0 1.875q0 1.96875 0.078125 2.484375q0.09375 0.515625 0.359375 1.0l-1.46875 0q-0.21875 -0.4375 -0.28125 -1.03125zm-0.109375 -3.140625q-0.765625 0.3125 -2.296875 0.53125q-0.875 0.125 -1.234375 0.28125q-0.359375 0.15625 -0.5625 0.46875q-0.1875 0.296875 -0.1875 0.65625q0 0.5625 0.421875 0.9375q0.4375 0.375 1.25 0.375q0.8125 0 1.4375 -0.34375q0.640625 -0.359375 0.9375 -0.984375q0.234375 -0.46875 0.234375 -1.40625l0 -0.515625z" fill-rule="nonzero"/><path fill="#d9ead3" d="m229.21523 99.637566l0 0c0 -4.714081 3.821518 -8.535606 8.535599 -8.535606l101.95242 0c2.2637634 0 4.434845 0.89928436 6.0355835 2.500023c1.6007385 1.6007385 2.5 3.7717972 2.5 6.0355835l0 34.141396c0 4.714081 -3.8215027 8.535599 -8.5355835 8.535599l-101.95242 0c-4.714081 0 -8.535599 -3.821518 -8.535599 -8.535599z" fill-rule="evenodd"/><path stroke="#000000" stroke-width="1.0" stroke-linejoin="round" stroke-linecap="butt" d="m229.21523 99.637566l0 0c0 -4.714081 3.821518 -8.535606 8.535599 -8.535606l101.95242 0c2.2637634 0 4.434845 0.89928436 6.0355835 2.500023c1.6007385 1.6007385 2.5 3.7717972 2.5 6.0355835l0 34.141396c0 4.714081 -3.8215027 8.535599 -8.5355835 8.535599l-101.95242 0c-4.714081 0 -8.535599 -3.821518 -8.535599 -8.535599z" fill-rule="evenodd"/><path fill="#000000" d="m261.32077 122.56826l0 -11.453125l1.515625 0l0 11.453125l-1.515625 0zm4.0078125 0l0 -8.296875l1.265625 0l0 1.171875q0.90625 -1.359375 2.640625 -1.359375q0.75 0 1.375 0.265625q0.625 0.265625 0.9375 0.703125q0.3125 0.4375 0.4375 1.046875q0.078125 0.390625 0.078125 1.359375l0 5.109375l-1.40625 0l0 -5.046875q0 -0.859375 -0.171875 -1.28125q-0.15625 -0.4375 -0.578125 -0.6875q-0.40625 -0.25 -0.96875 -0.25q-0.90625 0 -1.5625 0.578125q-0.640625 0.5625 -0.640625 2.15625l0 4.53125l-1.40625 0zm8.6328125 0.6875l1.375 0.203125q0.078125 0.640625 0.46875 0.921875q0.53125 0.390625 1.4375 0.390625q0.96875 0 1.5 -0.390625q0.53125 -0.390625 0.71875 -1.09375q0.109375 -0.421875 0.109375 -1.8125q-0.921875 1.09375 -2.296875 1.09375q-1.71875 0 -2.65625 -1.234375q-0.9375 -1.234375 -0.9375 -2.96875q0 -1.1875 0.421875 -2.1875q0.4375 -1.0 1.25 -1.546875q0.828125 -0.546875 1.921875 -0.546875q1.46875 0 2.421875 1.1875l0 -1.0l1.296875 0l0 7.171875q0 1.9375 -0.390625 2.75q-0.390625 0.8125 -1.25 1.28125q-0.859375 0.46875 -2.109375 0.46875q-1.484375 0 -2.40625 -0.671875q-0.90625 -0.671875 -0.875 -2.015625zm1.171875 -4.984375q0 1.625 0.640625 2.375q0.65625 0.75 1.625 0.75q0.96875 0 1.625 -0.734375q0.65625 -0.75 0.65625 -2.34375q0 -1.53125 -0.671875 -2.296875q-0.671875 -0.78125 -1.625 -0.78125q-0.9375 0 -1.59375 0.765625q-0.65625 0.765625 -0.65625 2.265625zm13.6640625 1.625l1.453125 0.171875q-0.34375 1.28125 -1.28125 1.984375q-0.921875 0.703125 -2.359375 0.703125q-1.828125 0 -2.890625 -1.125q-1.0625 -1.125 -1.0625 -3.140625q0 -2.09375 1.078125 -3.25q1.078125 -1.15625 2.796875 -1.15625q1.65625 0 2.703125 1.140625q1.0625 1.125 1.0625 3.171875q0 0.125 0 0.375l-6.1875 0q0.078125 1.375 0.765625 2.109375q0.703125 0.71875 1.734375 0.71875q0.78125 0 1.328125 -0.40625q0.546875 -0.40625 0.859375 -1.296875zm-4.609375 -2.28125l4.625 0q-0.09375 -1.046875 -0.53125 -1.5625q-0.671875 -0.8125 -1.734375 -0.8125q-0.96875 0 -1.640625 0.65625q-0.65625 0.640625 -0.71875 1.71875zm7.2734375 2.46875l1.390625 -0.21875q0.109375 0.84375 0.640625 1.296875q0.546875 0.4375 1.5 0.4375q0.96875 0 1.4375 -0.390625q0.46875 -0.40625 0.46875 -0.9375q0 -0.46875 -0.40625 -0.75q-0.296875 -0.1875 -1.4375 -0.46875q-1.546875 -0.390625 -2.15625 -0.671875q-0.59375 -0.296875 -0.90625 -0.796875q-0.296875 -0.5 -0.296875 -1.109375q0 -0.5625 0.25 -1.03125q0.25 -0.46875 0.6875 -0.78125q0.328125 -0.25 0.890625 -0.40625q0.578125 -0.171875 1.21875 -0.171875q0.984375 0 1.71875 0.28125q0.734375 0.28125 1.078125 0.765625q0.359375 0.46875 0.5 1.28125l-1.375 0.1875q-0.09375 -0.640625 -0.546875 -1.0q-0.453125 -0.359375 -1.265625 -0.359375q-0.96875 0 -1.390625 0.328125q-0.40625 0.3125 -0.40625 0.734375q0 0.28125 0.171875 0.5q0.171875 0.21875 0.53125 0.375q0.21875 0.078125 1.25 0.359375q1.484375 0.390625 2.078125 0.65625q0.59375 0.25 0.921875 0.734375q0.34375 0.484375 0.34375 1.203125q0 0.703125 -0.421875 1.328125q-0.40625 0.609375 -1.1875 0.953125q-0.765625 0.34375 -1.734375 0.34375q-1.625 0 -2.46875 -0.671875q-0.84375 -0.671875 -1.078125 -2.0zm11.625 1.21875l0.203125 1.25q-0.59375 0.125 -1.0625 0.125q-0.765625 0 -1.1875 -0.234375q-0.421875 -0.25 -0.59375 -0.640625q-0.171875 -0.40625 -0.171875 -1.671875l0 -4.765625l-1.03125 0l0 -1.09375l1.03125 0l0 -2.0625l1.40625 -0.84375l0 2.90625l1.40625 0l0 1.09375l-1.40625 0l0 4.84375q0 0.609375 0.0625 0.78125q0.078125 0.171875 0.25 0.28125q0.171875 0.09375 0.484375 0.09375q0.234375 0 0.609375 -0.0625zm7.0546875 -1.40625l1.453125 0.171875q-0.34375 1.28125 -1.28125 1.984375q-0.921875 0.703125 -2.359375 0.703125q-1.828125 0 -2.890625 -1.125q-1.0625 -1.125 -1.0625 -3.140625q0 -2.09375 1.078125 -3.25q1.078125 -1.15625 2.796875 -1.15625q1.65625 0 2.703125 1.140625q1.0625 1.125 1.0625 3.171875q0 0.125 0 0.375l-6.1875 0q0.078125 1.375 0.765625 2.109375q0.703125 0.71875 1.734375 0.71875q0.78125 0 1.328125 -0.40625q0.546875 -0.40625 0.859375 -1.296875zm-4.609375 -2.28125l4.625 0q-0.09375 -1.046875 -0.53125 -1.5625q-0.671875 -0.8125 -1.734375 -0.8125q-0.96875 0 -1.640625 0.65625q-0.65625 0.640625 -0.71875 1.71875zm7.8203125 4.953125l0 -8.296875l1.265625 0l0 1.25q0.484375 -0.875 0.890625 -1.15625q0.40625 -0.28125 0.90625 -0.28125q0.703125 0 1.4375 0.453125l-0.484375 1.296875q-0.515625 -0.296875 -1.03125 -0.296875q-0.453125 0 -0.828125 0.28125q-0.359375 0.265625 -0.515625 0.765625q-0.234375 0.75 -0.234375 1.640625l0 4.34375l-1.40625 0z" fill-rule="nonzero"/></g></svg>