<svg version="1.1" viewBox="0.0 0.0 1232.5301837270342 293.244094488189" fill="none" stroke="none" stroke-linecap="square" stroke-miterlimit="10" xmlns:xlink="http://www.w3.org/1999/xlink" xmlns="http://www.w3.org/2000/svg"><clipPath id="p.0"><path d="m0 0l1232.5302 0l0 293.24408l-1232.5302 0l0 -293.24408z" clip-rule="nonzero"/></clipPath><g clip-path="url(#p.0)"><path fill="#000000" fill-opacity="0.0" d="m0 0l1232.5302 0l0 293.24408l-1232.5302 0z" fill-rule="evenodd"/><path fill="#d9ead3" d="m149.4357 196.66142l0 -157.35434l51.2126 0l0 157.35434z" fill-rule="evenodd"/><path fill="#000000" d="m181.96199 172.25131l0 2.5625l-9.671875 0l0 -2.375l1.375 0q-0.984375 -0.609375 -1.28125 -1.09375q-0.3125 -0.484375 -0.3125 -1.109375q0 -0.875 0.484375 -1.6875l2.234375 0.796875q-0.421875 0.640625 -0.421875 1.203125q0 0.53125 0.296875 0.90625q0.296875 0.375 1.078125 0.59375q0.765625 0.203125 3.234375 0.203125l2.984375 0zm-3.078125 -10.400894l0.421875 -2.546875q1.40625 0.484375 2.140625 1.546875q0.734375 1.0625 0.734375 2.65625q0 2.515625 -1.65625 3.734375q-1.3125 0.953125 -3.328125 0.953125q-2.40625 0 -3.765625 -1.25q-1.359375 -1.265625 -1.359375 -3.1875q0 -2.15625 1.421875 -3.40625q1.421875 -1.25 4.375 -1.1875l0 6.40625q1.140625 -0.03125 1.78125 -0.609375q0.625 -0.59375 0.625 -1.484375q0 -0.59375 -0.328125 -1.0q-0.328125 -0.421875 -1.0625 -0.625zm-2.59375 -0.15625q-1.109375 0.03125 -1.6875 0.578125q-0.578125 0.546875 -0.578125 1.328125q0 0.84375 0.609375 1.390625q0.609375 0.546875 1.65625 0.53125l0 -3.828125zm-4.0 -4.422592l0 -2.359375l1.3125 0q-1.53125 -1.265625 -1.53125 -3.015625q0 -0.9375 0.390625 -1.609375q0.375 -0.6875 1.140625 -1.125q-0.765625 -0.640625 -1.140625 -1.375q-0.390625 -0.75 -0.390625 -1.578125q0 -1.0625 0.4375 -1.796875q0.421875 -0.75 1.265625 -1.109375q0.625 -0.265625 2.0 -0.265625l6.1875 0l0 2.5625l-5.53125 0q-1.4375 0 -1.859375 0.265625q-0.546875 0.34375 -0.546875 1.09375q0 0.53125 0.328125 1.015625q0.328125 0.46875 0.96875 0.671875q0.625 0.203125 2.0 0.203125l4.640625 0l0 2.5625l-5.296875 0q-1.421875 0 -1.828125 0.140625q-0.40625 0.140625 -0.609375 0.421875q-0.203125 0.28125 -0.203125 0.78125q0 0.59375 0.328125 1.0625q0.3125 0.46875 0.921875 0.6875q0.59375 0.203125 1.984375 0.203125l4.703125 0l0 2.5625l-9.671875 0zm4.703125 -16.19777q-1.28125 0 -2.46875 -0.625q-1.203125 -0.625 -1.828125 -1.78125q-0.625 -1.15625 -0.625 -2.578125q0 -2.1875 1.421875 -3.59375q1.421875 -1.40625 3.609375 -1.40625q2.1875 0 3.640625 1.421875q1.4375 1.421875 1.4375 3.5625q0 1.328125 -0.59375 2.546875q-0.609375 1.203125 -1.765625 1.828125q-1.171875 0.625 -2.828125 0.625zm0.125 -2.625q1.453125 0 2.21875 -0.671875q0.75 -0.6875 0.75 -1.6875q0 -1.0 -0.75 -1.671875q-0.765625 -0.6875 -2.234375 -0.6875q-1.421875 0 -2.1875 0.6875q-0.765625 0.671875 -0.765625 1.671875q0 1.0 0.765625 1.6875q0.765625 0.671875 2.203125 0.671875zm-4.828125 -13.802231l2.03125 0l0 1.75l3.90625 0q1.1875 0 1.390625 -0.046875q0.1875 -0.046875 0.3125 -0.21875q0.125 -0.1875 0.125 -0.4375q0 -0.359375 -0.25 -1.03125l2.0 -0.21875q0.375 0.890625 0.375 2.015625q0 0.703125 -0.234375 1.265625q-0.234375 0.546875 -0.59375 0.8125q-0.375 0.25 -1.0 0.34375q-0.453125 0.09375 -1.8125 0.09375l-4.21875 0l0 1.171875l-2.03125 0l0 -1.171875l-1.921875 0l-1.5 -2.578125l3.421875 0l0 -1.75zm6.59375 -7.368927l0.421875 -2.546875q1.40625 0.484375 2.140625 1.546875q0.734375 1.0625 0.734375 2.65625q0 2.515625 -1.65625 3.734375q-1.3125 0.953125 -3.328125 0.953125q-2.40625 0 -3.765625 -1.25q-1.359375 -1.265625 -1.359375 -3.1875q0 -2.15625 1.421875 -3.40625q1.421875 -1.25 4.375 -1.1875l0 6.40625q1.140625 -0.03125 1.78125 -0.609375q0.625 -0.59375 0.625 -1.484375q0 -0.59375 -0.328125 -1.0q-0.328125 -0.421875 -1.0625 -0.625zm-2.59375 -0.15625q-1.109375 0.03125 -1.6875 0.578125q-0.578125 0.546875 -0.578125 1.328125q0 0.84375 0.609375 1.390625q0.609375 0.546875 1.65625 0.53125l0 -3.828125zm9.359375 -3.1100922l-1.65625 0l0 -10.640625l1.65625 0l0 10.640625zm-3.6875 -13.688217l-9.671875 3.0625l0 -2.484375l6.34375 -1.8125l-6.34375 -1.671875l0 -2.46875l6.34375 -1.609375l-6.34375 -1.859375l0 -2.515625l9.671875 3.109375l0 2.453125l-6.21875 1.671875l6.21875 1.640625l0 2.484375zm0 -15.167679l0 2.5625l-9.671875 0l0 -2.375l1.375 0q-0.984375 -0.609375 -1.28125 -1.09375q-0.3125 -0.484375 -0.3125 -1.109375q0 -0.875 0.484375 -1.6875l2.234375 0.796875q-0.421875 0.640625 -0.421875 1.203125q0 0.53125 0.296875 0.90625q0.296875 0.375 1.078125 0.59375q0.765625 0.203125 3.234375 0.203125l2.984375 0zm-10.984375 -4.807144l-2.375 0l0 -2.5625l2.375 0l0 2.5625zm10.984375 0l-9.671875 0l0 -2.5625l9.671875 0l0 2.5625zm-9.671875 -9.620804l2.03125 0l0 1.75l3.90625 0q1.1875 0 1.390625 -0.046875q0.1875 -0.046875 0.3125 -0.21875q0.125 -0.1875 0.125 -0.4375q0 -0.359375 -0.25 -1.03125l2.0 -0.21875q0.375 0.890625 0.375 2.015625q0 0.703125 -0.234375 1.265625q-0.234375 0.546875 -0.59375 0.8125q-0.375 0.25 -1.0 0.34375q-0.453125 0.09375 -1.8125 0.09375l-4.21875 0l0 1.171875l-2.03125 0l0 -1.171875l-1.921875 0l-1.5 -2.578125l3.421875 0l0 -1.75zm6.59375 -7.368931l0.421875 -2.546875q1.40625 0.484375 2.140625 1.546875q0.734375 1.0625 0.734375 2.6562462q0 2.515625 -1.65625 3.7343826q-1.3125 0.953125 -3.328125 0.953125q-2.40625 0 -3.765625 -1.2500076q-1.359375 -1.265625 -1.359375 -3.1875q0 -2.1562462 1.421875 -3.4062462q1.421875 -1.25 4.375 -1.1875l0 6.406246q1.140625 -0.03125 1.78125 -0.609375q0.625 -0.59375 0.625 -1.484375q0 -0.59375 -0.328125 -0.9999962q-0.328125 -0.421875 -1.0625 -0.625zm-2.59375 -0.15625q-1.109375 0.03125 -1.6875 0.578125q-0.578125 0.5468712 -0.578125 1.3281212q0 0.84375 0.609375 1.390625q0.609375 0.546875 1.65625 0.53125l0 -3.8281212z" fill-rule="nonzero"/><path fill="#fff2cc" d="m13.71916 143.42284l0 0c0 -7.1871033 5.82629 -13.013382 13.013384 -13.013382l77.65827 0c3.4513626 0 6.761368 1.371048 9.201851 3.8115234c2.440483 2.4404907 3.811531 5.7504883 3.811531 9.2018585l0 52.05197c0 7.187088 -5.8262863 13.013382 -13.013382 13.013382l-77.65827 0l0 0c-7.1870937 0 -13.013384 -5.826294 -13.013384 -13.013382z" fill-rule="evenodd"/><path stroke="#000000" stroke-width="1.0" stroke-linejoin="round" stroke-linecap="butt" d="m13.71916 143.42284l0 0c0 -7.1871033 5.82629 -13.013382 13.013384 -13.013382l77.65827 0c3.4513626 0 6.761368 1.371048 9.201851 3.8115234c2.440483 2.4404907 3.811531 5.7504883 3.811531 9.2018585l0 52.05197c0 7.187088 -5.8262863 13.013382 -13.013382 13.013382l-77.65827 0l0 0c-7.1870937 0 -13.013384 -5.826294 -13.013384 -13.013382z" fill-rule="evenodd"/><path fill="#000000" d="m37.264805 178.49632l0 -11.484375l1.28125 0l0 1.078125q0.453125 -0.640625 1.015625 -0.953125q0.578125 -0.3125 1.390625 -0.3125q1.0625 0 1.875 0.546875q0.8125 0.546875 1.21875 1.546875q0.421875 0.984375 0.421875 2.171875q0 1.28125 -0.46875 2.296875q-0.453125 1.015625 -1.328125 1.5625q-0.859375 0.546875 -1.828125 0.546875q-0.703125 0 -1.265625 -0.296875q-0.546875 -0.296875 -0.90625 -0.75l0 4.046875l-1.40625 0zm1.265625 -7.296875q0 1.609375 0.640625 2.375q0.65625 0.765625 1.578125 0.765625q0.9375 0 1.609375 -0.796875q0.671875 -0.796875 0.671875 -2.453125q0 -1.59375 -0.65625 -2.375q-0.65625 -0.796875 -1.5625 -0.796875q-0.890625 0 -1.59375 0.84375q-0.6875 0.84375 -0.6875 2.4375zm13.0390625 3.078125q-0.78125 0.671875 -1.5 0.953125q-0.71875 0.265625 -1.546875 0.265625q-1.375 0 -2.109375 -0.671875q-0.734375 -0.671875 -0.734375 -1.703125q0 -0.609375 0.28125 -1.109375q0.28125 -0.515625 0.71875 -0.8125q0.453125 -0.3125 1.015625 -0.46875q0.421875 -0.109375 1.25 -0.203125q1.703125 -0.203125 2.515625 -0.484375q0 -0.296875 0 -0.375q0 -0.859375 -0.390625 -1.203125q-0.546875 -0.484375 -1.609375 -0.484375q-0.984375 0 -1.46875 0.359375q-0.46875 0.34375 -0.6875 1.21875l-1.375 -0.1875q0.1875 -0.875 0.609375 -1.421875q0.4375 -0.546875 1.25 -0.828125q0.8125 -0.296875 1.875 -0.296875q1.0625 0 1.71875 0.25q0.671875 0.25 0.984375 0.625q0.3125 0.375 0.4375 0.953125q0.078125 0.359375 0.078125 1.296875l0 1.875q0 1.96875 0.078125 2.484375q0.09375 0.515625 0.359375 1.0l-1.46875 0q-0.21875 -0.4375 -0.28125 -1.03125zm-0.109375 -3.140625q-0.765625 0.3125 -2.296875 0.53125q-0.875 0.125 -1.234375 0.28125q-0.359375 0.15625 -0.5625 0.46875q-0.1875 0.296875 -0.1875 0.65625q0 0.5625 0.421875 0.9375q0.4375 0.375 1.25 0.375q0.8125 0 1.4375 -0.34375q0.640625 -0.359375 0.9375 -0.984375q0.234375 -0.46875 0.234375 -1.40625l0 -0.515625zm3.6015625 4.171875l0 -8.296875l1.265625 0l0 1.171875q0.90625 -1.359375 2.640625 -1.359375q0.75 0 1.375 0.265625q0.625 0.265625 0.9375 0.703125q0.3125 0.4375 0.4375 1.046875q0.078125 0.390625 0.078125 1.359375l0 5.109375l-1.40625 0l0 -5.046875q0 -0.859375 -0.171875 -1.28125q-0.15625 -0.4375 -0.578125 -0.6875q-0.40625 -0.25 -0.96875 -0.25q-0.90625 0 -1.5625 0.578125q-0.640625 0.5625 -0.640625 2.15625l0 4.53125l-1.40625 0zm14.273434 0l0 -1.046875q-0.78125 1.234375 -2.3125 1.234375q-1.0 0 -1.828125 -0.546875q-0.828125 -0.546875 -1.2968712 -1.53125q-0.453125 -0.984375 -0.453125 -2.25q0 -1.25 0.40625 -2.25q0.4218712 -1.015625 1.2499962 -1.546875q0.828125 -0.546875 1.859375 -0.546875q0.75 0 1.328125 0.3125q0.59375 0.3125 0.953125 0.828125l0 -4.109375l1.40625 0l0 11.453125l-1.3125 0zm-4.4375 -4.140625q0 1.59375 0.671875 2.390625q0.671875 0.78125 1.578125 0.78125q0.921875 0 1.5625 -0.75q0.65625 -0.765625 0.65625 -2.3125q0 -1.703125 -0.65625 -2.5q-0.65625 -0.796875 -1.625 -0.796875q-0.9375 0 -1.5625 0.765625q-0.625 0.765625 -0.625 2.421875zm7.4296875 -0.015625q0 -2.296875 1.28125 -3.40625q1.078125 -0.921875 2.609375 -0.921875q1.71875 0 2.796875 1.125q1.09375 1.109375 1.09375 3.09375q0 1.59375 -0.484375 2.515625q-0.484375 0.921875 -1.40625 1.4375q-0.90625 0.5 -2.0 0.5q-1.734375 0 -2.8125 -1.109375q-1.078125 -1.125 -1.078125 -3.234375zm1.453125 0q0 1.59375 0.6875 2.390625q0.703125 0.796875 1.75 0.796875q1.046875 0 1.734375 -0.796875q0.703125 -0.796875 0.703125 -2.4375q0 -1.53125 -0.703125 -2.328125q-0.6875 -0.796875 -1.734375 -0.796875q-1.046875 0 -1.75 0.796875q-0.6875 0.78125 -0.6875 2.375zm7.9609375 4.15625l0 -8.296875l1.265625 0l0 1.25q0.484375 -0.875 0.890625 -1.15625q0.40625 -0.28125 0.90625 -0.28125q0.703125 0 1.4375 0.453125l-0.484375 1.296875q-0.515625 -0.296875 -1.03125 -0.296875q-0.453125 0 -0.828125 0.28125q-0.359375 0.265625 -0.515625 0.765625q-0.234375 0.75 -0.234375 1.640625l0 4.34375l-1.40625 0zm10.75 -1.03125q-0.78125 0.671875 -1.5 0.953125q-0.71875 0.265625 -1.546875 0.265625q-1.375 0 -2.109375 -0.671875q-0.734375 -0.671875 -0.734375 -1.703125q0 -0.609375 0.28125 -1.109375q0.28125 -0.515625 0.71875 -0.8125q0.453125 -0.3125 1.015625 -0.46875q0.421875 -0.109375 1.25 -0.203125q1.703125 -0.203125 2.515625 -0.484375q0 -0.296875 0 -0.375q0 -0.859375 -0.390625 -1.203125q-0.546875 -0.484375 -1.609375 -0.484375q-0.984375 0 -1.46875 0.359375q-0.46875 0.34375 -0.6875 1.21875l-1.375 -0.1875q0.1875 -0.875 0.609375 -1.421875q0.4375 -0.546875 1.25 -0.828125q0.8125 -0.296875 1.875 -0.296875q1.0625 0 1.71875 0.25q0.671875 0.25 0.984375 0.625q0.3125 0.375 0.4375 0.953125q0.078125 0.359375 0.078125 1.296875l0 1.875q0 1.96875 0.078125 2.484375q0.09375 0.515625 0.359375 1.0l-1.46875 0q-0.21875 -0.4375 -0.28125 -1.03125zm-0.109375 -3.140625q-0.765625 0.3125 -2.296875 0.53125q-0.875 0.125 -1.234375 0.28125q-0.359375 0.15625 -0.5625 0.46875q-0.1875 0.296875 -0.1875 0.65625q0 0.5625 0.421875 0.9375q0.4375 0.375 1.25 0.375q0.8125 0 1.4375 -0.34375q0.640625 -0.359375 0.9375 -0.984375q0.234375 -0.46875 0.234375 -1.40625l0 -0.515625z" fill-rule="nonzero"/><path fill="#cfe2f3" d="m379.61145 165.59055l24.440948 -97.76377l91.49606 0l24.440918 97.76377z" fill-rule="evenodd"/><path stroke="#000000" stroke-width="1.0" stroke-linejoin="round" stroke-linecap="butt" d="m379.61145 165.59055l24.440948 -97.76377l91.49606 0l24.440918 97.76377z" fill-rule="evenodd"/><path fill="#000000" d="m431.74182 128.24248l0 -11.453117l1.40625 0l0 6.53125l3.328125 -3.375l1.828125 0l-3.171875 3.078125l3.484375 5.2187424l-1.734375 0l-2.734375 -4.2499924l-1.0 0.953125l0 3.2968674l-1.40625 0zm13.40625 -1.0312424q-0.78125 0.671875 -1.5 0.9531174q-0.71875 0.265625 -1.546875 0.265625q-1.375 0 -2.109375 -0.6718674q-0.734375 -0.671875 -0.734375 -1.703125q0 -0.609375 0.28125 -1.109375q0.28125 -0.515625 0.71875 -0.8125q0.453125 -0.3125 1.015625 -0.46875q0.421875 -0.109375 1.25 -0.203125q1.703125 -0.203125 2.515625 -0.484375q0 -0.296875 0 -0.375q0 -0.859375 -0.390625 -1.203125q-0.546875 -0.484375 -1.609375 -0.484375q-0.984375 0 -1.46875 0.359375q-0.46875 0.34375 -0.6875 1.21875l-1.375 -0.1875q0.1875 -0.875 0.609375 -1.421875q0.4375 -0.546875 1.25 -0.828125q0.8125 -0.296875 1.875 -0.296875q1.0625 0 1.71875 0.25q0.671875 0.25 0.984375 0.625q0.3125 0.375 0.4375 0.953125q0.078125 0.359375 0.078125 1.296875l0 1.875q0 1.96875 0.078125 2.484375q0.09375 0.515625 0.359375 0.9999924l-1.46875 0q-0.21875 -0.43749237 -0.28125 -1.0312424zm-0.109375 -3.140625q-0.765625 0.3125 -2.296875 0.53125q-0.875 0.125 -1.234375 0.28125q-0.359375 0.15625 -0.5625 0.46875q-0.1875 0.296875 -0.1875 0.65625q0 0.5625 0.421875 0.9375q0.4375 0.375 1.25 0.375q0.8125 0 1.4375 -0.34375q0.640625 -0.359375 0.9375 -0.984375q0.234375 -0.46875 0.234375 -1.40625l0 -0.515625zm3.9296875 4.1718674l0 -7.2031174l-1.234375 0l0 -1.09375l1.234375 0l0 -0.890625q0 -0.828125 0.15625 -1.234375q0.203125 -0.546875 0.703125 -0.890625q0.515625 -0.34375 1.4375 -0.34375q0.59375 0 1.3125 0.140625l-0.203125 1.234375q-0.4375 -0.078125 -0.828125 -0.078125q-0.640625 0 -0.90625 0.28125q-0.265625 0.265625 -0.265625 1.015625l0 0.765625l1.609375 0l0 1.09375l-1.609375 0l0 7.2031174l-1.40625 0zm4.1171875 0l0 -11.453117l1.40625 0l0 6.53125l3.328125 -3.375l1.828125 0l-3.171875 3.078125l3.484375 5.2187424l-1.734375 0l-2.734375 -4.2499924l-1.0 0.953125l0 3.2968674l-1.40625 0zm13.40625 -1.0312424q-0.78125 0.671875 -1.5 0.9531174q-0.71875 0.265625 -1.546875 0.265625q-1.375 0 -2.109375 -0.6718674q-0.734375 -0.671875 -0.734375 -1.703125q0 -0.609375 0.28125 -1.109375q0.28125 -0.515625 0.71875 -0.8125q0.453125 -0.3125 1.015625 -0.46875q0.421875 -0.109375 1.25 -0.203125q1.703125 -0.203125 2.515625 -0.484375q0 -0.296875 0 -0.375q0 -0.859375 -0.390625 -1.203125q-0.546875 -0.484375 -1.609375 -0.484375q-0.984375 0 -1.46875 0.359375q-0.46875 0.34375 -0.6875 1.21875l-1.375 -0.1875q0.1875 -0.875 0.609375 -1.421875q0.4375 -0.546875 1.25 -0.828125q0.8125 -0.296875 1.875 -0.296875q1.0625 0 1.71875 0.25q0.671875 0.25 0.984375 0.625q0.3125 0.375 0.4375 0.953125q0.078125 0.359375 0.078125 1.296875l0 1.875q0 1.96875 0.078125 2.484375q0.09375 0.515625 0.359375 0.9999924l-1.46875 0q-0.21875 -0.43749237 -0.28125 -1.0312424zm-0.109375 -3.140625q-0.765625 0.3125 -2.296875 0.53125q-0.875 0.125 -1.234375 0.28125q-0.359375 0.15625 -0.5625 0.46875q-0.1875 0.296875 -0.1875 0.65625q0 0.5625 0.421875 0.9375q0.4375 0.375 1.25 0.375q0.8125 0 1.4375 -0.34375q0.640625 -0.359375 0.9375 -0.984375q0.234375 -0.46875 0.234375 -1.40625l0 -0.515625z" fill-rule="nonzero"/><path fill="#d9ead3" d="m474.8924 191.40923l0 0c0 -4.714096 3.8215027 -8.535614 8.5355835 -8.535614l101.95245 0c2.263733 0 4.4348145 0.899292 6.0355835 2.5000305c1.600708 1.6007233 2.5 3.7717896 2.5 6.0355835l0 34.141388c0 4.714081 -3.8215332 8.535599 -8.5355835 8.535599l-101.95245 0c-4.714081 0 -8.5355835 -3.821518 -8.5355835 -8.535599z" fill-rule="evenodd"/><path stroke="#000000" stroke-width="1.0" stroke-linejoin="round" stroke-linecap="butt" d="m474.8924 191.40923l0 0c0 -4.714096 3.8215027 -8.535614 8.5355835 -8.535614l101.95245 0c2.263733 0 4.4348145 0.899292 6.0355835 2.5000305c1.600708 1.6007233 2.5 3.7717896 2.5 6.0355835l0 34.141388c0 4.714081 -3.8215332 8.535599 -8.5355835 8.535599l-101.95245 0c-4.714081 0 -8.5355835 -3.821518 -8.5355835 -8.535599z" fill-rule="evenodd"/><path fill="#000000" d="m505.84952 204.83992l0 -11.453125l3.953125 0q1.328125 0 2.03125 0.15625q0.9843445 0.234375 1.6874695 0.828125q0.90625 0.765625 1.34375 1.953125q0.453125 1.1875 0.453125 2.71875q0 1.3125 -0.3125 2.328125q-0.296875 1.0 -0.78125 1.65625q-0.46875 0.65625 -1.03125 1.046875q-0.5625 0.375 -1.3749695 0.578125q-0.796875 0.1875 -1.828125 0.1875l-4.140625 0zm1.515625 -1.359375l2.453125 0q1.125 0 1.765625 -0.203125q0.6562195 -0.21875 1.0312195 -0.59375q0.546875 -0.546875 0.84375 -1.453125q0.296875 -0.90625 0.296875 -2.203125q0 -1.796875 -0.59375 -2.765625q-0.578125 -0.96875 -1.4218445 -1.296875q-0.609375 -0.234375 -1.96875 -0.234375l-2.40625 0l0 8.75zm9.867157 -8.484375l0 -1.609375l1.40625 0l0 1.609375l-1.40625 0zm0 9.84375l0 -8.296875l1.40625 0l0 8.296875l-1.40625 0zm3.2890625 0.6875l1.375 0.203125q0.078125 0.640625 0.46875 0.921875q0.53125 0.390625 1.4375 0.390625q0.96875 0 1.5 -0.390625q0.53125 -0.390625 0.71875 -1.09375q0.109375 -0.421875 0.109375 -1.8125q-0.921875 1.09375 -2.296875 1.09375q-1.71875 0 -2.65625 -1.234375q-0.9375 -1.234375 -0.9375 -2.96875q0 -1.1875 0.421875 -2.1875q0.4375 -1.0 1.25 -1.546875q0.828125 -0.546875 1.921875 -0.546875q1.46875 0 2.421875 1.1875l0 -1.0l1.296875 0l0 7.171875q0 1.9375 -0.390625 2.75q-0.390625 0.8125 -1.25 1.28125q-0.859375 0.46875 -2.109375 0.46875q-1.484375 0 -2.40625 -0.671875q-0.90625 -0.671875 -0.875 -2.015625zm1.171875 -4.984375q0 1.625 0.640625 2.375q0.65625 0.75 1.625 0.75q0.96875 0 1.625 -0.734375q0.65625 -0.75 0.65625 -2.34375q0 -1.53125 -0.671875 -2.296875q-0.671875 -0.78125 -1.625 -0.78125q-0.9375 0 -1.59375 0.765625q-0.65625 0.765625 -0.65625 2.265625zm13.6640625 1.625l1.453125 0.171875q-0.34375 1.28125 -1.28125 1.984375q-0.921875 0.703125 -2.359375 0.703125q-1.828125 0 -2.890625 -1.125q-1.0625 -1.125 -1.0625 -3.140625q0 -2.09375 1.078125 -3.25q1.078125 -1.15625 2.796875 -1.15625q1.65625 0 2.703125 1.140625q1.0625 1.125 1.0625 3.171875q0 0.125 0 0.375l-6.1875 0q0.078125 1.375 0.765625 2.109375q0.703125 0.71875 1.734375 0.71875q0.78125 0 1.328125 -0.40625q0.546875 -0.40625 0.859375 -1.296875zm-4.609375 -2.28125l4.625 0q-0.09375 -1.046875 -0.53125 -1.5625q-0.671875 -0.8125 -1.734375 -0.8125q-0.96875 0 -1.640625 0.65625q-0.65625 0.640625 -0.71875 1.71875zm7.2734375 2.46875l1.390625 -0.21875q0.109375 0.84375 0.640625 1.296875q0.546875 0.4375 1.5 0.4375q0.96875 0 1.4375 -0.390625q0.46875 -0.40625 0.46875 -0.9375q0 -0.46875 -0.40625 -0.75q-0.296875 -0.1875 -1.4375 -0.46875q-1.546875 -0.390625 -2.15625 -0.671875q-0.59375 -0.296875 -0.90625 -0.796875q-0.296875 -0.5 -0.296875 -1.109375q0 -0.5625 0.25 -1.03125q0.25 -0.46875 0.6875 -0.78125q0.328125 -0.25 0.890625 -0.40625q0.578125 -0.171875 1.21875 -0.171875q0.984375 0 1.71875 0.28125q0.734375 0.28125 1.078125 0.765625q0.359375 0.46875 0.5 1.28125l-1.375 0.1875q-0.09375 -0.640625 -0.546875 -1.0q-0.453125 -0.359375 -1.265625 -0.359375q-0.96875 0 -1.390625 0.328125q-0.40625 0.3125 -0.40625 0.734375q0 0.28125 0.171875 0.5q0.171875 0.21875 0.53125 0.375q0.21875 0.078125 1.25 0.359375q1.484375 0.390625 2.078125 0.65625q0.59375 0.25 0.921875 0.734375q0.34375 0.484375 0.34375 1.203125q0 0.703125 -0.421875 1.328125q-0.40625 0.609375 -1.1875 0.953125q-0.765625 0.34375 -1.734375 0.34375q-1.625 0 -2.46875 -0.671875q-0.84375 -0.671875 -1.078125 -2.0zm11.625 1.21875l0.203125 1.25q-0.59375 0.125 -1.0625 0.125q-0.765625 0 -1.1875 -0.234375q-0.421875 -0.25 -0.59375 -0.640625q-0.171875 -0.40625 -0.171875 -1.671875l0 -4.765625l-1.03125 0l0 -1.09375l1.03125 0l0 -2.0625l1.40625 -0.84375l0 2.90625l1.40625 0l0 1.09375l-1.40625 0l0 4.84375q0 0.609375 0.0625 0.78125q0.078125 0.171875 0.25 0.28125q0.171875 0.09375 0.484375 0.09375q0.234375 0 0.609375 -0.0625zm7.0546875 -1.40625l1.453125 0.171875q-0.34375 1.28125 -1.28125 1.984375q-0.921875 0.703125 -2.359375 0.703125q-1.828125 0 -2.890625 -1.125q-1.0625 -1.125 -1.0625 -3.140625q0 -2.09375 1.078125 -3.25q1.078125 -1.15625 2.796875 -1.15625q1.65625 0 2.703125 1.140625q1.0625 1.125 1.0625 3.171875q0 0.125 0 0.375l-6.1875 0q0.078125 1.375 0.765625 2.109375q0.703125 0.71875 1.734375 0.71875q0.78125 0 1.328125 -0.40625q0.546875 -0.40625 0.859375 -1.296875zm-4.609375 -2.28125l4.625 0q-0.09375 -1.046875 -0.53125 -1.5625q-0.671875 -0.8125 -1.734375 -0.8125q-0.96875 0 -1.640625 0.65625q-0.65625 0.640625 -0.71875 1.71875zm7.8203125 4.953125l0 -8.296875l1.265625 0l0 1.25q0.484375 -0.875 0.890625 -1.15625q0.40625 -0.28125 0.90625 -0.28125q0.703125 0 1.4375 0.453125l-0.484375 1.296875q-0.515625 -0.296875 -1.03125 -0.296875q-0.453125 0 -0.828125 0.28125q-0.359375 0.265625 -0.515625 0.765625q-0.234375 0.75 -0.234375 1.640625l0 4.34375l-1.40625 0z" fill-rule="nonzero"/><path fill="#000000" d="m519.4901 227.21492q-1.171875 -1.46875 -1.984375 -3.4375q-0.796875 -1.984375 -0.796875 -4.09375q0 -1.859375 0.609375 -3.5625q0.703125 -1.96875 2.171875 -3.9375l1.0 0q-0.9375 1.625 -1.25 2.328125q-0.46875 1.078125 -0.75 2.25q-0.328125 1.453125 -0.328125 2.9375q0 3.75 2.328125 7.515625l-1.0 0zm2.625 -3.375l0 -8.296875l1.265625 0l0 1.25q0.484375 -0.875 0.890625 -1.15625q0.40625 -0.28125 0.90625 -0.28125q0.703125 0 1.4375 0.453125l-0.484375 1.296875q-0.515625 -0.296875 -1.03125 -0.296875q-0.453125 0 -0.828125 0.28125q-0.359375 0.265625 -0.515625 0.765625q-0.234375 0.75 -0.234375 1.640625l0 4.34375l-1.40625 0zm10.78125 0l0 -1.21875q-0.96875 1.40625 -2.640625 1.40625q-0.734375 0 -1.375 -0.28125q-0.625 -0.28125 -0.9375 -0.703125q-0.3125 -0.4375 -0.4375 -1.046875q-0.078125 -0.421875 -0.078125 -1.3125l0 -5.140625l1.40625 0l0 4.59375q0 1.109375 0.078125 1.484375q0.140625 0.5625 0.5625 0.875q0.4375 0.3125 1.0625 0.3125q0.640625 0 1.1875 -0.3125q0.5625 -0.328125 0.78125 -0.890625q0.234375 -0.5625 0.234375 -1.625l0 -4.4375l1.40625 0l0 8.296875l-1.25 0zm2.8984375 -2.484375l1.390625 -0.21875q0.109375 0.84375 0.640625 1.296875q0.546875 0.4375 1.5 0.4375q0.96875 0 1.4375 -0.390625q0.46875 -0.40625 0.46875 -0.9375q0 -0.46875 -0.40625 -0.75q-0.296875 -0.1875 -1.4375 -0.46875q-1.546875 -0.390625 -2.15625 -0.671875q-0.59375 -0.296875 -0.90625 -0.796875q-0.296875 -0.5 -0.296875 -1.109375q0 -0.5625 0.25 -1.03125q0.25 -0.46875 0.6875 -0.78125q0.328125 -0.25 0.890625 -0.40625q0.578125 -0.171875 1.21875 -0.171875q0.984375 0 1.71875 0.28125q0.734375 0.28125 1.078125 0.765625q0.359375 0.46875 0.5 1.28125l-1.375 0.1875q-0.09375 -0.640625 -0.546875 -1.0q-0.453125 -0.359375 -1.265625 -0.359375q-0.96875 0 -1.390625 0.328125q-0.40625 0.3125 -0.40625 0.734375q0 0.28125 0.171875 0.5q0.171875 0.21875 0.53125 0.375q0.21875 0.078125 1.25 0.359375q1.484375 0.390625 2.078125 0.65625q0.59375 0.25 0.921875 0.734375q0.34375 0.484375 0.34375 1.203125q0 0.703125 -0.421875 1.328125q-0.40625 0.609375 -1.1875 0.953125q-0.765625 0.34375 -1.734375 0.34375q-1.625 0 -2.46875 -0.671875q-0.84375 -0.671875 -1.078125 -2.0zm11.625 1.21875l0.203125 1.25q-0.59375 0.125 -1.0625 0.125q-0.765625 0 -1.1875 -0.234375q-0.421875 -0.25 -0.59375 -0.640625q-0.171875 -0.40625 -0.171875 -1.671875l0 -4.765625l-1.03125 0l0 -1.09375l1.03125 0l0 -2.0625l1.40625 -0.84375l0 2.90625l1.40625 0l0 1.09375l-1.40625 0l0 4.84375q0 0.609375 0.0625 0.78125q0.078125 0.171875 0.25 0.28125q0.171875 0.09375 0.484375 0.09375q0.234375 0 0.609375 -0.0625zm2.3046875 4.640625l-1.015625 0q2.34375 -3.765625 2.34375 -7.515625q0 -1.46875 -0.34375 -2.921875q-0.265625 -1.171875 -0.734375 -2.25q-0.3125 -0.703125 -1.265625 -2.34375l1.015625 0q1.46875 1.96875 2.171875 3.9375q0.59375 1.703125 0.59375 3.5625q0 2.109375 -0.8125 4.09375q-0.796875 1.96875 -1.953125 3.4375z" fill-rule="nonzero"/><path fill="#000000" fill-opacity="0.0" d="m348.23883 116.70826l43.590576 0" fill-rule="evenodd"/><path stroke="#cc0000" stroke-width="2.0" stroke-linejoin="round" stroke-linecap="butt" d="m348.23883 116.70826l31.590576 0" fill-rule="evenodd"/><path fill="#cc0000" stroke="#cc0000" stroke-width="2.0" stroke-linecap="butt" d="m379.8294 120.01173l9.076172 -3.3034668l-9.076172 -3.3034592z" fill-rule="evenodd"/><path fill="#000000" fill-opacity="0.0" d="m117.4042 169.44882c27.952751 0 41.92913 -13.18898 55.90551 -26.37796c13.976379 -13.188965 27.952759 -26.377945 55.905518 -26.377945" fill-rule="evenodd"/><path stroke="#cc0000" stroke-width="2.0" stroke-linejoin="round" stroke-linecap="butt" d="m117.4042 169.44882c27.952751 0 41.92913 -13.18898 55.90551 -26.37796c6.9881897 -6.5944824 13.976379 -13.188965 22.711624 -18.134842c4.3676147 -2.472931 9.171997 -4.5337067 14.6315155 -5.9762497c1.3648682 -0.36063385 2.7707062 -0.68263245 4.2209015 -0.9627762c0.7250824 -0.14006042 1.4612732 -0.26966095 2.208969 -0.38839722l0.16555786 -0.02558899" fill-rule="evenodd"/><path fill="#cc0000" stroke="#cc0000" stroke-width="2.0" stroke-linecap="butt" d="m217.49332 120.877365l8.806152 -3.9675827l-9.296219 -2.6211472z" fill-rule="evenodd"/><path fill="#000000" fill-opacity="0.0" d="m117.4042 60.929134c27.952751 0 41.92913 13.944881 55.90551 27.889767c13.976379 13.944878 27.952759 27.889763 55.905518 27.889763" fill-rule="evenodd"/><path stroke="#cc0000" stroke-width="2.0" stroke-linejoin="round" stroke-linecap="butt" d="m117.4042 60.929134c27.952751 0 41.92913 13.944881 55.90551 27.889767c6.9881897 6.972435 13.976379 13.944878 22.711624 19.17421c4.3676147 2.6146622 9.171997 4.793556 14.6315155 6.3187714c1.3648682 0.3813095 2.7707062 0.721756 4.2209015 1.017952c0.7250824 0.14809418 1.4612732 0.28512573 2.208969 0.41067505l0.16941833 0.027679443" fill-rule="evenodd"/><path fill="#cc0000" stroke="#cc0000" stroke-width="2.0" stroke-linecap="butt" d="m216.99323 119.06149l9.30719 -2.5819778l-8.789383 -4.004631z" fill-rule="evenodd"/><path fill="#fff2cc" d="m13.71916 34.90315l0 0c0 -7.1870937 5.82629 -13.013386 13.013384 -13.013386l77.65827 0c3.4513626 0 6.761368 1.3710499 9.201851 3.811533c2.440483 2.440483 3.811531 5.7504883 3.811531 9.201853l0 52.051975c0 7.187088 -5.8262863 13.013382 -13.013382 13.013382l-77.65827 0l0 0c-7.1870937 0 -13.013384 -5.826294 -13.013384 -13.013382z" fill-rule="evenodd"/><path stroke="#000000" stroke-width="1.0" stroke-linejoin="round" stroke-linecap="butt" d="m13.71916 34.90315l0 0c0 -7.1870937 5.82629 -13.013386 13.013384 -13.013386l77.65827 0c3.4513626 0 6.761368 1.3710499 9.201851 3.811533c2.440483 2.440483 3.811531 5.7504883 3.811531 9.201853l0 52.051975c0 7.187088 -5.8262863 13.013382 -13.013382 13.013382l-77.65827 0l0 0c-7.1870937 0 -13.013384 -5.826294 -13.013384 -13.013382z" fill-rule="evenodd"/><path fill="#000000" d="m37.264805 69.97663l0 -11.484375l1.28125 0l0 1.078125q0.453125 -0.640625 1.015625 -0.953125q0.578125 -0.3125 1.390625 -0.3125q1.0625 0 1.875 0.546875q0.8125 0.546875 1.21875 1.546875q0.421875 0.984375 0.421875 2.171875q0 1.28125 -0.46875 2.296875q-0.453125 1.015625 -1.328125 1.5625q-0.859375 0.546875 -1.828125 0.546875q-0.703125 0 -1.265625 -0.296875q-0.546875 -0.296875 -0.90625 -0.75l0 4.046875l-1.40625 0zm1.265625 -7.296875q0 1.609375 0.640625 2.375q0.65625 0.765625 1.578125 0.765625q0.9375 0 1.609375 -0.796875q0.671875 -0.796875 0.671875 -2.453125q0 -1.59375 -0.65625 -2.375q-0.65625 -0.796875 -1.5625 -0.796875q-0.890625 0 -1.59375 0.84375q-0.6875 0.84375 -0.6875 2.4375zm13.0390625 3.078125q-0.78125 0.671875 -1.5 0.953125q-0.71875 0.265625 -1.546875 0.265625q-1.375 0 -2.109375 -0.671875q-0.734375 -0.671875 -0.734375 -1.703125q0 -0.609375 0.28125 -1.109375q0.28125 -0.515625 0.71875 -0.8125q0.453125 -0.3125 1.015625 -0.46875q0.421875 -0.109375 1.25 -0.203125q1.703125 -0.203125 2.515625 -0.484375q0 -0.296875 0 -0.375q0 -0.859375 -0.390625 -1.203125q-0.546875 -0.484375 -1.609375 -0.484375q-0.984375 0 -1.46875 0.359375q-0.46875 0.34375 -0.6875 1.21875l-1.375 -0.1875q0.1875 -0.875 0.609375 -1.421875q0.4375 -0.546875 1.25 -0.828125q0.8125 -0.296875 1.875 -0.296875q1.0625 0 1.71875 0.25q0.671875 0.25 0.984375 0.625q0.3125 0.375 0.4375 0.953125q0.078125 0.359375 0.078125 1.296875l0 1.875q0 1.96875 0.078125 2.484375q0.09375 0.515625 0.359375 1.0l-1.46875 0q-0.21875 -0.4375 -0.28125 -1.03125zm-0.109375 -3.140625q-0.765625 0.3125 -2.296875 0.53125q-0.875 0.125 -1.234375 0.28125q-0.359375 0.15625 -0.5625 0.46875q-0.1875 0.296875 -0.1875 0.65625q0 0.5625 0.421875 0.9375q0.4375 0.375 1.25 0.375q0.8125 0 1.4375 -0.34375q0.640625 -0.359375 0.9375 -0.984375q0.234375 -0.46875 0.234375 -1.40625l0 -0.515625zm3.6015625 4.171875l0 -8.296875l1.265625 0l0 1.171875q0.90625 -1.359375 2.640625 -1.359375q0.75 0 1.375 0.265625q0.625 0.265625 0.9375 0.703125q0.3125 0.4375 0.4375 1.046875q0.078125 0.390625 0.078125 1.359375l0 5.109375l-1.40625 0l0 -5.046875q0 -0.859375 -0.171875 -1.28125q-0.15625 -0.4375 -0.578125 -0.6875q-0.40625 -0.25 -0.96875 -0.25q-0.90625 0 -1.5625 0.578125q-0.640625 0.5625 -0.640625 2.15625l0 4.53125l-1.40625 0zm14.273434 0l0 -1.046875q-0.78125 1.234375 -2.3125 1.234375q-1.0 0 -1.828125 -0.546875q-0.828125 -0.546875 -1.2968712 -1.53125q-0.453125 -0.984375 -0.453125 -2.25q0 -1.25 0.40625 -2.25q0.4218712 -1.015625 1.2499962 -1.546875q0.828125 -0.546875 1.859375 -0.546875q0.75 0 1.328125 0.3125q0.59375 0.3125 0.953125 0.828125l0 -4.109375l1.40625 0l0 11.453125l-1.3125 0zm-4.4375 -4.140625q0 1.59375 0.671875 2.390625q0.671875 0.78125 1.578125 0.78125q0.921875 0 1.5625 -0.75q0.65625 -0.765625 0.65625 -2.3125q0 -1.703125 -0.65625 -2.5q-0.65625 -0.796875 -1.625 -0.796875q-0.9375 0 -1.5625 0.765625q-0.625 0.765625 -0.625 2.421875zm7.4296875 -0.015625q0 -2.296875 1.28125 -3.40625q1.078125 -0.921875 2.609375 -0.921875q1.71875 0 2.796875 1.125q1.09375 1.109375 1.09375 3.09375q0 1.59375 -0.484375 2.515625q-0.484375 0.921875 -1.40625 1.4375q-0.90625 0.5 -2.0 0.5q-1.734375 0 -2.8125 -1.109375q-1.078125 -1.125 -1.078125 -3.234375zm1.453125 0q0 1.59375 0.6875 2.390625q0.703125 0.796875 1.75 0.796875q1.046875 0 1.734375 -0.796875q0.703125 -0.796875 0.703125 -2.4375q0 -1.53125 -0.703125 -2.328125q-0.6875 -0.796875 -1.734375 -0.796875q-1.046875 0 -1.75 0.796875q-0.6875 0.78125 -0.6875 2.375zm7.9609375 4.15625l0 -8.296875l1.265625 0l0 1.25q0.484375 -0.875 0.890625 -1.15625q0.40625 -0.28125 0.90625 -0.28125q0.703125 0 1.4375 0.453125l-0.484375 1.296875q-0.515625 -0.296875 -1.03125 -0.296875q-0.453125 0 -0.828125 0.28125q-0.359375 0.265625 -0.515625 0.765625q-0.234375 0.75 -0.234375 1.640625l0 4.34375l-1.40625 0zm10.75 -1.03125q-0.78125 0.671875 -1.5 0.953125q-0.71875 0.265625 -1.546875 0.265625q-1.375 0 -2.109375 -0.671875q-0.734375 -0.671875 -0.734375 -1.703125q0 -0.609375 0.28125 -1.109375q0.28125 -0.515625 0.71875 -0.8125q0.453125 -0.3125 1.015625 -0.46875q0.421875 -0.109375 1.25 -0.203125q1.703125 -0.203125 2.515625 -0.484375q0 -0.296875 0 -0.375q0 -0.859375 -0.390625 -1.203125q-0.546875 -0.484375 -1.609375 -0.484375q-0.984375 0 -1.46875 0.359375q-0.46875 0.34375 -0.6875 1.21875l-1.375 -0.1875q0.1875 -0.875 0.609375 -1.421875q0.4375 -0.546875 1.25 -0.828125q0.8125 -0.296875 1.875 -0.296875q1.0625 0 1.71875 0.25q0.671875 0.25 0.984375 0.625q0.3125 0.375 0.4375 0.953125q0.078125 0.359375 0.078125 1.296875l0 1.875q0 1.96875 0.078125 2.484375q0.09375 0.515625 0.359375 1.0l-1.46875 0q-0.21875 -0.4375 -0.28125 -1.03125zm-0.109375 -3.140625q-0.765625 0.3125 -2.296875 0.53125q-0.875 0.125 -1.234375 0.28125q-0.359375 0.15625 -0.5625 0.46875q-0.1875 0.296875 -0.1875 0.65625q0 0.5625 0.421875 0.9375q0.4375 0.375 1.25 0.375q0.8125 0 1.4375 -0.34375q0.640625 -0.359375 0.9375 -0.984375q0.234375 -0.46875 0.234375 -1.40625l0 -0.515625z" fill-rule="nonzero"/><path fill="#000000" fill-opacity="0.0" d="m449.8004 165.59055c0 21.448822 12.551178 42.897644 25.102356 42.897644" fill-rule="evenodd"/><path stroke="#cc0000" stroke-width="2.0" stroke-linejoin="round" stroke-linecap="butt" d="m449.8004 165.59055c0 10.724411 3.1377869 21.448822 7.8444824 29.492126c1.1766663 2.0108337 2.4513855 3.8540955 3.799652 5.4878845c0.6741333 0.8169098 1.3666687 1.5814209 2.074524 2.2883606c0.08847046 0.08836365 0.17721558 0.17584229 0.2661438 0.26239014l0.26226807 0.25186157" fill-rule="evenodd"/><path fill="#cc0000" stroke="#cc0000" stroke-width="2.0" stroke-linecap="butt" d="m462.6394 206.36151l9.618469 0.8804016l-6.8022766 -6.857071z" fill-rule="evenodd"/><path fill="#000000" fill-opacity="0.0" d="m593.916 208.47992c10.850403 0 21.700806 -22.110245 21.700806 -44.220474" fill-rule="evenodd"/><path stroke="#cc0000" stroke-width="2.0" stroke-linejoin="round" stroke-linecap="butt" d="m593.916 208.4799c5.425171 0 10.850403 -5.5275574 14.919312 -13.818893c2.0344238 -4.1456757 3.7297974 -8.982285 4.916565 -14.164368c0.2966919 -1.2955322 0.5615845 -2.6126404 0.7920532 -3.945938l0.055480957 -0.33447266" fill-rule="evenodd"/><path fill="#cc0000" stroke="#cc0000" stroke-width="2.0" stroke-linecap="butt" d="m617.891 176.4963l-2.5220947 -9.323593l-4.061035 8.763443z" fill-rule="evenodd"/><path fill="#cfe2f3" d="m545.4435 164.25711l24.440918 -97.76378l91.49609 0l24.440918 97.76378z" fill-rule="evenodd"/><path stroke="#000000" stroke-width="1.0" stroke-linejoin="round" stroke-linecap="butt" d="m545.4435 164.25711l24.440918 -97.76378l91.49609 0l24.440918 97.76378z" fill-rule="evenodd"/><path fill="#000000" d="m597.57385 126.90905l0 -11.453125l1.40625 0l0 6.53125l3.328125 -3.375l1.828125 0l-3.171875 3.078125l3.484375 5.21875l-1.734375 0l-2.734375 -4.25l-1.0 0.953125l0 3.296875l-1.40625 0zm13.40625 -1.03125q-0.78125 0.671875 -1.5 0.953125q-0.71875 0.265625 -1.546875 0.265625q-1.375 0 -2.109375 -0.671875q-0.734375 -0.671875 -0.734375 -1.703125q0 -0.609375 0.28125 -1.109375q0.28125 -0.515625 0.71875 -0.8125q0.453125 -0.3125 1.015625 -0.46875q0.421875 -0.109375 1.25 -0.203125q1.703125 -0.203125 2.515625 -0.484375q0 -0.296875 0 -0.375q0 -0.859375 -0.390625 -1.203125q-0.546875 -0.484375 -1.609375 -0.484375q-0.984375 0 -1.46875 0.359375q-0.46875 0.34375 -0.6875 1.21875l-1.375 -0.1875q0.1875 -0.875 0.609375 -1.421875q0.4375 -0.546875 1.25 -0.828125q0.8125 -0.296875 1.875 -0.296875q1.0625 0 1.71875 0.25q0.671875 0.25 0.984375 0.625q0.3125 0.375 0.4375 0.953125q0.078125 0.359375 0.078125 1.296875l0 1.875q0 1.96875 0.078125 2.484375q0.09375 0.515625 0.359375 1.0l-1.46875 0q-0.21875 -0.4375 -0.28125 -1.03125zm-0.109375 -3.140625q-0.765625 0.3125 -2.296875 0.53125q-0.875 0.125 -1.234375 0.28125q-0.359375 0.15625 -0.5625 0.46875q-0.1875 0.296875 -0.1875 0.65625q0 0.5625 0.421875 0.9375q0.4375 0.375 1.25 0.375q0.8125 0 1.4375 -0.34375q0.640625 -0.359375 0.9375 -0.984375q0.234375 -0.46875 0.234375 -1.40625l0 -0.515625zm3.9296875 4.171875l0 -7.203125l-1.234375 0l0 -1.09375l1.234375 0l0 -0.890625q0 -0.828125 0.15625 -1.234375q0.203125 -0.546875 0.703125 -0.890625q0.515625 -0.34375 1.4375 -0.34375q0.59375 0 1.3125 0.140625l-0.203125 1.234375q-0.4375 -0.078125 -0.828125 -0.078125q-0.640625 0 -0.90625 0.28125q-0.265625 0.265625 -0.265625 1.015625l0 0.765625l1.609375 0l0 1.09375l-1.609375 0l0 7.203125l-1.40625 0zm4.1171875 0l0 -11.453125l1.40625 0l0 6.53125l3.328125 -3.375l1.828125 0l-3.171875 3.078125l3.484375 5.21875l-1.734375 0l-2.734375 -4.25l-1.0 0.953125l0 3.296875l-1.40625 0zm13.40625 -1.03125q-0.78125 0.671875 -1.5 0.953125q-0.71875 0.265625 -1.546875 0.265625q-1.375 0 -2.109375 -0.671875q-0.734375 -0.671875 -0.734375 -1.703125q0 -0.609375 0.28125 -1.109375q0.28125 -0.515625 0.71875 -0.8125q0.453125 -0.3125 1.015625 -0.46875q0.421875 -0.109375 1.25 -0.203125q1.703125 -0.203125 2.515625 -0.484375q0 -0.296875 0 -0.375q0 -0.859375 -0.390625 -1.203125q-0.546875 -0.484375 -1.609375 -0.484375q-0.984375 0 -1.46875 0.359375q-0.46875 0.34375 -0.6875 1.21875l-1.375 -0.1875q0.1875 -0.875 0.609375 -1.421875q0.4375 -0.546875 1.25 -0.828125q0.8125 -0.296875 1.875 -0.296875q1.0625 0 1.71875 0.25q0.671875 0.25 0.984375 0.625q0.3125 0.375 0.4375 0.953125q0.078125 0.359375 0.078125 1.296875l0 1.875q0 1.96875 0.078125 2.484375q0.09375 0.515625 0.359375 1.0l-1.46875 0q-0.21875 -0.4375 -0.28125 -1.03125zm-0.109375 -3.140625q-0.765625 0.3125 -2.296875 0.53125q-0.875 0.125 -1.234375 0.28125q-0.359375 0.15625 -0.5625 0.46875q-0.1875 0.296875 -0.1875 0.65625q0 0.5625 0.421875 0.9375q0.4375 0.375 1.25 0.375q0.8125 0 1.4375 -0.34375q0.640625 -0.359375 0.9375 -0.984375q0.234375 -0.46875 0.234375 -1.40625l0 -0.515625z" fill-rule="nonzero"/><path fill="#d9ead3" d="m229.21523 99.637566l0 0c0 -4.714081 3.821518 -8.535606 8.535599 -8.535606l101.95242 0c2.2637634 0 4.434845 0.89928436 6.0355835 2.500023c1.6007385 1.6007385 2.5 3.7717972 2.5 6.0355835l0 34.141396c0 4.714081 -3.8215027 8.535599 -8.5355835 8.535599l-101.95242 0c-4.714081 0 -8.535599 -3.821518 -8.535599 -8.535599z" fill-rule="evenodd"/><path stroke="#000000" stroke-width="1.0" stroke-linejoin="round" stroke-linecap="butt" d="m229.21523 99.637566l0 0c0 -4.714081 3.821518 -8.535606 8.535599 -8.535606l101.95242 0c2.2637634 0 4.434845 0.89928436 6.0355835 2.500023c1.6007385 1.6007385 2.5 3.7717972 2.5 6.0355835l0 34.141396c0 4.714081 -3.8215027 8.535599 -8.5355835 8.535599l-101.95242 0c-4.714081 0 -8.535599 -3.821518 -8.535599 -8.535599z" fill-rule="evenodd"/><path fill="#000000" d="m261.32077 122.56826l0 -11.453125l1.515625 0l0 11.453125l-1.515625 0zm4.0078125 0l0 -8.296875l1.265625 0l0 1.171875q0.90625 -1.359375 2.640625 -1.359375q0.75 0 1.375 0.265625q0.625 0.265625 0.9375 0.703125q0.3125 0.4375 0.4375 1.046875q0.078125 0.390625 0.078125 1.359375l0 5.109375l-1.40625 0l0 -5.046875q0 -0.859375 -0.171875 -1.28125q-0.15625 -0.4375 -0.578125 -0.6875q-0.40625 -0.25 -0.96875 -0.25q-0.90625 0 -1.5625 0.578125q-0.640625 0.5625 -0.640625 2.15625l0 4.53125l-1.40625 0zm8.6328125 0.6875l1.375 0.203125q0.078125 0.640625 0.46875 0.921875q0.53125 0.390625 1.4375 0.390625q0.96875 0 1.5 -0.390625q0.53125 -0.390625 0.71875 -1.09375q0.109375 -0.421875 0.109375 -1.8125q-0.921875 1.09375 -2.296875 1.09375q-1.71875 0 -2.65625 -1.234375q-0.9375 -1.234375 -0.9375 -2.96875q0 -1.1875 0.421875 -2.1875q0.4375 -1.0 1.25 -1.546875q0.828125 -0.546875 1.921875 -0.546875q1.46875 0 2.421875 1.1875l0 -1.0l1.296875 0l0 7.171875q0 1.9375 -0.390625 2.75q-0.390625 0.8125 -1.25 1.28125q-0.859375 0.46875 -2.109375 0.46875q-1.484375 0 -2.40625 -0.671875q-0.90625 -0.671875 -0.875 -2.015625zm1.171875 -4.984375q0 1.625 0.640625 2.375q0.65625 0.75 1.625 0.75q0.96875 0 1.625 -0.734375q0.65625 -0.75 0.65625 -2.34375q0 -1.53125 -0.671875 -2.296875q-0.671875 -0.78125 -1.625 -0.78125q-0.9375 0 -1.59375 0.765625q-0.65625 0.765625 -0.65625 2.265625zm13.6640625 1.625l1.453125 0.171875q-0.34375 1.28125 -1.28125 1.984375q-0.921875 0.703125 -2.359375 0.703125q-1.828125 0 -2.890625 -1.125q-1.0625 -1.125 -1.0625 -3.140625q0 -2.09375 1.078125 -3.25q1.078125 -1.15625 2.796875 -1.15625q1.65625 0 2.703125 1.140625q1.0625 1.125 1.0625 3.171875q0 0.125 0 0.375l-6.1875 0q0.078125 1.375 0.765625 2.109375q0.703125 0.71875 1.734375 0.71875q0.78125 0 1.328125 -0.40625q0.546875 -0.40625 0.859375 -1.296875zm-4.609375 -2.28125l4.625 0q-0.09375 -1.046875 -0.53125 -1.5625q-0.671875 -0.8125 -1.734375 -0.8125q-0.96875 0 -1.640625 0.65625q-0.65625 0.640625 -0.71875 1.71875zm7.2734375 2.46875l1.390625 -0.21875q0.109375 0.84375 0.640625 1.296875q0.546875 0.4375 1.5 0.4375q0.96875 0 1.4375 -0.390625q0.46875 -0.40625 0.46875 -0.9375q0 -0.46875 -0.40625 -0.75q-0.296875 -0.1875 -1.4375 -0.46875q-1.546875 -0.390625 -2.15625 -0.671875q-0.59375 -0.296875 -0.90625 -0.796875q-0.296875 -0.5 -0.296875 -1.109375q0 -0.5625 0.25 -1.03125q0.25 -0.46875 0.6875 -0.78125q0.328125 -0.25 0.890625 -0.40625q0.578125 -0.171875 1.21875 -0.171875q0.984375 0 1.71875 0.28125q0.734375 0.28125 1.078125 0.765625q0.359375 0.46875 0.5 1.28125l-1.375 0.1875q-0.09375 -0.640625 -0.546875 -1.0q-0.453125 -0.359375 -1.265625 -0.359375q-0.96875 0 -1.390625 0.328125q-0.40625 0.3125 -0.40625 0.734375q0 0.28125 0.171875 0.5q0.171875 0.21875 0.53125 0.375q0.21875 0.078125 1.25 0.359375q1.484375 0.390625 2.078125 0.65625q0.59375 0.25 0.921875 0.734375q0.34375 0.484375 0.34375 1.203125q0 0.703125 -0.421875 1.328125q-0.40625 0.609375 -1.1875 0.953125q-0.765625 0.34375 -1.734375 0.34375q-1.625 0 -2.46875 -0.671875q-0.84375 -0.671875 -1.078125 -2.0zm11.625 1.21875l0.203125 1.25q-0.59375 0.125 -1.0625 0.125q-0.765625 0 -1.1875 -0.234375q-0.421875 -0.25 -0.59375 -0.640625q-0.171875 -0.40625 -0.171875 -1.671875l0 -4.765625l-1.03125 0l0 -1.09375l1.03125 0l0 -2.0625l1.40625 -0.84375l0 2.90625l1.40625 0l0 1.09375l-1.40625 0l0 4.84375q0 0.609375 0.0625 0.78125q0.078125 0.171875 0.25 0.28125q0.171875 0.09375 0.484375 0.09375q0.234375 0 0.609375 -0.0625zm7.0546875 -1.40625l1.453125 0.171875q-0.34375 1.28125 -1.28125 1.984375q-0.921875 0.703125 -2.359375 0.703125q-1.828125 0 -2.890625 -1.125q-1.0625 -1.125 -1.0625 -3.140625q0 -2.09375 1.078125 -3.25q1.078125 -1.15625 2.796875 -1.15625q1.65625 0 2.703125 1.140625q1.0625 1.125 1.0625 3.171875q0 0.125 0 0.375l-6.1875 0q0.078125 1.375 0.765625 2.109375q0.703125 0.71875 1.734375 0.71875q0.78125 0 1.328125 -0.40625q0.546875 -0.40625 0.859375 -1.296875zm-4.609375 -2.28125l4.625 0q-0.09375 -1.046875 -0.53125 -1.5625q-0.671875 -0.8125 -1.734375 -0.8125q-0.96875 0 -1.640625 0.65625q-0.65625 0.640625 -0.71875 1.71875zm7.8203125 4.953125l0 -8.296875l1.265625 0l0 1.25q0.484375 -0.875 0.890625 -1.15625q0.40625 -0.28125 0.90625 -0.28125q0.703125 0 1.4375 0.453125l-0.484375 1.296875q-0.515625 -0.296875 -1.03125 -0.296875q-0.453125 0 -0.828125 0.28125q-0.359375 0.265625 -0.515625 0.765625q-0.234375 0.75 -0.234375 1.640625l0 4.34375l-1.40625 0z" fill-rule="nonzero"/><path fill="#d9ead3" d="m893.4764 95.979225l0 0c0 -6.076706 4.9261475 -11.002846 11.002869 -11.002846l101.30139 0c2.9180908 0 5.716736 1.1592255 7.7801514 3.2226562c2.0634766 2.0634308 3.2226562 4.862053 3.2226562 7.7801895l0 44.010063c0 6.0766907 -4.9261475 11.002838 -11.002808 11.002838l-101.30139 0l0 0c-6.076721 0 -11.002869 -4.9261475 -11.002869 -11.002838z" fill-rule="evenodd"/><path stroke="#000000" stroke-width="1.0" stroke-linejoin="round" stroke-linecap="butt" d="m893.4764 95.979225l0 0c0 -6.076706 4.9261475 -11.002846 11.002869 -11.002846l101.30139 0c2.9180908 0 5.716736 1.1592255 7.7801514 3.2226562c2.0634766 2.0634308 3.2226562 4.862053 3.2226562 7.7801895l0 44.010063c0 6.0766907 -4.9261475 11.002838 -11.002808 11.002838l-101.30139 0l0 0c-6.076721 0 -11.002869 -4.9261475 -11.002869 -11.002838z" fill-rule="evenodd"/><path fill="#000000" d="m909.82526 114.34425l0 -7.203125l-1.234375 0l0 -1.09375l1.234375 0l0 -0.890625q0 -0.828125 0.15625 -1.234375q0.203125 -0.546875 0.703125 -0.890625q0.515625 -0.34375 1.4375 -0.34375q0.59375 0 1.3125 0.140625l-0.203125 1.234375q-0.4375 -0.078125 -0.828125 -0.078125q-0.640625 0 -0.90625 0.28125q-0.265625 0.265625 -0.265625 1.015625l0 0.765625l1.609375 0l0 1.09375l-1.609375 0l0 7.203125l-1.40625 0zm4.1015625 0l0 -8.296875l1.265625 0l0 1.25q0.484375 -0.875 0.890625 -1.15625q0.40625 -0.28125 0.90625 -0.28125q0.703125 0 1.4375 0.453125l-0.484375 1.296875q-0.515625 -0.296875 -1.03125 -0.296875q-0.453125 0 -0.828125 0.28125q-0.359375 0.265625 -0.515625 0.765625q-0.234375 0.75 -0.234375 1.640625l0 4.34375l-1.40625 0zm4.8125 -4.15625q0 -2.296875 1.28125 -3.40625q1.078125 -0.921875 2.609375 -0.921875q1.71875 0 2.796875 1.125q1.09375 1.109375 1.09375 3.09375q0 1.59375 -0.484375 2.515625q-0.484375 0.921875 -1.40625 1.4375q-0.90625 0.5 -2.0 0.5q-1.734375 0 -2.8125 -1.109375q-1.078125 -1.125 -1.078125 -3.234375zm1.453125 0q0 1.59375 0.6875 2.390625q0.703125 0.796875 1.75 0.796875q1.046875 0 1.734375 -0.796875q0.703125 -0.796875 0.703125 -2.4375q0 -1.53125 -0.703125 -2.328125q-0.6875 -0.796875 -1.734375 -0.796875q-1.046875 0 -1.75 0.796875q-0.6875 0.78125 -0.6875 2.375zm7.9765625 4.15625l0 -8.296875l1.265625 0l0 1.171875q0.90625 -1.359375 2.640625 -1.359375q0.75 0 1.375 0.265625q0.625 0.265625 0.9375 0.703125q0.3125 0.4375 0.4375 1.046875q0.078125 0.390625 0.078125 1.359375l0 5.109375l-1.40625 0l0 -5.046875q0 -0.859375 -0.171875 -1.28125q-0.15625 -0.4375 -0.578125 -0.6875q-0.40625 -0.25 -0.96875 -0.25q-0.90625 0 -1.5625 0.578125q-0.640625 0.5625 -0.640625 2.15625l0 4.53125l-1.40625 0zm11.9609375 -1.265625l0.203125 1.25q-0.59375 0.125 -1.0625 0.125q-0.765625 0 -1.1875 -0.234375q-0.421875 -0.25 -0.59375 -0.640625q-0.171875 -0.40625 -0.171875 -1.671875l0 -4.765625l-1.03125 0l0 -1.09375l1.03125 0l0 -2.0625l1.40625 -0.84375l0 2.90625l1.40625 0l0 1.09375l-1.40625 0l0 4.84375q0 0.609375 0.0625 0.78125q0.078125 0.171875 0.25 0.28125q0.171875 0.09375 0.484375 0.09375q0.234375 0 0.609375 -0.0625zm0.8359375 -2.171875l0 -1.421875l4.3125 0l0 1.421875l-4.3125 0zm11.546875 0.765625l1.453125 0.171875q-0.34375 1.28125 -1.28125 1.984375q-0.921875 0.703125 -2.359375 0.703125q-1.828125 0 -2.890625 -1.125q-1.0625 -1.125 -1.0625 -3.140625q0 -2.09375 1.078125 -3.25q1.078125 -1.15625 2.796875 -1.15625q1.65625 0 2.703125 1.140625q1.0625 1.125 1.0625 3.171875q0 0.125 0 0.375l-6.1875 0q0.078125 1.375 0.765625 2.109375q0.703125 0.71875 1.734375 0.71875q0.78125 0 1.328125 -0.40625q0.546875 -0.40625 0.859375 -1.296875zm-4.609375 -2.28125l4.625 0q-0.09375 -1.046875 -0.53125 -1.5625q-0.671875 -0.8125 -1.734375 -0.8125q-0.96875 0 -1.640625 0.65625q-0.65625 0.640625 -0.71875 1.71875zm7.8359375 4.953125l0 -8.296875l1.265625 0l0 1.171875q0.90625 -1.359375 2.640625 -1.359375q0.75 0 1.375 0.265625q0.625 0.265625 0.9375 0.703125q0.3125 0.4375 0.4375 1.046875q0.078125 0.390625 0.078125 1.359375l0 5.109375l-1.40625 0l0 -5.046875q0 -0.859375 -0.171875 -1.28125q-0.15625 -0.4375 -0.578125 -0.6875q-0.40625 -0.25 -0.96875 -0.25q-0.90625 0 -1.5625 0.578125q-0.640625 0.5625 -0.640625 2.15625l0 4.53125l-1.40625 0zm14.2734375 0l0 -1.046875q-0.78125 1.234375 -2.3125 1.234375q-1.0 0 -1.828125 -0.546875q-0.828125 -0.546875 -1.296875 -1.53125q-0.453125 -0.984375 -0.453125 -2.25q0 -1.25 0.40625 -2.25q0.421875 -1.015625 1.25 -1.546875q0.828125 -0.546875 1.859375 -0.546875q0.75 0 1.328125 0.3125q0.59375 0.3125 0.953125 0.828125l0 -4.109375l1.40625 0l0 11.453125l-1.3125 0zm-4.4375 -4.140625q0 1.59375 0.671875 2.390625q0.671875 0.78125 1.578125 0.78125q0.921875 0 1.5625 -0.75q0.65625 -0.765625 0.65625 -2.3125q0 -1.703125 -0.65625 -2.5q-0.65625 -0.796875 -1.625 -0.796875q-0.9375 0 -1.5625 0.765625q-0.625 0.765625 -0.625 2.421875zm10.4296875 4.140625l4.40625 -11.453125l1.640625 0l4.6875 11.453125l-1.734375 0l-1.328125 -3.46875l-4.796875 0l-1.25 3.46875l-1.625 0zm3.3125 -4.703125l3.890625 0l-1.203125 -3.171875q-0.546875 -1.453125 -0.8125 -2.375q-0.21875 1.09375 -0.609375 2.1875l-1.265625 3.359375zm8.625 4.703125l0 -11.453125l4.328125 0q1.140625 0 1.734375 0.109375q0.84375 0.140625 1.40625 0.53125q0.578125 0.390625 0.921875 1.109375q0.359375 0.703125 0.359375 1.5625q0 1.453125 -0.9375 2.46875q-0.921875 1.015625 -3.359375 1.015625l-2.9375 0l0 4.65625l-1.515625 0zm1.515625 -6.015625l2.96875 0q1.46875 0 2.078125 -0.546875q0.625 -0.546875 0.625 -1.53125q0 -0.71875 -0.375 -1.234375q-0.359375 -0.515625 -0.953125 -0.671875q-0.375 -0.109375 -1.40625 -0.109375l-2.9375 0l0 4.09375zm9.421875 6.015625l0 -11.453125l1.515625 0l0 11.453125l-1.515625 0z" fill-rule="nonzero"/><path fill="#000000" d="m940.2159 136.71925q-1.171875 -1.46875 -1.984375 -3.4375q-0.796875 -1.984375 -0.796875 -4.09375q0 -1.859375 0.609375 -3.5625q0.703125 -1.96875 2.171875 -3.9375l1.0 0q-0.9375 1.625 -1.25 2.328125q-0.46875 1.078125 -0.75 2.25q-0.328125 1.453125 -0.328125 2.9375q0 3.75 2.328125 7.515625l-1.0 0zm2.625 -3.375l0 -8.296875l1.265625 0l0 1.25q0.484375 -0.875 0.890625 -1.15625q0.40625 -0.28125 0.90625 -0.28125q0.703125 0 1.4375 0.453125l-0.484375 1.296875q-0.515625 -0.296875 -1.03125 -0.296875q-0.453125 0 -0.828125 0.28125q-0.359375 0.265625 -0.515625 0.765625q-0.234375 0.75 -0.234375 1.640625l0 4.34375l-1.40625 0zm10.78125 0l0 -1.21875q-0.96875 1.40625 -2.640625 1.40625q-0.734375 0 -1.375 -0.28125q-0.625 -0.28125 -0.9375 -0.703125q-0.3125 -0.4375 -0.4375 -1.046875q-0.078125 -0.421875 -0.078125 -1.3125l0 -5.140625l1.40625 0l0 4.59375q0 1.109375 0.078125 1.484375q0.140625 0.5625 0.5625 0.875q0.4375 0.3125 1.0625 0.3125q0.640625 0 1.1875 -0.3125q0.5625 -0.328125 0.78125 -0.890625q0.234375 -0.5625 0.234375 -1.625l0 -4.4375l1.40625 0l0 8.296875l-1.25 0zm2.8984375 -2.484375l1.390625 -0.21875q0.109375 0.84375 0.640625 1.296875q0.546875 0.4375 1.5 0.4375q0.96875 0 1.4375 -0.390625q0.46875 -0.40625 0.46875 -0.9375q0 -0.46875 -0.40625 -0.75q-0.296875 -0.1875 -1.4375 -0.46875q-1.546875 -0.390625 -2.15625 -0.671875q-0.59375 -0.296875 -0.90625 -0.796875q-0.296875 -0.5 -0.296875 -1.109375q0 -0.5625 0.25 -1.03125q0.25 -0.46875 0.6875 -0.78125q0.328125 -0.25 0.890625 -0.40625q0.578125 -0.171875 1.21875 -0.171875q0.984375 0 1.71875 0.28125q0.734375 0.28125 1.078125 0.765625q0.359375 0.46875 0.5 1.28125l-1.375 0.1875q-0.09375 -0.640625 -0.546875 -1.0q-0.453125 -0.359375 -1.265625 -0.359375q-0.96875 0 -1.390625 0.328125q-0.40625 0.3125 -0.40625 0.734375q0 0.28125 0.171875 0.5q0.171875 0.21875 0.53125 0.375q0.21875 0.078125 1.25 0.359375q1.484375 0.390625 2.078125 0.65625q0.59375 0.25 0.921875 0.734375q0.34375 0.484375 0.34375 1.203125q0 0.703125 -0.421875 1.328125q-0.40625 0.609375 -1.1875 0.953125q-0.765625 0.34375 -1.734375 0.34375q-1.625 0 -2.46875 -0.671875q-0.84375 -0.671875 -1.078125 -2.0zm11.625 1.21875l0.203125 1.25q-0.59375 0.125 -1.0625 0.125q-0.765625 0 -1.1875 -0.234375q-0.421875 -0.25 -0.59375 -0.640625q-0.171875 -0.40625 -0.171875 -1.671875l0 -4.765625l-1.03125 0l0 -1.09375l1.03125 0l0 -2.0625l1.40625 -0.84375l0 2.90625l1.40625 0l0 1.09375l-1.40625 0l0 4.84375q0 0.609375 0.0625 0.78125q0.078125 0.171875 0.25 0.28125q0.171875 0.09375 0.484375 0.09375q0.234375 0 0.609375 -0.0625zm2.3046875 4.640625l-1.015625 0q2.34375 -3.765625 2.34375 -7.515625q0 -1.46875 -0.34375 -2.921875q-0.265625 -1.171875 -0.734375 -2.25q-0.3125 -0.703125 -1.265625 -2.34375l1.015625 0q1.46875 1.96875 2.171875 3.9375q0.59375 1.703125 0.59375 3.5625q0 2.109375 -0.8125 4.09375q-0.796875 1.96875 -1.953125 3.4375z" fill-rule="nonzero"/><path fill="#000000" fill-opacity="0.0" d="m1062.4816 117.98425l-45.700745 0" fill-rule="evenodd"/><path stroke="#cc0000" stroke-width="2.0" stroke-linejoin="round" stroke-linecap="butt" d="m1062.4816 117.98425l-33.700684 0" fill-rule="evenodd"/><path fill="#cc0000" stroke="#cc0000" stroke-width="2.0" stroke-linecap="butt" d="m1028.7809 114.680786l-9.076233 3.3034668l9.076233 3.3034668z" fill-rule="evenodd"/><path fill="#000000" fill-opacity="0.0" d="m893.4764 117.98425c-10.455444 0 -14.154968 0.01574707 -20.910889 0.03149414c-6.7559204 0.01574707 -16.568176 0.03149414 -33.136353 0.03149414" fill-rule="evenodd"/><path stroke="#cc0000" stroke-width="2.0" stroke-linejoin="round" stroke-linecap="butt" d="m881.4764 117.99448l-8.910828 0.021270752c-6.7559204 0.01574707 -16.568237 0.03149414 -33.136414 0.03149414" fill-rule="evenodd"/><path fill="#cc0000" stroke="#cc0000" stroke-width="2.0" stroke-linecap="butt" d="m881.4792 121.297935l9.073364 -3.3111954l-9.0789795 -3.2957306z" fill-rule="evenodd"/><path fill="#d9ead3" d="m1062.4816 95.979225l0 0c0 -6.076706 4.9261475 -11.002846 11.00293 -11.002846l101.30139 0c2.9180908 0 5.716675 1.1592255 7.7801514 3.2226562c2.0634766 2.0634308 3.2226562 4.862053 3.2226562 7.7801895l0 44.010063c0 6.0766907 -4.9261475 11.002838 -11.002808 11.002838l-101.30139 0l0 0c-6.076782 0 -11.00293 -4.9261475 -11.00293 -11.002838z" fill-rule="evenodd"/><path stroke="#000000" stroke-width="3.0" stroke-linejoin="round" stroke-linecap="butt" d="m1062.4816 95.979225l0 0c0 -6.076706 4.9261475 -11.002846 11.00293 -11.002846l101.30139 0c2.9180908 0 5.716675 1.1592255 7.7801514 3.2226562c2.0634766 2.0634308 3.2226562 4.862053 3.2226562 7.7801895l0 44.010063c0 6.0766907 -4.9261475 11.002838 -11.002808 11.002838l-101.30139 0l0 0c-6.076782 0 -11.00293 -4.9261475 -11.00293 -11.002838z" fill-rule="evenodd"/><path fill="#000000" d="m1077.9359 123.84425l0 -7.203125l-1.234375 0l0 -1.09375l1.234375 0l0 -0.890625q0 -0.828125 0.15625 -1.234375q0.203125 -0.546875 0.703125 -0.890625q0.515625 -0.34375 1.4375 -0.34375q0.59375 0 1.3125 0.140625l-0.203125 1.234375q-0.4375 -0.078125 -0.828125 -0.078125q-0.640625 0 -0.90625 0.28125q-0.265625 0.265625 -0.265625 1.015625l0 0.765625l1.609375 0l0 1.09375l-1.609375 0l0 7.203125l-1.40625 0zm4.1015625 0l0 -8.296875l1.265625 0l0 1.25q0.484375 -0.875 0.890625 -1.15625q0.40625 -0.28125 0.90625 -0.28125q0.703125 0 1.4375 0.453125l-0.484375 1.296875q-0.515625 -0.296875 -1.03125 -0.296875q-0.453125 0 -0.828125 0.28125q-0.359375 0.265625 -0.515625 0.765625q-0.234375 0.75 -0.234375 1.640625l0 4.34375l-1.40625 0zm4.8125 -4.15625q0 -2.296875 1.28125 -3.40625q1.078125 -0.921875 2.609375 -0.921875q1.71875 0 2.796875 1.125q1.09375 1.109375 1.09375 3.09375q0 1.59375 -0.484375 2.515625q-0.484375 0.921875 -1.40625 1.4375q-0.90625 0.5 -2.0 0.5q-1.734375 0 -2.8125 -1.109375q-1.078125 -1.125 -1.078125 -3.234375zm1.453125 0q0 1.59375 0.6875 2.390625q0.703125 0.796875 1.75 0.796875q1.046875 0 1.734375 -0.796875q0.703125 -0.796875 0.703125 -2.4375q0 -1.53125 -0.703125 -2.328125q-0.6875 -0.796875 -1.734375 -0.796875q-1.046875 0 -1.75 0.796875q-0.6875 0.78125 -0.6875 2.375zm7.9765625 4.15625l0 -8.296875l1.265625 0l0 1.171875q0.90625 -1.359375 2.640625 -1.359375q0.75 0 1.375 0.265625q0.625 0.265625 0.9375 0.703125q0.3125 0.4375 0.4375 1.046875q0.078125 0.390625 0.078125 1.359375l0 5.109375l-1.40625 0l0 -5.046875q0 -0.859375 -0.171875 -1.28125q-0.15625 -0.4375 -0.578125 -0.6875q-0.40625 -0.25 -0.96875 -0.25q-0.90625 0 -1.5625 0.578125q-0.640625 0.5625 -0.640625 2.15625l0 4.53125l-1.40625 0zm11.9609375 -1.265625l0.203125 1.25q-0.59375 0.125 -1.0625 0.125q-0.765625 0 -1.1875 -0.234375q-0.421875 -0.25 -0.59375 -0.640625q-0.171875 -0.40625 -0.171875 -1.671875l0 -4.765625l-1.03125 0l0 -1.09375l1.03125 0l0 -2.0625l1.40625 -0.84375l0 2.90625l1.40625 0l0 1.09375l-1.40625 0l0 4.84375q0 0.609375 0.0625 0.78125q0.078125 0.171875 0.25 0.28125q0.171875 0.09375 0.484375 0.09375q0.234375 0 0.609375 -0.0625zm0.8359375 -2.171875l0 -1.421875l4.3125 0l0 1.421875l-4.3125 0zm11.546875 0.765625l1.453125 0.171875q-0.34375 1.28125 -1.28125 1.984375q-0.921875 0.703125 -2.359375 0.703125q-1.828125 0 -2.890625 -1.125q-1.0625 -1.125 -1.0625 -3.140625q0 -2.09375 1.078125 -3.25q1.078125 -1.15625 2.796875 -1.15625q1.65625 0 2.703125 1.140625q1.0625 1.125 1.0625 3.171875q0 0.125 0 0.375l-6.1875 0q0.078125 1.375 0.765625 2.109375q0.703125 0.71875 1.734375 0.71875q0.78125 0 1.328125 -0.40625q0.546875 -0.40625 0.859375 -1.296875zm-4.609375 -2.28125l4.625 0q-0.09375 -1.046875 -0.53125 -1.5625q-0.671875 -0.8125 -1.734375 -0.8125q-0.96875 0 -1.640625 0.65625q-0.65625 0.640625 -0.71875 1.71875zm7.8359375 4.953125l0 -8.296875l1.265625 0l0 1.171875q0.90625 -1.359375 2.640625 -1.359375q0.75 0 1.375 0.265625q0.625 0.265625 0.9375 0.703125q0.3125 0.4375 0.4375 1.046875q0.078125 0.390625 0.078125 1.359375l0 5.109375l-1.40625 0l0 -5.046875q0 -0.859375 -0.171875 -1.28125q-0.15625 -0.4375 -0.578125 -0.6875q-0.40625 -0.25 -0.96875 -0.25q-0.90625 0 -1.5625 0.578125q-0.640625 0.5625 -0.640625 2.15625l0 4.53125l-1.40625 0zm14.2734375 0l0 -1.046875q-0.78125 1.234375 -2.3125 1.234375q-1.0 0 -1.828125 -0.546875q-0.828125 -0.546875 -1.296875 -1.53125q-0.453125 -0.984375 -0.453125 -2.25q0 -1.25 0.40625 -2.25q0.421875 -1.015625 1.25 -1.546875q0.828125 -0.546875 1.859375 -0.546875q0.75 0 1.328125 0.3125q0.59375 0.3125 0.953125 0.828125l0 -4.109375l1.40625 0l0 11.453125l-1.3125 0zm-4.4375 -4.140625q0 1.59375 0.671875 2.390625q0.671875 0.78125 1.578125 0.78125q0.921875 0 1.5625 -0.75q0.65625 -0.765625 0.65625 -2.3125q0 -1.703125 -0.65625 -2.5q-0.65625 -0.796875 -1.625 -0.796875q-0.9375 0 -1.5625 0.765625q-0.625 0.765625 -0.625 2.421875zm17.8125 3.109375q-0.78125 0.671875 -1.5 0.953125q-0.71875 0.265625 -1.546875 0.265625q-1.375 0 -2.109375 -0.671875q-0.734375 -0.671875 -0.734375 -1.703125q0 -0.609375 0.28125 -1.109375q0.28125 -0.515625 0.71875 -0.8125q0.453125 -0.3125 1.015625 -0.46875q0.421875 -0.109375 1.25 -0.203125q1.703125 -0.203125 2.515625 -0.484375q0 -0.296875 0 -0.375q0 -0.859375 -0.390625 -1.203125q-0.546875 -0.484375 -1.609375 -0.484375q-0.984375 0 -1.46875 0.359375q-0.46875 0.34375 -0.6875 1.21875l-1.375 -0.1875q0.1875 -0.875 0.609375 -1.421875q0.4375 -0.546875 1.25 -0.828125q0.8125 -0.296875 1.875 -0.296875q1.0625 0 1.71875 0.25q0.671875 0.25 0.984375 0.625q0.3125 0.375 0.4375 0.953125q0.078125 0.359375 0.078125 1.296875l0 1.875q0 1.96875 0.078125 2.484375q0.09375 0.515625 0.359375 1.0l-1.46875 0q-0.21875 -0.4375 -0.28125 -1.03125zm-0.109375 -3.140625q-0.765625 0.3125 -2.296875 0.53125q-0.875 0.125 -1.234375 0.28125q-0.359375 0.15625 -0.5625 0.46875q-0.1875 0.296875 -0.1875 0.65625q0 0.5625 0.421875 0.9375q0.4375 0.375 1.25 0.375q0.8125 0 1.4375 -0.34375q0.640625 -0.359375 0.9375 -0.984375q0.234375 -0.46875 0.234375 -1.40625l0 -0.515625zm3.6015625 7.359375l0 -11.484375l1.28125 0l0 1.078125q0.453125 -0.640625 1.015625 -0.953125q0.578125 -0.3125 1.390625 -0.3125q1.0625 0 1.875 0.546875q0.8125 0.546875 1.21875 1.546875q0.421875 0.984375 0.421875 2.171875q0 1.28125 -0.46875 2.296875q-0.453125 1.015625 -1.328125 1.5625q-0.859375 0.546875 -1.828125 0.546875q-0.703125 0 -1.265625 -0.296875q-0.546875 -0.296875 -0.90625 -0.75l0 4.046875l-1.40625 0zm1.265625 -7.296875q0 1.609375 0.640625 2.375q0.65625 0.765625 1.578125 0.765625q0.9375 0 1.609375 -0.796875q0.671875 -0.796875 0.671875 -2.453125q0 -1.59375 -0.65625 -2.375q-0.65625 -0.796875 -1.5625 -0.796875q-0.890625 0 -1.59375 0.84375q-0.6875 0.84375 -0.6875 2.4375zm7.6328125 7.296875l0 -11.484375l1.28125 0l0 1.078125q0.453125 -0.640625 1.015625 -0.953125q0.578125 -0.3125 1.390625 -0.3125q1.0625 0 1.875 0.546875q0.8125 0.546875 1.21875 1.546875q0.421875 0.984375 0.421875 2.171875q0 1.28125 -0.46875 2.296875q-0.453125 1.015625 -1.328125 1.5625q-0.859375 0.546875 -1.828125 0.546875q-0.703125 0 -1.265625 -0.296875q-0.546875 -0.296875 -0.90625 -0.75l0 4.046875l-1.40625 0zm1.265625 -7.296875q0 1.609375 0.640625 2.375q0.65625 0.765625 1.578125 0.765625q0.9375 0 1.609375 -0.796875q0.671875 -0.796875 0.671875 -2.453125q0 -1.59375 -0.65625 -2.375q-0.65625 -0.796875 -1.5625 -0.796875q-0.890625 0 -1.59375 0.84375q-0.6875 0.84375 -0.6875 2.4375z" fill-rule="nonzero"/><path fill="#cfe2f3" d="m711.2768 166.86613l24.440979 -97.76377l91.49603 0l24.440918 97.76377z" fill-rule="evenodd"/><path stroke="#000000" stroke-width="1.0" stroke-linejoin="round" stroke-linecap="butt" d="m711.2768 166.86613l24.440979 -97.76377l91.49603 0l24.440918 97.76377z" fill-rule="evenodd"/><path fill="#000000" d="m763.40717 129.51808l0 -11.453133l1.40625 0l0 6.53125l3.328125 -3.375l1.828125 0l-3.171875 3.078125l3.484375 5.2187576l-1.734375 0l-2.734375 -4.2500076l-1.0 0.953125l0 3.2968826l-1.40625 0zm13.40625 -1.03125q-0.78125 0.671875 -1.5 0.953125q-0.71875 0.265625 -1.546875 0.265625q-1.375 0 -2.109375 -0.671875q-0.734375 -0.671875 -0.734375 -1.7031326q0 -0.609375 0.28125 -1.109375q0.28125 -0.515625 0.71875 -0.8125q0.453125 -0.3125 1.015625 -0.46875q0.421875 -0.109375 1.25 -0.203125q1.703125 -0.203125 2.515625 -0.484375q0 -0.296875 0 -0.375q0 -0.859375 -0.390625 -1.203125q-0.546875 -0.484375 -1.609375 -0.484375q-0.984375 0 -1.46875 0.359375q-0.46875 0.34375 -0.6875 1.21875l-1.375 -0.1875q0.1875 -0.875 0.609375 -1.421875q0.4375 -0.546875 1.25 -0.828125q0.8125 -0.296875 1.875 -0.296875q1.0625 0 1.71875 0.25q0.671875 0.25 0.984375 0.625q0.3125 0.375 0.4375 0.953125q0.078125 0.359375 0.078125 1.296875l0 1.875q0 1.9687576 0.078125 2.4843826q0.09375 0.515625 0.359375 1.0l-1.46875 0q-0.21875 -0.4375 -0.28125 -1.03125zm-0.109375 -3.1406326q-0.765625 0.3125 -2.296875 0.53125q-0.875 0.125 -1.234375 0.28125q-0.359375 0.15625 -0.5625 0.46875q-0.1875 0.296875 -0.1875 0.65625q0 0.5625 0.421875 0.9375076q0.4375 0.375 1.25 0.375q0.8125 0 1.4375 -0.34375q0.640625 -0.35938263 0.9375 -0.9843826q0.234375 -0.46875 0.234375 -1.40625l0 -0.515625zm3.9296875 4.1718826l0 -7.2031326l-1.234375 0l0 -1.09375l1.234375 0l0 -0.890625q0 -0.828125 0.15625 -1.234375q0.203125 -0.546875 0.703125 -0.890625q0.515625 -0.34375 1.4375 -0.34375q0.59375 0 1.3125 0.140625l-0.203125 1.234375q-0.4375 -0.078125 -0.828125 -0.078125q-0.640625 0 -0.90625 0.28125q-0.265625 0.265625 -0.265625 1.015625l0 0.765625l1.609375 0l0 1.09375l-1.609375 0l0 7.2031326l-1.40625 0zm4.1171875 0l0 -11.453133l1.40625 0l0 6.53125l3.328125 -3.375l1.828125 0l-3.171875 3.078125l3.484375 5.2187576l-1.734375 0l-2.734375 -4.2500076l-1.0 0.953125l0 3.2968826l-1.40625 0zm13.40625 -1.03125q-0.78125 0.671875 -1.5 0.953125q-0.71875 0.265625 -1.546875 0.265625q-1.375 0 -2.109375 -0.671875q-0.734375 -0.671875 -0.734375 -1.7031326q0 -0.609375 0.28125 -1.109375q0.28125 -0.515625 0.71875 -0.8125q0.453125 -0.3125 1.015625 -0.46875q0.421875 -0.109375 1.25 -0.203125q1.703125 -0.203125 2.515625 -0.484375q0 -0.296875 0 -0.375q0 -0.859375 -0.390625 -1.203125q-0.546875 -0.484375 -1.609375 -0.484375q-0.984375 0 -1.46875 0.359375q-0.46875 0.34375 -0.6875 1.21875l-1.375 -0.1875q0.1875 -0.875 0.609375 -1.421875q0.4375 -0.546875 1.25 -0.828125q0.8125 -0.296875 1.875 -0.296875q1.0625 0 1.71875 0.25q0.671875 0.25 0.984375 0.625q0.3125 0.375 0.4375 0.953125q0.078125 0.359375 0.078125 1.296875l0 1.875q0 1.9687576 0.078125 2.4843826q0.09375 0.515625 0.359375 1.0l-1.46875 0q-0.21875 -0.4375 -0.28125 -1.03125zm-0.109375 -3.1406326q-0.765625 0.3125 -2.296875 0.53125q-0.875 0.125 -1.234375 0.28125q-0.359375 0.15625 -0.5625 0.46875q-0.1875 0.296875 -0.1875 0.65625q0 0.5625 0.421875 0.9375076q0.4375 0.375 1.25 0.375q0.8125 0 1.4375 -0.34375q0.640625 -0.35938263 0.9375 -0.9843826q0.234375 -0.46875 0.234375 -1.40625l0 -0.515625z" fill-rule="nonzero"/><path fill="#d9ead3" d="m642.38257 191.4205l0 0c0.0028686523 -5.5954437 4.5411987 -10.131439 10.136658 -10.131439l98.76074 0c2.6870117 0 5.2634277 1.0674133 7.1624756 2.9674225c1.8990479 1.9000244 2.965088 4.4769897 2.963745 7.1640167l-0.020996094 40.52452c-0.0029296875 5.5954437 -4.54126 10.131439 -10.136719 10.131439l-98.76074 0c-5.595459 0 -10.129089 -4.5359955 -10.12616 -10.131439z" fill-rule="evenodd"/><path stroke="#000000" stroke-width="1.0" stroke-linejoin="round" stroke-linecap="butt" d="m642.38257 191.4205l0 0c0.0028686523 -5.5954437 4.5411987 -10.131439 10.136658 -10.131439l98.76074 0c2.6870117 0 5.2634277 1.0674133 7.1624756 2.9674225c1.8990479 1.9000244 2.965088 4.4769897 2.963745 7.1640167l-0.020996094 40.52452c-0.0029296875 5.5954437 -4.54126 10.131439 -10.136719 10.131439l-98.76074 0c-5.595459 0 -10.129089 -4.5359955 -10.12616 -10.131439z" fill-rule="evenodd"/><path fill="#000000" d="m656.3258 196.49713l1.2657471 -0.203125q0.108947754 0.765625 0.59313965 1.171875q0.49975586 0.40625 1.3747559 0.40625q0.890625 0 1.3126831 -0.359375q0.4376831 -0.359375 0.43792725 -0.84375q2.4414062E-4 -0.4375 -0.3746338 -0.6875q-0.26550293 -0.171875 -1.3122559 -0.4375q-1.4216919 -0.359375 -1.9684448 -0.609375q-0.5467529 -0.265625 -0.8277588 -0.734375q-0.28100586 -0.46875 -0.28070068 -1.015625q2.4414062E-4 -0.515625 0.21923828 -0.9375q0.23461914 -0.4375 0.6409912 -0.734375q0.29699707 -0.21875 0.8126831 -0.359375q0.5313721 -0.15625 1.1251221 -0.15625q0.890625 0 1.5623169 0.265625q0.6717529 0.25 0.9996948 0.6875q0.32788086 0.4375 0.43688965 1.171875l-1.2501221 0.171875q-0.093444824 -0.578125 -0.49951172 -0.90625q-0.4060669 -0.34375 -1.1560669 -0.34375q-0.890625 0 -1.2814331 0.296875q-0.37512207 0.296875 -0.3753662 0.6875q-1.2207031E-4 0.25 0.1560669 0.453125q0.15612793 0.203125 0.4998169 0.34375q0.18743896 0.078125 1.1404419 0.328125q1.3591919 0.359375 1.8903198 0.59375q0.5467529 0.234375 0.8590088 0.6875q0.31225586 0.4375 0.31195068 1.09375q-3.6621094E-4 0.640625 -0.3756714 1.21875q-0.37524414 0.5625 -1.0941772 0.875q-0.7033081 0.3125 -1.5939331 0.3125q-1.484375 0 -2.2653198 -0.609375q-0.7652588 -0.625 -0.98339844 -1.828125zm13.046997 -0.1875l1.3280029 0.171875q-0.31311035 1.171875 -1.1727905 1.8125q-0.8441162 0.640625 -2.1722412 0.640625q-1.671875 0 -2.6557007 -1.015625q-0.9682007 -1.03125 -0.96728516 -2.890625q0.0010375977 -1.921875 0.9859619 -2.96875q1.0005493 -1.0625 2.5786743 -1.0625q1.515625 0 2.4838257 1.03125q0.9682007 1.03125 0.9672241 2.921875q-6.1035156E-5 0.109375 -0.015808105 0.34375l-5.65625 0q0.06188965 1.25 0.70214844 1.921875q0.6402588 0.65625 1.5933838 0.65625q0.703125 0 1.2033081 -0.359375q0.5001831 -0.375 0.7975464 -1.203125zm-4.2333374 -2.078125l4.25 0q-0.09326172 -0.953125 -0.48364258 -1.4375q-0.62457275 -0.75 -1.6089478 -0.75q-0.875 0 -1.4846802 0.59375q-0.6096802 0.59375 -0.6727295 1.59375zm7.1643677 4.53125l0.003967285 -7.59375l1.15625 0l-6.1035156E-4 1.140625q0.45355225 -0.796875 0.8286743 -1.046875q0.37512207 -0.265625 0.8126221 -0.265625q0.65625 0 1.3279419 0.40625l-0.43811035 1.203125q-0.46862793 -0.28125 -0.9530029 -0.28125q-0.421875 0 -0.7657471 0.25q-0.32824707 0.25 -0.4691162 0.703125q-0.21911621 0.6875 -0.21954346 1.5l-0.0020751953 3.984375l-1.28125 0zm7.0056763 0l-2.8867188 -7.59375l1.359375 0l1.6226807 4.546875q0.2652588 0.734375 0.49920654 1.53125q0.15655518 -0.609375 0.46948242 -1.453125l1.6898804 -4.625l1.328125 0l-2.8789062 7.59375l-1.203125 0zm5.2233887 -9.015625l7.9345703E-4 -1.46875l1.296875 0l-7.9345703E-4 1.46875l-1.296875 0zm-0.004638672 9.015625l0.00390625 -7.59375l1.296875 0l-0.00390625 7.59375l-1.296875 0zm8.210693 -2.78125l1.265564 0.15625q-0.20379639 1.3125 -1.0635986 2.0625q-0.8441162 0.734375 -2.0941162 0.734375q-1.5625 0 -2.5150757 -1.015625q-0.9369507 -1.03125 -0.9359741 -2.921875q6.1035156E-4 -1.234375 0.40734863 -2.15625q0.40673828 -0.921875 1.2351074 -1.375q0.84399414 -0.46875 1.8127441 -0.46875q1.25 0 2.0308838 0.625q0.7809448 0.625 1.0147095 1.765625l-1.265686 0.203125q-0.17150879 -0.765625 -0.6244507 -1.15625q-0.45288086 -0.390625 -1.0935059 -0.390625q-0.984375 0 -1.5941162 0.703125q-0.6097412 0.703125 -0.61053467 2.203125q-7.9345703E-4 1.53125 0.57696533 2.234375q0.5933838 0.6875 1.5465088 0.6875q0.75 0 1.2658691 -0.453125q0.51586914 -0.46875 0.6413574 -1.4375zm7.578003 0.328125l1.3280029 0.171875q-0.31311035 1.171875 -1.1727905 1.8125q-0.8441162 0.640625 -2.1722412 0.640625q-1.671875 0 -2.6557007 -1.015625q-0.9682007 -1.03125 -0.96728516 -2.890625q0.0010375977 -1.921875 0.9859619 -2.96875q1.0005493 -1.0625 2.5786743 -1.0625q1.515625 0 2.4838257 1.03125q0.9682007 1.03125 0.9672241 2.921875q-6.1035156E-5 0.109375 -0.015808105 0.34375l-5.65625 0q0.06188965 1.25 0.70214844 1.921875q0.6402588 0.65625 1.5933838 0.65625q0.703125 0 1.2033081 -0.359375q0.5001831 -0.375 0.7975464 -1.203125zm-4.2333374 -2.078125l4.25 0q-0.09326172 -0.953125 -0.48364258 -1.4375q-0.62457275 -0.75 -1.6089478 -0.75q-0.875 0 -1.4846802 0.59375q-0.6096802 0.59375 -0.6727295 1.59375zm6.6816406 1.375l6.713867E-4 -1.28125l3.953125 0l-6.713867E-4 1.28125l-3.953125 0zm10.583435 0.703125l1.3280029 0.171875q-0.31311035 1.171875 -1.1727905 1.8125q-0.8441162 0.640625 -2.1722412 0.640625q-1.671875 0 -2.6557007 -1.015625q-0.9682007 -1.03125 -0.9672241 -2.890625q9.765625E-4 -1.921875 0.9859009 -2.96875q1.0005493 -1.0625 2.5786743 -1.0625q1.515625 0 2.4838257 1.03125q0.9682007 1.03125 0.9672241 2.921875q-6.1035156E-5 0.109375 -0.015808105 0.34375l-5.65625 0q0.06188965 1.25 0.70214844 1.921875q0.6402588 0.65625 1.5933838 0.65625q0.703125 0 1.2033081 -0.359375q0.50024414 -0.375 0.7975464 -1.203125zm-4.2333374 -2.078125l4.25 0q-0.09326172 -0.953125 -0.48358154 -1.4375q-0.6246338 -0.75 -1.6090088 -0.75q-0.875 0 -1.4846802 0.59375q-0.6096802 0.59375 -0.6727295 1.59375zm9.289429 4.53125l-2.8867188 -7.59375l1.359375 0l1.6226196 4.546875q0.2652588 0.734375 0.49920654 1.53125q0.15661621 -0.609375 0.46954346 -1.453125l1.6898804 -4.625l1.328125 0l-2.8789062 7.59375l-1.203125 0zm10.423096 -2.453125l1.328064 0.171875q-0.31311035 1.171875 -1.1727905 1.8125q-0.8441162 0.640625 -2.1722412 0.640625q-1.671875 0 -2.6557007 -1.015625q-0.9682007 -1.03125 -0.96728516 -2.890625q0.0010375977 -1.921875 0.9859619 -2.96875q1.0005493 -1.0625 2.5786743 -1.0625q1.515625 0 2.4838257 1.03125q0.9682007 1.03125 0.9672241 2.921875q-6.1035156E-5 0.109375 -0.015808105 0.34375l-5.65625 0q0.061828613 1.25 0.70214844 1.921875q0.6402588 0.65625 1.5933838 0.65625q0.703125 0 1.2033081 -0.359375q0.5001831 -0.375 0.79748535 -1.203125zm-4.2332764 -2.078125l4.25 0q-0.09326172 -0.953125 -0.48364258 -1.4375q-0.62457275 -0.75 -1.6089478 -0.75q-0.875 0 -1.4846802 0.59375q-0.6096802 0.59375 -0.6727295 1.59375zm7.1799927 4.53125l0.003967285 -7.59375l1.15625 0l-5.493164E-4 1.078125q0.84436035 -1.25 2.4224854 -1.25q0.6875 0 1.2655029 0.25q0.5780029 0.234375 0.8590698 0.640625q0.28100586 0.40625 0.40576172 0.953125q0.062316895 0.359375 0.061828613 1.25l-0.0024414062 4.671875l-1.28125 0l0.0024414062 -4.625q3.6621094E-4 -0.78125 -0.15563965 -1.171875q-0.1560669 -0.390625 -0.5465698 -0.625q-0.37487793 -0.234375 -0.8905029 -0.234375q-0.8125 0 -1.4221802 0.53125q-0.59399414 0.515625 -0.59472656 1.96875l-0.0021972656 4.15625l-1.28125 0zm10.964233 -1.15625l0.18688965 1.140625q-0.54693604 0.109375 -0.98443604 0.109375q-0.6875 0 -1.0780029 -0.21875q-0.39050293 -0.21875 -0.5465698 -0.578125q-0.1560669 -0.359375 -0.15545654 -1.515625l0.0022583008 -4.375l-0.953125 0l5.493164E-4 -1.0l0.953125 0l9.765625E-4 -1.890625l1.2816162 -0.765625l-0.0013427734 2.65625l1.296875 0l-5.493164E-4 1.0l-1.296875 0l-0.002319336 4.4375q-2.4414062E-4 0.546875 0.06213379 0.71875q0.078063965 0.15625 0.21862793 0.25q0.15625 0.078125 0.453125 0.078125q0.203125 0 0.5625 -0.046875zm0.76049805 -2.0l6.713867E-4 -1.28125l3.953125 0l-6.713867E-4 1.28125l-3.953125 0z" fill-rule="nonzero"/><path fill="#000000" d="m680.3404 214.49713l1.2657471 -0.203125q0.10900879 0.765625 0.59313965 1.171875q0.4998169 0.40625 1.3748169 0.40625q0.890625 0 1.3126831 -0.359375q0.4376831 -0.359375 0.43792725 -0.84375q2.4414062E-4 -0.4375 -0.3746338 -0.6875q-0.26556396 -0.171875 -1.3123169 -0.4375q-1.4216309 -0.359375 -1.9683838 -0.609375q-0.5467529 -0.265625 -0.8277588 -0.734375q-0.28100586 -0.46875 -0.28076172 -1.015625q3.0517578E-4 -0.515625 0.21923828 -0.9375q0.23461914 -0.4375 0.64105225 -0.734375q0.29699707 -0.21875 0.8126831 -0.359375q0.53131104 -0.15625 1.125061 -0.15625q0.890625 0 1.5623779 0.265625q0.6717529 0.25 0.9996338 0.6875q0.32788086 0.4375 0.43688965 1.171875l-1.250061 0.171875q-0.09350586 -0.578125 -0.49957275 -0.90625q-0.4060669 -0.34375 -1.1560669 -0.34375q-0.890625 0 -1.2813721 0.296875q-0.3751831 0.296875 -0.3753662 0.6875q-1.2207031E-4 0.25 0.15600586 0.453125q0.15612793 0.203125 0.4998169 0.34375q0.18743896 0.078125 1.1404419 0.328125q1.3591919 0.359375 1.8903198 0.59375q0.5467529 0.234375 0.8590088 0.6875q0.3123169 0.4375 0.31195068 1.09375q-3.0517578E-4 0.640625 -0.37561035 1.21875q-0.37530518 0.5625 -1.0942383 0.875q-0.7032471 0.3125 -1.5938721 0.3125q-1.484375 0 -2.2653198 -0.609375q-0.7653198 -0.625 -0.9834595 -1.828125zm7.3601685 -1.53125q0.0010986328 -2.109375 1.173523 -3.125q0.98480225 -0.84375 2.3910522 -0.84375q1.578125 0 2.5619507 1.03125q0.9995117 1.015625 0.99853516 2.828125q-7.324219E-4 1.46875 -0.43865967 2.3125q-0.43792725 0.828125 -1.2819214 1.296875q-0.84399414 0.46875 -1.8439941 0.46875q-1.59375 0 -2.5776367 -1.015625q-0.9838257 -1.03125 -0.9828491 -2.953125zm1.328125 0q-7.324219E-4 1.453125 0.62390137 2.1875q0.6402588 0.71875 1.6090088 0.71875q0.96875 0 1.5941162 -0.71875q0.6409912 -0.734375 0.64178467 -2.234375q7.324219E-4 -1.40625 -0.63952637 -2.125q-0.6402588 -0.734375 -1.5933838 -0.734375q-0.96875 0 -1.6097412 0.71875q-0.6253662 0.71875 -0.62615967 2.1875zm12.289795 3.796875l5.493164E-4 -1.109375q-0.8912964 1.28125 -2.4225464 1.28125q-0.671875 0 -1.2498169 -0.25q-0.5780029 -0.265625 -0.8746948 -0.65625q-0.2810669 -0.390625 -0.39013672 -0.953125q-0.077941895 -0.375 -0.07751465 -1.203125l0.0024414062 -4.703125l1.28125 0l-0.0021362305 4.203125q-5.493164E-4 1.015625 0.07739258 1.359375q0.12475586 0.515625 0.51519775 0.8125q0.40612793 0.28125 0.9842529 0.28125q0.578125 0 1.0782471 -0.296875q0.5158081 -0.296875 0.71917725 -0.8125q0.21905518 -0.515625 0.21954346 -1.484375l0.0020751953 -4.0625l1.28125 0l-0.00390625 7.59375l-1.140625 0zm3.151123 0l0.00390625 -7.59375l1.15625 0l-6.1035156E-4 1.140625q0.45355225 -0.796875 0.8286743 -1.046875q0.3751831 -0.265625 0.8126831 -0.265625q0.65625 0 1.3278809 0.40625l-0.43811035 1.203125q-0.46862793 -0.28125 -0.9530029 -0.28125q-0.421875 0 -0.7657471 0.25q-0.32824707 0.25 -0.4691162 0.703125q-0.21911621 0.6875 -0.21954346 1.5l-0.0020141602 3.984375l-1.28125 0zm9.85083 -2.78125l1.2655029 0.15625q-0.20379639 1.3125 -1.0635376 2.0625q-0.8441162 0.734375 -2.0941162 0.734375q-1.5625 0 -2.5151367 -1.015625q-0.9369507 -1.03125 -0.9359741 -2.921875q6.713867E-4 -1.234375 0.40734863 -2.15625q0.40673828 -0.921875 1.2351074 -1.375q0.84399414 -0.46875 1.8127441 -0.46875q1.25 0 2.0309448 0.625q0.7808838 0.625 1.0147095 1.765625l-1.2657471 0.203125q-0.17150879 -0.765625 -0.62438965 -1.15625q-0.4529419 -0.390625 -1.0935669 -0.390625q-0.984375 0 -1.5941162 0.703125q-0.6097412 0.703125 -0.61053467 2.203125q-7.9345703E-4 1.53125 0.57696533 2.234375q0.5934448 0.6875 1.5465698 0.6875q0.75 0 1.2658081 -0.453125q0.51586914 -0.46875 0.64141846 -1.4375zm7.577942 0.328125l1.3280029 0.171875q-0.31311035 1.171875 -1.1727905 1.8125q-0.8440552 0.640625 -2.1721802 0.640625q-1.671875 0 -2.6557617 -1.015625q-0.9682007 -1.03125 -0.9672241 -2.890625q9.765625E-4 -1.921875 0.9859009 -2.96875q1.0005493 -1.0625 2.5786743 -1.0625q1.515625 0 2.4838257 1.03125q0.9682007 1.03125 0.9672241 2.921875q-6.1035156E-5 0.109375 -0.01574707 0.34375l-5.65625 0q0.061828613 1.25 0.7020874 1.921875q0.6403198 0.65625 1.5934448 0.65625q0.703125 0 1.2033081 -0.359375q0.5001831 -0.375 0.79748535 -1.203125zm-4.2332764 -2.078125l4.25 0q-0.09326172 -0.953125 -0.48364258 -1.4375q-0.6246338 -0.75 -1.6090088 -0.75q-0.875 0 -1.4846802 0.59375q-0.6096802 0.59375 -0.67266846 1.59375z" fill-rule="nonzero"/><path fill="#000000" d="m660.9012 237.84088q-1.0617676 -1.34375 -1.795227 -3.140625q-0.7334595 -1.8125 -0.7324219 -3.734375q8.544922E-4 -1.703125 0.54852295 -3.265625q0.64160156 -1.8125 1.9862671 -3.609375l0.921875 0q-0.86016846 1.484375 -1.1417236 2.125q-0.43798828 0.984375 -0.68859863 2.0625q-0.2975464 1.34375 -0.29821777 2.6875q-0.0018310547 3.453125 2.121399 6.875l-0.921875 0zm2.1184082 -6.453125l1.312561 -0.109375q0.093322754 0.78125 0.4212036 1.296875q0.34344482 0.5 1.0620728 0.8125q0.7185669 0.3125 1.6091919 0.3125q0.796875 0 1.4063721 -0.234375q0.6094971 -0.234375 0.9065552 -0.640625q0.29711914 -0.421875 0.29736328 -0.90625q2.4414062E-4 -0.5 -0.29644775 -0.859375q-0.28100586 -0.375 -0.9371338 -0.625q-0.42181396 -0.171875 -1.8747559 -0.515625q-1.4373169 -0.34375 -2.0152588 -0.65625q-0.7498169 -0.390625 -1.1245117 -0.96875q-0.35906982 -0.59375 -0.3587036 -1.3125q4.272461E-4 -0.796875 0.43829346 -1.484375q0.45343018 -0.6875 1.3129883 -1.046875q0.87524414 -0.359375 1.9377441 -0.359375q1.171875 0 2.0622559 0.375q0.8904419 0.375 1.3588257 1.109375q0.4840088 0.734375 0.5147705 1.65625l-1.328186 0.09375q-0.10882568 -1.0 -0.73358154 -1.5q-0.60913086 -0.515625 -1.8122559 -0.515625q-1.265625 0 -1.8439941 0.46875q-0.57836914 0.46875 -0.5786743 1.109375q-3.0517578E-4 0.5625 0.42138672 0.9375q0.3904419 0.359375 2.0776978 0.75q1.7029419 0.375 2.3278198 0.65625q0.92163086 0.421875 1.3588257 1.078125q0.4371338 0.640625 0.43670654 1.484375q-4.272461E-4 0.84375 -0.48516846 1.59375q-0.48480225 0.734375 -1.3912354 1.140625q-0.89086914 0.40625 -2.0158691 0.40625q-1.421875 0 -2.3903809 -0.40625q-0.95288086 -0.421875 -1.4993286 -1.25q-0.54644775 -0.828125 -0.57714844 -1.890625zm10.084839 6.28125l0.005432129 -10.5l1.171875 0l-4.8828125E-4 0.984375q0.42211914 -0.578125 0.93792725 -0.859375q0.5157471 -0.296875 1.2657471 -0.296875q0.96875 0 1.7185059 0.5q0.74975586 0.5 1.1242676 1.421875q0.37451172 0.90625 0.3739624 1.984375q-6.1035156E-4 1.171875 -0.42297363 2.109375q-0.40673828 0.921875 -1.2194824 1.421875q-0.79711914 0.5 -1.6721191 0.5q-0.640625 0 -1.1561279 -0.265625q-0.5154419 -0.28125 -0.8433838 -0.6875l-0.0018920898 3.6875l-1.28125 0zm1.159668 -6.65625q-7.324219E-4 1.453125 0.59265137 2.15625q0.6090088 0.703125 1.4527588 0.703125q0.859375 0 1.4691162 -0.71875q0.6097412 -0.734375 0.61053467 -2.25q7.9345703E-4 -1.453125 -0.60821533 -2.171875q-0.5933838 -0.734375 -1.4215088 -0.734375q-0.8125 0 -1.4535522 0.78125q-0.6409912 0.765625 -0.64178467 2.234375zm11.946533 2.8125q-0.7190552 0.609375 -1.3754272 0.859375q-0.6563721 0.25 -1.4219971 0.25q-1.25 0 -1.9215698 -0.609375q-0.6715698 -0.609375 -0.67108154 -1.5625q3.0517578E-4 -0.5625 0.25054932 -1.015625q0.25024414 -0.46875 0.6566162 -0.75q0.4220581 -0.28125 0.93774414 -0.421875q0.37506104 -0.09375 1.140686 -0.1875q1.5626221 -0.1875 2.2971191 -0.453125q0.01574707 -0.265625 0.015808105 -0.328125q4.272461E-4 -0.796875 -0.37445068 -1.109375q-0.48413086 -0.4375 -1.4528809 -0.4375q-0.921875 0 -1.3595581 0.328125q-0.42199707 0.3125 -0.6255493 1.109375l-1.265564 -0.171875q0.17230225 -0.796875 0.5631714 -1.296875q0.39093018 -0.5 1.1410522 -0.765625q0.7501221 -0.265625 1.7188721 -0.265625q0.984375 0 1.5936279 0.234375q0.6092529 0.21875 0.8903198 0.5625q0.2810669 0.34375 0.40582275 0.875q0.062316895 0.328125 0.06188965 1.1875l-9.1552734E-4 1.71875q-9.1552734E-4 1.796875 0.07696533 2.28125q0.07788086 0.46875 0.32763672 0.90625l-1.34375 0q-0.20288086 -0.40625 -0.26513672 -0.9375zm-0.10784912 -2.875q-0.7033081 0.28125 -2.0940552 0.484375q-0.796875 0.109375 -1.1251221 0.265625q-0.32818604 0.140625 -0.5158081 0.421875q-0.1720581 0.265625 -0.17218018 0.59375q-3.0517578E-4 0.515625 0.39013672 0.859375q0.3904419 0.34375 1.1404419 0.34375q0.734375 0 1.3126831 -0.3125q0.5939331 -0.328125 0.8598633 -0.890625q0.2033081 -0.4375 0.20379639 -1.296875l2.4414062E-4 -0.46875zm3.289734 3.8125l0.00390625 -7.59375l1.15625 0l-5.493164E-4 1.140625q0.4534912 -0.796875 0.8286743 -1.046875q0.37512207 -0.265625 0.8126221 -0.265625q0.65625 0 1.3278809 0.40625l-0.43811035 1.203125q-0.4685669 -0.28125 -0.9529419 -0.28125q-0.421875 0 -0.7658081 0.25q-0.32824707 0.25 -0.46905518 0.703125q-0.21911621 0.6875 -0.21954346 1.5l-0.0020751953 3.984375l-1.28125 0zm4.89624 0l0.005432129 -10.484375l1.296875 0l-0.0030517578 5.96875l3.048462 -3.078125l1.671875 0l-2.9077148 2.8125l3.1849976 4.78125l-1.578125 0l-2.5136108 -3.890625l-0.90667725 0.875l-0.0015869141 3.015625l-1.296875 0zm6.359314 0.171875l3.0524902 -10.84375l1.03125 0l-3.0524902 10.84375l-1.03125 0zm4.7300415 -3.546875l1.312561 -0.109375q0.09338379 0.78125 0.4212036 1.296875q0.34350586 0.5 1.0620728 0.8125q0.7186279 0.3125 1.6092529 0.3125q0.796875 0 1.4063721 -0.234375q0.6094971 -0.234375 0.9065552 -0.640625q0.29711914 -0.421875 0.29736328 -0.90625q2.4414062E-4 -0.5 -0.29644775 -0.859375q-0.2810669 -0.375 -0.9371338 -0.625q-0.42181396 -0.171875 -1.8747559 -0.515625q-1.4373169 -0.34375 -2.0153198 -0.65625q-0.74975586 -0.390625 -1.1244507 -0.96875q-0.35906982 -0.59375 -0.3587036 -1.3125q4.272461E-4 -0.796875 0.43823242 -1.484375q0.4534912 -0.6875 1.3130493 -1.046875q0.8751831 -0.359375 1.9376831 -0.359375q1.171875 0 2.062317 0.375q0.8904419 0.375 1.3588257 1.109375q0.4840088 0.734375 0.5147705 1.65625l-1.328186 0.09375q-0.10888672 -1.0 -0.73358154 -1.5q-0.60913086 -0.515625 -1.8122559 -0.515625q-1.265625 0 -1.8439941 0.46875q-0.57836914 0.46875 -0.5786743 1.109375q-3.0517578E-4 0.5625 0.42138672 0.9375q0.3904419 0.359375 2.0776978 0.75q1.7029419 0.375 2.3278198 0.65625q0.92163086 0.421875 1.3588257 1.078125q0.4371338 0.640625 0.43670654 1.484375q-4.272461E-4 0.84375 -0.4852295 1.59375q-0.4847412 0.734375 -1.3911743 1.140625q-0.89086914 0.40625 -2.0158691 0.40625q-1.421875 0 -2.3903809 -0.40625q-0.9529419 -0.421875 -1.4993896 -1.25q-0.54644775 -0.828125 -0.57714844 -1.890625zm15.040955 0.59375l1.265564 0.15625q-0.20385742 1.3125 -1.0635986 2.0625q-0.8441162 0.734375 -2.0941162 0.734375q-1.5625 0 -2.5151367 -1.015625q-0.9369507 -1.03125 -0.9359741 -2.921875q6.713867E-4 -1.234375 0.40740967 -2.15625q0.40667725 -0.921875 1.2350464 -1.375q0.84399414 -0.46875 1.8127441 -0.46875q1.25 0 2.0309448 0.625q0.7809448 0.625 1.0147095 1.765625l-1.2657471 0.203125q-0.17144775 -0.765625 -0.62438965 -1.15625q-0.4529419 -0.390625 -1.0935669 -0.390625q-0.984375 0 -1.5941162 0.703125q-0.6097412 0.703125 -0.61047363 2.203125q-7.9345703E-4 1.53125 0.57696533 2.234375q0.5933838 0.6875 1.5465088 0.6875q0.75 0 1.2658691 -0.453125q0.51586914 -0.46875 0.6413574 -1.4375zm7.3271484 1.84375q-0.7190552 0.609375 -1.3754272 0.859375q-0.6563721 0.25 -1.4219971 0.25q-1.25 0 -1.9215698 -0.609375q-0.6715698 -0.609375 -0.67108154 -1.5625q3.0517578E-4 -0.5625 0.25054932 -1.015625q0.25024414 -0.46875 0.6566162 -0.75q0.4220581 -0.28125 0.93774414 -0.421875q0.37506104 -0.09375 1.140686 -0.1875q1.5626221 -0.1875 2.2971191 -0.453125q0.015808105 -0.265625 0.015808105 -0.328125q4.272461E-4 -0.796875 -0.37445068 -1.109375q-0.48413086 -0.4375 -1.4528809 -0.4375q-0.921875 0 -1.3595581 0.328125q-0.42199707 0.3125 -0.6255493 1.109375l-1.265564 -0.171875q0.17230225 -0.796875 0.5631714 -1.296875q0.39093018 -0.5 1.1410522 -0.765625q0.7501221 -0.265625 1.7188721 -0.265625q0.984375 0 1.5936279 0.234375q0.6092529 0.21875 0.8903198 0.5625q0.2810669 0.34375 0.40582275 0.875q0.062316895 0.328125 0.06188965 1.1875l-9.1552734E-4 1.71875q-9.1552734E-4 1.796875 0.07696533 2.28125q0.07788086 0.46875 0.32763672 0.90625l-1.34375 0q-0.20288086 -0.40625 -0.26513672 -0.9375zm-0.10784912 -2.875q-0.7033081 0.28125 -2.0939941 0.484375q-0.79693604 0.109375 -1.1251831 0.265625q-0.32818604 0.140625 -0.5158081 0.421875q-0.1720581 0.265625 -0.17218018 0.59375q-3.0517578E-4 0.515625 0.39013672 0.859375q0.3904419 0.34375 1.1404419 0.34375q0.734375 0 1.3126831 -0.3125q0.5939331 -0.328125 0.8598633 -0.890625q0.2033081 -0.4375 0.20379639 -1.296875l2.4414062E-4 -0.46875zm3.274109 3.8125l0.005432129 -10.484375l1.28125 0l-0.005432129 10.484375l-1.28125 0zm8.241028 -0.9375q-0.7190552 0.609375 -1.3754883 0.859375q-0.6563721 0.25 -1.4219971 0.25q-1.25 0 -1.9215698 -0.609375q-0.6715088 -0.609375 -0.6710205 -1.5625q3.0517578E-4 -0.5625 0.25048828 -1.015625q0.25024414 -0.46875 0.65667725 -0.75q0.42199707 -0.28125 0.9376831 -0.421875q0.37506104 -0.09375 1.1407471 -0.1875q1.562561 -0.1875 2.2971191 -0.453125q0.01574707 -0.265625 0.015808105 -0.328125q3.6621094E-4 -0.796875 -0.37445068 -1.109375q-0.48413086 -0.4375 -1.4528809 -0.4375q-0.921875 0 -1.3595581 0.328125q-0.4220581 0.3125 -0.62561035 1.109375l-1.2655029 -0.171875q0.17230225 -0.796875 0.5631714 -1.296875q0.39086914 -0.5 1.1409912 -0.765625q0.7501831 -0.265625 1.7189331 -0.265625q0.984375 0 1.5936279 0.234375q0.6092529 0.21875 0.8903198 0.5625q0.2810669 0.34375 0.40576172 0.875q0.06237793 0.328125 0.06188965 1.1875l-8.544922E-4 1.71875q-9.1552734E-4 1.796875 0.0769043 2.28125q0.07788086 0.46875 0.32769775 0.90625l-1.34375 0q-0.2029419 -0.40625 -0.26513672 -0.9375zm-0.107910156 -2.875q-0.7032471 0.28125 -2.0939941 0.484375q-0.79693604 0.109375 -1.1251221 0.265625q-0.32818604 0.140625 -0.51586914 0.421875q-0.17199707 0.265625 -0.17218018 0.59375q-2.4414062E-4 0.515625 0.39019775 0.859375q0.3904419 0.34375 1.1404419 0.34375q0.734375 0 1.3126831 -0.3125q0.5938721 -0.328125 0.85980225 -0.890625q0.20336914 -0.4375 0.20379639 -1.296875l2.4414062E-4 -0.46875zm4.147522 6.890625l-0.921875 0q2.142395 -3.421875 2.144226 -6.875q6.713867E-4 -1.34375 -0.31115723 -2.671875q-0.24945068 -1.0625 -0.67077637 -2.046875q-0.28094482 -0.65625 -1.1551514 -2.15625l0.921875 0q1.3428345 1.796875 1.9824829 3.609375q0.54608154 1.5625 0.54522705 3.265625q-0.0010375977 1.921875 -0.7363281 3.734375q-0.7352905 1.796875 -1.798523 3.140625z" fill-rule="nonzero"/><path fill="#000000" fill-opacity="0.0" d="m615.63245 164.25711c0 23.716537 13.370056 47.433075 26.740173 47.433075" fill-rule="evenodd"/><path stroke="#cc0000" stroke-width="2.0" stroke-linejoin="round" stroke-linecap="butt" d="m615.63245 164.25711c0 11.858276 3.3424683 23.716537 8.356262 32.610245c1.253479 2.2234192 2.6113281 4.261566 4.0476074 6.0681c0.71813965 0.903244 1.4558105 1.7486267 2.2098389 2.530304c0.37701416 0.39082336 0.7581177 0.7657471 1.1428833 1.1240082l0.08508301 0.078125" fill-rule="evenodd"/><path fill="#cc0000" stroke="#cc0000" stroke-width="2.0" stroke-linecap="butt" d="m630.09155 209.66812l9.62561 0.7983856l-6.8604736 -6.7988434z" fill-rule="evenodd"/><path fill="#000000" fill-opacity="0.0" d="m761.3957 211.68275c10.031494 0 20.062988 -22.40944 20.062988 -44.818893" fill-rule="evenodd"/><path stroke="#cc0000" stroke-width="2.0" stroke-linejoin="round" stroke-linecap="butt" d="m761.3957 211.68277c5.015747 0 10.031494 -5.602371 13.793274 -14.005905c1.8809204 -4.201782 3.4483643 -9.103851 4.545532 -14.356064c0.274292 -1.3130493 0.51916504 -2.6479797 0.7322998 -3.9993439l0.074523926 -0.49269104" fill-rule="evenodd"/><path fill="#cc0000" stroke="#cc0000" stroke-width="2.0" stroke-linecap="butt" d="m783.83514 179.08128l-2.5999756 -9.30217l-3.987671 8.797104z" fill-rule="evenodd"/></g></svg>